<?xml version="1.0" encoding="UTF-8" standalone="no"?>
<!-- Created with Inkscape (http://www.inkscape.org/) -->

<svg
   xmlns:dc="http://purl.org/dc/elements/1.1/"
   xmlns:cc="http://creativecommons.org/ns#"
   xmlns:rdf="http://www.w3.org/1999/02/22-rdf-syntax-ns#"
   xmlns:svg="http://www.w3.org/2000/svg"
   xmlns="http://www.w3.org/2000/svg"
   xmlns:sodipodi="http://sodipodi.sourceforge.net/DTD/sodipodi-0.dtd"
   xmlns:inkscape="http://www.inkscape.org/namespaces/inkscape"
   width="297mm"
   height="210mm"
   id="svg2"
   version="1.1"
   inkscape:version="0.92.3 (2405546, 2018-03-11)"
   sodipodi:docname="PhotoGhostCostume-undecorated-d-2.svg"
   inkscape:export-filename="/home/christian/SportsCar.svg.png"
   inkscape:export-xdpi="138.06"
   inkscape:export-ydpi="138.06">
  <defs
     id="defs4" />
  <sodipodi:namedview
     id="base"
     pagecolor="#ffffff"
     bordercolor="#666666"
     borderopacity="1.0"
     inkscape:pageopacity="0.0"
     inkscape:pageshadow="2"
     inkscape:zoom="0.5"
     inkscape:cx="152.55779"
     inkscape:cy="303.19153"
     inkscape:document-units="mm"
     inkscape:current-layer="layer1"
     showgrid="false"
     units="mm"
     inkscape:window-width="1920"
     inkscape:window-height="1080"
     inkscape:window-x="1920"
     inkscape:window-y="0"
     inkscape:window-maximized="0"
     inkscape:snap-global="false" />
  <metadata
     id="metadata7">
    <rdf:RDF>
      <cc:Work
         rdf:about="">
        <dc:format>image/svg+xml</dc:format>
        <dc:type
           rdf:resource="http://purl.org/dc/dcmitype/StillImage" />
        <dc:title />
      </cc:Work>
    </rdf:RDF>
  </metadata>
  <g
     inkscape:label="Mask"
     inkscape:groupmode="layer"
     id="Mask"
     style="display:inline;opacity:1"
     transform="translate(0,-328.81888)">
    <rect
       style="display:inline;opacity:1;fill:none;fill-opacity:1;stroke:#808080;stroke-width:0.75590551;stroke-linecap:round;stroke-linejoin:round;stroke-miterlimit:4;stroke-dasharray:none;stroke-dashoffset:0;stroke-opacity:1"
       id="rect814"
       width="566.14978"
       x="461.492"
       y="-793.3111"
       heightx="549.12811"
       height="377.17337"
       transform="rotate(90)" />
  </g>
  <g
     inkscape:groupmode="layer"
     id="layer1"
     inkscape:label="Overlay"
     style="display:inline"
     transform="translate(0,-328.81888)">
    <path
       style="display:inline;opacity:1;vector-effect:none;fill:none;fill-opacity:0.97647059;stroke:#c0c0c0;stroke-width:0.37795275;stroke-linecap:round;stroke-linejoin:round;stroke-miterlimit:4;stroke-dasharray:none;stroke-dashoffset:0;stroke-opacity:1"
       d="m 634.28433,505.15091 c -6.12591,-0.0779 -12.18635,1.05123 -17.42773,3.11914 -10.48277,4.13582 -16.79049,10.45842 -23,22.75 -6.20951,12.29158 -6.05138,35.25228 -7.25,49.75 -1.19862,14.49772 -2.1859,24.46973 -1.10352,30.63477 0.37527,4.57405 -2.1513,8.73854 -6.98828,7.30468 -8.51215,-2.42683 -26.99229,-9.50389 -42.36328,-15.1875 -8.31165,-3.07333 -13.15364,-8.12105 -17.04492,-7.25195 -9.25968,-15.8837 -20.51964,-38.36862 -26,-52 -2.51742,-6.26162 -4.21904,-9.73135 -4.73828,-17.04101 -0.51924,-7.30966 -0.89929,-11.95094 -7.1543,-15.71875 -12.6173,-7.52027 -21.55597,4.45288 -22.85742,15.50976 -1.37231,11.65891 -1.37412,19.23592 1.23828,44.53516 1.22287,11.84262 0.44237,17.4341 0.006,31.23242 -2.08354,65.90145 22.23847,179.80586 49.75586,221.73242 7.42071,32.03802 29.7302,58.18856 51.25,69.5 8.57024,14.78401 23.83695,28.77053 36.15234,33.70703 0.81431,12.85313 0.94566,24.26738 -0.58007,31.7168 -7.6417,12.53066 -13.00497,21.14722 -11.41993,28.24609 1.53414,6.87088 11.61707,6.80247 18.31446,4.63282 11.25877,-3.64733 15.49729,-22.57783 17.85547,-32.52539 0.31629,-8.45318 -1.7435,-14.66709 -1.23047,-21.47657 5.50064,0.44142 9.16895,-2.18484 11.6582,-1.55078 2.56436,0.65319 1.51802,0.83554 5,-0.25 5.4617,-1.70273 7.07036,1.19043 11.86133,1.94531 0.15088,5.2158 0.15579,13.10365 -0.39844,17.09961 0.48935,6.10929 0.58947,8.41477 3.86719,14.83789 3.39269,6.64842 8.47779,13.35428 14.08789,15.62696 10.02135,4.0597 22.56171,3.58759 20.38476,-6.4336 -2.27938,-10.49268 -9.91625,-21.31572 -14.49609,-26.87109 0.28726,-3.56085 0.58727,-8.83918 0.87695,-14.9375 7.09782,0.73861 14.97545,1.05136 19.12891,-0.64258 2.32712,-0.94909 1.25698,-3.33352 1.1875,-7.375 3.30552,0.89602 20.38379,3.29887 21.75,0.5 2.41727,-3.54792 -1.77375,-34.15814 -1.75,-46 5.43345,0.004 9.95723,-0.57874 13.3529,-1.63358 2.22471,0.14004 3.58859,-0.0776 5.02252,-0.73578 2.25995,0.031 4.60503,-0.58983 6.87458,-2.13064 7.79369,-5.29118 15.49747,-14.41235 16.25,-26.25 0.75101,-11.81377 -6.01609,-34.99306 -19.36179,-41.93122 -6.20663,-2.75759 -9.03764,-1.89404 -15.76321,-1.56878 -0.55041,-4.18757 -2.5914,-9.24379 -5.375,-13.25 -4.98225,-7.17055 -8.72228,-17.40154 -11,-40.25 -2.17184,-21.78628 -2.98731,-63.55566 -5,-89.5 -1.65615,-21.34851 -2.56952,-31.2729 -18.27734,-46.99219 -1.64691,-1.25878 -1.43152,-5.14364 -1.97266,-8.00781 -4.05722,-21.47424 4.77601,-55.07408 -1.5,-72.5 -6.27601,-17.42592 -12.99006,-24.73701 -24,-30.25 -5.50497,-2.75649 -11.69635,-4.04128 -17.82227,-4.11914 z"
       id="path911"
       inkscape:connector-curvature="0"
       sodipodi:nodetypes="csssccscsscsscccccssccscccsssccscccccssccssscssscc" />
    <path
       style="display:inline;opacity:1;vector-effect:none;fill:none;fill-opacity:0.97647059;stroke:#c0c0c0;stroke-width:0.37795275;stroke-linecap:round;stroke-linejoin:round;stroke-miterlimit:4;stroke-dasharray:none;stroke-dashoffset:0;stroke-opacity:1"
       d="m 588.6066,835.26967 c 2.32027,9.18643 6.10815,22.93229 8.08386,33.49695 2.77036,14.81384 3.68567,26.61805 6.98663,39.30947 4.01252,15.42718 8.93802,27.20244 16.04305,30.25958"
       id="path957"
       inkscape:connector-curvature="0"
       sodipodi:nodetypes="cssc" />
    <path
       style="display:inline;opacity:1;vector-effect:none;fill:none;fill-opacity:0.97647059;stroke:#c0c0c0;stroke-width:0.37795275;stroke-linecap:round;stroke-linejoin:round;stroke-miterlimit:4;stroke-dasharray:none;stroke-dashoffset:0;stroke-opacity:1"
       d="m 737.80428,813.36269 c 1.7174,5.62719 -6.01929,13.01702 -16.35238,10.88676 -8.0011,-1.6495 -13.06572,-0.77057 -18.5953,-1.97978 -1.42115,-0.31078 -2.97981,-0.69793 -4.53944,-1.04822 -1.97086,-3.90605 -8.05407,-2.72201 -10.21056,0.54822 -6.67529,8.3836 -11.06431,21.35429 -11,31 -0.004,9.16247 -1.05,20.67782 9.48483,26.60355 4.22201,2.37484 9.67429,4.07378 12.79642,2.1777"
       id="path967"
       inkscape:connector-curvature="0"
       sodipodi:nodetypes="csscccsc" />
    <path
       style="display:inline;opacity:1;vector-effect:none;fill:none;fill-opacity:0.97647059;stroke:#c0c0c0;stroke-width:0.37795275;stroke-linecap:round;stroke-linejoin:round;stroke-miterlimit:4;stroke-dasharray:none;stroke-dashoffset:0;stroke-opacity:1"
       d="m 703.55649,822.4475 c -7.01019,17.35682 -11.76672,34.60728 -5.61266,56.04926 1.42388,4.96109 5.63495,6.74992 14.88049,5.78385"
       id="path969"
       inkscape:connector-curvature="0"
       sodipodi:nodetypes="csc" />
    <path
       style="display:inline;opacity:1;vector-effect:none;fill:none;fill-opacity:0.97647059;stroke:#c0c0c0;stroke-width:0.37795275;stroke-linecap:round;stroke-linejoin:round;stroke-miterlimit:4;stroke-dasharray:none;stroke-dashoffset:0;stroke-opacity:1"
       d="m 721.49802,824.3602 c -4.09582,3.24278 -6.00414,6.98798 -6.8617,11.37693 -2.59326,13.27214 -4.20332,29.66995 4.03154,42.74037 1.53154,2.43087 4.94557,3.6939 7.43096,4.16815"
       id="path971"
       inkscape:connector-curvature="0"
       sodipodi:nodetypes="cssc" />
    <path
       style="display:inline;opacity:1;vector-effect:none;fill:none;fill-opacity:0.97647059;stroke:#c0c0c0;stroke-width:0.37795275;stroke-linecap:round;stroke-linejoin:round;stroke-miterlimit:4;stroke-dasharray:none;stroke-dashoffset:0;stroke-opacity:1"
       d="m 731.35462,823.69598 c 8.15604,8.0929 9.32,27.15386 7.24858,44.9924 -0.58371,5.02672 -3.91299,9.3232 -7.24857,13.12295"
       id="path973"
       inkscape:connector-curvature="0"
       sodipodi:nodetypes="csc" />
    <path
       style="display:inline;opacity:1;vector-effect:none;fill:none;fill-opacity:0.97647059;stroke:#c0c0c0;stroke-width:0.37795275;stroke-linecap:round;stroke-linejoin:round;stroke-miterlimit:4;stroke-dasharray:none;stroke-dashoffset:0;stroke-opacity:1"
       d="m 719.2941,810.20717 c 0.28999,5.17011 -2.56147,10.31821 -4.4375,13.25"
       id="path975"
       inkscape:connector-curvature="0"
       sodipodi:nodetypes="cc" />
    <path
       style="display:inline;opacity:1;vector-effect:none;fill:none;fill-opacity:0.97647059;stroke:#c0c0c0;stroke-width:0.37795275;stroke-linecap:round;stroke-linejoin:round;stroke-miterlimit:4;stroke-dasharray:none;stroke-dashoffset:0;stroke-opacity:1"
       d="m 675.1066,743.76967 c 1.85006,34.75222 12.52668,59.58235 16.15625,75.46875"
       id="path977"
       inkscape:connector-curvature="0"
       sodipodi:nodetypes="cc" />
    <path
       style="opacity:1;fill:none;fill-opacity:1;stroke:#c0c0c0;stroke-width:0.37795275;stroke-linecap:round;stroke-linejoin:round;stroke-miterlimit:4;stroke-dasharray:none;stroke-dashoffset:0;stroke-opacity:1"
       d="m 603.51577,591.30556 c 11.98895,16.73634 37.13914,26.26502 56.98536,-1.66681 1.73824,-2.44644 2.45112,-11.28662 -4.50781,-9.19239 -14.0585,4.23078 -31.83333,7.47425 -43.55033,1.8436 -6.85492,-3.29417 -12.11998,4.55857 -8.92722,9.0156 z"
       id="path924"
       inkscape:connector-curvature="0"
       sodipodi:nodetypes="sssss" />
    <path
       style="opacity:1;vector-effect:none;fill:none;fill-opacity:0.97647059;stroke:#c0c0c0;stroke-width:0.37795275;stroke-linecap:round;stroke-linejoin:round;stroke-miterlimit:4;stroke-dasharray:none;stroke-dashoffset:0;stroke-opacity:1"
       d="m 609.64387,535.19642 c -2.83521,8.3085 -1.96945,16.99522 -1.32582,25.27907 0.41107,5.29079 11.13986,8.77221 13.16986,-0.97228 1.20946,-5.80571 2.08583,-20.23812 1.14905,-25.63262 -0.91535,-5.27112 -10.67147,-5.47762 -12.99309,1.32583 z"
       id="path931"
       inkscape:connector-curvature="0"
       sodipodi:nodetypes="sssss" />
    <path
       style="display:inline;opacity:1;vector-effect:none;fill:none;fill-opacity:0.97647059;stroke:#c0c0c0;stroke-width:0.37795275;stroke-linecap:round;stroke-linejoin:round;stroke-miterlimit:4;stroke-dasharray:none;stroke-dashoffset:0;stroke-opacity:1"
       d="m 655.74582,533.78731 c 2.83521,8.3085 0.61514,17.30008 -0.97228,25.45585 -1.02979,5.29079 -9.01854,9.65609 -11.04854,-0.0884 -1.20946,-5.80571 -1.11356,-21.21039 -0.17678,-26.60489 0.91535,-5.27112 9.87598,-5.56601 12.1976,1.23744 z"
       id="path931-3"
       inkscape:connector-curvature="0"
       sodipodi:nodetypes="sssss" />
    <path
       style="opacity:1;vector-effect:none;fill:none;fill-opacity:0.97647059;stroke:#c0c0c0;stroke-width:0.37795275;stroke-linecap:round;stroke-linejoin:round;stroke-miterlimit:4;stroke-dasharray:none;stroke-dashoffset:0;stroke-opacity:1"
       d="m 519.1066,596.26967 c 3.59978,6.45195 3.83345,12.70589 4.75,19"
       id="path948"
       inkscape:connector-curvature="0"
       sodipodi:nodetypes="cc" />
    <path
       style="opacity:1;vector-effect:none;fill:none;fill-opacity:0.97647059;stroke:#c0c0c0;stroke-width:0.37795275;stroke-linecap:round;stroke-linejoin:round;stroke-miterlimit:4;stroke-dasharray:none;stroke-dashoffset:0;stroke-opacity:1"
       d="m 578.93015,618.82838 c 2.39146,0.62899 4.73479,3.87307 13.05145,21.37879"
       id="path950"
       inkscape:connector-curvature="0"
       sodipodi:nodetypes="cc" />
    <path
       style="opacity:1;vector-effect:none;fill:none;fill-opacity:0.97647059;stroke:#c0c0c0;stroke-width:0.37795275;stroke-linecap:round;stroke-linejoin:round;stroke-miterlimit:4;stroke-dasharray:none;stroke-dashoffset:0;stroke-opacity:1"
       d="m 494.21015,742.12322 c 3.75867,27.57092 10.75573,58.01309 15.16508,82.35919"
       id="path952"
       inkscape:connector-curvature="0"
       sodipodi:nodetypes="cc" />
    <path
       style="opacity:1;vector-effect:none;fill:none;fill-opacity:0.97647059;stroke:#c0c0c0;stroke-width:0.37795275;stroke-linecap:round;stroke-linejoin:round;stroke-miterlimit:4;stroke-dasharray:none;stroke-dashoffset:0;stroke-opacity:1"
       d="m 538.66803,824.40309 c 0.90334,2.01273 1.8179,4.17195 2.21284,5.95084 5.15224,23.20639 12.12852,41.85548 19.81795,63.74338"
       id="path954"
       inkscape:connector-curvature="0"
       sodipodi:nodetypes="csc" />
    <path
       style="opacity:1;vector-effect:none;fill:none;fill-opacity:0.97647059;stroke:#c0c0c0;stroke-width:0.37795275;stroke-linecap:round;stroke-linejoin:round;stroke-miterlimit:4;stroke-dasharray:none;stroke-dashoffset:0;stroke-opacity:1"
       d="m 596.78337,927.72907 c 6.29162,2.54145 11.96256,5.02724 18.05332,6.84457"
       id="path959"
       inkscape:connector-curvature="0"
       sodipodi:nodetypes="cc" />
    <path
       style="opacity:1;vector-effect:none;fill:none;fill-opacity:0.97647059;stroke:#c0c0c0;stroke-width:0.37795275;stroke-linecap:round;stroke-linejoin:round;stroke-miterlimit:4;stroke-dasharray:none;stroke-dashoffset:0;stroke-opacity:1"
       d="m 662.9816,821.14467 c -3.35718,18.87616 -0.90819,33.65122 -2.43228,59.36288 -0.42091,7.10094 -3.32747,25.99252 -3.91754,34.23399 -1.45419,20.31045 -2.42039,25.56482 -8.4158,23.73125"
       id="path961"
       inkscape:connector-curvature="0"
       sodipodi:nodetypes="cssc" />
    <path
       style="opacity:1;vector-effect:none;fill:none;fill-opacity:0.97647059;stroke:#c0c0c0;stroke-width:0.37795275;stroke-linecap:round;stroke-linejoin:round;stroke-miterlimit:4;stroke-dasharray:none;stroke-dashoffset:0;stroke-opacity:1"
       d="m 672.5441,937.78529 c -7.15782,-0.75113 -12.62821,-5.10037 -17.15625,-9.26562"
       id="path963"
       inkscape:connector-curvature="0"
       sodipodi:nodetypes="cc" />
    <path
       style="opacity:1;vector-effect:none;fill:none;fill-opacity:0.97647059;stroke:#c0c0c0;stroke-width:0.37795275;stroke-linecap:round;stroke-linejoin:round;stroke-miterlimit:4;stroke-dasharray:none;stroke-dashoffset:0;stroke-opacity:1"
       d="m 696.75059,892.28534 c -2.34772,7.77925 -2.90045,13.98787 -3.40295,20.15255 -0.5083,5.74216 -1.02347,11.48356 -0.49719,17.34068"
       id="path965"
       inkscape:connector-curvature="0"
       sodipodi:nodetypes="ccc" />
  </g>
</svg>
