<?xml version="1.0" encoding="UTF-8" standalone="no"?>
<!-- Created with Inkscape (http://www.inkscape.org/) -->

<svg
   xmlns:dc="http://purl.org/dc/elements/1.1/"
   xmlns:cc="http://creativecommons.org/ns#"
   xmlns:rdf="http://www.w3.org/1999/02/22-rdf-syntax-ns#"
   xmlns:svg="http://www.w3.org/2000/svg"
   xmlns="http://www.w3.org/2000/svg"
   xmlns:sodipodi="http://sodipodi.sourceforge.net/DTD/sodipodi-0.dtd"
   xmlns:inkscape="http://www.inkscape.org/namespaces/inkscape"
   width="297mm"
   height="210mm"
   id="svg2"
   version="1.1"
   inkscape:version="0.92.3 (2405546, 2018-03-11)"
   sodipodi:docname="SemiTruckCabOver-undecorated-d-2.svg"
   inkscape:export-filename="/home/christian/SportsCar.svg.png"
   inkscape:export-xdpi="138.06"
   inkscape:export-ydpi="138.06">
  <defs
     id="defs4" />
  <sodipodi:namedview
     id="base"
     pagecolor="#ffffff"
     bordercolor="#666666"
     borderopacity="1.0"
     inkscape:pageopacity="0.0"
     inkscape:pageshadow="2"
     inkscape:zoom="1"
     inkscape:cx="780.64744"
     inkscape:cy="391.64865"
     inkscape:document-units="mm"
     inkscape:current-layer="layer1"
     showgrid="false"
     units="mm"
     inkscape:window-width="1920"
     inkscape:window-height="1080"
     inkscape:window-x="1920"
     inkscape:window-y="0"
     inkscape:window-maximized="0"
     inkscape:snap-global="false" />
  <metadata
     id="metadata7">
    <rdf:RDF>
      <cc:Work
         rdf:about="">
        <dc:format>image/svg+xml</dc:format>
        <dc:type
           rdf:resource="http://purl.org/dc/dcmitype/StillImage" />
        <dc:title />
      </cc:Work>
    </rdf:RDF>
  </metadata>
  <g
     inkscape:label="Mask"
     inkscape:groupmode="layer"
     id="Mask"
     style="display:inline;opacity:1"
     transform="translate(0,-328.81888)">
    <path
       style="display:inline;opacity:1;fill:#ffffff;fill-opacity:1;stroke:#808080;stroke-width:0.75590551;stroke-linecap:round;stroke-linejoin:round;stroke-miterlimit:4;stroke-dasharray:none;stroke-opacity:1"
       d="m 457.21444,860.6609 h 32.21374 c 0,0 -0.83107,-52.78213 48.24615,-52.78213 48.26357,0 48.24615,52.78213 48.24615,52.78213 H 727.4045 c -0.97986,-0.32662 6.20613,-47.61239 49.00253,-46.68529 47.30682,1.02481 47.93262,46.72617 47.64641,46.68529 h 6.1902 v -8.45867 l 3.82106,-0.17678 c 1.71758,-5.68439 1.84112,-10.72255 -0.0364,-14.94945 h -3.78466 c -0.20115,-10.48456 -1.47201,-33.47482 -11.6813,-33.47482 L 627.46187,801.41722 V 583.65288 c 0.18259,-2.11322 -2.63541,-9.07248 -3.9537,-8.88236 -15.51379,2.23733 -31.06829,7.85103 -46.18249,9.38335 -44.5008,4.51162 -85.18475,10.4629 -109.77494,27.34477 -2.81251,-1.63942 -5.81735,-6.0111 -9.94723,-6.99183 h -2.71908 v 18.43722 c -4.67144,5.70143 -8.05213,12.29548 -9.91645,19.95656 -0.006,59.47451 0.0462,153.27405 -0.07,212.74847 0,5.08054 9.2234,5.01184 12.31646,5.01184 z"
       id="path919"
       inkscape:connector-curvature="0"
       sodipodi:nodetypes="ccsccscccccccccssccccccc" />
    <circle
       style="display:inline;opacity:1;fill:#ffffff;fill-opacity:1;stroke:#808080;stroke-width:0.75590551;stroke-linecap:round;stroke-linejoin:round;stroke-miterlimit:4;stroke-dasharray:none;stroke-opacity:1"
       id="path921"
       cx="537.67432"
       cy="859.13483"
       r="39.233658" />
    <circle
       style="display:inline;opacity:1;fill:#ffffff;fill-opacity:1;stroke:#808080;stroke-width:0.75590551;stroke-linecap:round;stroke-linejoin:round;stroke-miterlimit:4;stroke-dasharray:none;stroke-opacity:1"
       id="path921-6"
       cx="775.92267"
       cy="859.13483"
       r="39.233658" />
  </g>
  <g
     inkscape:groupmode="layer"
     id="layer1"
     inkscape:label="Overlay"
     style="display:inline"
     transform="translate(0,-328.81888)">
    <path
       style="display:inline;opacity:1;fill:none;stroke:#c0c0c0;stroke-width:0.37795275;stroke-linecap:round;stroke-linejoin:round;stroke-miterlimit:4;stroke-dasharray:none;stroke-opacity:1"
       d="m 466.35032,822.31138 c -4.81429,0.17667 -6.44205,1.478 -6.59778,3.29888 v 13.40172 h 31.1189 v -13.40172 c 1.6e-4,-1.28922 -2.40962,-3.29888 -6.59776,-3.29888 z"
       id="path944-7"
       inkscape:connector-curvature="0"
       sodipodi:nodetypes="ccccccc" />
    <path
       style="display:inline;opacity:1;fill:none;stroke:#c0c0c0;stroke-width:0.37795275;stroke-linecap:round;stroke-linejoin:round;stroke-miterlimit:4;stroke-dasharray:none;stroke-opacity:1"
       d="m 458.19995,785.19752 c -0.15667,4.29037 1.47781,8.44106 6.0257,8.65958 l 86.20561,-9.54594 c 6.90885,-0.84554 9.25417,-2.15476 9.62168,-8.62839 V 641.07905 c -0.14035,-3.94523 -0.52317,-10.72744 -6.59777,-9.89664 l -84.53385,13.60788 c -5.22914,1.23118 -10.33386,2.58675 -10.72137,8.65956 z"
       id="path961"
       inkscape:connector-curvature="0"
       sodipodi:nodetypes="ccccccccc" />
    <path
       style="display:inline;opacity:1;fill:none;stroke:#c0c0c0;stroke-width:0.37799999;stroke-linecap:round;stroke-linejoin:round;stroke-miterlimit:4;stroke-dasharray:none;stroke-opacity:1"
       d="m 444.85989,645.0254 6.49468,-1.87092 c 2.14362,0.0883 2.2853,2.42891 2.26798,4.94832 v 86.56945 c -0.25661,4.27413 -1.5169,6.56479 -4.94833,6.80395 h -3.39035"
       id="path963"
       inkscape:connector-curvature="0"
       sodipodi:nodetypes="cccccc" />
    <path
       style="display:inline;opacity:1;fill:none;stroke:#c0c0c0;stroke-width:0.37795275;stroke-linecap:round;stroke-linejoin:round;stroke-miterlimit:4;stroke-dasharray:none;stroke-opacity:1"
       d="m 461.13572,721.94563 93.37722,-2.22957 0.58318,-74.64518 c -0.44143,-5.43639 -3.34228,-8.53398 -9.33065,-7.87273 l -75.81152,12.53805 c -6.50981,1.46484 -8.34197,7.97134 -8.81823,17.39187 z"
       id="path965"
       inkscape:connector-curvature="0"
       sodipodi:nodetypes="ccccccc" />
    <path
       style="display:inline;opacity:1;fill:none;stroke:#c0c0c0;stroke-width:0.37795275;stroke-linecap:round;stroke-linejoin:round;stroke-miterlimit:4;stroke-dasharray:none;stroke-opacity:1"
       d="m 466.19828,841.69231 c -4.81428,0.17667 -6.54513,1.49089 -6.59777,3.29888 v 13.40171 h 27.66279 v -13.40171 c 1.6e-4,-1.28922 -2.40962,-3.29888 -6.59776,-3.29888 z"
       id="path944-7-5"
       inkscape:connector-curvature="0"
       sodipodi:nodetypes="ccccccc" />
    <path
       style="display:inline;opacity:1;fill:none;stroke:#c0c0c0;stroke-width:0.37795275;stroke-linecap:round;stroke-linejoin:round;stroke-miterlimit:4;stroke-dasharray:none;stroke-opacity:1"
       d="m 527.17706,757.91339 h 21.86871 c 2.18354,-2.19851 1.69093,-3.99561 0,-5.61297 h -21.86871 c -2.2322,1.97245 -2.04261,3.83483 0,5.61297 z"
       id="path982"
       inkscape:connector-curvature="0"
       sodipodi:nodetypes="ccccc" />
    <path
       style="display:inline;opacity:1;fill:none;stroke:#c0c0c0;stroke-width:0.37795275;stroke-linecap:round;stroke-linejoin:round;stroke-miterlimit:4;stroke-dasharray:none;stroke-opacity:1"
       d="m 531.36329,752.22754 c 4.93743,-4.93998 9.95768,-5.40599 15.0894,0.14579"
       id="path984"
       inkscape:connector-curvature="0"
       sodipodi:nodetypes="cc" />
    <path
       style="display:inline;opacity:1;fill:none;stroke:#c0c0c0;stroke-width:0.37795275;stroke-linecap:round;stroke-linejoin:round;stroke-miterlimit:4;stroke-dasharray:none;stroke-opacity:1"
       d="m 531.36329,757.88414 c 4.93743,4.93997 9.95768,5.40598 15.0894,-0.1458"
       id="path984-3"
       inkscape:connector-curvature="0"
       sodipodi:nodetypes="cc" />
    <circle
       style="display:inline;opacity:1;fill:none;fill-opacity:1;stroke:#c0c0c0;stroke-width:0.37795275;stroke-linecap:round;stroke-linejoin:round;stroke-miterlimit:4;stroke-dasharray:none;stroke-opacity:1"
       id="path1003"
       cx="537.67432"
       cy="859.13477"
       r="22.451872" />
    <circle
       style="display:inline;opacity:1;fill:none;fill-opacity:1;stroke:#c0c0c0;stroke-width:0.37795275;stroke-linecap:round;stroke-linejoin:round;stroke-miterlimit:4;stroke-dasharray:none;stroke-opacity:1"
       id="path1003-6"
       cx="775.92267"
       cy="859.13477"
       r="22.451874" />
    <path
       style="display:inline;opacity:1;fill:none;stroke:#c0c0c0;stroke-width:0.37795275;stroke-linecap:round;stroke-linejoin:round;stroke-miterlimit:4;stroke-dasharray:none;stroke-opacity:1"
       d="m 830.26566,852.0731 -0.0515,-14.94806"
       id="path1028"
       inkscape:connector-curvature="0"
       sodipodi:nodetypes="cc" />
    <path
       style="opacity:1;vector-effect:none;fill:none;fill-opacity:1;stroke:#c0c0c0;stroke-width:0.37795275;stroke-linecap:round;stroke-linejoin:round;stroke-miterlimit:4;stroke-dasharray:none;stroke-dashoffset:0;stroke-opacity:1"
       d="m 445.12272,797.69795 h 5.81218 c 2.78728,0 3.27754,2.66184 3.18198,5.83363 v 22.09709 c 0,2.15856 -1.93476,3.38064 -2.5481,3.59987 l -6.71135,2.26823"
       id="path903"
       inkscape:connector-curvature="0"
       sodipodi:nodetypes="cccccc" />
    <path
       style="display:inline;opacity:1;vector-effect:none;fill:none;fill-opacity:1;stroke:#c0c0c0;stroke-width:0.37795275;stroke-linecap:round;stroke-linejoin:round;stroke-miterlimit:4;stroke-dasharray:none;stroke-dashoffset:0;stroke-opacity:1"
       d="m 454.85743,623.02957 v 1.8125 h 2.74608 c 5.72691,0.22797 5.42778,-3.37631 9.22267,-4.28125 0.79508,-2.76984 1.32715,-5.66345 0.71875,-9.09375"
       id="path96"
       inkscape:connector-curvature="0"
       sodipodi:nodetypes="ccccc" />
  </g>
</svg>
