<?xml version="1.0" encoding="UTF-8" standalone="no"?>
<!-- Created with Inkscape (http://www.inkscape.org/) -->

<svg
   xmlns:dc="http://purl.org/dc/elements/1.1/"
   xmlns:cc="http://creativecommons.org/ns#"
   xmlns:rdf="http://www.w3.org/1999/02/22-rdf-syntax-ns#"
   xmlns:svg="http://www.w3.org/2000/svg"
   xmlns="http://www.w3.org/2000/svg"
   xmlns:sodipodi="http://sodipodi.sourceforge.net/DTD/sodipodi-0.dtd"
   xmlns:inkscape="http://www.inkscape.org/namespaces/inkscape"
   width="297mm"
   height="210mm"
   id="svg2"
   version="1.1"
   inkscape:version="0.92.3 (2405546, 2018-03-11)"
   sodipodi:docname="SemiTruckConventionalCab-undecorated-d-1.svg"
   inkscape:export-filename="/home/christian/SportsCar.svg.png"
   inkscape:export-xdpi="138.06"
   inkscape:export-ydpi="138.06">
  <defs
     id="defs4" />
  <sodipodi:namedview
     id="base"
     pagecolor="#ffffff"
     bordercolor="#666666"
     borderopacity="1.0"
     inkscape:pageopacity="0.0"
     inkscape:pageshadow="2"
     inkscape:zoom="1.4142136"
     inkscape:cx="796.62997"
     inkscape:cy="434.29763"
     inkscape:document-units="mm"
     inkscape:current-layer="Mask"
     showgrid="false"
     units="mm"
     inkscape:window-width="1920"
     inkscape:window-height="1080"
     inkscape:window-x="1920"
     inkscape:window-y="0"
     inkscape:window-maximized="0"
     inkscape:snap-global="false" />
  <metadata
     id="metadata7">
    <rdf:RDF>
      <cc:Work
         rdf:about="">
        <dc:format>image/svg+xml</dc:format>
        <dc:type
           rdf:resource="http://purl.org/dc/dcmitype/StillImage" />
        <dc:title />
      </cc:Work>
    </rdf:RDF>
  </metadata>
  <g
     inkscape:label="Mask"
     inkscape:groupmode="layer"
     id="Mask"
     style="display:inline;opacity:1"
     transform="translate(0,-328.81888)">
    <path
       style="display:inline;opacity:1;fill:#ffffff;fill-opacity:1;stroke:#808080;stroke-width:0.75590551;stroke-linecap:round;stroke-linejoin:round;stroke-miterlimit:4;stroke-dasharray:none;stroke-opacity:1"
       d="m 364.21444,851.72822 h 18.21374 c 0,0 -0.83107,-47.3924 48.24615,-47.3924 48.26357,0 48.24615,47.3924 48.24615,47.3924 h 202.02335 c 0,-22.38102 8.47845,-47.3924 45.60839,-47.3924 37.75478,0 46.49227,29.00221 46.49227,47.3924 h 9.36001 c 0,-18.71644 12.92815,-48.17388 49.00253,-47.3924 35.29164,0.76452 47.64641,27.162 47.64641,47.3924 h 6.1902 v -8.45867 l 3.82106,-0.17678 c 1.71758,-5.68439 1.84112,-10.72255 -0.0364,-14.94945 h -3.78466 c -0.20115,-10.48456 -1.47201,-35.65878 -11.6813,-35.65878 H 656.87177 V 612.69873 l -7.74319,0.0811 v -68.24251 c 0.21279,-1.49082 1.82395,-3.33149 4.54108,-3.4081 l 0.13895,-7.37528 c -6.79807,0.0208 -13.87142,2.77041 -13.87142,10.78338 v 68.33875 l -8.16771,0.0855 v 10.25 H 507.82389 c -7.68959,0.0472 -15.40813,2.70262 -18.64394,10.75633 h 10.78803 l -7.8052,80.02374 -126.24573,8.80179 v -2.69291 h -10.01907 v 95.66914 h -4 v 30.94671 c 0,5.08054 9.2234,5.01184 12.31646,5.01184 z"
       id="path919"
       inkscape:connector-curvature="0"
       sodipodi:nodetypes="ccscccccsccccccccccccccccccccccccccccc" />
    <circle
       style="display:inline;opacity:1;fill:#ffffff;fill-opacity:1;stroke:#808080;stroke-width:0.75590551;stroke-linecap:round;stroke-linejoin:round;stroke-miterlimit:4;stroke-dasharray:none;stroke-opacity:1"
       id="path921"
       cx="429.84589"
       cy="850.20215"
       r="39.233658" />
    <circle
       style="display:inline;opacity:1;fill:#ffffff;fill-opacity:1;stroke:#808080;stroke-width:0.75590551;stroke-linecap:round;stroke-linejoin:round;stroke-miterlimit:4;stroke-dasharray:none;stroke-opacity:1"
       id="path921-6"
       cx="830.92267"
       cy="850.20215"
       r="39.233658" />
    <circle
       style="display:inline;opacity:1;fill:#ffffff;fill-opacity:1;stroke:#808080;stroke-width:0.75590551;stroke-linecap:round;stroke-linejoin:round;stroke-miterlimit:4;stroke-dasharray:none;stroke-opacity:1"
       id="path921-6-7"
       cx="727.07104"
       cy="850.20215"
       r="39.233658" />
  </g>
  <g
     inkscape:groupmode="layer"
     id="layer1"
     inkscape:label="Overlay"
     style="display:inline"
     transform="translate(0,-328.81888)">
    <path
       style="display:inline;opacity:1;vector-effect:none;fill:none;fill-opacity:1;stroke:#c0c0c0;stroke-width:0.37795275;stroke-linecap:round;stroke-linejoin:round;stroke-miterlimit:4;stroke-dasharray:none;stroke-dashoffset:0;stroke-opacity:1"
       d="m 631.66999,623.22814 v 169.25235 h 25.0905"
       id="path908"
       inkscape:connector-curvature="0"
       sodipodi:nodetypes="ccc" />
    <path
       style="display:inline;opacity:1;vector-effect:none;fill:none;fill-opacity:1;stroke:#c0c0c0;stroke-width:0.37795275;stroke-linecap:round;stroke-linejoin:round;stroke-miterlimit:4;stroke-dasharray:none;stroke-dashoffset:0;stroke-opacity:1"
       d="m 365.92776,722.69498 v 68.36838"
       id="path910"
       inkscape:connector-curvature="0" />
    <path
       style="display:inline;opacity:1;vector-effect:none;fill:none;fill-opacity:1;stroke:#c0c0c0;stroke-width:0.37795275;stroke-linecap:round;stroke-linejoin:round;stroke-miterlimit:4;stroke-dasharray:none;stroke-dashoffset:0;stroke-opacity:1"
       d="m 684.84764,792.83969 c -22.99832,0.33896 -27.95121,38.5702 -27.94544,58.6813"
       id="path912"
       inkscape:connector-curvature="0"
       sodipodi:nodetypes="cc" />
    <path
       style="display:inline;opacity:1;vector-effect:none;fill:none;fill-opacity:1;stroke:#c0c0c0;stroke-width:0.37795275;stroke-linecap:round;stroke-linejoin:round;stroke-miterlimit:4;stroke-dasharray:none;stroke-dashoffset:0;stroke-opacity:1"
       d="M 355.875,815.76967 H 396.75"
       id="path914"
       inkscape:connector-curvature="0" />
    <path
       style="display:inline;opacity:1;fill:none;stroke:#c0c0c0;stroke-width:0.37795275;stroke-linecap:round;stroke-linejoin:round;stroke-miterlimit:4;stroke-dasharray:none;stroke-opacity:1"
       d="m 535.49246,810.46702 c -4.81429,0.17667 -6.44205,1.478 -6.59778,3.29888 v 13.40172 h 83.62158 V 813.7659 c 1.6e-4,-1.28922 -2.40962,-3.29888 -6.59776,-3.29888 z"
       id="path944-7"
       inkscape:connector-curvature="0"
       sodipodi:nodetypes="ccccccc" />
    <path
       style="display:inline;opacity:1;fill:none;stroke:#c0c0c0;stroke-width:0.37795275;stroke-linecap:round;stroke-linejoin:round;stroke-miterlimit:4;stroke-dasharray:none;stroke-opacity:1"
       d="m 513.19995,778.03261 c -0.15667,4.29037 1.47781,6.67329 6.0257,6.89181 h 90.00631 c 5.77586,0 5.82098,-3.33422 5.82098,-6.89181 V 641.14637 c 0,-4.95829 -0.49884,-9.89664 -6.59777,-9.89664 h -88.53385 c -5.61545,0 -6.72137,4.06899 -6.72137,9.89664 z"
       id="path961"
       inkscape:connector-curvature="0"
       sodipodi:nodetypes="ccccccccc" />
    <path
       style="display:inline;opacity:1;fill:none;stroke:#c0c0c0;stroke-width:0.37799999;stroke-linecap:round;stroke-linejoin:round;stroke-miterlimit:4;stroke-dasharray:none;stroke-opacity:1"
       d="m 499.85989,634.8468 h 6.49468 c 2.14362,0.0883 2.2853,1.80391 2.26798,4.32332 v 67.06945 c -0.25661,4.27413 -1.5169,6.56479 -4.94833,6.80395 h -11.14035"
       id="path963"
       inkscape:connector-curvature="0"
       sodipodi:nodetypes="cccccc" />
    <path
       style="display:inline;opacity:1;fill:none;stroke:#c0c0c0;stroke-width:0.37795275;stroke-linecap:round;stroke-linejoin:round;stroke-miterlimit:4;stroke-dasharray:none;stroke-opacity:1"
       d="m 517.88572,713.01295 91.62722,-2.22957 0.58318,-66.89518 c 0,-6.20156 -1.96719,-7.87273 -9.33065,-7.87273 h -74.06152 c -6.38491,0 -8.81823,-0.17746 -8.81823,7.87273 z"
       id="path965"
       inkscape:connector-curvature="0"
       sodipodi:nodetypes="ccccccc" />
    <path
       style="display:inline;opacity:1;fill:none;stroke:#c0c0c0;stroke-width:0.37795275;stroke-linecap:round;stroke-linejoin:round;stroke-miterlimit:4;stroke-dasharray:none;stroke-opacity:1"
       d="m 582.17706,748.98071 h 21.86871 c 2.18354,-2.19851 1.69093,-3.99561 0,-5.61297 h -21.86871 c -2.2322,1.97245 -2.04261,3.83483 0,5.61297 z"
       id="path982"
       inkscape:connector-curvature="0"
       sodipodi:nodetypes="ccccc" />
    <path
       style="display:inline;opacity:1;fill:none;stroke:#c0c0c0;stroke-width:0.37795275;stroke-linecap:round;stroke-linejoin:round;stroke-miterlimit:4;stroke-dasharray:none;stroke-opacity:1"
       d="m 586.36329,743.29486 c 4.93743,-4.93998 9.95768,-5.40599 15.0894,0.14579"
       id="path984"
       inkscape:connector-curvature="0"
       sodipodi:nodetypes="cc" />
    <path
       style="display:inline;opacity:1;fill:none;stroke:#c0c0c0;stroke-width:0.37795275;stroke-linecap:round;stroke-linejoin:round;stroke-miterlimit:4;stroke-dasharray:none;stroke-opacity:1"
       d="m 586.36329,748.95146 c 4.93743,4.93997 9.95768,5.40598 15.0894,-0.1458"
       id="path984-3"
       inkscape:connector-curvature="0"
       sodipodi:nodetypes="cc" />
    <circle
       style="display:inline;opacity:1;fill:none;fill-opacity:1;stroke:#c0c0c0;stroke-width:0.37795275;stroke-linecap:round;stroke-linejoin:round;stroke-miterlimit:4;stroke-dasharray:none;stroke-opacity:1"
       id="path1003"
       cx="429.84589"
       cy="850.20209"
       r="22.451872" />
    <circle
       style="display:inline;opacity:1;fill:none;fill-opacity:1;stroke:#c0c0c0;stroke-width:0.37795275;stroke-linecap:round;stroke-linejoin:round;stroke-miterlimit:4;stroke-dasharray:none;stroke-opacity:1"
       id="path1003-6"
       cx="830.92267"
       cy="850.20209"
       r="22.451874" />
    <path
       style="display:inline;opacity:1;fill:none;stroke:#c0c0c0;stroke-width:0.37795275;stroke-linecap:round;stroke-linejoin:round;stroke-miterlimit:4;stroke-dasharray:none;stroke-opacity:1"
       d="m 885.26566,843.14042 -0.0515,-14.94806"
       id="path1028"
       inkscape:connector-curvature="0"
       sodipodi:nodetypes="cc" />
    <path
       style="opacity:1;vector-effect:none;fill:none;fill-opacity:1;stroke:#c0c0c0;stroke-width:0.37795275;stroke-linecap:round;stroke-linejoin:round;stroke-miterlimit:4;stroke-dasharray:none;stroke-dashoffset:0;stroke-opacity:1"
       d="m 356.02826,791.15525 h 44.19418 c 0,0 14.44159,0.5264 47.19938,0.61522 54.50478,0.14779 57.14067,59.79602 55.68466,59.75052"
       id="path829"
       inkscape:connector-curvature="0"
       sodipodi:nodetypes="ccsc" />
    <path
       style="opacity:1;vector-effect:none;fill:none;fill-opacity:1;stroke:#c0c0c0;stroke-width:0.37795278;stroke-linecap:round;stroke-linejoin:round;stroke-miterlimit:4;stroke-dasharray:none;stroke-dashoffset:0;stroke-opacity:1"
       d="m 355.85235,793.71471 c 15.80379,0 16.37019,17.97847 0,17.97847"
       id="path831"
       inkscape:connector-curvature="0"
       sodipodi:nodetypes="cc" />
    <circle
       style="display:inline;opacity:1;fill:none;fill-opacity:1;stroke:#c0c0c0;stroke-width:0.37795275;stroke-linecap:round;stroke-linejoin:round;stroke-miterlimit:4;stroke-dasharray:none;stroke-opacity:1"
       id="path1003-6-1"
       cx="727.07104"
       cy="850.20215"
       r="22.451874" />
    <path
       style="display:inline;opacity:1;fill:none;stroke:#c0c0c0;stroke-width:0.37795275;stroke-linecap:round;stroke-linejoin:round;stroke-miterlimit:4;stroke-dasharray:none;stroke-opacity:1"
       d="m 535.06861,789.60735 c -4.81429,0.17667 -6.44205,1.478 -6.59778,3.29888 v 13.40172 h 83.62158 v -13.40172 c 1.6e-4,-1.28922 -2.40962,-3.29888 -6.59776,-3.29888 z"
       id="path944-7-8"
       inkscape:connector-curvature="0"
       sodipodi:nodetypes="ccccccc" />
    <path
       style="display:inline;opacity:1;fill:none;stroke:#c0c0c0;stroke-width:0.37795275;stroke-linecap:round;stroke-linejoin:round;stroke-miterlimit:4;stroke-dasharray:none;stroke-opacity:1"
       d="m 535.06861,831.32666 c -4.81429,0.17667 -6.44205,1.478 -6.59778,3.29888 v 13.40172 h 83.62158 v -13.40172 c 1.6e-4,-1.28922 -2.40962,-3.29888 -6.59776,-3.29888 z"
       id="path944-7-9"
       inkscape:connector-curvature="0"
       sodipodi:nodetypes="ccccccc" />
  </g>
</svg>
