<?xml version="1.0" encoding="UTF-8" standalone="no"?>
<!-- Created with Inkscape (http://www.inkscape.org/) -->

<svg
   xmlns:dc="http://purl.org/dc/elements/1.1/"
   xmlns:cc="http://creativecommons.org/ns#"
   xmlns:rdf="http://www.w3.org/1999/02/22-rdf-syntax-ns#"
   xmlns:svg="http://www.w3.org/2000/svg"
   xmlns="http://www.w3.org/2000/svg"
   xmlns:sodipodi="http://sodipodi.sourceforge.net/DTD/sodipodi-0.dtd"
   xmlns:inkscape="http://www.inkscape.org/namespaces/inkscape"
   width="297mm"
   height="210mm"
   id="svg2"
   version="1.1"
   inkscape:version="0.92.3 (2405546, 2018-03-11)"
   sodipodi:docname="SemiTruckConventionalCab-undecorated-d-2.svg"
   inkscape:export-filename="/home/christian/SportsCar.svg.png"
   inkscape:export-xdpi="138.06"
   inkscape:export-ydpi="138.06">
  <defs
     id="defs4" />
  <sodipodi:namedview
     id="base"
     pagecolor="#ffffff"
     bordercolor="#666666"
     borderopacity="1.0"
     inkscape:pageopacity="0.0"
     inkscape:pageshadow="2"
     inkscape:zoom="0.7071068"
     inkscape:cx="733.76682"
     inkscape:cy="519.41324"
     inkscape:document-units="mm"
     inkscape:current-layer="Mask"
     showgrid="false"
     units="mm"
     inkscape:window-width="1920"
     inkscape:window-height="1080"
     inkscape:window-x="1920"
     inkscape:window-y="0"
     inkscape:window-maximized="0"
     inkscape:snap-global="false" />
  <metadata
     id="metadata7">
    <rdf:RDF>
      <cc:Work
         rdf:about="">
        <dc:format>image/svg+xml</dc:format>
        <dc:type
           rdf:resource="http://purl.org/dc/dcmitype/StillImage" />
        <dc:title />
      </cc:Work>
    </rdf:RDF>
  </metadata>
  <g
     inkscape:label="Mask"
     inkscape:groupmode="layer"
     id="Mask"
     style="display:inline;opacity:1"
     transform="translate(0,-328.81888)">
    <path
       style="display:inline;opacity:1;fill:#ffffff;fill-opacity:1;stroke:#808080;stroke-width:0.75590551;stroke-linecap:round;stroke-linejoin:round;stroke-miterlimit:4;stroke-dasharray:none;stroke-opacity:1"
       d="m 379.77079,870.80213 h 18.21374 c 0,0 -0.83107,-47.3924 48.24615,-47.3924 48.26357,0 48.24615,47.3924 48.24615,47.3924 h 202.02335 c 0,-22.38102 8.47845,-47.3924 45.60839,-47.3924 37.75478,0 46.49227,29.00221 46.49227,47.3924 h 9.36001 c 0,-18.71644 12.92815,-48.17388 49.00253,-47.3924 35.29164,0.76452 47.64641,27.162 47.64641,47.3924 h 6.1902 v -8.45867 l 3.82106,-0.17678 c 1.71758,-5.68439 1.84112,-10.72255 -0.0364,-14.94945 h -3.78466 c -0.20115,-10.48456 -1.47201,-35.65878 -11.6813,-35.65878 H 672.42812 V 631.77264 l -7.74319,0.0811 v -68.24251 c 0.21279,-1.49082 1.82395,-3.33149 4.54108,-3.4081 l 0.13895,-7.37528 c -6.79807,0.0208 -13.87142,2.77041 -13.87142,10.78338 v 68.33875 l -8.16771,0.0855 v 10.25 H 523.38024 c -7.68959,0.0472 -15.40813,2.70262 -18.64394,10.75633 h 10.78803 l -7.8052,80.02374 -126.24573,8.80179 v -2.69291 h -10.01907 v 95.66914 h -4 v 30.94671 c 0,5.08054 9.2234,5.01184 12.31646,5.01184 z"
       id="path919"
       inkscape:connector-curvature="0"
       sodipodi:nodetypes="ccscccccsccccccccccccccccccccccccccccc" />
    <circle
       style="display:inline;opacity:1;fill:#ffffff;fill-opacity:1;stroke:#808080;stroke-width:0.75590551;stroke-linecap:round;stroke-linejoin:round;stroke-miterlimit:4;stroke-dasharray:none;stroke-opacity:1"
       id="path921"
       cx="445.40222"
       cy="869.27606"
       r="39.233658" />
    <circle
       style="display:inline;opacity:1;fill:#ffffff;fill-opacity:1;stroke:#808080;stroke-width:0.75590551;stroke-linecap:round;stroke-linejoin:round;stroke-miterlimit:4;stroke-dasharray:none;stroke-opacity:1"
       id="path921-6"
       cx="846.479"
       cy="869.27606"
       r="39.233658" />
    <circle
       style="display:inline;opacity:1;fill:#ffffff;fill-opacity:1;stroke:#808080;stroke-width:0.75590551;stroke-linecap:round;stroke-linejoin:round;stroke-miterlimit:4;stroke-dasharray:none;stroke-opacity:1"
       id="path921-6-7"
       cx="742.62738"
       cy="869.27606"
       r="39.233658" />
  </g>
  <g
     inkscape:groupmode="layer"
     id="layer1"
     inkscape:label="Overlay"
     style="display:inline"
     transform="translate(0,-328.81888)">
    <path
       style="display:inline;opacity:1;vector-effect:none;fill:none;fill-opacity:1;stroke:#c0c0c0;stroke-width:0.37795275;stroke-linecap:round;stroke-linejoin:round;stroke-miterlimit:4;stroke-dasharray:none;stroke-dashoffset:0;stroke-opacity:1"
       d="M 647.22634,642.30205 V 811.5544 h 25.0905"
       id="path908"
       inkscape:connector-curvature="0"
       sodipodi:nodetypes="ccc" />
    <path
       style="display:inline;opacity:1;vector-effect:none;fill:none;fill-opacity:1;stroke:#c0c0c0;stroke-width:0.37795275;stroke-linecap:round;stroke-linejoin:round;stroke-miterlimit:4;stroke-dasharray:none;stroke-dashoffset:0;stroke-opacity:1"
       d="m 381.48411,741.76889 v 68.36838"
       id="path910"
       inkscape:connector-curvature="0" />
    <path
       style="display:inline;opacity:1;vector-effect:none;fill:none;fill-opacity:1;stroke:#c0c0c0;stroke-width:0.37795275;stroke-linecap:round;stroke-linejoin:round;stroke-miterlimit:4;stroke-dasharray:none;stroke-dashoffset:0;stroke-opacity:1"
       d="m 700.40399,811.9136 c -22.99832,0.33896 -27.95121,38.5702 -27.94544,58.6813"
       id="path912"
       inkscape:connector-curvature="0"
       sodipodi:nodetypes="cc" />
    <path
       style="display:inline;opacity:1;vector-effect:none;fill:none;fill-opacity:1;stroke:#c0c0c0;stroke-width:0.37795275;stroke-linecap:round;stroke-linejoin:round;stroke-miterlimit:4;stroke-dasharray:none;stroke-dashoffset:0;stroke-opacity:1"
       d="m 371.43135,834.84358 h 40.875"
       id="path914"
       inkscape:connector-curvature="0" />
    <path
       style="display:inline;opacity:1;fill:none;stroke:#c0c0c0;stroke-width:0.37795275;stroke-linecap:round;stroke-linejoin:round;stroke-miterlimit:4;stroke-dasharray:none;stroke-opacity:1"
       d="m 551.04881,829.54093 c -4.81429,0.17667 -6.44205,1.478 -6.59778,3.29888 v 13.40172 h 83.62158 v -13.40172 c 1.6e-4,-1.28922 -2.40962,-3.29888 -6.59776,-3.29888 z"
       id="path944-7"
       inkscape:connector-curvature="0"
       sodipodi:nodetypes="ccccccc" />
    <path
       style="display:inline;opacity:1;fill:none;stroke:#c0c0c0;stroke-width:0.37795275;stroke-linecap:round;stroke-linejoin:round;stroke-miterlimit:4;stroke-dasharray:none;stroke-opacity:1"
       d="m 528.7563,797.10652 c -0.15667,4.29037 1.47781,6.67329 6.0257,6.89181 h 90.00631 c 5.77586,0 5.82098,-3.33422 5.82098,-6.89181 V 660.22028 c 0,-4.95829 -0.49884,-9.89664 -6.59777,-9.89664 h -88.53385 c -5.61545,0 -6.72137,4.06899 -6.72137,9.89664 z"
       id="path961"
       inkscape:connector-curvature="0"
       sodipodi:nodetypes="ccccccccc" />
    <path
       style="display:inline;opacity:1;fill:none;stroke:#c0c0c0;stroke-width:0.37799999;stroke-linecap:round;stroke-linejoin:round;stroke-miterlimit:4;stroke-dasharray:none;stroke-opacity:1"
       d="m 515.41624,653.92071 h 6.49468 c 2.14362,0.0883 2.2853,1.80391 2.26798,4.32332 v 67.06945 c -0.25661,4.27413 -1.5169,6.56479 -4.94833,6.80395 h -11.14035"
       id="path963"
       inkscape:connector-curvature="0"
       sodipodi:nodetypes="cccccc" />
    <path
       style="display:inline;opacity:1;fill:none;stroke:#c0c0c0;stroke-width:0.37795275;stroke-linecap:round;stroke-linejoin:round;stroke-miterlimit:4;stroke-dasharray:none;stroke-opacity:1"
       d="m 533.44207,732.08686 91.62722,-2.22957 0.58318,-66.89518 c 0,-6.20156 -1.96719,-7.87273 -9.33065,-7.87273 H 542.2603 c -6.38491,0 -8.81823,-0.17746 -8.81823,7.87273 z"
       id="path965"
       inkscape:connector-curvature="0"
       sodipodi:nodetypes="ccccccc" />
    <path
       style="display:inline;opacity:1;fill:none;stroke:#c0c0c0;stroke-width:0.37795275;stroke-linecap:round;stroke-linejoin:round;stroke-miterlimit:4;stroke-dasharray:none;stroke-opacity:1"
       d="m 597.73341,768.05462 h 21.86871 c 2.18354,-2.19851 1.69093,-3.99561 0,-5.61297 h -21.86871 c -2.2322,1.97245 -2.04261,3.83483 0,5.61297 z"
       id="path982"
       inkscape:connector-curvature="0"
       sodipodi:nodetypes="ccccc" />
    <path
       style="display:inline;opacity:1;fill:none;stroke:#c0c0c0;stroke-width:0.37795275;stroke-linecap:round;stroke-linejoin:round;stroke-miterlimit:4;stroke-dasharray:none;stroke-opacity:1"
       d="m 601.91964,762.36877 c 4.93743,-4.93998 9.95768,-5.40599 15.0894,0.14579"
       id="path984"
       inkscape:connector-curvature="0"
       sodipodi:nodetypes="cc" />
    <path
       style="display:inline;opacity:1;fill:none;stroke:#c0c0c0;stroke-width:0.37795275;stroke-linecap:round;stroke-linejoin:round;stroke-miterlimit:4;stroke-dasharray:none;stroke-opacity:1"
       d="m 601.91964,768.02537 c 4.93743,4.93997 9.95768,5.40598 15.0894,-0.1458"
       id="path984-3"
       inkscape:connector-curvature="0"
       sodipodi:nodetypes="cc" />
    <circle
       style="display:inline;opacity:1;fill:none;fill-opacity:1;stroke:#c0c0c0;stroke-width:0.37795275;stroke-linecap:round;stroke-linejoin:round;stroke-miterlimit:4;stroke-dasharray:none;stroke-opacity:1"
       id="path1003"
       cx="445.40222"
       cy="869.276"
       r="22.451872" />
    <circle
       style="display:inline;opacity:1;fill:none;fill-opacity:1;stroke:#c0c0c0;stroke-width:0.37795275;stroke-linecap:round;stroke-linejoin:round;stroke-miterlimit:4;stroke-dasharray:none;stroke-opacity:1"
       id="path1003-6"
       cx="846.479"
       cy="869.276"
       r="22.451874" />
    <path
       style="display:inline;opacity:1;fill:none;stroke:#c0c0c0;stroke-width:0.37795275;stroke-linecap:round;stroke-linejoin:round;stroke-miterlimit:4;stroke-dasharray:none;stroke-opacity:1"
       d="m 900.82201,862.21433 -0.0515,-14.94806"
       id="path1028"
       inkscape:connector-curvature="0"
       sodipodi:nodetypes="cc" />
    <path
       style="opacity:1;vector-effect:none;fill:none;fill-opacity:1;stroke:#c0c0c0;stroke-width:0.37795275;stroke-linecap:round;stroke-linejoin:round;stroke-miterlimit:4;stroke-dasharray:none;stroke-dashoffset:0;stroke-opacity:1"
       d="m 371.58461,810.22916 h 44.19418 c 0,0 14.44159,0.5264 47.19938,0.61522 54.50478,0.14779 57.14067,59.79602 55.68466,59.75052"
       id="path829"
       inkscape:connector-curvature="0"
       sodipodi:nodetypes="ccsc" />
    <path
       style="opacity:1;vector-effect:none;fill:none;fill-opacity:1;stroke:#c0c0c0;stroke-width:0.37795278;stroke-linecap:round;stroke-linejoin:round;stroke-miterlimit:4;stroke-dasharray:none;stroke-dashoffset:0;stroke-opacity:1"
       d="m 371.4087,812.78862 c 15.80379,0 16.37019,17.97847 0,17.97847"
       id="path831"
       inkscape:connector-curvature="0"
       sodipodi:nodetypes="cc" />
    <circle
       style="display:inline;opacity:1;fill:none;fill-opacity:1;stroke:#c0c0c0;stroke-width:0.37795275;stroke-linecap:round;stroke-linejoin:round;stroke-miterlimit:4;stroke-dasharray:none;stroke-opacity:1"
       id="path1003-6-1"
       cx="742.62738"
       cy="869.27606"
       r="22.451874" />
    <path
       style="display:inline;opacity:1;fill:none;stroke:#c0c0c0;stroke-width:0.37795275;stroke-linecap:round;stroke-linejoin:round;stroke-miterlimit:4;stroke-dasharray:none;stroke-opacity:1"
       d="m 550.62496,808.68126 c -4.81429,0.17667 -6.44205,1.478 -6.59778,3.29888 v 13.40172 h 83.62158 v -13.40172 c 1.6e-4,-1.28922 -2.40962,-3.29888 -6.59776,-3.29888 z"
       id="path944-7-8"
       inkscape:connector-curvature="0"
       sodipodi:nodetypes="ccccccc" />
    <path
       style="display:inline;opacity:1;fill:none;stroke:#c0c0c0;stroke-width:0.37795275;stroke-linecap:round;stroke-linejoin:round;stroke-miterlimit:4;stroke-dasharray:none;stroke-opacity:1"
       d="m 550.62496,850.40057 c -4.81429,0.17667 -6.44205,1.478 -6.59778,3.29888 v 13.40172 h 83.62158 v -13.40172 c 1.6e-4,-1.28922 -2.40962,-3.29888 -6.59776,-3.29888 z"
       id="path944-7-9"
       inkscape:connector-curvature="0"
       sodipodi:nodetypes="ccccccc" />
  </g>
</svg>
