<?xml version="1.0" encoding="UTF-8" standalone="no"?>
<!-- Created with Inkscape (http://www.inkscape.org/) -->

<svg
   xmlns:dc="http://purl.org/dc/elements/1.1/"
   xmlns:cc="http://creativecommons.org/ns#"
   xmlns:rdf="http://www.w3.org/1999/02/22-rdf-syntax-ns#"
   xmlns:svg="http://www.w3.org/2000/svg"
   xmlns="http://www.w3.org/2000/svg"
   xmlns:sodipodi="http://sodipodi.sourceforge.net/DTD/sodipodi-0.dtd"
   xmlns:inkscape="http://www.inkscape.org/namespaces/inkscape"
   width="297mm"
   height="210mm"
   id="svg2"
   version="1.1"
   inkscape:version="0.92.3 (2405546, 2018-03-11)"
   sodipodi:docname="PhotoChristmasTree-undecorated-d-2.svg"
   inkscape:export-filename="/home/christian/SportsCar.svg.png"
   inkscape:export-xdpi="138.06"
   inkscape:export-ydpi="138.06">
  <defs
     id="defs4" />
  <sodipodi:namedview
     id="base"
     pagecolor="#ffffff"
     bordercolor="#666666"
     borderopacity="1.0"
     inkscape:pageopacity="0.0"
     inkscape:pageshadow="2"
     inkscape:zoom="1.4142136"
     inkscape:cx="629.4635"
     inkscape:cy="373.42711"
     inkscape:document-units="mm"
     inkscape:current-layer="layer1"
     showgrid="false"
     units="mm"
     inkscape:window-width="1920"
     inkscape:window-height="1080"
     inkscape:window-x="1920"
     inkscape:window-y="0"
     inkscape:window-maximized="0"
     inkscape:snap-global="false" />
  <metadata
     id="metadata7">
    <rdf:RDF>
      <cc:Work
         rdf:about="">
        <dc:format>image/svg+xml</dc:format>
        <dc:type
           rdf:resource="http://purl.org/dc/dcmitype/StillImage" />
        <dc:title />
      </cc:Work>
    </rdf:RDF>
  </metadata>
  <g
     inkscape:label="Mask"
     inkscape:groupmode="layer"
     id="Mask"
     style="display:inline;opacity:1"
     transform="translate(0,-328.81888)">
    <rect
       style="display:inline;opacity:1;fill:none;fill-opacity:1;stroke:#808080;stroke-width:0.779;stroke-linecap:round;stroke-linejoin:round;stroke-miterlimit:4;stroke-dasharray:none;stroke-dashoffset:0;stroke-opacity:1"
       id="rect814"
       width="566.14978"
       x="461.492"
       y="-793.3111"
       heightx="549.12811"
       height="377.17337"
       transform="rotate(90)" />
  </g>
  <g
     inkscape:groupmode="layer"
     id="layer1"
     inkscape:label="Overlay"
     style="display:inline"
     transform="translate(0,-328.81888)">
    <path
       style="display:inline;opacity:1;vector-effect:none;fill:none;fill-opacity:1;stroke:#c0c0c0;stroke-width:0.37795275;stroke-linecap:round;stroke-linejoin:round;stroke-miterlimit:4;stroke-dasharray:none;stroke-dashoffset:0;stroke-opacity:1"
       d="m 615.52473,948.86221 v -44.18988 c 16.6541,3.65063 85.45006,6.33432 102.73465,6.42939 15.83295,0.0869 26.40771,-11.50408 17.30044,-19.12277 -33.06981,-29.14528 -62.32252,-51.2387 -83.97058,-85.27926 14.79181,2.34099 26.06935,3.6506 41.39798,2.35478 18.27782,-1.54513 29.29296,-4.99364 18.21098,-17.30155 -22.51627,-23.07647 -47.94176,-57.80409 -65.35681,-89.38317 13.55215,4.041 30.9005,4.72985 41.68253,4.55304 10.41908,-0.17086 12.20004,-2.86358 6.37384,-11.8379 -21.73424,-30.03024 -44.04739,-55.89909 -58.9837,-84.79627 9.98425,1.56356 16.18764,3.10657 29.21567,3.90915 11.46999,0.70659 11.79719,-7.32482 5.91858,-13.65912 -23.80284,-23.00123 -44.4549,-50.82709 -64.13582,-80.2233 -0.58211,-0.75395 -1.92646,-0.74894 -2.26696,-0.0409 v -2e-5 c -17.96104,30.74204 -38.49071,55.95604 -62.31344,78.97649 -5.87862,6.33429 -5.55142,14.36571 5.91856,13.65912 13.02804,-0.80258 17.29987,-1.05779 27.28411,-2.62135 -14.9363,28.89718 -37.24946,54.76603 -58.9837,84.79627 -5.8262,8.97432 -4.04524,11.66704 6.37384,11.8379 10.78204,0.1768 28.13037,-0.51204 41.68252,-4.55304 -17.41504,31.57908 -42.84053,66.3067 -65.3568,89.38317 -11.08197,12.3079 -0.0669,15.75642 18.21098,17.30155 15.32863,1.29582 26.60616,-0.0139 41.39798,-2.35478 -21.64806,34.04058 -49.48655,56.13403 -82.55636,85.27926 -9.10726,7.61876 1.46749,19.2098 17.30043,19.12277 17.2846,-0.095 84.66635,-2.77876 101.32044,-6.42939 v 44.18988"
       id="path814"
       inkscape:connector-curvature="0"
       sodipodi:nodetypes="cccccsccsccscccccsccsccsccscc" />
    <path
       style="display:inline;opacity:1;vector-effect:none;fill:none;fill-opacity:1;stroke:#c0c0c0;stroke-width:0.37795275;stroke-linecap:round;stroke-linejoin:round;stroke-miterlimit:4;stroke-dasharray:none;stroke-dashoffset:0;stroke-opacity:1"
       d="m 615.59677,941.94601 c 2.70839,0.9087 4.37935,2.15536 4.37936,3.53085 0,2.78059 -6.82842,5.03469 -15.25171,5.03469 -8.42327,0 -15.25169,-2.2541 -15.25169,-5.03469 1e-5,-1.38087 1.68403,-2.63189 4.4111,-3.54147"
       id="path834"
       inkscape:connector-curvature="0"
       sodipodi:nodetypes="ccscc" />
    <path
       style="display:inline;opacity:1;vector-effect:none;fill:none;fill-opacity:1;stroke:#c0c0c0;stroke-width:0.37795275;stroke-linecap:round;stroke-linejoin:round;stroke-miterlimit:4;stroke-dasharray:none;stroke-dashoffset:0;stroke-opacity:1"
       d="m 615.58904,940.51528 c 4.82085,1.2973 7.96816,3.43477 7.96815,5.85185 0,3.95621 -8.43172,7.16335 -18.83278,7.16335 -10.40105,0 -18.83277,-3.20714 -18.83277,-7.16335 -1e-5,-2.40953 3.12766,-4.5412 7.92303,-5.83968"
       id="path852"
       inkscape:connector-curvature="0"
       sodipodi:nodetypes="ccscc" />
    <path
       style="display:inline;opacity:1;vector-effect:none;fill:none;fill-opacity:1;stroke:#c0c0c0;stroke-width:0.37795275;stroke-linecap:round;stroke-linejoin:round;stroke-miterlimit:4;stroke-dasharray:none;stroke-dashoffset:0;stroke-opacity:1"
       d="m 628.21117,948.5304 c 1.25734,1.35502 1.95172,2.84208 1.95172,4.40206 -10e-6,6.31787 -11.3892,11.4395 -25.43848,11.4395 -14.04926,0 -25.43846,-5.12163 -25.43846,-11.4395 0,-1.94743 1.08211,-3.78119 2.99069,-5.38633"
       id="path855"
       inkscape:connector-curvature="0"
       sodipodi:nodetypes="ccscc" />
    <path
       style="display:inline;opacity:1;vector-effect:none;fill:none;fill-opacity:1;stroke:#c0c0c0;stroke-width:0.37795275;stroke-linecap:round;stroke-linejoin:round;stroke-miterlimit:4;stroke-dasharray:none;stroke-dashoffset:0;stroke-opacity:1"
       d="m 630.16928,952.97086 -0.007,4.1162 c 6e-5,6.31783 -11.38916,11.43955 -25.43847,11.43955 -14.04932,0 -25.43852,-5.12172 -25.43847,-11.43955 l -0.005,-4.05777"
       id="path855-8"
       inkscape:connector-curvature="0"
       sodipodi:nodetypes="ccscc" />
    <path
       style="display:inline;opacity:1;vector-effect:none;fill:none;fill-opacity:1;stroke:#c0c0c0;stroke-width:0.37795275;stroke-linecap:round;stroke-linejoin:round;stroke-miterlimit:4;stroke-dasharray:none;stroke-dashoffset:0;stroke-opacity:1"
       d="m 621.99122,943.42795 6.26003,5.06527"
       id="path876"
       inkscape:connector-curvature="0" />
    <path
       style="display:inline;opacity:1;vector-effect:none;fill:none;fill-opacity:1;stroke:#c0c0c0;stroke-width:0.37795275;stroke-linecap:round;stroke-linejoin:round;stroke-miterlimit:4;stroke-dasharray:none;stroke-dashoffset:0;stroke-opacity:1"
       d="m 587.55882,943.42795 -5.29424,4.13966"
       id="path876-6"
       inkscape:connector-curvature="0"
       sodipodi:nodetypes="cc" />
    <path
       style="display:inline;opacity:1;vector-effect:none;fill:none;fill-opacity:1;stroke:#c0c0c0;stroke-width:0.37795275;stroke-linecap:round;stroke-linejoin:round;stroke-miterlimit:4;stroke-dasharray:none;stroke-dashoffset:0;stroke-opacity:1"
       d="m 593.96473,904.67676 20.52088,-4.08659"
       id="path917"
       inkscape:connector-curvature="0"
       sodipodi:nodetypes="cc" />
    <path
       style="display:inline;opacity:1;vector-effect:none;fill:none;fill-opacity:1;stroke:#c0c0c0;stroke-width:0.37795275;stroke-linecap:round;stroke-linejoin:round;stroke-miterlimit:4;stroke-dasharray:none;stroke-dashoffset:0;stroke-opacity:1"
       d="m 615.5615,904.65576 -9.62536,-2.32575"
       id="path919"
       inkscape:connector-curvature="0"
       sodipodi:nodetypes="cc" />
  </g>
</svg>
