<?xml version="1.0" encoding="UTF-8" standalone="no"?>
<!-- Created with Inkscape (http://www.inkscape.org/) -->

<svg
   xmlns:dc="http://purl.org/dc/elements/1.1/"
   xmlns:cc="http://creativecommons.org/ns#"
   xmlns:rdf="http://www.w3.org/1999/02/22-rdf-syntax-ns#"
   xmlns:svg="http://www.w3.org/2000/svg"
   xmlns="http://www.w3.org/2000/svg"
   xmlns:sodipodi="http://sodipodi.sourceforge.net/DTD/sodipodi-0.dtd"
   xmlns:inkscape="http://www.inkscape.org/namespaces/inkscape"
   width="297mm"
   height="210mm"
   id="svg2"
   version="1.1"
   inkscape:version="0.92.3 (2405546, 2018-03-11)"
   sodipodi:docname="SteerableBob-undecorated-d-2.svg">
  <defs
     id="defs4" />
  <sodipodi:namedview
     id="base"
     pagecolor="#ffffff"
     bordercolor="#666666"
     borderopacity="1.0"
     inkscape:pageopacity="0.0"
     inkscape:pageshadow="2"
     inkscape:zoom="1.142748"
     inkscape:cx="646.90339"
     inkscape:cy="509.20964"
     inkscape:document-units="mm"
     inkscape:current-layer="layer1"
     showgrid="false"
     units="mm"
     inkscape:window-width="1920"
     inkscape:window-height="1080"
     inkscape:window-x="1920"
     inkscape:window-y="0"
     inkscape:window-maximized="0" />
  <metadata
     id="metadata7">
    <rdf:RDF>
      <cc:Work
         rdf:about="">
        <dc:format>image/svg+xml</dc:format>
        <dc:type
           rdf:resource="http://purl.org/dc/dcmitype/StillImage" />
        <dc:title />
      </cc:Work>
    </rdf:RDF>
  </metadata>
  <g
     inkscape:label="Mask"
     inkscape:groupmode="layer"
     id="Mask"
     style="display:inline"
     transform="translate(0,-328.81888)">
    <path
       style="display:inline;opacity:1;vector-effect:none;fill:#ffffff;fill-opacity:1;stroke:#808080;stroke-width:0.75599998;stroke-linecap:round;stroke-linejoin:round;stroke-miterlimit:4;stroke-dasharray:none;stroke-dashoffset:0;stroke-opacity:1"
       d="m 713.67537,535.03482 c -16.83163,0.25036 -39.05086,5.88211 -52.73568,31.48576 -2.73241,5.11222 -3.92015,13.15077 -5.17157,18.2079 -0.20174,1.08452 5.68262,0.30068 7.21226,0.26685 -0.0221,0.5601 -0.0349,1.2229 -0.039,1.97324 -2.01593,0.11582 -6.03074,0.58665 -6.01244,1.69665 0.18212,11.04163 6.7187,31.83157 8.02351,37.37726 0.28753,1.22208 1.09641,0.94265 1.09641,0.94265 l 5.83956,-0.98339 c 0,0 0.94425,2.90724 2.09228,5.78587 -0.71594,1.34599 0.34886,3.78623 1.35421,3.88324 -0.53355,1.6808 1.21382,2.78011 2.46624,3.24414 1.31987,2.34034 1.03645,1.74331 3.31627,4.33222 5.69061,6.46212 8.34186,8.5495 16.3787,5.88417 l 17.47852,-5.79687 6.36719,21.2207 c -4.25209,8.54465 -7.53625,18.3808 -3.33594,38.19531 -6.72266,10.2382 -13.97882,16.94167 -24.55469,21.82617 l -63.96289,25.46485 c -5.50967,1.48965 -4.84138,-5.0398 -16.50683,-1.15137 l -4.60364,-13.55909 c -2.02311,-5.17804 -10.82511,-2.03086 -9.50672,2.5835 l 5.45703,19.09961 c -6.81661,1.78293 -7.94703,6.41012 -6.36718,10.00391 l -3.70703,0.97852 -2.74805,-10.57227 c -1.16102,-4.48721 -10.97074,-2.07709 -18.09961,-0.41016 -27.61139,6.45631 -56.16004,21.72928 -79.21289,44.46094 -27.17547,26.79684 -58.46875,66.40465 -58.46875,77.1543 l 0.0449,8.77344 c 0,1.39718 0.51461,1.99141 1.82813,2.08398 h 11.51953 c 2.59625,13.20228 9.46196,24.27057 20.91797,33.04297 -14.71753,-1.0849 -30.5872,-8.14181 -36.39454,-13.40039 -5.80732,-5.25858 -12.24967,1.56582 -7.71679,7.17969 4.53288,5.61387 26.19581,17.78656 42.27929,17.36328 h 433.8301 c 6.8803,0.16744 9.26627,-5.45025 9.68164,-12.35352 v -42.74414 c 5.34303,-0.55935 10.42318,-0.4202 10.23243,-10.23047 -0.59149,-30.42047 -11.38118,-38.39491 -21.90235,-36.9082 -33.21115,3.92397 -66.93996,10.4351 -99.43164,10.76172 25.34374,-16.0352 25.74419,-42.1981 18.94727,-65.48047 -14.65268,-50.19173 -16.78216,-125.13832 -69.1172,-132.77734 -6.23174,-1.33856 -7.22547,-6.60515 -9.0957,-11.21485 13.2207,-4.26865 28.4833,-10.92693 22.13086,-38.80273 -0.37774,-1.65758 -0.76069,-3.3329 -1.15651,-5.01742 l 1.41318,-0.40517 -4.19175,-14.74329 -1.2237,0.32049 c -3.94862,-12.24958 -9.80444,-23.64276 -20.6088,-30.77961 -6.18872,-4.08797 -15.21903,-8.39372 -24.03559,-8.26258 z m 13.95356,207.53992 c 2.54988,11.75564 4.84815,23.52539 8.78906,34.72461 1.70224,5.21295 3.80908,10.53119 8.03906,17.14844 -8.86002,-0.2218 -11.39797,-0.17217 -20.25781,-0.10547 -18.27299,0.13759 -37.76355,2.28749 -57.44727,4.71484 -10.07159,1.24201 -18.95576,5.41272 -32.15234,17.36328 l -24.97266,22.61328 c -5.919,-20.81091 -10.33378,-40.91936 -13.82617,-62.26953 l 6.21716,-1.71534 c -2.72178,0.6092 -1.54482,7.25707 1.63062,6.41346 -2.93671,2.89408 0.7507,7.15178 4.10339,6.77063 l 5.27642,-1.18824 3.5067,11.75663 c 1.73134,6.46144 12.52864,3.93452 10.03217,-2.87697 l -3.32953,-11.1788 0.69784,-0.15715 c 6.46953,-1.45672 10.62582,-2.06347 11.6289,-7.39453 23.0386,-7.34877 46.47857,-12.67617 68.16407,-19.82812 13.71046,-4.52175 18.82532,-9.73875 23.90039,-14.79102 z"
       id="path883"
       inkscape:connector-curvature="0"
       sodipodi:nodetypes="sscccsscccccsccccccccsccccssccccccsccccsccsccsccccssccccsccccccccccccsc" />
  </g>
  <g
     inkscape:groupmode="layer"
     id="layer1"
     inkscape:label="Overlay"
     style="display:inline"
     transform="translate(0,-328.81888)">
    <path
       style="display:inline;opacity:1;vector-effect:none;fill:none;fill-opacity:0.10256407;stroke:#c0c0c0;stroke-width:0.37795275;stroke-linecap:round;stroke-linejoin:round;stroke-miterlimit:4;stroke-dasharray:none;stroke-dashoffset:0;stroke-opacity:1"
       d="m 603.64858,781.46231 c 3.0567,-0.56876 6.75629,-1.27463 8.8187,-2.60812"
       id="path893"
       inkscape:connector-curvature="0"
       sodipodi:nodetypes="cc" />
    <path
       style="display:inline;opacity:1;vector-effect:none;fill:none;fill-opacity:0.10256407;stroke:#c0c0c0;stroke-width:0.37795275;stroke-linecap:round;stroke-linejoin:round;stroke-miterlimit:4;stroke-dasharray:none;stroke-dashoffset:0;stroke-opacity:1"
       d="m 721.34182,664.55521 c 5.9437,-11.6172 12.50093,-22.45941 29.10156,-20.61523"
       id="path897"
       inkscape:connector-curvature="0"
       sodipodi:nodetypes="cc" />
    <path
       style="display:inline;opacity:1;vector-effect:none;fill:none;fill-opacity:0.10256407;stroke:#c0c0c0;stroke-width:0.37795275;stroke-linecap:round;stroke-linejoin:round;stroke-miterlimit:4;stroke-dasharray:none;stroke-dashoffset:0;stroke-opacity:1"
       d="m 718.00588,702.75052 20.2345,-33.16404"
       id="path899"
       inkscape:connector-curvature="0" />
    <path
       style="display:inline;opacity:1;vector-effect:none;fill:none;fill-opacity:0.10256407;stroke:#c0c0c0;stroke-width:0.37795275;stroke-linecap:round;stroke-linejoin:round;stroke-miterlimit:4;stroke-dasharray:none;stroke-dashoffset:0;stroke-opacity:1"
       d="m 727.62893,742.57474 c 12.42645,-13.73182 23.17741,-27.72875 34.40491,-40.62058"
       id="path901"
       inkscape:connector-curvature="0"
       sodipodi:nodetypes="cc" />
    <path
       style="display:inline;opacity:1;vector-effect:none;fill:none;fill-opacity:0.10256407;stroke:#c0c0c0;stroke-width:0.37795275;stroke-linecap:round;stroke-linejoin:round;stroke-miterlimit:4;stroke-dasharray:none;stroke-dashoffset:0;stroke-opacity:1"
       d="m 744.45705,794.44779 c 3.35106,0.19498 5.84295,0.5168 8.33525,1.21674"
       id="path903"
       inkscape:connector-curvature="0"
       sodipodi:nodetypes="cc" />
    <path
       style="display:inline;opacity:1;vector-effect:none;fill:none;fill-opacity:0.10256407;stroke:#c0c0c0;stroke-width:0.37795275;stroke-linecap:round;stroke-linejoin:round;stroke-miterlimit:4;stroke-dasharray:none;stroke-dashoffset:0;stroke-opacity:1"
       d="m 470.03516,922.52982 h 73.57041 c 5.87577,0.0485 5.84635,11.00487 0.33277,11.13345"
       id="path905"
       inkscape:connector-curvature="0"
       sodipodi:nodetypes="ccc" />
    <path
       style="display:inline;opacity:1;vector-effect:none;fill:none;fill-opacity:0.10256407;stroke:#c0c0c0;stroke-width:0.37795275;stroke-linecap:round;stroke-linejoin:round;stroke-miterlimit:4;stroke-dasharray:none;stroke-dashoffset:0;stroke-opacity:1"
       d="m 449.11719,889.48685 c 152.7906,0 309.15817,-2.74683 462.59767,-10.91211"
       id="path907"
       inkscape:connector-curvature="0"
       sodipodi:nodetypes="cc" />
    <path
       style="display:inline;opacity:1;vector-effect:none;fill:none;fill-opacity:0.10256407;stroke:#c0c0c0;stroke-width:0.37795275;stroke-linecap:round;stroke-linejoin:round;stroke-miterlimit:4;stroke-dasharray:none;stroke-dashoffset:0;stroke-opacity:1"
       d="m 435.7154,880.10271 c 161.58777,-3.01068 322.87327,-4.20767 486.00415,-16.47698"
       id="path909"
       inkscape:connector-curvature="0"
       sodipodi:nodetypes="cc" />
    <path
       style="display:inline;opacity:1;vector-effect:none;fill:none;fill-opacity:0.10256407;stroke:#c0c0c0;stroke-width:0.37795275;stroke-linecap:round;stroke-linejoin:round;stroke-miterlimit:4;stroke-dasharray:none;stroke-dashoffset:0;stroke-opacity:1"
       d="m 594.25393,767.99662 1.54687,8.76757"
       id="path911"
       inkscape:connector-curvature="0" />
    <path
       style="display:inline;opacity:1;vector-effect:none;fill:none;fill-opacity:0.10256407;stroke:#c0c0c0;stroke-width:0.37795275;stroke-linecap:round;stroke-linejoin:round;stroke-miterlimit:4;stroke-dasharray:none;stroke-dashoffset:0;stroke-opacity:1"
       d="m 800.6133,842.19779 c -32.33126,16.73597 -64.4545,14.03006 -96.24833,6.97174 -13.05258,-2.89771 -35.27463,-8.61418 -37.89306,-5.4566 l -30.4668,32.64242"
       id="path915"
       inkscape:connector-curvature="0"
       sodipodi:nodetypes="cscc" />
    <path
       style="display:inline;opacity:1;vector-effect:none;fill:none;fill-opacity:0.10256407;stroke:#c0c0c0;stroke-width:0.37795275;stroke-linecap:round;stroke-linejoin:round;stroke-miterlimit:4;stroke-dasharray:none;stroke-dashoffset:0;stroke-opacity:1"
       d="m 609.62697,839.03372 -37.71609,38.65439"
       id="path919"
       inkscape:connector-curvature="0"
       sodipodi:nodetypes="cc" />
    <path
       style="display:inline;opacity:1;vector-effect:none;fill:none;fill-opacity:0.10256407;stroke:#c0c0c0;stroke-width:0.37795275;stroke-linecap:round;stroke-linejoin:round;stroke-miterlimit:4;stroke-dasharray:none;stroke-dashoffset:0;stroke-opacity:1"
       d="m 494.28585,889.46174 -5.66176,32.97077"
       id="path921"
       inkscape:connector-curvature="0"
       sodipodi:nodetypes="cc" />
    <path
       style="display:inline;opacity:1;vector-effect:none;fill:none;fill-opacity:0.10256407;stroke:#c0c0c0;stroke-width:0.37795275;stroke-linecap:round;stroke-linejoin:round;stroke-miterlimit:4;stroke-dasharray:none;stroke-dashoffset:0;stroke-opacity:1"
       d="m 503.35703,889.50383 -5.66176,32.97077"
       id="path921-3"
       inkscape:connector-curvature="0"
       sodipodi:nodetypes="cc" />
    <path
       style="display:inline;opacity:1;vector-effect:none;fill:none;fill-opacity:0.10256407;stroke:#c0c0c0;stroke-width:0.37795275;stroke-linecap:round;stroke-linejoin:round;stroke-miterlimit:4;stroke-dasharray:none;stroke-dashoffset:0;stroke-opacity:1"
       d="m 537.09452,889.08651 c 17.01208,18.50086 64.0125,44.54918 94.83968,44.54918"
       id="path938"
       inkscape:connector-curvature="0"
       sodipodi:nodetypes="cc" />
    <path
       style="display:inline;opacity:1;vector-effect:none;fill:none;fill-opacity:0.10256407;stroke:#c0c0c0;stroke-width:0.37795275;stroke-linecap:round;stroke-linejoin:round;stroke-miterlimit:4;stroke-dasharray:none;stroke-dashoffset:0;stroke-opacity:1"
       d="m 597.96096,767.0181 c 0.33982,2.8656 6.29244,-0.80441 10.95316,-2.12876"
       id="path889"
       inkscape:connector-curvature="0"
       sodipodi:nodetypes="cc" />
    <path
       style="display:inline;opacity:1;vector-effect:none;fill:none;fill-opacity:0.10256407;stroke:#c0c0c0;stroke-width:0.37795275;stroke-linecap:round;stroke-linejoin:round;stroke-miterlimit:4;stroke-dasharray:none;stroke-dashoffset:0;stroke-opacity:1"
       d="m 609.89419,772.4766 c -2.74584,1.35146 -5.31908,1.78446 -7.89789,2.5839 -2.78097,0.86211 -5.19859,-5.92593 -2.06276,-7.00865"
       id="path891"
       inkscape:connector-curvature="0"
       sodipodi:nodetypes="csc" />
    <path
       style="opacity:1;vector-effect:none;fill:none;fill-opacity:0.10256407;stroke:#c0c0c0;stroke-width:0.37795275;stroke-linecap:round;stroke-linejoin:round;stroke-miterlimit:4;stroke-dasharray:none;stroke-dashoffset:0;stroke-opacity:1"
       d="m 612.98147,748.89017 1.47743,4.93661 -10.13076,3.18741"
       id="path960"
       inkscape:connector-curvature="0"
       sodipodi:nodetypes="ccc" />
    <path
       style="opacity:1;vector-effect:none;fill:none;fill-opacity:0.10256407;stroke:#c0c0c0;stroke-width:0.37795275;stroke-linecap:round;stroke-linejoin:round;stroke-miterlimit:4;stroke-dasharray:none;stroke-dashoffset:0;stroke-opacity:1"
       d="m 662.94138,586.96857 c 1.32982,-0.0661 3.4304,-0.32821 3.98945,0.2938 2.0402,2.26997 4.80652,7.11691 6.42854,9.49777 l 84.8957,-22.7361"
       id="path981"
       inkscape:connector-curvature="0"
       sodipodi:nodetypes="cscc" />
    <path
       style="opacity:1;vector-effect:none;fill:none;fill-opacity:0.10256407;stroke:#c0c0c0;stroke-width:0.37795275;stroke-linecap:round;stroke-linejoin:round;stroke-miterlimit:4;stroke-dasharray:none;stroke-dashoffset:0;stroke-opacity:1"
       d="m 671.88842,626.00174 c 1.90424,-0.34968 3.17493,-0.5031 3.31952,-2.04113 l 1.66731,-11.56157 85.41073,-23.52834"
       id="path983"
       inkscape:connector-curvature="0"
       sodipodi:nodetypes="cscc" />
    <path
       style="opacity:1;vector-effect:none;fill:none;fill-opacity:0.10256407;stroke:#c0c0c0;stroke-width:0.37795275;stroke-linecap:round;stroke-linejoin:round;stroke-miterlimit:4;stroke-dasharray:none;stroke-dashoffset:0;stroke-opacity:1"
       d="m 662.98038,584.99533 26.14792,-2.40222 c 3.16106,-0.23613 4.7046,0.80356 5.2505,3.71911 0.0366,0.19207 0.4438,2.13186 0.96818,4.50905 m 3.50475,15.57376 c 5.69987,21.09773 14.39622,36.81805 31.13322,30.72303 0.23502,-0.0856 11.12453,-4.29865 11.36273,-4.39293"
       id="path985"
       inkscape:connector-curvature="0"
       sodipodi:nodetypes="cccccsc" />
    <path
       style="opacity:1;vector-effect:none;fill:none;fill-opacity:0.10256407;stroke:#c0c0c0;stroke-width:0.37795275;stroke-linecap:round;stroke-linejoin:round;stroke-miterlimit:4;stroke-dasharray:none;stroke-dashoffset:0;stroke-opacity:1"
       d="m 613.02839,787.0447 10.20934,-2.29914"
       id="path995"
       inkscape:connector-curvature="0" />
    <path
       style="display:inline;opacity:1;vector-effect:none;fill:none;fill-opacity:0.10256407;stroke:#c0c0c0;stroke-width:0.37795275;stroke-linecap:round;stroke-linejoin:round;stroke-miterlimit:4;stroke-dasharray:none;stroke-dashoffset:0;stroke-opacity:1"
       d="m 673.35937,596.76014 -1.88479,0.49354 3.64496,15.62077 1.75571,-0.47541"
       id="path989"
       inkscape:connector-curvature="0"
       sodipodi:nodetypes="cccc" />
  </g>
</svg>
