<?xml version="1.0" encoding="UTF-8" standalone="no"?>
<!-- Created with Inkscape (http://www.inkscape.org/) -->

<svg
   xmlns:dc="http://purl.org/dc/elements/1.1/"
   xmlns:cc="http://creativecommons.org/ns#"
   xmlns:rdf="http://www.w3.org/1999/02/22-rdf-syntax-ns#"
   xmlns:svg="http://www.w3.org/2000/svg"
   xmlns="http://www.w3.org/2000/svg"
   xmlns:sodipodi="http://sodipodi.sourceforge.net/DTD/sodipodi-0.dtd"
   xmlns:inkscape="http://www.inkscape.org/namespaces/inkscape"
   width="297mm"
   height="210mm"
   id="svg2"
   version="1.1"
   inkscape:version="0.92.3 (2405546, 2018-03-11)"
   sodipodi:docname="PhotoChildPresenting-undecorated-d-2.svg"
   inkscape:export-filename="/home/christian/SportsCar.svg.png"
   inkscape:export-xdpi="138.06"
   inkscape:export-ydpi="138.06">
  <defs
     id="defs4" />
  <sodipodi:namedview
     id="base"
     pagecolor="#ffffff"
     bordercolor="#666666"
     borderopacity="1.0"
     inkscape:pageopacity="0.0"
     inkscape:pageshadow="2"
     inkscape:zoom="0.70710678"
     inkscape:cx="141.96162"
     inkscape:cy="328.0963"
     inkscape:document-units="mm"
     inkscape:current-layer="Mask"
     showgrid="false"
     units="mm"
     inkscape:window-width="1920"
     inkscape:window-height="1080"
     inkscape:window-x="1920"
     inkscape:window-y="0"
     inkscape:window-maximized="0"
     inkscape:snap-global="false" />
  <metadata
     id="metadata7">
    <rdf:RDF>
      <cc:Work
         rdf:about="">
        <dc:format>image/svg+xml</dc:format>
        <dc:type
           rdf:resource="http://purl.org/dc/dcmitype/StillImage" />
        <dc:title />
      </cc:Work>
    </rdf:RDF>
  </metadata>
  <g
     inkscape:label="Mask"
     inkscape:groupmode="layer"
     id="Mask"
     style="display:inline;opacity:1"
     transform="translate(0,-328.81888)">
    <rect
       style="display:inline;opacity:1;fill:none;fill-opacity:1;stroke:#808080;stroke-width:0.779378;stroke-linecap:round;stroke-linejoin:round;stroke-miterlimit:4;stroke-dasharray:none;stroke-dashoffset:0;stroke-opacity:1"
       id="rect814"
       width="566.14978"
       x="461.492"
       y="-793.3111"
       heightx="549.12811"
       height="377.17337"
       transform="rotate(90)" />
  </g>
  <g
     inkscape:groupmode="layer"
     id="layer1"
     inkscape:label="Overlay"
     style="display:inline"
     transform="translate(0,-328.81888)">
    <path
       style="opacity:1;fill:none;fill-opacity:1;stroke:#c0c0c0;stroke-width:0.378;stroke-linecap:round;stroke-linejoin:round;stroke-miterlimit:4;stroke-dasharray:none;stroke-dashoffset:0;stroke-opacity:1"
       d="m 564.52725,509.3282 c -8.21508,6.6971 -14.58814,21.04961 -15.31891,32.10229 -1.32182,19.99207 -0.69215,45.00013 14.21688,58.47562 0.10004,16.38868 -8.53439,14.92261 -12.78338,15.2041 -4.9515,0.32803 -10.40992,2.16343 -17.06003,5.09987 -5.33278,2.35475 -10.3753,8.44271 -12.97944,15.62589 -4.85636,13.39565 -2.34597,60.84452 -0.35356,74.95332 1.49442,10.58244 5.23266,11.40607 9.99418,14.00457 0.67099,22.0832 0.90969,32.97642 2.51017,74.2891 -0.21729,10.82845 -0.91329,20.92189 -0.41919,30.92704 0.58997,11.9466 1.52961,23.53021 2.41053,35.45889 2.1377,28.94702 7.88435,69.19347 4.24265,86.97413 -7.6417,12.53066 -13.00599,21.14835 -11.42095,28.24722 1.53414,6.87088 11.61785,6.8029 18.31524,4.63325 11.25877,-3.64733 15.49626,-22.57935 17.85444,-32.52691 0.35818,-9.57256 -2.3362,-16.27185 -0.88388,-24.21841 3.91279,-21.40935 5.65096,-41.4968 4.06586,-65.05382 1.6649,-23.30702 5.27927,-47.34873 6.01041,-74.77654 1.73114,8.57219 1.58075,4.65103 3.0052,13.25825 1.42445,8.60722 2.99872,25.66441 4.06587,38.53732 1.29242,15.59023 2.05582,31.27638 3.57842,46.84582 1.13322,11.58781 6.58217,30.45073 7.24279,39.67163 0.28562,3.0959 0.56749,16.01986 -0.19316,21.50415 0.48935,6.10929 0.58992,8.41508 3.86764,14.8382 3.39269,6.64842 8.47657,13.35321 14.08667,15.62589 10.02135,4.0597 22.56173,3.58769 20.38478,-6.4335 -2.27938,-10.49268 -9.91585,-21.31469 -14.49569,-26.87006 1.01212,-12.54601 2.18915,-45.17511 2.47488,-67.35192 0.0782,-6.06997 0.79638,-4.53678 0.7071,-10.6066 -0.34666,-23.56885 0.14903,-51.55652 -0.7071,-68.68368 l -0.59842,-54.39258 c 6.3964,-0.11096 11.67778,0.20217 12.10698,-2.92542 5.10843,-2.29475 9.27009,-8.28277 12.79823,-13.6519 6.48676,-7.63498 34.4259,-36.36692 40.74702,-45.96194 8.6208,-13.08578 7.95644,-17.05691 -1.06065,-24.74874 -6.57805,-5.61126 -50.48736,-35.3469 -56.74532,-38.53732 -5.42757,-2.76708 -14.76156,-5.10021 -22.68592,-5.15165 -6.98321,-0.0453 -7.18206,0.0819 -9.91834,-7.55765 11.68098,-2.17568 21.92349,-22.81536 23.69848,-39.83259 1.1913,-11.42121 0.81831,-22.53212 -1.15272,-33.31981 -1.03027,-5.63881 -7.46146,-20.5276 -16.96536,-25.29315 -10.59998,-5.31516 -24.71843,-4.84214 -32.6424,1.61764 z"
       id="path904"
       inkscape:connector-curvature="0"
       sodipodi:nodetypes="sscssssccsscsscscccssccssscssccccsssscssss" />
    <path
       style="opacity:1;fill:none;fill-opacity:1;stroke:#c0c0c0;stroke-width:0.378;stroke-linecap:round;stroke-linejoin:round;stroke-miterlimit:4;stroke-dasharray:none;stroke-dashoffset:0;stroke-opacity:1"
       d="m 531.08409,746.64825 c 10.46925,3.90522 73.16324,3.36613 85.16291,-2.23093"
       id="path914"
       inkscape:connector-curvature="0"
       sodipodi:nodetypes="cc" />
    <path
       style="opacity:1;fill:none;fill-opacity:1;stroke:#c0c0c0;stroke-width:0.378;stroke-linecap:round;stroke-linejoin:round;stroke-miterlimit:4;stroke-dasharray:none;stroke-dashoffset:0;stroke-opacity:1"
       d="m 572.55778,543.63376 c -1.36268,2.40718 0.68542,5.517 3.39017,6.09651 2.62247,0.56188 5.87222,-3.69912 4.25996,-6.96079 -1.35883,-2.74897 -6.47641,-1.20907 -7.65013,0.86428 z"
       id="path920"
       inkscape:connector-curvature="0"
       sodipodi:nodetypes="ssss" />
    <path
       style="opacity:1;fill:none;fill-opacity:1;stroke:#c0c0c0;stroke-width:0.378;stroke-linecap:round;stroke-linejoin:round;stroke-miterlimit:4;stroke-dasharray:none;stroke-dashoffset:0;stroke-opacity:1"
       d="m 598.48304,542.59714 c -2.07371,2.68404 0.70726,7.06641 4.09651,6.9349 3.58916,-0.13927 5.31823,-4.48597 2.92601,-7.16529 -1.89785,-2.12562 -5.34565,-1.94002 -7.02252,0.23039 z"
       id="path922"
       inkscape:connector-curvature="0"
       sodipodi:nodetypes="ssss" />
    <path
       style="opacity:1;fill:none;fill-opacity:1;stroke:#c0c0c0;stroke-width:0.378;stroke-linecap:round;stroke-linejoin:round;stroke-miterlimit:4;stroke-dasharray:none;stroke-dashoffset:0;stroke-opacity:1"
       d="m 570.47287,580.95264 c 12.37264,16.66868 25.25824,11.89967 35.24595,-0.46231 1.88161,-2.27819 -0.53628,-5.16716 -3.56066,-2.99632 -11.53779,8.27461 -18.26008,9.28637 -27.27107,1.30698 -3.40683,-3.01681 -6.60141,-1.58296 -4.41422,2.15165 z"
       id="path924"
       inkscape:connector-curvature="0"
       sodipodi:nodetypes="cccsc" />
    <path
       style="opacity:1;vector-effect:none;fill:none;fill-opacity:1;stroke:#c0c0c0;stroke-width:0.378;stroke-linecap:round;stroke-linejoin:round;stroke-miterlimit:4;stroke-dasharray:none;stroke-dashoffset:0;stroke-opacity:1"
       d="m 563.40443,599.9503 c 2.54219,3.7791 14.5816,6.17327 28.20045,6.22142"
       id="path965"
       inkscape:connector-curvature="0"
       sodipodi:nodetypes="cc" />
    <path
       style="opacity:1;vector-effect:none;fill:none;fill-opacity:1;stroke:#c0c0c0;stroke-width:0.378;stroke-linecap:round;stroke-linejoin:round;stroke-miterlimit:4;stroke-dasharray:none;stroke-dashoffset:0;stroke-opacity:1"
       d="m 530.08923,724.59533 c 16.9548,6.37184 41.11982,13.31841 59.9273,16.08668 7.31435,1.97034 5.52079,1.54636 12.02081,2.82842 5.43379,0.71343 9.9861,0.98611 14.49569,1.23744"
       id="path897"
       inkscape:connector-curvature="0"
       sodipodi:nodetypes="cccc" />
    <path
       style="opacity:1;vector-effect:none;fill:none;fill-opacity:1;stroke:#c0c0c0;stroke-width:0.378;stroke-linecap:round;stroke-linejoin:round;stroke-miterlimit:4;stroke-dasharray:none;stroke-dashoffset:0;stroke-opacity:1"
       d="m 542.99393,644.33871 c -0.59473,12.46078 -1.64892,25.13701 -1.58211,36.97818 0.0269,4.76764 -0.2491,14.5863 0.81954,19.51714 1.04421,4.81811 2.58085,6.04401 7.01562,7.94238 8.12105,3.47634 21.71014,8.55016 32.46104,12.46016 4.72225,1.71743 9.41322,2.75521 14.84925,1.94454 4.56248,-2.10453 8.81258,-3.63079 14.62068,-4.1783 2.80236,0.0827 4.35528,-0.33547 6.69423,0.51961 2.70738,0.93605 0.39599,4.93039 -1.31066,4.28185 -4.5841,0.11333 -7.97901,0.95021 -9.95127,2.43566 5.19221,2.36479 18.58532,3.56404 22.67896,3.40474 1.7229,0.156 1.28379,3.66181 0.4375,4.0625 2.2028,-0.0109 1.05088,4.29405 -0.12426,4.33176 1.11231,0.18989 -0.0266,3.73137 -1.14979,3.70757"
       id="path899"
       inkscape:connector-curvature="0"
       sodipodi:nodetypes="cssssccccccccc" />
    <path
       style="opacity:1;vector-effect:none;fill:none;fill-opacity:1;stroke:#c0c0c0;stroke-width:0.378;stroke-linecap:round;stroke-linejoin:round;stroke-miterlimit:4;stroke-dasharray:none;stroke-dashoffset:0;stroke-opacity:1"
       d="m 629.66421,733.71096 c -6.4375,0.42411 -12.875,-0.78788 -19.3125,-1.62879"
       id="path901"
       inkscape:connector-curvature="0"
       sodipodi:nodetypes="cc" />
    <path
       style="opacity:1;vector-effect:none;fill:none;fill-opacity:1;stroke:#c0c0c0;stroke-width:0.378;stroke-linecap:round;stroke-linejoin:round;stroke-miterlimit:4;stroke-dasharray:none;stroke-dashoffset:0;stroke-opacity:1"
       d="m 629.55438,738.01967 c -5.7663,0.26092 -13.66258,-1.04137 -19.59544,-1.94638"
       id="path903"
       inkscape:connector-curvature="0"
       sodipodi:nodetypes="cc" />
    <path
       style="opacity:1;vector-effect:none;fill:none;fill-opacity:1;stroke:#c0c0c0;stroke-width:0.378;stroke-linecap:round;stroke-linejoin:round;stroke-miterlimit:4;stroke-dasharray:none;stroke-dashoffset:0;stroke-opacity:1"
       d="m 628.41421,741.70717 c -5.67229,0.48844 -14.09822,-0.47143 -19.14093,-1.53033"
       id="path905"
       inkscape:connector-curvature="0"
       sodipodi:nodetypes="cc" />
    <path
       style="opacity:1;vector-effect:none;fill:none;fill-opacity:1;stroke:#c0c0c0;stroke-width:0.378;stroke-linecap:round;stroke-linejoin:round;stroke-miterlimit:4;stroke-dasharray:none;stroke-dashoffset:0;stroke-opacity:1"
       d="m 619.16258,721.41334 9.65643,-6.18718 c 11.46168,-13.66964 21.87953,-26.72196 30.67076,-43.66384 -12.9971,-7.03359 -24.89148,-16.44937 -36.94633,-25.36746 -3.5286,-1.79755 -6.8063,-0.086 -6.71751,2.12132 l -0.35356,70.64439"
       id="path907"
       inkscape:connector-curvature="0"
       sodipodi:nodetypes="cccccc" />
    <path
       style="opacity:1;vector-effect:none;fill:none;fill-opacity:1;stroke:#c0c0c0;stroke-width:0.378;stroke-linecap:round;stroke-linejoin:round;stroke-miterlimit:4;stroke-dasharray:none;stroke-dashoffset:0;stroke-opacity:1"
       d="m 590.1933,543.77789 c 0.15738,10.52756 6.29296,20.0702 3.53554,25.45585 -1.82721,3.56881 -6.18749,0.83576 -9.36917,0.35355"
       id="path909"
       inkscape:connector-curvature="0"
       sodipodi:nodetypes="csc" />
  </g>
</svg>
