<?xml version="1.0" encoding="UTF-8" standalone="no"?>
<!-- Created with Inkscape (http://www.inkscape.org/) -->

<svg
   xmlns:dc="http://purl.org/dc/elements/1.1/"
   xmlns:cc="http://creativecommons.org/ns#"
   xmlns:rdf="http://www.w3.org/1999/02/22-rdf-syntax-ns#"
   xmlns:svg="http://www.w3.org/2000/svg"
   xmlns="http://www.w3.org/2000/svg"
   xmlns:sodipodi="http://sodipodi.sourceforge.net/DTD/sodipodi-0.dtd"
   xmlns:inkscape="http://www.inkscape.org/namespaces/inkscape"
   width="297mm"
   height="210mm"
   id="svg2"
   version="1.1"
   inkscape:version="0.92.3 (2405546, 2018-03-11)"
   sodipodi:docname="RoundBug-undecorated.svg"
   inkscape:export-filename="/home/christian/SportsCar.svg.png"
   inkscape:export-xdpi="138.06"
   inkscape:export-ydpi="138.06">
  <defs
     id="defs4" />
  <sodipodi:namedview
     id="base"
     pagecolor="#ffffff"
     bordercolor="#666666"
     borderopacity="1.0"
     inkscape:pageopacity="0.0"
     inkscape:pageshadow="2"
     inkscape:zoom="0.70710682"
     inkscape:cx="801.81228"
     inkscape:cy="410.3472"
     inkscape:document-units="mm"
     inkscape:current-layer="Mask"
     showgrid="false"
     units="mm"
     inkscape:window-width="1920"
     inkscape:window-height="1080"
     inkscape:window-x="1920"
     inkscape:window-y="0"
     inkscape:window-maximized="0"
     inkscape:snap-global="false" />
  <metadata
     id="metadata7">
    <rdf:RDF>
      <cc:Work
         rdf:about="">
        <dc:format>image/svg+xml</dc:format>
        <dc:type
           rdf:resource="http://purl.org/dc/dcmitype/StillImage" />
        <dc:title />
      </cc:Work>
    </rdf:RDF>
  </metadata>
  <g
     inkscape:label="Mask"
     inkscape:groupmode="layer"
     id="Mask"
     style="display:inline;opacity:1"
     transform="translate(0,-328.81888)">
    <path
       style="opacity:1;vector-effect:none;fill:none;fill-opacity:1;stroke:#808080;stroke-width:0.75590551;stroke-linecap:round;stroke-linejoin:round;stroke-miterlimit:4;stroke-dasharray:none;stroke-dashoffset:0;stroke-opacity:1"
       d="m 593.10352,696.81779 c -1.24404,-13.38902 -0.29764,-29.99002 18.35356,-42.93198 -5.92354,-23.75344 -18.22592,-35.92782 -27.95711,-43.86612 -11.32218,-7.9383 -0.4946,-15.47262 8.75,-10.25 20.91186,13.0008 27.2485,33.07325 31.28033,46.40901 14.1081,-9.11488 40.96774,-13.05308 59.78033,-6.15901 4.05845,-15.76482 18.99961,-37.76907 30.68933,-43 15.75558,-5.76126 15.47172,9.19553 4,12.75 -6.69875,3.73125 -23.06549,24.50211 -25.74999,39 7.12783,7.23164 14.52228,16.46571 9,40.75 31.67335,-30.80286 119.62202,-52.36019 153.84098,-34.01777 41.03727,21.99725 48.38575,75.77337 11.40901,94.01777 l -16.25,7.75 c -2.33812,8.80247 -8.83238,21.75914 -26,32.62499 -17.54312,11.10351 -56.88707,10.98642 -72.75,7.125 -6.7466,-1.64229 -17.51337,-5.10378 -23.5,-11.5 0.30074,8.57154 -1.1575,14.11931 -2.5,20.25 1.0325,8.00569 0.8214,21.277 -0.5,30.75 -1.6264,11.65957 -3.0551,18.47394 -1.5,26.25 3.05282,15.26521 -9.07362,11.01376 -13.5,1.75 -2.8046,-5.86962 1.14327,-28.26686 0.5,-33.5 -2.44762,3.5 -6.85063,7 -11.24999,10.5 2.57161,6.97625 4.19457,17.19608 1.25,29 -3.34267,13.39977 -5.94568,36.83884 -7,45.375 -0.98199,7.95057 -11.58516,10.85155 -13.75,1.375 -2.1486,-9.40545 1.72339,-30.00794 4.75,-40 3.03078,-10.00583 2.80419,-20.15815 -0.25,-25 -17.49627,13.50807 -59.85137,21.02308 -83.25,3 -3.57275,6.63415 -2.1748,17.72386 -0.5,27.5 1.82212,10.63608 0.87174,26.65279 0.31066,34.75 -1.14437,16.51485 -15.41365,14.26111 -16.06066,4.5 -0.50096,-7.55771 4.17467,-27.21545 1.5,-39.5 -4.43068,-20.34976 -0.004,-30.20752 1.75,-34.5 -4.687,-3.75 -6.83442,-7.5 -9.25,-11.25 -0.6873,6.16667 -0.75111,12.32808 -0.75,18.5 0.002,12.09797 -16.10223,13.74077 -16.23744,-8.69975 -0.0713,-11.839 6.79529,-35.11266 9.48744,-46.55025 -0.94133,-6.85799 -0.43079,-12.26413 0,-17.75 -19.85909,18.29731 -81.58511,29.16406 -103.99999,16 -7.38715,-4.33841 -13.46392,-9.85834 -16.61612,-20.29289 -16.93,5.17929 -79.73011,-48.65747 -18.38388,-90.9571 51.21106,-35.3112 108.50705,-12.62326 127.24999,-7.25 9.12555,2.61613 26.97599,12.25004 33.60355,17.0481 z"
       id="path897"
       inkscape:connector-curvature="0"
       sodipodi:nodetypes="ccccccccccsccssccsssccssssccssssccssccscssc" />
  </g>
  <g
     inkscape:groupmode="layer"
     id="layer1"
     inkscape:label="Overlay"
     style="display:inline;opacity:1"
     transform="translate(0,-328.81888)"
     sodipodi:insensitive="true">
    <path
       style="display:inline;opacity:1;fill:none;stroke:#c0c0c0;stroke-width:0.37795275;stroke-linecap:round;stroke-linejoin:round;stroke-miterlimit:4;stroke-dasharray:none;stroke-opacity:1"
       d="m -360.36612,1179.8467 c -1.29579,6.2208 -1.19483,7.7596 -0.20406,8.2641"
       id="path943"
       inkscape:connector-curvature="0"
       sodipodi:nodetypes="cc" />
    <path
       style="display:inline;opacity:1;fill:none;stroke:#c0c0c0;stroke-width:0.37795275;stroke-linecap:round;stroke-linejoin:round;stroke-miterlimit:4;stroke-dasharray:none;stroke-opacity:1"
       d="m -246.84952,1180.3588 c 1.2958,6.2207 1.19484,7.7596 0.20405,8.2641"
       id="path943-6"
       inkscape:connector-curvature="0"
       sodipodi:nodetypes="cc" />
    <path
       style="fill:none;stroke:#c0c0c0;stroke-width:0.37795275;stroke-linecap:round;stroke-linejoin:round;stroke-miterlimit:4;stroke-dasharray:none;stroke-dashoffset:0;stroke-opacity:1"
       d="m -311.58971,1289.874 c 5.25076,0.283 10.49858,0.5425 15.65518,0.072"
       id="path961"
       inkscape:connector-curvature="0"
       sodipodi:nodetypes="cc" />
    <path
       style="fill:none;stroke:#c0c0c0;stroke-width:0.37795275;stroke-linecap:round;stroke-linejoin:round;stroke-miterlimit:4;stroke-dasharray:none;stroke-opacity:1"
       d="m -314.17361,1295.3407 c -0.18395,3.8206 -0.17272,7.9639 0,12.4728"
       id="path963"
       inkscape:connector-curvature="0"
       sodipodi:nodetypes="cc" />
    <path
       style="fill:none;stroke:#c0c0c0;stroke-width:0.37795275;stroke-linecap:round;stroke-linejoin:round;stroke-miterlimit:4;stroke-dasharray:none;stroke-opacity:1"
       d="m -293.36019,1295.2642 c 0.18331,4.3409 0.15951,8.3472 0.0255,12.4983"
       id="path965"
       inkscape:connector-curvature="0"
       sodipodi:nodetypes="cc" />
    <path
       style="opacity:1;vector-effect:none;fill:none;fill-opacity:1;stroke:#c0c0c0;stroke-width:0.37795275;stroke-linecap:round;stroke-linejoin:round;stroke-miterlimit:4;stroke-dasharray:none;stroke-dashoffset:0;stroke-opacity:1"
       d="m 593.1541,696.91953 c 6.31041,39.78088 88.3992,47.42758 108.16099,-7.31616"
       id="path899"
       inkscape:connector-curvature="0"
       sodipodi:nodetypes="cc" />
    <path
       style="opacity:1;vector-effect:none;fill:none;fill-opacity:1;stroke:#c0c0c0;stroke-width:0.37795275;stroke-linecap:round;stroke-linejoin:round;stroke-miterlimit:4;stroke-dasharray:none;stroke-dashoffset:0;stroke-opacity:1"
       d="m 571.24997,782.14468 c 5.08626,-25.78983 13.65159,-49.40525 32,-66.90624"
       id="path901"
       inkscape:connector-curvature="0"
       sodipodi:nodetypes="cc" />
    <path
       style="opacity:1;vector-effect:none;fill:none;fill-opacity:1;stroke:#c0c0c0;stroke-width:0.37795275;stroke-linecap:round;stroke-linejoin:round;stroke-miterlimit:4;stroke-dasharray:none;stroke-dashoffset:0;stroke-opacity:1"
       d="m 693.56247,704.45719 c 26.57954,21.98737 36.8387,49.41487 34.43749,81.06249"
       id="path903"
       inkscape:connector-curvature="0"
       sodipodi:nodetypes="cc" />
    <path
       style="opacity:1;vector-effect:none;fill:none;fill-opacity:1;stroke:#c0c0c0;stroke-width:0.37795275;stroke-linecap:round;stroke-linejoin:round;stroke-miterlimit:4;stroke-dasharray:none;stroke-dashoffset:0;stroke-opacity:1"
       d="m 600.68718,734.84839 c -9.35107,3.98265 -13.20791,12.33577 -14.31891,22.45064 -0.96945,8.82622 -0.66428,14.86202 -0.53033,22.98097 0.18374,11.13625 -2.56334,20.07117 -3.0052,30.58237 -0.57698,13.72572 15.8368,11.95451 15.20279,1.41421 -0.33484,-5.56674 0.18469,-16.74025 0.53033,-24.92551 0.35251,-8.34795 -0.91867,-16.60239 1.59099,-24.57196 1.17243,-3.72311 5.65685,-10.25305 5.65685,-10.25305"
       id="path905"
       inkscape:connector-curvature="0"
       sodipodi:nodetypes="cssssssc" />
    <path
       style="opacity:1;vector-effect:none;fill:none;fill-opacity:1;stroke:#c0c0c0;stroke-width:0.37795275;stroke-linecap:round;stroke-linejoin:round;stroke-miterlimit:4;stroke-dasharray:none;stroke-dashoffset:0;stroke-opacity:1"
       d="m 571.25386,799.90221 c 1.44736,-6.30282 5.57264,-14.72889 8.30851,-16.52862"
       id="path907"
       inkscape:connector-curvature="0"
       sodipodi:nodetypes="cc" />
    <path
       style="opacity:1;vector-effect:none;fill:none;fill-opacity:1;stroke:#c0c0c0;stroke-width:0.37795275;stroke-linecap:round;stroke-linejoin:round;stroke-miterlimit:4;stroke-dasharray:none;stroke-dashoffset:0;stroke-opacity:1"
       d="m 578.76687,836.76015 c 1.53207,-10.91825 3.52817,-16.04535 5.06024,-20.15254"
       id="path909"
       inkscape:connector-curvature="0"
       sodipodi:nodetypes="cc" />
    <path
       style="opacity:1;vector-effect:none;fill:none;fill-opacity:1;stroke:#c0c0c0;stroke-width:0.37795275;stroke-linecap:round;stroke-linejoin:round;stroke-miterlimit:4;stroke-dasharray:none;stroke-dashoffset:0;stroke-opacity:1"
       d="m 588.02965,848.01968 c 1.97752,-3.64204 3.6124,-7.28408 6.11807,-10.92613"
       id="path911"
       inkscape:connector-curvature="0"
       sodipodi:nodetypes="cc" />
    <path
       style="opacity:1;vector-effect:none;fill:none;fill-opacity:1;stroke:#c0c0c0;stroke-width:0.37795275;stroke-linecap:round;stroke-linejoin:round;stroke-miterlimit:4;stroke-dasharray:none;stroke-dashoffset:0;stroke-opacity:1"
       d="m 601.10287,855.2621 c 2.13887,-4.17851 5.12377,-8.51083 8.16227,-12.85291"
       id="path913"
       inkscape:connector-curvature="0"
       sodipodi:nodetypes="cc" />
    <path
       style="opacity:1;vector-effect:none;fill:none;fill-opacity:1;stroke:#c0c0c0;stroke-width:0.37795275;stroke-linecap:round;stroke-linejoin:round;stroke-miterlimit:4;stroke-dasharray:none;stroke-dashoffset:0;stroke-opacity:1"
       d="m 699.18747,841.39468 c -1.61371,-3.4761 -3.59266,-5.8237 -5.9375,-8"
       id="path915"
       inkscape:connector-curvature="0"
       sodipodi:nodetypes="cc" />
    <path
       style="opacity:1;vector-effect:none;fill:none;fill-opacity:1;stroke:#c0c0c0;stroke-width:0.37795275;stroke-linecap:round;stroke-linejoin:round;stroke-miterlimit:4;stroke-dasharray:none;stroke-dashoffset:0;stroke-opacity:1"
       d="m 684.24997,852.17593 c -1.56521,-3.13512 -3.02177,-5.31 -4.90625,-7.6875"
       id="path917"
       inkscape:connector-curvature="0"
       sodipodi:nodetypes="cc" />
    <path
       style="opacity:1;vector-effect:none;fill:none;fill-opacity:1;stroke:#c0c0c0;stroke-width:0.37795275;stroke-linecap:round;stroke-linejoin:round;stroke-miterlimit:4;stroke-dasharray:none;stroke-dashoffset:0;stroke-opacity:1"
       d="m 702.74997,728.14469 c 12.15242,8.11455 15.20299,20.05161 12.74999,33.375 -2.82406,15.33876 -1.22907,29.43981 0.125,43.74999 2.37024,25.04927 -11.59835,18.22365 -13.62499,8.375 -3.53213,-17.16475 -2.43817,-31.90376 -1.5,-47.25 0.83605,-13.67584 -2.05517,-20.64108 -7.125,-23.99999"
       id="path919"
       inkscape:connector-curvature="0"
       sodipodi:nodetypes="cssssc" />
    <path
       style="opacity:1;vector-effect:none;fill:none;fill-opacity:1;stroke:#c0c0c0;stroke-width:0.37795275;stroke-linecap:round;stroke-linejoin:round;stroke-miterlimit:4;stroke-dasharray:none;stroke-dashoffset:0;stroke-opacity:1"
       d="m 710.42131,830.88233 c 0.0184,-2.61942 -0.0542,-5.82389 -0.50704,-8.36971"
       id="path921"
       inkscape:connector-curvature="0"
       sodipodi:nodetypes="cc" />
    <path
       style="opacity:1;vector-effect:none;fill:none;fill-opacity:1;stroke:#c0c0c0;stroke-width:0.37795275;stroke-linecap:round;stroke-linejoin:round;stroke-miterlimit:4;stroke-dasharray:none;stroke-dashoffset:0;stroke-opacity:1"
       d="m 725.44733,805.86843 c -0.73295,-3.53315 -1.66157,-7.02438 -4.02167,-10.20886"
       id="path923"
       inkscape:connector-curvature="0"
       sodipodi:nodetypes="cc" />
    <path
       style="opacity:1;vector-effect:none;fill:none;fill-opacity:1;stroke:#c0c0c0;stroke-width:0.37795275;stroke-linecap:round;stroke-linejoin:round;stroke-miterlimit:4;stroke-dasharray:none;stroke-dashoffset:0;stroke-opacity:1"
       d="M 450.62587,777.81618 C 442.0534,732.53321 494.57678,677.11335 589.59222,731.84319"
       id="path926"
       inkscape:connector-curvature="0"
       sodipodi:nodetypes="cc" />
    <path
       style="opacity:1;vector-effect:none;fill:none;fill-opacity:1;stroke:#c0c0c0;stroke-width:0.37795275;stroke-linecap:round;stroke-linejoin:round;stroke-miterlimit:4;stroke-dasharray:none;stroke-dashoffset:0;stroke-opacity:1"
       d="M 850.20309,757.19156 C 862.8495,680.32433 751.96588,693.56174 715.65052,729.40227"
       id="path928"
       inkscape:connector-curvature="0"
       sodipodi:nodetypes="cc" />
    <path
       style="opacity:1;vector-effect:none;fill:none;fill-opacity:1;stroke:#c0c0c0;stroke-width:0.37795275;stroke-linecap:round;stroke-linejoin:round;stroke-miterlimit:4;stroke-dasharray:none;stroke-dashoffset:0;stroke-opacity:1"
       d="m 611.49997,653.95719 c 0.39575,2.28275 0.72108,4.17601 0.75,6"
       id="path930"
       inkscape:connector-curvature="0"
       sodipodi:nodetypes="cc" />
    <path
       style="opacity:1;vector-effect:none;fill:none;fill-opacity:1;stroke:#c0c0c0;stroke-width:0.37795275;stroke-linecap:round;stroke-linejoin:round;stroke-miterlimit:4;stroke-dasharray:none;stroke-dashoffset:0;stroke-opacity:1"
       d="m 623.59372,646.20719 c 0.58221,2.25372 1.05303,4.63163 1.09375,6.5"
       id="path932"
       inkscape:connector-curvature="0"
       sodipodi:nodetypes="cc" />
    <path
       style="opacity:1;vector-effect:none;fill:none;fill-opacity:1;stroke:#c0c0c0;stroke-width:0.37795275;stroke-linecap:round;stroke-linejoin:round;stroke-miterlimit:4;stroke-dasharray:none;stroke-dashoffset:0;stroke-opacity:1"
       d="m 683.28122,640.09781 c -0.59307,2.09375 -1.26879,4.28125 -1.59375,6.35938"
       id="path934"
       inkscape:connector-curvature="0"
       sodipodi:nodetypes="cc" />
    <path
       style="opacity:1;vector-effect:none;fill:none;fill-opacity:1;stroke:#c0c0c0;stroke-width:0.37795275;stroke-linecap:round;stroke-linejoin:round;stroke-miterlimit:4;stroke-dasharray:none;stroke-dashoffset:0;stroke-opacity:1"
       d="m 692.21872,648.78531 c -0.17852,1.07526 -0.33853,1.9844 -0.46875,3.17188"
       id="path936"
       inkscape:connector-curvature="0"
       sodipodi:nodetypes="cc" />
  </g>
  <g
     inkscape:groupmode="layer"
     id="layer3"
     inkscape:label="Detailed"
     style="display:inline">
    <path
       style="opacity:1;vector-effect:none;fill:none;fill-opacity:1;stroke:#c0c0c0;stroke-width:0.37795275;stroke-linecap:round;stroke-linejoin:round;stroke-miterlimit:4;stroke-dasharray:none;stroke-dashoffset:0;stroke-opacity:1"
       d="m 627.49997,338.95081 c 1.52547,-3.63752 5.70691,-6.97514 9.25,-3.625 3.54309,3.35014 1.0402,10.64263 -3.5,11.375 -4.5402,0.73237 -7.27547,-4.11248 -5.75,-7.75 z"
       id="path938"
       inkscape:connector-curvature="0"
       sodipodi:nodetypes="zzzz" />
    <path
       style="opacity:1;vector-effect:none;fill:none;fill-opacity:1;stroke:#c0c0c0;stroke-width:0.37795275;stroke-linecap:round;stroke-linejoin:round;stroke-miterlimit:4;stroke-dasharray:none;stroke-dashoffset:0;stroke-opacity:1"
       d="m 665.24997,337.95081 c 3.12456,-3.47207 8.34056,-2.8044 10.625,1.25 2.28444,4.0544 -3.47577,10.35469 -7.875,9.375 -4.39923,-0.97969 -5.87456,-7.15293 -2.75,-10.625 z"
       id="path940"
       inkscape:connector-curvature="0"
       sodipodi:nodetypes="zzzz" />
    <path
       style="opacity:1;vector-effect:none;fill:none;fill-opacity:1;stroke:#c0c0c0;stroke-width:0.37795275;stroke-linecap:round;stroke-linejoin:round;stroke-miterlimit:4;stroke-dasharray:none;stroke-dashoffset:0;stroke-opacity:1"
       d="m 622.99997,362.82581 c 5.00191,37.76539 46.10379,24.13491 47.375,0.5 -10.33361,9.80782 -37.02989,12.92176 -47.375,-0.5 z"
       id="path942"
       inkscape:connector-curvature="0"
       sodipodi:nodetypes="ccc" />
    <path
       style="opacity:1;vector-effect:none;fill:none;fill-opacity:1;stroke:#c0c0c0;stroke-width:0.37795275;stroke-linecap:round;stroke-linejoin:round;stroke-miterlimit:4;stroke-dasharray:none;stroke-dashoffset:0;stroke-opacity:1"
       d="m 594.24997,396.45081 c 42.18887,11.67824 79.43855,5.24611 116.05112,-3.5221"
       id="path946"
       inkscape:connector-curvature="0"
       sodipodi:nodetypes="cc" />
    <path
       style="opacity:1;vector-effect:none;fill:none;fill-opacity:1;stroke:#c0c0c0;stroke-width:0.37795275;stroke-linecap:round;stroke-linejoin:round;stroke-miterlimit:4;stroke-dasharray:none;stroke-dashoffset:0;stroke-opacity:1"
       d="m 577.05543,430.61242 c 2.98931,0.31726 5.98136,0.61249 8.97628,0.8849 m 14.69889,1.14271 c 32.88599,2.14843 66.03908,1.41002 99.77595,-3.24863 m 15.73458,-2.45462 c 3.12358,-0.54373 6.25149,-1.12211 9.38383,-1.73597"
       id="path948"
       inkscape:connector-curvature="0"
       sodipodi:nodetypes="cccccc" />
    <path
       style="opacity:1;vector-effect:none;fill:none;fill-opacity:1;stroke:#c0c0c0;stroke-width:0.37795275;stroke-linecap:round;stroke-linejoin:round;stroke-miterlimit:4;stroke-dasharray:none;stroke-dashoffset:0;stroke-opacity:1"
       d="m 570.81799,459.83339 c 1.47211,0.21612 2.94358,0.42831 4.41434,0.63633 m 23.12784,2.8988 c 34.41211,3.70442 68.32094,4.38917 101.19797,-1.11691 m 14.69643,-2.9002 c 4.56243,-1.04138 9.10305,-2.21367 13.62039,-3.5256"
       id="path950"
       inkscape:connector-curvature="0"
       sodipodi:nodetypes="cccccc" />
    <path
       style="opacity:1;vector-effect:none;fill:none;fill-opacity:1;stroke:#c0c0c0;stroke-width:0.37795275;stroke-linecap:round;stroke-linejoin:round;stroke-miterlimit:4;stroke-dasharray:none;stroke-dashoffset:0;stroke-opacity:1"
       d="m 595.69032,489.77376 c 35.06373,5.57244 70.80356,7.49393 108.31092,-0.12919"
       id="path952"
       inkscape:connector-curvature="0"
       sodipodi:nodetypes="cc" />
    <path
       style="display:inline;opacity:1;vector-effect:none;fill:none;fill-opacity:1;stroke:#c0c0c0;stroke-width:0.37795275;stroke-linecap:round;stroke-linejoin:round;stroke-miterlimit:4;stroke-dasharray:none;stroke-dashoffset:0;stroke-opacity:1"
       d="m 584.41127,515.52402 c 1.71816,0.22194 3.49083,0.44419 5.20795,0.66509 m 16.49343,2.025 c 24.31369,2.76008 48.80577,4.18698 74.75179,-0.41077"
       id="path948-3"
       inkscape:connector-curvature="0"
       sodipodi:nodetypes="cccc" />
    <path
       style="opacity:1;vector-effect:none;fill:none;fill-opacity:1;stroke:#c0c0c0;stroke-width:0.37795275;stroke-linecap:round;stroke-linejoin:round;stroke-miterlimit:4;stroke-dasharray:none;stroke-dashoffset:0;stroke-opacity:1"
       d="m 585.66116,409.56505 c -12.05976,-6.16694 -111.38827,-49.27464 -125.51144,20.32932 -7.51336,37.02845 45.24133,50.66641 112.51836,16.13087"
       id="path1019"
       inkscape:connector-curvature="0"
       sodipodi:nodetypes="csc" />
    <circle
       style="opacity:1;vector-effect:none;fill:none;fill-opacity:1;stroke:#c0c0c0;stroke-width:0.37795275;stroke-linecap:round;stroke-linejoin:round;stroke-miterlimit:4;stroke-dasharray:none;stroke-dashoffset:0;stroke-opacity:1"
       id="path1044"
       cx="510.28424"
       cy="413.82568"
       r="9.999999" />
    <circle
       style="display:inline;opacity:1;vector-effect:none;fill:none;fill-opacity:1;stroke:#c0c0c0;stroke-width:0.37795275;stroke-linecap:round;stroke-linejoin:round;stroke-miterlimit:4;stroke-dasharray:none;stroke-dashoffset:0;stroke-opacity:1"
       id="path1044-5"
       cx="481.42889"
       cy="429.95816"
       r="9.999999" />
    <circle
       style="display:inline;opacity:1;vector-effect:none;fill:none;fill-opacity:1;stroke:#c0c0c0;stroke-width:0.37795275;stroke-linecap:round;stroke-linejoin:round;stroke-miterlimit:4;stroke-dasharray:none;stroke-dashoffset:0;stroke-opacity:1"
       id="path1044-6"
       cx="530.42029"
       cy="435.70081"
       r="9.999999" />
    <circle
       style="display:inline;opacity:1;vector-effect:none;fill:none;fill-opacity:1;stroke:#c0c0c0;stroke-width:0.37795275;stroke-linecap:round;stroke-linejoin:round;stroke-miterlimit:4;stroke-dasharray:none;stroke-dashoffset:0;stroke-opacity:1"
       id="path1044-2"
       cx="560.12134"
       cy="421.61502"
       r="9.999999" />
    <circle
       style="display:inline;opacity:1;vector-effect:none;fill:none;fill-opacity:1;stroke:#c0c0c0;stroke-width:0.37795275;stroke-linecap:round;stroke-linejoin:round;stroke-miterlimit:4;stroke-dasharray:none;stroke-dashoffset:0;stroke-opacity:1"
       id="path1044-9"
       cx="739.99994"
       cy="415.20081"
       r="9.999999" />
    <circle
       style="display:inline;opacity:1;vector-effect:none;fill:none;fill-opacity:1;stroke:#c0c0c0;stroke-width:0.37795275;stroke-linecap:round;stroke-linejoin:round;stroke-miterlimit:4;stroke-dasharray:none;stroke-dashoffset:0;stroke-opacity:1"
       id="path1044-1"
       cx="793.22791"
       cy="404.78659"
       r="9.999999" />
    <circle
       style="display:inline;opacity:1;vector-effect:none;fill:none;fill-opacity:1;stroke:#c0c0c0;stroke-width:0.37795275;stroke-linecap:round;stroke-linejoin:round;stroke-miterlimit:4;stroke-dasharray:none;stroke-dashoffset:0;stroke-opacity:1"
       id="path1044-27"
       cx="815.69232"
       cy="434.35767"
       r="9.999999" />
    <circle
       style="display:inline;opacity:1;vector-effect:none;fill:none;fill-opacity:1;stroke:#c0c0c0;stroke-width:0.37795275;stroke-linecap:round;stroke-linejoin:round;stroke-miterlimit:4;stroke-dasharray:none;stroke-dashoffset:0;stroke-opacity:1"
       id="path1044-60"
       cx="768.94971"
       cy="431.78659"
       r="9.999999" />
    <path
       style="opacity:1;vector-effect:none;fill:none;fill-opacity:1;stroke:#c0c0c0;stroke-width:0.37795275;stroke-linecap:round;stroke-linejoin:round;stroke-miterlimit:4;stroke-dasharray:none;stroke-dashoffset:0;stroke-opacity:1"
       d="m 718.97094,406.42871 c 6.83606,-6.99488 32.26766,-21.27632 59.30833,-26.06229 28.89981,-5.11503 59.45975,1.6171 65.39141,30.41064 6.01315,29.18918 -18.62613,47.20113 -48.65622,51.76906 -27.31035,4.15422 -59.64129,-4.53625 -66.60289,-15.63951"
       id="path1130"
       inkscape:connector-curvature="0"
       sodipodi:nodetypes="csssc" />
    <circle
       style="display:inline;opacity:1;vector-effect:none;fill:none;fill-opacity:1;stroke:#c0c0c0;stroke-width:0.37795275;stroke-linecap:round;stroke-linejoin:round;stroke-miterlimit:4;stroke-dasharray:none;stroke-dashoffset:0;stroke-opacity:1"
       id="path1044-3"
       cx="430.99997"
       cy="405.20081"
       r="9.999999" />
    <circle
       style="display:inline;opacity:1;vector-effect:none;fill:none;fill-opacity:1;stroke:#c0c0c0;stroke-width:0.37795275;stroke-linecap:round;stroke-linejoin:round;stroke-miterlimit:4;stroke-dasharray:none;stroke-dashoffset:0;stroke-opacity:1"
       id="path1044-3-2"
       cx="456.49997"
       cy="371.20081"
       r="9.999999" />
    <circle
       style="display:inline;opacity:1;vector-effect:none;fill:none;fill-opacity:1;stroke:#c0c0c0;stroke-width:0.37795275;stroke-linecap:round;stroke-linejoin:round;stroke-miterlimit:4;stroke-dasharray:none;stroke-dashoffset:0;stroke-opacity:1"
       id="path1044-3-6"
       cx="561.5"
       cy="373.70081"
       r="9.999999" />
    <circle
       style="display:inline;opacity:1;vector-effect:none;fill:none;fill-opacity:1;stroke:#c0c0c0;stroke-width:0.37795275;stroke-linecap:round;stroke-linejoin:round;stroke-miterlimit:4;stroke-dasharray:none;stroke-dashoffset:0;stroke-opacity:1"
       id="path1044-3-1"
       cx="727.99994"
       cy="365.70081"
       r="9.999999" />
    <circle
       style="display:inline;opacity:1;vector-effect:none;fill:none;fill-opacity:1;stroke:#c0c0c0;stroke-width:0.37795275;stroke-linecap:round;stroke-linejoin:round;stroke-miterlimit:4;stroke-dasharray:none;stroke-dashoffset:0;stroke-opacity:1"
       id="path1044-3-8"
       cx="779.99994"
       cy="349.70081"
       r="9.999999" />
    <circle
       style="display:inline;opacity:1;vector-effect:none;fill:none;fill-opacity:1;stroke:#c0c0c0;stroke-width:0.37795275;stroke-linecap:round;stroke-linejoin:round;stroke-miterlimit:4;stroke-dasharray:none;stroke-dashoffset:0;stroke-opacity:1"
       id="path1044-3-7"
       cx="869.99994"
       cy="387.70081"
       r="9.999999" />
    <circle
       style="display:inline;opacity:1;vector-effect:none;fill:none;fill-opacity:1;stroke:#c0c0c0;stroke-width:0.37795275;stroke-linecap:round;stroke-linejoin:round;stroke-miterlimit:4;stroke-dasharray:none;stroke-dashoffset:0;stroke-opacity:1"
       id="path1044-3-9"
       cx="835.99994"
       cy="347.70081"
       r="9.999999" />
    <circle
       style="display:inline;opacity:1;vector-effect:none;fill:none;fill-opacity:1;stroke:#c0c0c0;stroke-width:0.37795275;stroke-linecap:round;stroke-linejoin:round;stroke-miterlimit:4;stroke-dasharray:none;stroke-dashoffset:0;stroke-opacity:1"
       id="path1044-3-20"
       cx="511.49997"
       cy="360.70081"
       r="9.999999" />
  </g>
</svg>
