<?xml version="1.0" encoding="UTF-8" standalone="no"?>
<!-- Created with Inkscape (http://www.inkscape.org/) -->

<svg
   xmlns:dc="http://purl.org/dc/elements/1.1/"
   xmlns:cc="http://creativecommons.org/ns#"
   xmlns:rdf="http://www.w3.org/1999/02/22-rdf-syntax-ns#"
   xmlns:svg="http://www.w3.org/2000/svg"
   xmlns="http://www.w3.org/2000/svg"
   xmlns:sodipodi="http://sodipodi.sourceforge.net/DTD/sodipodi-0.dtd"
   xmlns:inkscape="http://www.inkscape.org/namespaces/inkscape"
   width="297mm"
   height="210mm"
   id="svg2"
   version="1.1"
   inkscape:version="0.92.3 (2405546, 2018-03-11)"
   sodipodi:docname="PhotoChildWithSchoolCone-undecorated-d-2.svg"
   inkscape:export-filename="/home/christian/SportsCar.svg.png"
   inkscape:export-xdpi="138.06"
   inkscape:export-ydpi="138.06">
  <defs
     id="defs4" />
  <sodipodi:namedview
     id="base"
     pagecolor="#ffffff"
     bordercolor="#666666"
     borderopacity="1.0"
     inkscape:pageopacity="0.0"
     inkscape:pageshadow="2"
     inkscape:zoom="1"
     inkscape:cx="561.25984"
     inkscape:cy="396.85039"
     inkscape:document-units="mm"
     inkscape:current-layer="Mask"
     showgrid="false"
     units="mm"
     inkscape:window-width="1920"
     inkscape:window-height="1080"
     inkscape:window-x="1920"
     inkscape:window-y="0"
     inkscape:window-maximized="0"
     inkscape:snap-global="false" />
  <metadata
     id="metadata7">
    <rdf:RDF>
      <cc:Work
         rdf:about="">
        <dc:format>image/svg+xml</dc:format>
        <dc:type
           rdf:resource="http://purl.org/dc/dcmitype/StillImage" />
        <dc:title />
      </cc:Work>
    </rdf:RDF>
  </metadata>
  <g
     inkscape:label="Mask"
     inkscape:groupmode="layer"
     id="Mask"
     style="display:inline;opacity:1"
     transform="translate(0,-328.81888)">
    <rect
       style="display:inline;opacity:1;fill:none;fill-opacity:1;stroke:#808080;stroke-width:0.75590551;stroke-linecap:round;stroke-linejoin:round;stroke-miterlimit:4;stroke-dasharray:none;stroke-dashoffset:0;stroke-opacity:1"
       id="rect814"
       width="566.14978"
       x="461.50375"
       y="-793.29938"
       heightx="549.12811"
       height="377.17337"
       transform="rotate(90)" />
  </g>
  <g
     inkscape:groupmode="layer"
     id="layer1"
     inkscape:label="Overlay"
     style="display:inline"
     transform="translate(0,-328.81888)">
    <path
       style="opacity:1;fill:none;fill-opacity:1;stroke:#c0c0c0;stroke-width:0.37795275;stroke-linecap:round;stroke-linejoin:round;stroke-miterlimit:4;stroke-dasharray:none;stroke-dashoffset:0;stroke-opacity:1"
       d="m 561.04073,649.17907 c -3.84812,15.40851 -7.60949,31.90588 -7.62348,44.6731 -0.0261,7.17438 3.03559,14.02827 7.15169,22.08173 z"
       id="path906"
       inkscape:connector-curvature="0"
       sodipodi:nodetypes="cccc" />
    <path
       style="opacity:1;fill:none;fill-opacity:1;stroke:#c0c0c0;stroke-width:0.37795275;stroke-linecap:round;stroke-linejoin:round;stroke-miterlimit:4;stroke-dasharray:none;stroke-dashoffset:0;stroke-opacity:1"
       d="m 601.08773,749.13458 c 18.98642,-0.28661 38.56266,-1.8273 44.73333,-4.70551"
       id="path914"
       inkscape:connector-curvature="0"
       sodipodi:nodetypes="cc" />
    <path
       style="opacity:1;fill:none;fill-opacity:1;stroke:#c0c0c0;stroke-width:0.37795275;stroke-linecap:round;stroke-linejoin:round;stroke-miterlimit:4;stroke-dasharray:none;stroke-dashoffset:0;stroke-opacity:1"
       d="m 570.69087,535.43856 c -1.7953,9.98004 -2.00052,20.73858 -0.17678,31.73142"
       id="path916"
       inkscape:connector-curvature="0"
       sodipodi:nodetypes="cc" />
    <path
       style="opacity:1;fill:none;fill-opacity:1;stroke:#c0c0c0;stroke-width:0.37795275;stroke-linecap:round;stroke-linejoin:round;stroke-miterlimit:4;stroke-dasharray:none;stroke-dashoffset:0;stroke-opacity:1"
       d="m 642.70734,533.15325 c 0.94357,9.85736 0.51426,21.48849 -0.96676,31.8198"
       id="path918"
       inkscape:connector-curvature="0"
       sodipodi:nodetypes="cc" />
    <path
       style="opacity:1;fill:none;fill-opacity:1;stroke:#c0c0c0;stroke-width:0.37795275;stroke-linecap:round;stroke-linejoin:round;stroke-miterlimit:4;stroke-dasharray:none;stroke-dashoffset:0;stroke-opacity:1"
       d="m 586.75227,532.86213 c -1.36268,2.40718 0.68542,5.517 3.39017,6.09651 2.62247,0.56188 5.87222,-3.69912 4.25996,-6.96079 -1.35883,-2.74897 -6.47641,-1.20907 -7.65013,0.86428 z"
       id="path920"
       inkscape:connector-curvature="0"
       sodipodi:nodetypes="ssss" />
    <path
       style="opacity:1;fill:none;fill-opacity:1;stroke:#c0c0c0;stroke-width:0.37795275;stroke-linecap:round;stroke-linejoin:round;stroke-miterlimit:4;stroke-dasharray:none;stroke-dashoffset:0;stroke-opacity:1"
       d="m 619.04149,531.82551 c -2.07371,2.68404 0.70726,7.06641 4.09651,6.9349 3.58916,-0.13927 5.31823,-4.48597 2.92601,-7.16529 -1.89785,-2.12562 -5.34565,-1.94002 -7.02252,0.23039 z"
       id="path922"
       inkscape:connector-curvature="0"
       sodipodi:nodetypes="ssss" />
    <path
       style="opacity:1;fill:none;fill-opacity:1;stroke:#c0c0c0;stroke-width:0.37795275;stroke-linecap:round;stroke-linejoin:round;stroke-miterlimit:4;stroke-dasharray:none;stroke-dashoffset:0;stroke-opacity:1"
       d="m 585.79693,571.58939 c 10.72412,13.60715 20.69,22.96937 41.87095,-2.46231 1.00264,-1.59455 -0.0575,-2.7201 -1.06066,-2.12132 -13.39044,7.56021 -24.41075,6.71722 -39.39607,1.93198 -1.61138,-0.4936 -2.24636,1.51544 -1.41422,2.65165 z"
       id="path924"
       inkscape:connector-curvature="0"
       sodipodi:nodetypes="ccccc" />
    <path
       style="opacity:1;vector-effect:none;fill:none;fill-opacity:1;stroke:#c0c0c0;stroke-width:0.37795275;stroke-linecap:round;stroke-linejoin:round;stroke-miterlimit:4;stroke-dasharray:none;stroke-dashoffset:0;stroke-opacity:1"
       d="m 592.97849,599.96205 c 6.91545,0.81466 17.96771,0.86148 21.80982,-0.0442"
       id="path965"
       inkscape:connector-curvature="0"
       sodipodi:nodetypes="cc" />
    <path
       style="display:inline;opacity:1;vector-effect:none;fill:none;fill-opacity:0.97690531;stroke:#c0c0c0;stroke-width:0.37795275;stroke-linecap:round;stroke-linejoin:round;stroke-miterlimit:4;stroke-dasharray:none;stroke-dashoffset:0;stroke-opacity:1"
       d="m 561.78487,798.04637 16.86897,-20.99026 m 13.12195,-16.46456 53.77931,-67.16346 m -81.11166,67.8191 -2.98238,6.36805 m 12.121,-25.98067 75.20869,-161.20551 58.43934,35.97487 -51.1143,63.83521 c 5.78636,3.50193 11.72268,6.8539 17.92496,9.93992"
       id="path832"
       inkscape:connector-curvature="0"
       sodipodi:nodetypes="ccccccccccc" />
    <path
       style="display:inline;opacity:1;vector-effect:none;fill:none;fill-opacity:0.97690531;stroke:#c0c0c0;stroke-width:0.37795275;stroke-linecap:round;stroke-linejoin:round;stroke-miterlimit:4;stroke-dasharray:none;stroke-dashoffset:0;stroke-opacity:1"
       d="m 604.24778,503.34936 c -8.54823,0.15196 -16.8095,1.88535 -20.77148,5.11524 -8.21508,6.6971 -10.73524,20.24358 -12.81836,26.97851 -4.70812,-2.01507 -6.34968,1.27967 -7.1875,5.35352 -1.02658,4.99168 -0.48376,14.29227 0.13476,19.41406 0.48361,4.00467 2.8364,8.97078 6.91016,7.01367 2.0634,16.71026 10.3313,29.33356 22.48437,32.69336 0.10004,16.38868 -8.53421,14.92359 -12.7832,15.20508 -4.9515,0.32803 -13.41629,-1.37199 -20.0664,1.56445 -5.33278,2.35475 -8.43011,10.24862 -11.56446,17.2168 -6.282,13.9659 -15.013,39.24347 -15.3789,51.79492 -0.32054,10.99564 -1.61251,13.37595 2.56836,23.55078 9.74294,20.15411 20.72863,38.80234 25.46679,46.52149 l 0.15821,11.97461 -32.70508,70.10351 c -0.40741,0.94413 0.16632,1.28072 0.6914,0.66016 l 32.40039,-40.46484 c -0.21189,10.67771 -0.36489,22.13559 0.1211,31.97656 0.58997,11.9466 1.52923,23.5303 2.41015,35.45898 2.1377,28.94702 7.88389,69.19395 4.24219,86.97461 -7.6417,12.53066 -13.00496,21.14918 -11.41992,28.24805 1.53414,6.87088 11.61706,6.80246 18.31445,4.63281 11.25877,-3.64733 15.49729,-22.57978 17.85547,-32.52734 0.35818,-9.57256 -2.33708,-16.27219 -0.88476,-24.21875 3.91279,-21.40935 5.6515,-41.49572 4.0664,-65.05274 1.6649,-23.30702 5.27863,-47.34953 6.00977,-74.77734 1.73114,8.57219 1.58141,4.65059 3.00586,13.25781 1.42445,8.60722 2.99925,25.6642 4.0664,38.53711 1.29242,15.59023 2.05553,31.27627 3.57813,46.84571 1.13322,11.5878 6.58157,30.45097 7.24219,39.67187 0.28562,3.0959 0.56729,16.01962 -0.19336,21.50391 0.48935,6.10929 0.59142,8.41672 3.86914,14.83984 3.39269,6.64842 8.47583,13.35232 14.08593,15.625 10.02135,4.0597 22.56172,3.5876 20.38477,-6.43359 -2.27938,-10.49268 -9.91625,-21.31377 -14.49609,-26.86914 1.01212,-12.54601 2.18888,-45.17671 2.47461,-67.35352 0.0782,-6.06997 0.79631,-37.94645 0.70703,-44.01627 -0.34666,-23.56885 0.1491,-18.14563 -0.70703,-35.27279 l -0.84766,-105.51563 c 0,0 16.96091,9.88473 25.91992,12.82227 6.84069,2.24297 12.46193,4.17288 18.94649,4.57519 8.64883,0.53659 8.05035,-6.37301 5.17909,-16.67514 -1.8531,-6.64895 -11.91447,-26.26563 -18.35605,-40.59536 l 29.86914,-37.30274 -2.68914,-1.6554 c 4.24897,-6.26848 3.89586,-13.62579 -3.95404,-22.25675 -7.8499,-8.63096 -2.30599,-18.00374 2.54344,-21.13192 4.84943,-3.12818 10.70894,-8.78132 12.7635,-16.0368 -1.09044,0.20295 -2.21042,0.85126 -3.44014,0.71893 0.0493,-0.86772 -0.46332,-2.41503 -0.33042,-3.76061 -1.13325,0.95733 -3.48358,1.66745 -4.18962,1.6317 -0.0688,-0.92255 -1.72993,-1.6072 -1.18806,-3.63747 -1.24898,0.72107 -2.80321,1.57161 -3.80842,2.13649 -0.41672,-1.35769 -1.47404,-2.30929 -1.69532,-4.45886 -1.73287,0.41546 -3.36693,0.80963 -4.35406,0.70831 0.0107,-1.01582 -0.49554,-3.13678 -0.98837,-4.09661 -4.81413,8.22766 -6.80618,15.27872 -6.27366,21.72076 0.53253,6.44204 -11.74549,8.19833 -19.40687,6.84367 -7.66138,-1.35465 -16.5499,0.40049 -19.61425,8.41664 l -1.81402,-1.11669 -16.26367,34.86133 c -2.63851,0.40381 -5.45489,0.81556 -9.69531,0.93555 -7.23321,0.20467 -8.05669,-5.29409 -8.04297,-16.3086 11.68098,-2.17568 25.17061,-17.93997 26.94726,-34.95703 3.03554,0.4264 6.39294,-3.58453 6.98438,-8.83984 0.63541,-5.64602 1.14111,-11.88979 0.30078,-17.5957 -0.41894,-2.84462 -1.70352,-6.59234 -6.3125,-5.38477 -0.85898,-5.66743 -6.86989,-19.91193 -15.96485,-25.41797 -5.11248,-3.09508 -13.94786,-4.525 -22.49609,-4.37305 z"
       id="path832-2"
       inkscape:connector-curvature="0"
       sodipodi:nodetypes="cscssccssssccccccsscsscsccsssccsssccsccsssccczzccccccccczzcccsccssccc" />
    <path
       style="display:inline;opacity:1;vector-effect:none;fill:none;fill-opacity:0.97690531;stroke:#c0c0c0;stroke-width:0.37795275;stroke-linecap:round;stroke-linejoin:round;stroke-miterlimit:4;stroke-dasharray:none;stroke-dashoffset:0;stroke-opacity:1"
       d="m 560.60627,715.75077 c 5.51226,10.01735 8.91752,20.12309 15.11441,29.43333 l 11.40209,2.56325 c 2.3097,0.42267 6.45228,0.54422 7.83964,1.88076 1.8964,1.82694 0.0833,3.98059 -2.27568,4.09107 -1.55895,0.073 -4.20303,0.0819 -7.33172,0.21536 -0.3433,3.87205 2.85714,5.54859 6.34187,6.62913"
       id="path934"
       inkscape:connector-curvature="0"
       sodipodi:nodetypes="cccsscc" />
    <path
       style="display:inline;opacity:1;vector-effect:none;fill:none;fill-opacity:0.97690531;stroke:#c0c0c0;stroke-width:0.37795275;stroke-linecap:round;stroke-linejoin:round;stroke-miterlimit:4;stroke-dasharray:none;stroke-dashoffset:0;stroke-opacity:1"
       d="m 595.96161,755.52553 c 1.24007,1.71928 1.99796,4.56136 1.22105,6.74429 -0.58978,1.65715 -2.68905,4.24695 -5.50831,4.36481 -2.03088,0.0849 -4.75968,-0.68185 -7.79605,-3.65415"
       id="path936"
       inkscape:connector-curvature="0"
       sodipodi:nodetypes="cccc" />
    <path
       style="display:inline;opacity:1;vector-effect:none;fill:none;fill-opacity:0.97690531;stroke:#c0c0c0;stroke-width:0.37795275;stroke-linecap:round;stroke-linejoin:round;stroke-miterlimit:4;stroke-dasharray:none;stroke-dashoffset:0;stroke-opacity:1"
       d="m 580.91575,767.42906 c 6.25623,5.45717 10.32585,4.48805 12,-0.875"
       id="path938"
       inkscape:connector-curvature="0"
       sodipodi:nodetypes="cc" />
    <path
       style="display:inline;opacity:1;vector-effect:none;fill:none;fill-opacity:0.97690531;stroke:#c0c0c0;stroke-width:0.37795275;stroke-linecap:round;stroke-linejoin:round;stroke-miterlimit:4;stroke-dasharray:none;stroke-dashoffset:0;stroke-opacity:1"
       d="m 578.60325,771.11656 c 5.73986,6.22273 9.73839,3.47901 10.75,0"
       id="path940"
       inkscape:connector-curvature="0"
       sodipodi:nodetypes="cc" />
    <path
       style="display:inline;opacity:1;vector-effect:none;fill:none;fill-opacity:0.97690531;stroke:#c0c0c0;stroke-width:0.37795275;stroke-linecap:round;stroke-linejoin:round;stroke-miterlimit:4;stroke-dasharray:none;stroke-dashoffset:0;stroke-opacity:1"
       d="m 561.31067,755.85907 c 1.71966,2.38111 2.91422,5.26964 4.63436,7.78025 1.42848,2.08492 2.74529,4.51911 3.76469,6.20688 4.19404,5.36189 11.58396,10.98959 15.89353,4.89536"
       id="path942"
       inkscape:connector-curvature="0"
       sodipodi:nodetypes="cscc" />
    <path
       style="display:inline;opacity:1;vector-effect:none;fill:none;fill-opacity:0.97690531;stroke:#c0c0c0;stroke-width:0.37795275;stroke-linecap:round;stroke-linejoin:round;stroke-miterlimit:4;stroke-dasharray:none;stroke-dashoffset:0;stroke-opacity:1"
       d="m 645.41575,693.42906 -11.5625,-5.3125 c -1.9608,-0.65847 -4.63717,-1.33168 -6.58756,-2.39138 -4.69449,-2.55062 -8.17899,-6.14193 -9.0325,-8.48542 -0.85282,-2.34159 0.20835,-4.55102 1.80756,-4.4357"
       id="path944"
       inkscape:connector-curvature="0"
       sodipodi:nodetypes="ccssc" />
    <path
       style="display:inline;opacity:1;vector-effect:none;fill:none;fill-opacity:0.97690531;stroke:#c0c0c0;stroke-width:0.37795275;stroke-linecap:round;stroke-linejoin:round;stroke-miterlimit:4;stroke-dasharray:none;stroke-dashoffset:0;stroke-opacity:1"
       d="m 629.31534,681.40317 c -2.65321,-1.66991 -6.95897,-4.25544 -9.05558,-8.29607 -2.15396,-4.15117 -0.91986,-5.71934 1.60352,-5.21265"
       id="path946"
       inkscape:connector-curvature="0"
       sodipodi:nodetypes="csc" />
    <path
       style="display:inline;opacity:1;vector-effect:none;fill:none;fill-opacity:0.97690531;stroke:#c0c0c0;stroke-width:0.37795275;stroke-linecap:round;stroke-linejoin:round;stroke-miterlimit:4;stroke-dasharray:none;stroke-dashoffset:0;stroke-opacity:1"
       d="m 630.55147,676.58753 c -4.5026,-3.76176 -7.64999,-6.43433 -8.74314,-9.05187 -1.13794,-2.7248 -0.0953,-6.29654 2.99888,-3.76247"
       id="path948"
       inkscape:connector-curvature="0"
       sodipodi:nodetypes="csc" />
    <path
       style="display:inline;opacity:1;vector-effect:none;fill:none;fill-opacity:0.97690531;stroke:#c0c0c0;stroke-width:0.37795275;stroke-linecap:round;stroke-linejoin:round;stroke-miterlimit:4;stroke-dasharray:none;stroke-dashoffset:0;stroke-opacity:1"
       d="m 632.83494,672.6822 c -2.87001,-2.42161 -6.08039,-5.42914 -7.56943,-8.0055 -1.69777,-2.93751 -0.23524,-4.70926 1.52355,-4.44736 2.08045,0.60016 2.17759,1.86196 3.32688,3.27412 1.11116,1.36815 3.77637,4.03042 5.79981,5.8631 2.77097,2.50974 4.80022,1.04874 3.71989,-2.66214 -0.51712,-1.14732 -1.10013,-2.58597 -1.31856,-3.73326 -0.30458,-1.59978 1.30572,-5.00053 5.22367,0.3329 2.29378,3.12248 1.04093,8.53113 6.9375,13.1875 l 5.64063,3.75781"
       id="path950"
       inkscape:connector-curvature="0"
       sodipodi:nodetypes="csccscsscc" />
    <path
       style="display:inline;opacity:1;vector-effect:none;fill:none;fill-opacity:0.97690531;stroke:#c0c0c0;stroke-width:0.37795275;stroke-linecap:round;stroke-linejoin:round;stroke-miterlimit:4;stroke-dasharray:none;stroke-dashoffset:0;stroke-opacity:1"
       d="m 662.31664,672.54334 7.5,15.5625"
       id="path952"
       inkscape:connector-curvature="0"
       sodipodi:nodetypes="cc" />
  </g>
</svg>
