<?xml version="1.0" encoding="UTF-8" standalone="no"?>
<!-- Created with Inkscape (http://www.inkscape.org/) -->

<svg
   xmlns:dc="http://purl.org/dc/elements/1.1/"
   xmlns:cc="http://creativecommons.org/ns#"
   xmlns:rdf="http://www.w3.org/1999/02/22-rdf-syntax-ns#"
   xmlns:svg="http://www.w3.org/2000/svg"
   xmlns="http://www.w3.org/2000/svg"
   xmlns:sodipodi="http://sodipodi.sourceforge.net/DTD/sodipodi-0.dtd"
   xmlns:inkscape="http://www.inkscape.org/namespaces/inkscape"
   width="297mm"
   height="210mm"
   id="svg2"
   version="1.1"
   inkscape:version="0.92.3 (2405546, 2018-03-11)"
   sodipodi:docname="ZaggedButterfly-undecorated-d-2.svg"
   inkscape:export-filename="/home/christian/SportsCar.svg.png"
   inkscape:export-xdpi="138.06"
   inkscape:export-ydpi="138.06">
  <defs
     id="defs4" />
  <sodipodi:namedview
     id="base"
     pagecolor="#ffffff"
     bordercolor="#666666"
     borderopacity="1.0"
     inkscape:pageopacity="0.0"
     inkscape:pageshadow="2"
     inkscape:zoom="1"
     inkscape:cx="654.8626"
     inkscape:cy="409.93089"
     inkscape:document-units="mm"
     inkscape:current-layer="layer1"
     showgrid="false"
     units="mm"
     inkscape:window-width="1920"
     inkscape:window-height="1080"
     inkscape:window-x="1920"
     inkscape:window-y="0"
     inkscape:window-maximized="0"
     inkscape:snap-global="false" />
  <metadata
     id="metadata7">
    <rdf:RDF>
      <cc:Work
         rdf:about="">
        <dc:format>image/svg+xml</dc:format>
        <dc:type
           rdf:resource="http://purl.org/dc/dcmitype/StillImage" />
        <dc:title />
      </cc:Work>
    </rdf:RDF>
  </metadata>
  <g
     inkscape:label="Mask"
     inkscape:groupmode="layer"
     id="Mask"
     style="display:inline;opacity:1"
     transform="translate(0,-328.81888)">
    <path
       style="display:inline;opacity:1;fill:#ffffff;fill-opacity:1;stroke:#808080;stroke-width:0.75590551;stroke-linecap:round;stroke-linejoin:round;stroke-miterlimit:4;stroke-dasharray:none;stroke-opacity:1"
       d="m 560.22266,577.58841 c -3.46453,-0.10005 -6.59302,0.90156 -8.6211,2.66797 -6.48984,5.65249 -4.997,11.6973 -2.82812,16.0332 2.16886,4.3359 6.41307,5.7137 9.81054,4.04102 3.39749,-1.67267 3.99518,-10.44256 3.17383,-11.6875 -0.82133,-1.24494 -5.24027,-3.82171 -7.26758,-3.23438 1.11683,-4.63425 10.29821,-1.30085 13.16016,1.37305 2.86198,2.6739 5.33207,3.31473 6.78125,13.47852 1.4492,10.16379 14.31864,52.95539 25.41797,77.98437 -4.95389,8.59265 -3.27966,16.94501 3.46484,17.25391 0,0 -2.0858,1.35197 -2.6289,5.37109 0.28167,0.0711 0.54214,0.15371 0.79297,0.24219 -0.28696,-0.0161 -0.57354,-0.0338 -0.85938,-0.0293 h -0.78906 C 448.82852,637.27699 378.09313,682.99047 363.69922,699.0474 c -14.3939,16.05692 -20.09375,51.15234 -20.09375,51.15234 9.13223,-8.21499 34.98641,4.03629 24.16601,24.62305 15.97314,-8.64252 31.80699,-4.0793 31.85547,25.91797 19.34855,-4.83911 34.18255,16.30766 26.79102,32.73437 17.57513,-10.36681 48.24492,6.21203 46.89258,28.76953 15.48482,-28.16174 45.80892,-18.55484 61.05859,-1.00195 -1.80074,-20.20161 26.3855,-26.97645 48.55078,-17.875 -6.89939,-40.7081 10.89736,-85.00802 17.04297,-130.06445 h 0.6543 c 0.0217,0 0.0465,-0.002 0.0684,-0.002 1.39958,47.86032 -0.62882,79.53897 10.41992,79.50781 11.04981,-0.0311 9.01308,-31.64097 10.41406,-79.54101 -0.10387,-0.19023 -0.20405,-0.34882 -0.30664,-0.5293 0.10523,0.0699 0.20134,0.14461 0.2832,0.22656 h 0.75196 c 5.91045,44.67268 21.54755,74.97676 17.13672,129.97071 22.1653,-9.10145 50.35151,-2.32661 48.55078,17.875 15.24967,-17.5529 45.57571,-27.1598 61.06054,1.00195 -1.35234,-22.55751 29.31549,-39.13438 46.89063,-28.76758 -7.39153,-16.42672 7.44247,-37.57542 26.79101,-32.73633 0.0484,-29.99727 15.88234,-34.56049 31.85547,-25.91796 -10.82031,-20.58676 15.03577,-32.83806 24.16797,-24.62305 0,0 -5.70174,-35.09542 -20.0957,-51.15234 -14.39384,-16.05693 -85.12733,-61.7626 -236.12891,2.04296 h -0.99414 c -0.5848,-3.86045 -2.5918,-5.18164 -2.5918,-5.18164 6.7445,-0.30889 8.41678,-8.66125 3.4629,-17.2539 11.0993,-25.029 23.96878,-67.82056 25.41796,-77.98438 1.4492,-10.1638 3.91928,-10.80462 6.78125,-13.47851 2.86196,-2.6739 12.13513,-5.80419 13.25196,-1.16993 -2.02731,-0.58733 -6.53803,1.78633 -7.35938,3.03125 -0.82133,1.24494 -0.22364,10.01483 3.17383,11.6875 3.39746,1.67269 7.64364,0.29489 9.8125,-4.04101 2.16888,-4.33588 4.47342,-4.50492 -1.07812,-14.0332 -5.55154,-9.52828 -24.96252,-3.54826 -28.95313,14.31445 -3.94561,21.03463 -13.35793,50.02188 -24.89453,76.38476 -1.67397,-1.44273 -3.87294,-1.08317 -7.40625,-1.05859 -3.53333,0.0246 -3.95146,-0.14381 -6.02734,1.58008 -11.53661,-26.36288 -21.32392,-54.60014 -25.26954,-75.63477 -2.7126,-14.46132 -11.95811,-20.0123 -19.58007,-20.23242 z"
       id="path925-0"
       inkscape:connector-curvature="0" />
  </g>
  <g
     inkscape:groupmode="layer"
     id="layer1"
     inkscape:label="Overlay"
     style="display:inline"
     transform="translate(0,-328.81888)">
    <path
       style="display:inline;opacity:1;fill:none;stroke:#c0c0c0;stroke-width:0.37795275;stroke-linecap:round;stroke-linejoin:round;stroke-miterlimit:4;stroke-dasharray:none;stroke-opacity:1"
       d="m 554.46426,585.38831 c -1.2958,6.22077 -1.19484,7.75959 -0.20406,8.26415"
       id="path943-4"
       inkscape:connector-curvature="0"
       sodipodi:nodetypes="cc" />
    <path
       style="display:inline;opacity:1;fill:none;stroke:#c0c0c0;stroke-width:0.37795275;stroke-linecap:round;stroke-linejoin:round;stroke-miterlimit:4;stroke-dasharray:none;stroke-opacity:1"
       d="m 667.98086,585.90039 c 1.2958,6.22077 1.19484,7.75959 0.20405,8.26416"
       id="path943-6-8"
       inkscape:connector-curvature="0"
       sodipodi:nodetypes="cc" />
    <path
       style="display:inline;opacity:1;fill:none;stroke:#c0c0c0;stroke-width:0.37795275;stroke-linecap:round;stroke-linejoin:round;stroke-miterlimit:4;stroke-dasharray:none;stroke-dashoffset:0;stroke-opacity:1"
       d="m 603.24067,695.41564 c 5.25076,0.28298 10.49858,0.54246 15.65518,0.0721"
       id="path961-8"
       inkscape:connector-curvature="0"
       sodipodi:nodetypes="cc" />
    <path
       style="display:inline;opacity:1;fill:none;stroke:#c0c0c0;stroke-width:0.37795275;stroke-linecap:round;stroke-linejoin:round;stroke-miterlimit:4;stroke-dasharray:none;stroke-opacity:1"
       d="m 621.47019,700.80584 c 0.18331,4.3409 0.15951,8.34714 0.0255,12.49826"
       id="path965-9"
       inkscape:connector-curvature="0"
       sodipodi:nodetypes="cc" />
    <path
       style="display:inline;opacity:1;fill:none;stroke:#c0c0c0;stroke-width:0.37795275;stroke-linecap:round;stroke-linejoin:round;stroke-miterlimit:4;stroke-dasharray:none;stroke-opacity:1"
       d="m 600.65677,700.88237 c -0.18395,3.82057 -0.17272,7.96386 0,12.47273"
       id="path963-8"
       inkscape:connector-curvature="0"
       sodipodi:nodetypes="cc" />
  </g>
  <g
     inkscape:groupmode="layer"
     id="layer3"
     inkscape:label="Detailed"
     style="display:inline">
    <path
       style="display:inline;fill:none;stroke:#c0c0c0;stroke-width:0.37795275;stroke-linecap:round;stroke-linejoin:round;stroke-miterlimit:4;stroke-dasharray:none;stroke-opacity:1"
       d="m 367.94047,445.77543 c 20.22027,-32.16165 13.4187,-133.77449 232.65958,-71.73395"
       id="path3813"
       inkscape:connector-curvature="0"
       sodipodi:nodetypes="cc" />
    <path
       style="display:inline;fill:none;stroke:#c0c0c0;stroke-width:0.37795275;stroke-linecap:round;stroke-linejoin:round;stroke-miterlimit:4;stroke-dasharray:none;stroke-opacity:1"
       d="m 399.71922,471.74538 c 12.10494,-56.05582 -7.30834,-146.96319 200.79873,-95.49863"
       id="path3815"
       inkscape:connector-curvature="0"
       sodipodi:nodetypes="cc" />
    <path
       style="display:inline;fill:none;stroke:#c0c0c0;stroke-width:0.37795275;stroke-linecap:round;stroke-linejoin:round;stroke-miterlimit:4;stroke-dasharray:none;stroke-opacity:1"
       d="M 426.64811,504.3207 C 447.09282,461.89498 403.03373,324.92469 600.39295,378.70017"
       id="path3817"
       inkscape:connector-curvature="0"
       sodipodi:nodetypes="cc" />
    <path
       style="display:inline;fill:none;stroke:#c0c0c0;stroke-width:0.37795275;stroke-linecap:round;stroke-linejoin:round;stroke-miterlimit:4;stroke-dasharray:none;stroke-opacity:1"
       d="M 473.40478,532.91746 C 491.57619,465.20441 418.86108,362.6767 600.5786,380.40544"
       id="path3819"
       inkscape:connector-curvature="0"
       sodipodi:nodetypes="cc" />
    <path
       style="display:inline;fill:none;stroke:#c0c0c0;stroke-width:0.37795275;stroke-linecap:round;stroke-linejoin:round;stroke-miterlimit:4;stroke-dasharray:none;stroke-opacity:1"
       d="M 534.03734,531.9933 C 534.90953,473.22812 497.0974,379.51314 600.49467,382.30189"
       id="path3821"
       inkscape:connector-curvature="0"
       sodipodi:nodetypes="cc" />
    <path
       style="display:inline;fill:#ffffff;fill-opacity:1;stroke:#c0c0c0;stroke-width:0.37795275;stroke-linecap:round;stroke-linejoin:round;stroke-miterlimit:4;stroke-dasharray:none;stroke-opacity:1"
       d="m 401.74145,365.16215 c -6.27223,7.15109 -6.83818,20.91662 0.19752,28.56722 7.03569,7.65059 25.75664,11.50163 33.6567,3.05778 7.90006,-8.44386 2.96795,-28.72511 -5.56815,-35.14607 -8.5361,-6.42095 -22.01383,-3.63002 -28.28607,3.52107 z"
       id="path3823"
       inkscape:connector-curvature="0"
       sodipodi:nodetypes="zzzzz" />
    <path
       style="display:inline;fill:none;stroke:#c0c0c0;stroke-width:0.37795275;stroke-linecap:round;stroke-linejoin:round;stroke-miterlimit:4;stroke-dasharray:none;stroke-opacity:1"
       d="M 854.40065,445.77543 C 834.18038,413.61378 840.98195,312.00094 621.74107,374.04148"
       id="path3813-1"
       inkscape:connector-curvature="0"
       sodipodi:nodetypes="cc" />
    <path
       style="display:inline;fill:none;stroke:#c0c0c0;stroke-width:0.37795275;stroke-linecap:round;stroke-linejoin:round;stroke-miterlimit:4;stroke-dasharray:none;stroke-opacity:1"
       d="M 822.6219,471.74538 C 810.51696,415.68956 829.93024,324.78219 621.82317,376.24675"
       id="path3815-8"
       inkscape:connector-curvature="0"
       sodipodi:nodetypes="cc" />
    <path
       style="display:inline;fill:none;stroke:#c0c0c0;stroke-width:0.37795275;stroke-linecap:round;stroke-linejoin:round;stroke-miterlimit:4;stroke-dasharray:none;stroke-opacity:1"
       d="M 795.69301,504.3207 C 775.2483,461.89498 819.30739,324.92469 621.94817,378.70017"
       id="path3817-7"
       inkscape:connector-curvature="0"
       sodipodi:nodetypes="cc" />
    <path
       style="display:inline;fill:none;stroke:#c0c0c0;stroke-width:0.37795275;stroke-linecap:round;stroke-linejoin:round;stroke-miterlimit:4;stroke-dasharray:none;stroke-opacity:1"
       d="M 748.93634,532.91746 C 730.76493,465.20441 803.48004,362.6767 621.76252,380.40544"
       id="path3819-9"
       inkscape:connector-curvature="0"
       sodipodi:nodetypes="cc" />
    <path
       style="display:inline;fill:none;stroke:#c0c0c0;stroke-width:0.37795275;stroke-linecap:round;stroke-linejoin:round;stroke-miterlimit:4;stroke-dasharray:none;stroke-opacity:1"
       d="M 688.30378,531.9933 C 687.43159,473.22812 725.24372,379.51314 621.84645,382.30189"
       id="path3821-2"
       inkscape:connector-curvature="0"
       sodipodi:nodetypes="cc" />
    <path
       style="display:inline;fill:#ffffff;fill-opacity:1;stroke:#c0c0c0;stroke-width:0.37795275;stroke-linecap:round;stroke-linejoin:round;stroke-miterlimit:4;stroke-dasharray:none;stroke-opacity:1"
       d="m 820.59967,365.16215 c 6.27223,7.15109 6.83818,20.91662 -0.19752,28.56722 -7.03569,7.65059 -25.75664,11.50163 -33.6567,3.05778 -7.90006,-8.44386 -2.96795,-28.72511 5.56815,-35.14607 8.5361,-6.42095 22.01383,-3.63002 28.28607,3.52107 z"
       id="path3823-0"
       inkscape:connector-curvature="0"
       sodipodi:nodetypes="zzzzz" />
  </g>
</svg>
