<?xml version="1.0" encoding="UTF-8" standalone="no"?>
<!-- Created with Inkscape (http://www.inkscape.org/) -->

<svg
   xmlns:dc="http://purl.org/dc/elements/1.1/"
   xmlns:cc="http://creativecommons.org/ns#"
   xmlns:rdf="http://www.w3.org/1999/02/22-rdf-syntax-ns#"
   xmlns:svg="http://www.w3.org/2000/svg"
   xmlns="http://www.w3.org/2000/svg"
   xmlns:sodipodi="http://sodipodi.sourceforge.net/DTD/sodipodi-0.dtd"
   xmlns:inkscape="http://www.inkscape.org/namespaces/inkscape"
   width="297mm"
   height="210mm"
   id="svg2"
   version="1.1"
   inkscape:version="0.92.3 (2405546, 2018-03-11)"
   sodipodi:docname="SpringFairy-undecorated-d-2.svg"
   inkscape:export-filename="/home/christian/SportsCar.svg.png"
   inkscape:export-xdpi="138.06"
   inkscape:export-ydpi="138.06">
  <defs
     id="defs4" />
  <sodipodi:namedview
     id="base"
     pagecolor="#ffffff"
     bordercolor="#666666"
     borderopacity="1.0"
     inkscape:pageopacity="0.0"
     inkscape:pageshadow="2"
     inkscape:zoom="0.80804486"
     inkscape:cx="906.14455"
     inkscape:cy="417.25372"
     inkscape:document-units="mm"
     inkscape:current-layer="Mask"
     showgrid="false"
     units="mm"
     inkscape:window-width="1920"
     inkscape:window-height="1080"
     inkscape:window-x="1920"
     inkscape:window-y="0"
     inkscape:window-maximized="0"
     inkscape:snap-global="false"
     showguides="false"
     inkscape:object-paths="true" />
  <metadata
     id="metadata7">
    <rdf:RDF>
      <cc:Work
         rdf:about="">
        <dc:format>image/svg+xml</dc:format>
        <dc:type
           rdf:resource="http://purl.org/dc/dcmitype/StillImage" />
        <dc:title />
      </cc:Work>
    </rdf:RDF>
  </metadata>
  <g
     inkscape:label="Mask"
     inkscape:groupmode="layer"
     id="Mask"
     style="display:inline;opacity:1"
     transform="translate(0,-328.81888)">
    <path
       style="display:inline;opacity:1;vector-effect:none;fill:#ffffff;fill-opacity:1;stroke:#808080;stroke-width:0.75590551;stroke-linecap:round;stroke-linejoin:round;stroke-miterlimit:4;stroke-dasharray:none;stroke-dashoffset:0;stroke-opacity:1"
       d="m 465.33451,516.49466 c -9.94671,0.16041 -19.92211,1.58246 -20.33594,5.97461 -0.6607,7.01366 47.94126,17.25556 60.68946,37.0625 9.7126,15.09062 0.0667,21.85534 2.625,32.37695 7.0767,29.10706 14.68795,25.77213 16.62695,36.75391 2.3483,13.2994 -4.03435,31.11785 11.37695,37.62891 24.47936,10.34213 69.77219,17.04529 94.91204,20.15643 0.0937,0.79557 0.34234,3.0505 0.43779,4.11003 -12.34285,2.20637 -53.93453,10.51295 -70.79514,25.04799 -18.1824,15.67445 -20.66385,43.44012 -33.25195,63.88086 -9.7794,15.87985 -15.80311,25.04438 -37.62891,41.12891 20.2584,-10.75235 33.87161,-13.06652 51.62891,-13.12696 20.2383,-0.0689 37.89286,-8.79874 54.25586,-22.75195 4.41341,-3.76345 7.28319,-5.89983 12.8025,-7.87693 -3.89634,6.19216 -7.42775,17.28899 -6.71657,30.62888 l 9.62462,-11.04689 7.43986,10.82812 8.08341,-10.64686 6.24473,10.42813 8.39178,-10.03046 5.17262,10.35864 1.85939,-2.29693 c 2.27369,19.77608 5.08738,34.49557 8.18472,55.05582 -0.0588,4.95926 1.22242,10.91017 2.21375,13.98154 2.122,12.70053 7.21201,51.47162 8.74397,64.74231 0.62961,5.45398 3.07997,13.85429 0.76576,19.35968 -3.4277,8.15433 -3.45909,14.61506 -4.59375,21.6582 -0.77108,8.36538 7.66284,13.97891 11.8125,1.97071 2.69629,-5.69498 2.5818,-12.22748 6.35461,-16.61717 l 2.38689,7.6707 2.41719,7.96025 c 3.04223,7.87553 14.5436,1.1967 11.37502,-11.92195 l -3.9375,-14.43945 c -1.61935,-5.6506 -2.00966,-10.97038 -1.09375,-15.9707 l 9.28934,-65.99117 c 0.78869,-2.52953 1.21215,-9.06932 1.08796,-11.0522 2.458,-25.0304 6.09407,-42.13637 8.02806,-66.71721 l 1.35966,-2.63701 10.9592,11.12669 8.10474,-12.03204 8.97183,10.48613 7.32988,-13.26008 9.07787,11.59599 c -0.54263,-7.29723 -1.98352,-17.4565 -5.37459,-23.12605 5.70359,2.01475 9.46825,3.93237 14.01711,7.81131 16.36299,13.95321 34.0156,22.68305 54.25391,22.75195 17.75736,0.0604 31.37243,2.37461 51.63085,13.12696 -21.82585,-16.08452 -27.84951,-25.24906 -37.6289,-41.12891 -12.58815,-20.44074 -15.07158,-48.20641 -33.25391,-63.88086 -16.17866,-13.94714 -54.94461,-22.36909 -68.99336,-24.96408 0.251,-1.5257 0.46751,-2.83482 0.61249,-4.46365 25.51563,-3.22322 69.1916,-9.76775 92.93751,-19.88672 20.36157,-8.67678 9.0267,-24.32951 11.375,-37.62891 1.93907,-10.98178 9.55023,-7.64685 16.62696,-36.75391 2.55805,-10.52161 -7.08764,-17.28633 2.625,-32.37695 12.74816,-19.80694 61.3521,-30.04884 60.6914,-37.0625 -0.54042,-5.73669 -17.39194,-6.40632 -29.1875,-5.81641 -29.8883,1.49474 -68.33481,8.8666 -114.30469,29.86914 -27.73514,12.67152 -45.81087,28.79021 -60.01445,45.80227 -1.31469,-4.37935 -5.60744,-34.54204 -30.80781,-29.17922 -16.76415,4.40809 -26.22967,21.33045 -28.57162,36.21883 -0.12429,-0.15678 -2.49128,-3.04814 -2.61614,-3.2048 -14.67728,-18.4143 -33.33068,-36.01685 -63.14232,-49.63708 -45.96989,-21.00254 -84.41639,-28.3744 -114.30469,-29.86914 -1.47445,-0.0737 -3.02843,-0.12734 -4.61914,-0.15429 -1.39186,-0.0236 -2.81146,-0.0268 -4.23242,-0.004 z"
       id="path965-4"
       inkscape:connector-curvature="0"
       sodipodi:nodetypes="cccccccccccsscccccccccccsscccccccccccccccccccscssccsscscsscccsscscc" />
  </g>
  <g
     inkscape:groupmode="layer"
     id="layer1"
     inkscape:label="Overlay"
     style="display:inline"
     transform="translate(0,-328.81888)">
    <path
       style="opacity:1;vector-effect:none;fill:none;fill-opacity:1;stroke:#c0c0c0;stroke-width:0.37795275;stroke-linecap:round;stroke-linejoin:round;stroke-miterlimit:4;stroke-dasharray:none;stroke-dashoffset:0;stroke-opacity:1"
       d="m 631.22897,686.44797 c -1.75091,-22.68948 2.13871,-40.38238 25.02376,-40.83307 7.72852,-0.1522 23.80491,-3.76006 11.87231,-25.38789 -3.56364,-7.44909 -6.24622,-23.65411 0.35519,-36.48639 4.11752,-8.00394 8.84742,-14.81648 18.05346,-15.49092 7.42508,-0.54397 12.57786,3.65133 14.78743,9.65515 5.3544,14.54888 2.89804,30.41639 -3.49474,40.77522 -4.97034,11.58045 -1.91334,25.33901 16.32339,25.25863 23.96347,-0.10564 21.52115,16.95035 18.72965,42.23956"
       id="path1007"
       inkscape:connector-curvature="0"
       sodipodi:nodetypes="cscssscsc" />
    <path
       style="opacity:1;vector-effect:none;fill:none;fill-opacity:1;stroke:#c0c0c0;stroke-width:0.37795275;stroke-linecap:round;stroke-linejoin:round;stroke-miterlimit:4;stroke-dasharray:none;stroke-dashoffset:0;stroke-opacity:1"
       d="m 668.12504,620.22701 c 6.04563,11.36229 25.52472,6.60951 29.70132,-1.54694"
       id="path1009"
       inkscape:connector-curvature="0"
       sodipodi:nodetypes="cc" />
    <path
       style="opacity:1;vector-effect:none;fill:none;fill-opacity:1;stroke:#c0c0c0;stroke-width:0.37795275;stroke-linecap:round;stroke-linejoin:round;stroke-miterlimit:4;stroke-dasharray:none;stroke-dashoffset:0;stroke-opacity:1"
       d="m 654.24922,599.36388 c -2.62768,20.51236 2.54856,28.78481 1.97882,46.25151"
       id="path1012"
       inkscape:connector-curvature="0"
       sodipodi:nodetypes="cc" />
    <path
       style="opacity:1;vector-effect:none;fill:none;fill-opacity:1;stroke:#c0c0c0;stroke-width:0.37795275;stroke-linecap:round;stroke-linejoin:round;stroke-miterlimit:4;stroke-dasharray:none;stroke-dashoffset:0;stroke-opacity:1"
       d="m 713.62865,592.32427 c 2.78845,15.15019 -4.24644,33.42024 0.44004,51.6147"
       id="path1014"
       inkscape:connector-curvature="0"
       sodipodi:nodetypes="cc" />
    <path
       style="opacity:1;vector-effect:none;fill:none;fill-opacity:1;stroke:#c0c0c0;stroke-width:0.37795275;stroke-linecap:round;stroke-linejoin:round;stroke-miterlimit:4;stroke-dasharray:none;stroke-dashoffset:0;stroke-opacity:1"
       d="m 608.67803,776.85992 c 8.21496,-12.34951 23.12642,-21.29387 36.38074,-31.2825 16.21895,-12.22281 14.0303,-31.33187 7.65698,-45.28558 -3.95494,-8.65891 -6.30313,-18.49644 -7.21944,-29.97161"
       id="path1016"
       inkscape:connector-curvature="0"
       sodipodi:nodetypes="cssc" />
    <path
       style="opacity:1;vector-effect:none;fill:none;fill-opacity:1;stroke:#c0c0c0;stroke-width:0.37795275;stroke-linecap:round;stroke-linejoin:round;stroke-miterlimit:4;stroke-dasharray:none;stroke-dashoffset:0;stroke-opacity:1"
       d="m 717.47193,665.06973 c 1.36049,10.67274 -1.67241,24.53937 -5.2505,32.59686 -4.74667,10.68902 -8.24255,23.67263 -4.59419,34.78458 1.64102,4.99812 6.06226,9.40228 10.93855,11.37608 13.14043,5.31891 26.21792,20.06627 33.67544,33.09829"
       id="path1018"
       inkscape:connector-curvature="0"
       sodipodi:nodetypes="csssc" />
    <path
       style="opacity:1;vector-effect:none;fill:none;fill-opacity:1;stroke:#c0c0c0;stroke-width:0.37795275;stroke-linecap:round;stroke-linejoin:round;stroke-miterlimit:4;stroke-dasharray:none;stroke-dashoffset:0;stroke-opacity:1"
       d="m 631.66676,690.558 c 5.26493,30.96235 10.73749,38.46436 13.56351,54.8894"
       id="path1020"
       inkscape:connector-curvature="0"
       sodipodi:nodetypes="cc" />
    <path
       style="opacity:1;vector-effect:none;fill:none;fill-opacity:1;stroke:#c0c0c0;stroke-width:0.37795275;stroke-linecap:round;stroke-linejoin:round;stroke-miterlimit:4;stroke-dasharray:none;stroke-dashoffset:0;stroke-opacity:1"
       d="m 732.26693,690.64191 c -4.46833,21.6256 -9.59297,30.3516 -13.40499,53.30681"
       id="path1022"
       inkscape:connector-curvature="0"
       sodipodi:nodetypes="cc" />
    <path
       style="opacity:1;vector-effect:none;fill:none;fill-opacity:1;stroke:#c0c0c0;stroke-width:0.37795275;stroke-linecap:round;stroke-linejoin:round;stroke-miterlimit:4;stroke-dasharray:none;stroke-dashoffset:0;stroke-opacity:1"
       d="m 648.77787,805.08255 7.65698,-9.95352 6.0926,10.85248 8.67444,-12.08548 5.54889,10.712 7.99613,-10.96831 7.00845,10.95731 8.1105,-10.43887 6.35953,10.62305 5.58725,-10.0093"
       id="path1024"
       inkscape:connector-curvature="0"
       sodipodi:nodetypes="cccccccccc" />
    <path
       style="opacity:1;vector-effect:none;fill:none;fill-opacity:1;stroke:#c0c0c0;stroke-width:0.37795275;stroke-linecap:round;stroke-linejoin:round;stroke-miterlimit:4;stroke-dasharray:none;stroke-dashoffset:0;stroke-opacity:1"
       d="m 680.091,800.02624 1.17434,60.84344 c 0.0845,4.3776 0.13411,5.60567 -0.0524,8.12357 -1.13827,15.36302 -1.30843,50.56712 -1.73741,64.68098 -0.15203,5.00194 -0.5271,7.79772 -0.81985,9.16268 -1.03911,4.84482 -1.7212,10.83224 0.0349,13.75859 0.86222,1.4368 2.8898,5.25593 3.56885,8.63814"
       id="path1026"
       inkscape:connector-curvature="0"
       sodipodi:nodetypes="csssssc" />
  </g>
  <g
     inkscape:groupmode="layer"
     id="layer2"
     inkscape:label="Detailed"
     style="display:inline">
    <path
       style="opacity:1;vector-effect:none;fill:none;fill-opacity:1;stroke:#c0c0c0;stroke-width:0.37795275;stroke-linecap:round;stroke-linejoin:round;stroke-miterlimit:4;stroke-dasharray:none;stroke-dashoffset:0;stroke-opacity:1"
       d="m 645.49631,341.50135 c 7.86611,-4.53091 22.89517,-7.05875 36.95673,4.45049 7.70225,-8.25294 21.26851,-13.01255 35.01889,-9.70099"
       id="path1028"
       inkscape:connector-curvature="0"
       sodipodi:nodetypes="ccc" />
    <path
       style="opacity:1;vector-effect:none;fill:none;fill-opacity:1;stroke:#c0c0c0;stroke-width:0.37795275;stroke-linecap:round;stroke-linejoin:round;stroke-miterlimit:4;stroke-dasharray:none;stroke-dashoffset:0;stroke-opacity:1"
       d="m 652.71524,408.66369 c 6.34434,6.99968 42.63296,10.22255 57.22531,-0.53169"
       id="path1030"
       inkscape:connector-curvature="0"
       sodipodi:nodetypes="cc" />
    <path
       style="opacity:1;vector-effect:none;fill:none;fill-opacity:1;stroke:#c0c0c0;stroke-width:0.37795275;stroke-linecap:round;stroke-linejoin:round;stroke-miterlimit:4;stroke-dasharray:none;stroke-dashoffset:0;stroke-opacity:1"
       d="m 646.03873,415.99375 c 15.1581,11.28599 64.19556,11.97287 73.51946,-0.56584"
       id="path1033"
       inkscape:connector-curvature="0"
       sodipodi:nodetypes="cc" />
    <path
       style="opacity:1;vector-effect:none;fill:none;fill-opacity:1;stroke:#c0c0c0;stroke-width:0.37795275;stroke-linecap:round;stroke-linejoin:round;stroke-miterlimit:4;stroke-dasharray:none;stroke-dashoffset:0;stroke-opacity:1"
       d="m 674.92099,260.77489 c 0.99048,-1.27516 3.08966,-1.3263 3.82849,0.10939 0.85887,1.66896 -0.53435,4.29162 -2.40648,4.15664 -1.94523,-0.14025 -2.61838,-2.7258 -1.42201,-4.26603 z"
       id="path1035"
       inkscape:connector-curvature="0"
       sodipodi:nodetypes="ssss" />
    <path
       style="display:inline;opacity:1;vector-effect:none;fill:none;fill-opacity:1;stroke:#c0c0c0;stroke-width:0.37795275;stroke-linecap:round;stroke-linejoin:round;stroke-miterlimit:4;stroke-dasharray:none;stroke-dashoffset:0;stroke-opacity:1"
       d="m 693.73191,260.9799 c -0.99048,-1.27516 -3.08966,-1.3263 -3.82849,0.10939 -0.85887,1.66896 0.53435,4.29162 2.40648,4.15664 1.94523,-0.14025 2.61838,-2.7258 1.42201,-4.26603 z"
       id="path1035-7"
       inkscape:connector-curvature="0"
       sodipodi:nodetypes="ssss" />
    <path
       style="opacity:1;vector-effect:none;fill:none;fill-opacity:1;stroke:#c0c0c0;stroke-width:0.37795275;stroke-linecap:round;stroke-linejoin:round;stroke-miterlimit:4;stroke-dasharray:none;stroke-dashoffset:0;stroke-opacity:1"
       d="m 671.63943,277.83902 c 4.05116,1.51665 11.75566,7.63549 22.97095,-0.21877 -11.02094,14.19503 -20.48408,3.62131 -22.97095,0.21877 z"
       id="path1052"
       inkscape:connector-curvature="0"
       sodipodi:nodetypes="ccc" />
    <path
       style="display:inline;opacity:1;vector-effect:none;fill:none;fill-opacity:1;stroke:#c0c0c0;stroke-width:0.37795275;stroke-linecap:round;stroke-linejoin:round;stroke-miterlimit:4;stroke-dasharray:none;stroke-dashoffset:0;stroke-opacity:1"
       d="m 747.88108,307.59186 c 3.10348,-1.99047 50.22032,-14.66699 72.63194,-11.37608 9.37949,1.37728 8.88065,25.12273 0,28.44021 -13.26652,4.95588 -56.7525,8.88743 -74.81964,3.0628 -7.29617,-2.3522 -5.75724,-15.03132 2.1877,-20.12693 z"
       id="path1133"
       inkscape:connector-curvature="0"
       sodipodi:nodetypes="sssss" />
    <path
       style="display:inline;opacity:1;vector-effect:none;fill:none;fill-opacity:1;stroke:#c0c0c0;stroke-width:0.37795275;stroke-linecap:round;stroke-linejoin:round;stroke-miterlimit:4;stroke-dasharray:none;stroke-dashoffset:0;stroke-opacity:1"
       d="m 773.2183,288.11482 c 2.18546,5.41708 44.29249,-6.76174 55.3426,-11.63695 7.8649,-3.46992 7.71554,-17.37749 -0.87509,-17.06413 -13.74684,0.50143 -56.6463,23.30053 -54.46751,28.70108 z"
       id="path1135"
       inkscape:connector-curvature="0"
       sodipodi:nodetypes="ssss" />
    <path
       style="display:inline;opacity:1;vector-effect:none;fill:none;fill-opacity:1;stroke:#c0c0c0;stroke-width:0.37795275;stroke-linecap:round;stroke-linejoin:round;stroke-miterlimit:4;stroke-dasharray:none;stroke-dashoffset:0;stroke-opacity:1"
       d="m 742.52441,375.35776 c -7.89241,0.72412 -10.23085,19.28132 -2.466,20.8693 12.17366,2.48963 48.34213,18.23199 57.58794,23.97229 7.86892,4.88546 3.08411,-19.55391 -9.68811,-28.64799 -8.94929,-6.37208 -33.52234,-17.28647 -45.43383,-16.1936 z"
       id="path1137"
       inkscape:connector-curvature="0"
       sodipodi:nodetypes="sssss" />
    <path
       style="display:inline;opacity:1;vector-effect:none;fill:none;fill-opacity:1;stroke:#c0c0c0;stroke-width:0.37795275;stroke-linecap:round;stroke-linejoin:round;stroke-miterlimit:4;stroke-dasharray:none;stroke-dashoffset:0;stroke-opacity:1"
       d="m 741.0461,409.097 c -7.64937,0.014 -5.11516,11.29848 -1.50485,17.21427 3.95619,6.48256 13.91225,8.23138 26.05305,14.04986 7.38477,3.53915 20.58131,15.26586 32.26908,22.10053 7.21814,4.22095 24.5806,8.10745 28.92348,5.51581 3.77164,-2.25075 -4.28686,-7.95417 -9.07585,-13.49713 -5.36245,-6.2067 -11.62179,-13.63589 -15.86403,-16.91203 -7.2841,-5.62527 -47.87329,-28.49493 -60.80088,-28.47131 z"
       id="path1139"
       inkscape:connector-curvature="0"
       sodipodi:nodetypes="ssssssss" />
    <path
       style="display:inline;opacity:1;vector-effect:none;fill:none;fill-opacity:1;stroke:#c0c0c0;stroke-width:0.37795275;stroke-linecap:round;stroke-linejoin:round;stroke-miterlimit:4;stroke-dasharray:none;stroke-dashoffset:0;stroke-opacity:1"
       d="m 614.25278,307.59186 c -3.10348,-1.99047 -50.22032,-14.66699 -72.63194,-11.37608 -9.37949,1.37728 -8.88065,25.12273 0,28.44021 13.26652,4.95588 56.7525,8.88743 74.81964,3.0628 7.29617,-2.3522 5.75724,-15.03132 -2.1877,-20.12693 z"
       id="path1133-5"
       inkscape:connector-curvature="0"
       sodipodi:nodetypes="sssss" />
    <path
       style="display:inline;opacity:1;vector-effect:none;fill:none;fill-opacity:1;stroke:#c0c0c0;stroke-width:0.37795275;stroke-linecap:round;stroke-linejoin:round;stroke-miterlimit:4;stroke-dasharray:none;stroke-dashoffset:0;stroke-opacity:1"
       d="m 588.91556,288.11482 c -2.18546,5.41708 -44.29249,-6.76174 -55.3426,-11.63695 -7.8649,-3.46992 -7.71554,-17.37749 0.87509,-17.06413 13.74684,0.50143 56.6463,23.30053 54.46751,28.70108 z"
       id="path1135-8"
       inkscape:connector-curvature="0"
       sodipodi:nodetypes="ssss" />
    <path
       style="display:inline;opacity:1;vector-effect:none;fill:none;fill-opacity:1;stroke:#c0c0c0;stroke-width:0.37795275;stroke-linecap:round;stroke-linejoin:round;stroke-miterlimit:4;stroke-dasharray:none;stroke-dashoffset:0;stroke-opacity:1"
       d="m 619.60945,375.35776 c 7.89241,0.72412 10.23085,19.28132 2.466,20.8693 -12.17366,2.48963 -48.34213,18.23199 -57.58794,23.97229 -7.86892,4.88546 -3.08411,-19.55391 9.68811,-28.64799 8.94929,-6.37208 33.52234,-17.28647 45.43383,-16.1936 z"
       id="path1137-5"
       inkscape:connector-curvature="0"
       sodipodi:nodetypes="sssss" />
    <path
       style="display:inline;opacity:1;vector-effect:none;fill:none;fill-opacity:1;stroke:#c0c0c0;stroke-width:0.37795275;stroke-linecap:round;stroke-linejoin:round;stroke-miterlimit:4;stroke-dasharray:none;stroke-dashoffset:0;stroke-opacity:1"
       d="m 621.08776,409.097 c 7.64937,0.014 5.11516,11.29848 1.50485,17.21427 -3.95619,6.48256 -13.91225,8.23138 -26.05305,14.04986 -7.38477,3.53915 -20.58131,15.26586 -32.26908,22.10053 -7.21814,4.22095 -24.5806,8.10745 -28.92348,5.51581 -3.77164,-2.25075 4.28686,-7.95417 9.07585,-13.49713 5.36245,-6.2067 11.62179,-13.63589 15.86403,-16.91203 7.2841,-5.62527 47.87329,-28.49493 60.80088,-28.47131 z"
       id="path1139-8"
       inkscape:connector-curvature="0"
       sodipodi:nodetypes="ssssssss" />
    <path
       style="display:inline;opacity:1;vector-effect:none;fill:none;fill-opacity:1;stroke:#c0c0c0;stroke-width:0.37795275;stroke-linecap:round;stroke-linejoin:round;stroke-miterlimit:4;stroke-dasharray:none;stroke-dashoffset:0;stroke-opacity:1"
       d="m 731.69204,269.52573 c 4.96735,-8.58909 20.39911,-25.01357 42.56513,-38.64172 35.4922,-21.82138 99.68063,-38.29504 105.5483,-29.21108 1.06443,1.64789 -18.6116,8.02408 -36.54305,19.02079 -11.10221,6.80859 -10.82565,14.60975 -15.63764,18.40607 -9.64321,7.60782 -70.28568,38.84366 -85.43174,48.80269 -8.87033,4.89772 -18.92535,-5.17587 -10.501,-18.37675 z"
       id="path1131"
       inkscape:connector-curvature="0"
       sodipodi:nodetypes="csssscc" />
    <path
       style="display:inline;opacity:1;vector-effect:none;fill:none;fill-opacity:1;stroke:#c0c0c0;stroke-width:0.37795275;stroke-linecap:round;stroke-linejoin:round;stroke-miterlimit:4;stroke-dasharray:none;stroke-dashoffset:0;stroke-opacity:1"
       d="m 630.44182,269.5257 c -4.96735,-8.58909 -20.39911,-25.01357 -42.56513,-38.64172 -35.4922,-21.82138 -99.68063,-38.29504 -105.5483,-29.21108 -1.06443,1.64789 18.6116,8.02408 36.54305,19.02079 11.10221,6.80859 10.82565,14.60975 15.63764,18.40607 9.64321,7.60782 70.28568,38.84366 85.43174,48.80269 8.87033,4.89772 18.92535,-5.17587 10.501,-18.37675 z"
       id="path1131-2"
       inkscape:connector-curvature="0"
       sodipodi:nodetypes="csssscc" />
  </g>
</svg>
