<?xml version="1.0" encoding="UTF-8" standalone="no"?>
<!-- Created with Inkscape (http://www.inkscape.org/) -->

<svg
   xmlns:dc="http://purl.org/dc/elements/1.1/"
   xmlns:cc="http://creativecommons.org/ns#"
   xmlns:rdf="http://www.w3.org/1999/02/22-rdf-syntax-ns#"
   xmlns:svg="http://www.w3.org/2000/svg"
   xmlns="http://www.w3.org/2000/svg"
   xmlns:sodipodi="http://sodipodi.sourceforge.net/DTD/sodipodi-0.dtd"
   xmlns:inkscape="http://www.inkscape.org/namespaces/inkscape"
   width="297mm"
   height="210mm"
   id="svg2"
   version="1.1"
   inkscape:version="0.92.3 (2405546, 2018-03-11)"
   sodipodi:docname="PhotoChildWithFlag-undecorated-d-2.svg"
   inkscape:export-filename="/home/christian/SportsCar.svg.png"
   inkscape:export-xdpi="138.06"
   inkscape:export-ydpi="138.06">
  <defs
     id="defs4" />
  <sodipodi:namedview
     id="base"
     pagecolor="#ffffff"
     bordercolor="#666666"
     borderopacity="1.0"
     inkscape:pageopacity="0.0"
     inkscape:pageshadow="2"
     inkscape:zoom="2.0000001"
     inkscape:cx="682.591"
     inkscape:cy="509.45836"
     inkscape:document-units="mm"
     inkscape:current-layer="layer1"
     showgrid="false"
     units="mm"
     inkscape:window-width="1920"
     inkscape:window-height="1080"
     inkscape:window-x="1920"
     inkscape:window-y="0"
     inkscape:window-maximized="0"
     inkscape:snap-global="false"
     inkscape:object-paths="true"
     inkscape:snap-intersection-paths="true" />
  <metadata
     id="metadata7">
    <rdf:RDF>
      <cc:Work
         rdf:about="">
        <dc:format>image/svg+xml</dc:format>
        <dc:type
           rdf:resource="http://purl.org/dc/dcmitype/StillImage" />
        <dc:title />
      </cc:Work>
    </rdf:RDF>
  </metadata>
  <g
     inkscape:label="Mask"
     inkscape:groupmode="layer"
     id="Mask"
     style="display:inline;opacity:1"
     transform="translate(0,-328.81888)">
    <rect
       style="display:inline;opacity:1;fill:none;fill-opacity:1;stroke:#808080;stroke-width:0.75590551;stroke-linecap:round;stroke-linejoin:round;stroke-miterlimit:4;stroke-dasharray:none;stroke-dashoffset:0;stroke-opacity:1"
       id="rect814"
       width="566.14978"
       x="461.492"
       y="-793.3111"
       heightx="549.12811"
       height="377.17337"
       transform="rotate(90)" />
  </g>
  <g
     inkscape:groupmode="layer"
     id="layer1"
     inkscape:label="Overlay"
     style="display:inline"
     transform="translate(0,-328.81888)">
    <path
       style="display:inline;opacity:1;vector-effect:none;fill:none;fill-opacity:1;stroke:#c0c0c0;stroke-width:0.37795275;stroke-linecap:round;stroke-linejoin:round;stroke-miterlimit:4;stroke-dasharray:none;stroke-dashoffset:0;stroke-opacity:1"
       d="m 493.37499,333.1383 -26.75,-123.4375 c -3.05636,-13.66624 6.38935,-14.73137 8.5625,-7.0625 l 26.75,126.0625 c 0.69901,4.46678 -7.37193,5.11556 -8.5625,4.4375 z"
       id="path886"
       inkscape:connector-curvature="0"
       sodipodi:nodetypes="ccccc"
       transform="translate(0,328.81888)" />
    <path
       style="display:inline;opacity:1;vector-effect:none;fill:none;fill-opacity:1;stroke:#c0c0c0;stroke-width:0.37795275;stroke-linecap:round;stroke-linejoin:round;stroke-miterlimit:4;stroke-dasharray:none;stroke-dashoffset:0;stroke-opacity:1"
       d="m 495.06249,669.01968 c -6.00814,-0.11378 -6.95199,-2.91401 -6.72345,-4.68407 0.26647,-2.06393 2.0841,-4.5967 4.59845,-4.06593"
       id="path890"
       inkscape:connector-curvature="0"
       sodipodi:nodetypes="csc" />
    <path
       style="display:inline;opacity:1;vector-effect:none;fill:none;fill-opacity:1;stroke:#c0c0c0;stroke-width:0.37795275;stroke-linecap:round;stroke-linejoin:round;stroke-miterlimit:4;stroke-dasharray:none;stroke-dashoffset:0;stroke-opacity:1"
       d="m 496.43749,674.39468 c -7.79682,0.59357 -7.64806,-4.84348 -6.875,-6.875"
       id="path892"
       inkscape:connector-curvature="0"
       sodipodi:nodetypes="cc" />
    <path
       style="display:inline;opacity:1;vector-effect:none;fill:none;fill-opacity:1;stroke:#c0c0c0;stroke-width:0.37795275;stroke-linecap:round;stroke-linejoin:round;stroke-miterlimit:4;stroke-dasharray:none;stroke-dashoffset:0;stroke-opacity:1"
       d="m 497.43749,678.64468 c -6.25318,-0.12548 -7.4386,-3.34455 -6.6875,-5.5"
       id="path894"
       inkscape:connector-curvature="0"
       sodipodi:nodetypes="cc" />
    <path
       style="display:inline;opacity:1;vector-effect:none;fill:none;fill-opacity:1;stroke:#c0c0c0;stroke-width:0.37795275;stroke-linecap:round;stroke-linejoin:round;stroke-miterlimit:4;stroke-dasharray:none;stroke-dashoffset:0;stroke-opacity:1"
       d="m 493.43749,677.95718 c -0.47731,0.73733 -2.9016,3.79363 5.125,5.3125 3.39518,0.64247 6.42358,0.5009 9.625,0.5 4.00338,-0.001 6.73385,-2.71173 11.3125,-2.25 15.39831,2.71689 30.68881,5.12967 45.3125,8.8125 5.85747,1.47515 11.58609,5.62816 17.4375,10.4375 13.75838,11.30817 23.84763,25.51961 33.8125,39.8125"
       id="path896"
       inkscape:connector-curvature="0"
       sodipodi:nodetypes="csscssc" />
    <path
       style="display:inline;opacity:1;vector-effect:none;fill:none;fill-opacity:1;stroke:#c0c0c0;stroke-width:0.37795275;stroke-linecap:round;stroke-linejoin:round;stroke-miterlimit:4;stroke-dasharray:none;stroke-dashoffset:0;stroke-opacity:1"
       d="m 501.31249,654.73843 c 8.57904,0.1386 14.81146,9.31183 17.8125,9.78125 l 67.25,13.125 c 10.61399,2.30621 22.36889,15.41494 26.75,20.5 16.57638,19.23985 33.45217,37.55947 34.87499,63.5 0.98473,17.95333 1.19206,32.52284 0.5,52.74999 -0.56197,16.42477 1.59824,31.89018 5.75,47.5 11.38291,45.20283 14.61653,94.06116 20.5,139.87503 11.94817,0.5264 29.34522,2.0228 33.625,9.375 1.31883,2.2656 0.97498,3.8522 0.875,6.625 h -55.125 l 0.125,-14.875 c 0,0 -6.99896,-36.48717 -11.5,-54.50003 -1.99799,-7.99583 -4.47138,-15.8666 -6.875,-23.75 -5.6146,-18.41475 -17.62499,-55 -17.62499,-55 -4.62203,18.60491 -12.32997,36.43834 -18.625,54.625 -1.4155,4.08945 -3.70604,8.27636 -3.25,17.25 l 3.875,76.25003 h -56.25 c -0.32147,-2.6176 -0.69594,-4.8015 1.65533,-6.6692 9.06355,-7.1996 17.17177,-8.6927 30.59467,-9.3308 l -4.625,-61.87503 c -0.6426,-8.59701 1.56902,-15.95897 2.875,-22.4375 4.16199,-21.90882 9.47028,-43.60449 12.625,-65.6875 l -0.875,-9.625 c -2.92382,-27.89225 -9.12732,-53.92369 -13.50628,-80.9116"
       id="path898"
       inkscape:connector-curvature="0"
       sodipodi:nodetypes="cccsssccscccsscssccscscccc" />
    <path
       style="display:inline;opacity:1;vector-effect:none;fill:none;fill-opacity:1;stroke:#c0c0c0;stroke-width:0.37795275;stroke-linecap:round;stroke-linejoin:round;stroke-miterlimit:4;stroke-dasharray:none;stroke-dashoffset:0;stroke-opacity:1"
       d="m 475.90107,534.82002 c 88.31262,-39.67607 153.16073,-42.24548 213.09891,-37.05034 2.55365,38.39204 8.49471,78.23583 14.25,118 -22.7719,-4.19775 -65.59692,-1.46337 -105.67622,4.17695 -28.4498,4.00371 -59.92965,12.99005 -97.56814,28.46887"
       id="path900"
       inkscape:connector-curvature="0"
       sodipodi:nodetypes="cccsc" />
    <path
       style="display:inline;opacity:1;vector-effect:none;fill:none;fill-opacity:1;stroke:#c0c0c0;stroke-width:0.37795275;stroke-linecap:round;stroke-linejoin:round;stroke-miterlimit:4;stroke-dasharray:none;stroke-dashoffset:0;stroke-opacity:1"
       d="m 507.77353,683.77051 8.0123,37.04655"
       id="path904"
       inkscape:connector-curvature="0" />
    <path
       style="display:inline;opacity:1;vector-effect:none;fill:none;fill-opacity:1;stroke:#c0c0c0;stroke-width:0.37795275;stroke-linecap:round;stroke-linejoin:round;stroke-miterlimit:4;stroke-dasharray:none;stroke-dashoffset:0;stroke-opacity:1"
       d="m 498.63719,683.2837 10.69457,48.31951"
       id="path906"
       inkscape:connector-curvature="0"
       sodipodi:nodetypes="cc" />
    <path
       style="display:inline;opacity:1;vector-effect:none;fill:none;fill-opacity:1;stroke:#c0c0c0;stroke-width:0.37795275;stroke-linecap:round;stroke-linejoin:round;stroke-miterlimit:4;stroke-dasharray:none;stroke-dashoffset:0;stroke-opacity:1"
       d="m 514.96319,757.0468 1.2448,5.56018 c 0.98007,4.37767 9.05255,2.30891 7.74456,-4.02935 l -5.1026,-23.59294 c -3.55435,-2.58788 -3.74399,-5.06353 -4.92127,-9.22621 -1.6394,-5.79668 2.82345,-5.19031 4.2038,-3.81479 2.72591,2.71637 5.7408,12.77969 5.7408,12.77969 1.25167,4.03171 0.43707,8.21257 2.56771,12.85293 5.8041,12.64086 12.23744,24.96365 19.56443,36.40686 0.50973,0.79608 1.37365,0.78759 1.70239,-0.0766 l 14.08851,-37.03732 c 2.2257,-5.98407 5.22705,-9.90348 8.83884,-12.02082 l 16.26345,-4.59619 -0.35355,-5.65685 c -21.04834,1.11531 -33.17202,-21.95611 -31.64929,-36.56357"
       id="path908"
       inkscape:connector-curvature="0"
       sodipodi:nodetypes="csccsscsssccccc" />
    <path
       style="display:inline;opacity:1;vector-effect:none;fill:none;fill-opacity:1;stroke:#c0c0c0;stroke-width:0.37795275;stroke-linecap:round;stroke-linejoin:round;stroke-miterlimit:4;stroke-dasharray:none;stroke-dashoffset:0;stroke-opacity:1"
       d="m 556.68683,671.85052 c 5.80567,-19.28901 24.28274,-31.71511 50.36433,-22.38528 13.28874,4.75361 17.92638,20.0439 17.61311,33.58199 -0.2112,9.12659 -1.45516,18.87559 -5.03277,22.64454"
       id="path910"
       inkscape:connector-curvature="0"
       sodipodi:nodetypes="cssc" />
    <path
       style="display:inline;opacity:1;vector-effect:none;fill:none;fill-opacity:1;stroke:#c0c0c0;stroke-width:0.37795275;stroke-linecap:round;stroke-linejoin:round;stroke-miterlimit:4;stroke-dasharray:none;stroke-dashoffset:0;stroke-opacity:1"
       d="m 573.93633,768.32413 c -5.04976,12.56518 -9.73594,25.28425 -16.68634,37.69555 -3.22313,5.75553 -13.33816,5.98381 -17,0.25 -8.36023,-13.09067 -14.22629,-27.38241 -20.82581,-41.34225"
       id="path912"
       inkscape:connector-curvature="0"
       sodipodi:nodetypes="cssc" />
    <path
       style="display:inline;opacity:1;vector-effect:none;fill:none;fill-opacity:1;stroke:#c0c0c0;stroke-width:0.37795275;stroke-linecap:round;stroke-linejoin:round;stroke-miterlimit:4;stroke-dasharray:none;stroke-dashoffset:0;stroke-opacity:1"
       d="m 509.01269,730.1616 c -0.7545,-0.0696 -1.59205,-0.0212 -2.21161,0.11017 -1.30531,0.2936 -2.5663,2.62562 -0.55109,4.49791 l 5.5,4.875 c 2.43121,1.78247 3.89848,-0.61872 3.1875,-2.8125 -1.24966,-1.93444 -3.37447,-3.62475 -5.60573,-5.22897"
       id="path914"
       inkscape:connector-curvature="0"
       sodipodi:nodetypes="cccccc" />
    <path
       style="display:inline;opacity:1;vector-effect:none;fill:none;fill-opacity:1;stroke:#c0c0c0;stroke-width:0.37795275;stroke-linecap:round;stroke-linejoin:round;stroke-miterlimit:4;stroke-dasharray:none;stroke-dashoffset:0;stroke-opacity:1"
       d="m 507.14686,735.54889 c -1.36189,-0.96315 -3.76553,2.28344 -1.3125,4.5625 l 5.5,4.875 c 2.43121,1.78247 3.89848,-0.61872 3.1875,-2.8125 -0.44355,-0.68661 -1.00834,-1.35036 -1.65218,-1.99272"
       id="path914-3"
       inkscape:connector-curvature="0"
       sodipodi:nodetypes="ccccc" />
    <path
       style="display:inline;opacity:1;vector-effect:none;fill:none;fill-opacity:1;stroke:#c0c0c0;stroke-width:0.37795275;stroke-linecap:round;stroke-linejoin:round;stroke-miterlimit:4;stroke-dasharray:none;stroke-dashoffset:0;stroke-opacity:1"
       d="m 507.9348,742.04232 c -1.10736,0.34653 -2.13914,2.40592 -0.39937,4.02508 l 4.91031,4.35979 c 2.17054,1.59409 3.4805,-0.55333 2.84575,-2.51527 -0.53254,-0.82578 -1.18431,-1.58668 -2.01678,-2.34169"
       id="path914-8"
       inkscape:connector-curvature="0"
       sodipodi:nodetypes="ccccc" />
    <path
       style="display:inline;opacity:1;vector-effect:none;fill:none;fill-opacity:1;stroke:#c0c0c0;stroke-width:0.37795275;stroke-linecap:round;stroke-linejoin:round;stroke-miterlimit:4;stroke-dasharray:none;stroke-dashoffset:0;stroke-opacity:1"
       d="m 509.80522,748.06292 c -0.9819,0.3707 -1.88029,2.42654 -0.33594,4.04536 l 4.39,4.39009 c 1.94055,1.60517 3.11169,-0.55718 2.5442,-2.53275 -0.60631,-1.0589 -1.4964,-2.05743 -2.50125,-3.00219"
       id="path914-6"
       inkscape:connector-curvature="0"
       sodipodi:nodetypes="ccccc" />
    <path
       style="opacity:1;vector-effect:none;fill:none;fill-opacity:1;stroke:#c0c0c0;stroke-width:0.37795275;stroke-linecap:round;stroke-linejoin:round;stroke-miterlimit:4;stroke-dasharray:none;stroke-dashoffset:0;stroke-opacity:1"
       d="m 601.17493,669.19646 c -2.17521,1.48057 -1.21487,5.26788 1.3125,6 1.86861,0.5413 4.24155,-2.31962 4,-4.25 -0.26981,-2.15625 -3.51608,-2.97274 -5.3125,-1.75 z"
       id="path830"
       inkscape:connector-curvature="0"
       sodipodi:nodetypes="ssss" />
    <path
       style="display:inline;opacity:1;vector-effect:none;fill:none;fill-opacity:1;stroke:#c0c0c0;stroke-width:0.37795275;stroke-linecap:round;stroke-linejoin:round;stroke-miterlimit:4;stroke-dasharray:none;stroke-dashoffset:0;stroke-opacity:1"
       d="m 576.01793,665.61232 c 1.48057,-2.17521 5.26788,-1.21487 6,1.3125 0.5413,1.86861 -2.31962,4.24155 -4.25,4 -2.15625,-0.26981 -2.97274,-3.51608 -1.75,-5.3125 z"
       id="path830-6"
       inkscape:connector-curvature="0"
       sodipodi:nodetypes="ssss" />
    <path
       style="opacity:1;vector-effect:none;fill:none;fill-opacity:1;stroke:#c0c0c0;stroke-width:0.37795275;stroke-linecap:round;stroke-linejoin:round;stroke-miterlimit:4;stroke-dasharray:none;stroke-dashoffset:0;stroke-opacity:1"
       d="m 591.52397,709.32593 c -8.42987,-0.0605 -16.00956,-2.88421 -20.27398,-9.18125"
       id="path849"
       inkscape:connector-curvature="0"
       sodipodi:nodetypes="cc" />
  </g>
</svg>
