<?xml version="1.0" encoding="UTF-8" standalone="no"?>
<!-- Created with Inkscape (http://www.inkscape.org/) -->

<svg
   xmlns:dc="http://purl.org/dc/elements/1.1/"
   xmlns:cc="http://creativecommons.org/ns#"
   xmlns:rdf="http://www.w3.org/1999/02/22-rdf-syntax-ns#"
   xmlns:svg="http://www.w3.org/2000/svg"
   xmlns="http://www.w3.org/2000/svg"
   xmlns:sodipodi="http://sodipodi.sourceforge.net/DTD/sodipodi-0.dtd"
   xmlns:inkscape="http://www.inkscape.org/namespaces/inkscape"
   width="297mm"
   height="210mm"
   id="svg2"
   version="1.1"
   inkscape:version="0.92.3 (2405546, 2018-03-11)"
   sodipodi:docname="PhotoPumpkin-undecorated-d-2.svg"
   inkscape:export-filename="/home/christian/SportsCar.svg.png"
   inkscape:export-xdpi="138.06"
   inkscape:export-ydpi="138.06">
  <defs
     id="defs4" />
  <sodipodi:namedview
     id="base"
     pagecolor="#ffffff"
     bordercolor="#666666"
     borderopacity="1.0"
     inkscape:pageopacity="0.0"
     inkscape:pageshadow="2"
     inkscape:zoom="0.70710678"
     inkscape:cx="45.33034"
     inkscape:cy="633.75603"
     inkscape:document-units="mm"
     inkscape:current-layer="layer1"
     showgrid="false"
     units="mm"
     inkscape:window-width="1920"
     inkscape:window-height="1080"
     inkscape:window-x="1920"
     inkscape:window-y="0"
     inkscape:window-maximized="0"
     inkscape:snap-global="false" />
  <metadata
     id="metadata7">
    <rdf:RDF>
      <cc:Work
         rdf:about="">
        <dc:format>image/svg+xml</dc:format>
        <dc:type
           rdf:resource="http://purl.org/dc/dcmitype/StillImage" />
        <dc:title />
      </cc:Work>
    </rdf:RDF>
  </metadata>
  <g
     inkscape:label="Mask"
     inkscape:groupmode="layer"
     id="Mask"
     style="display:inline;opacity:1"
     transform="translate(0,-328.81888)">
    <rect
       style="display:inline;opacity:1;fill:none;fill-opacity:1;stroke:#808080;stroke-width:0.75590551;stroke-linecap:round;stroke-linejoin:round;stroke-miterlimit:4;stroke-dasharray:none;stroke-dashoffset:0;stroke-opacity:1"
       id="rect814"
       width="566.14978"
       x="321.64954"
       y="555.98022"
       heightx="549.12811"
       height="377.17337" />
  </g>
  <g
     inkscape:groupmode="layer"
     id="layer1"
     inkscape:label="Overlay"
     style="display:inline"
     transform="translate(0,-328.81888)">
    <path
       style="opacity:1;vector-effect:none;fill:none;fill-opacity:0.97647059;stroke:#c0c0c0;stroke-width:0.37795275;stroke-linecap:round;stroke-linejoin:round;stroke-miterlimit:4;stroke-dasharray:none;stroke-dashoffset:0;stroke-opacity:1"
       d="m 581.95376,667.8671 c 0,0 -20.85138,-9.99051 -36,-7.21875 -15.14862,2.77176 -37.91314,18.24234 -50,30.5 -12.08686,12.25766 -18.67346,20.89655 -22.75,38.5 -4.07654,17.60345 0.49346,45.35428 5,63.5 4.50654,18.14572 9.72116,31.98855 19.25,44.5 9.52884,12.51145 26.65603,23.75903 35.75,28.75 9.09397,4.99097 11.26742,5.4619 15.5,5.25 4.23258,-0.2119 7.9375,-3.5 7.9375,-3.5"
       id="path881"
       inkscape:connector-curvature="0"
       sodipodi:nodetypes="czzzzzzzc" />
    <path
       style="opacity:1;vector-effect:none;fill:none;fill-opacity:0.97647059;stroke:#c0c0c0;stroke-width:0.37795275;stroke-linecap:round;stroke-linejoin:round;stroke-miterlimit:4;stroke-dasharray:none;stroke-dashoffset:0;stroke-opacity:1"
       d="m 600.92251,670.64835 c 0,0 -9.39069,-3.84169 -16.96875,-3 -7.57806,0.84169 -17.6171,3.36869 -27.75,13 -10.1329,9.63131 -19.95668,28.37313 -25,47 -5.04332,18.62687 -4.60431,41.45769 -2.5,62.5 2.10431,21.04231 8.00421,49.40576 15.25,62.5 7.24579,13.09424 11.38598,14.7423 17.75,18.25 6.36402,3.5077 12.3302,4.19184 17.75,3.75 5.4198,-0.44184 14.59375,-6 14.59375,-6"
       id="path883"
       inkscape:connector-curvature="0"
       sodipodi:nodetypes="czzzzzzzc" />
    <path
       style="opacity:1;vector-effect:none;fill:none;fill-opacity:0.97647059;stroke:#c0c0c0;stroke-width:0.37795275;stroke-linecap:round;stroke-linejoin:round;stroke-miterlimit:4;stroke-dasharray:none;stroke-dashoffset:0;stroke-opacity:1"
       d="m 613.14528,669.97133 c -3.80204,0.47352 -5.09639,-2.6914 -9.54594,-0.70711 -4.44955,1.98429 -6.64461,5.03412 -12.02081,15.55635 -5.3762,10.52223 -11.70759,32.81624 -14.49569,49.14392 -2.7881,16.32768 -2.95538,30.64283 -2.47488,48.08326 0.4805,17.44043 1.54779,41.22315 6.01041,56.21499 4.46262,14.99184 7.80457,25.91734 14.31891,31.02431 6.51434,5.10697 8.06778,4.90397 11.66727,4.33103 3.59949,-0.57294 4.38283,2.72176 12.9047,-7.51301 8.52187,-10.23477 18.29561,-35.73147 23.33452,-62.49056 5.03891,-26.75909 3.20526,-71.02523 0.7071,-92.98454 -2.49816,-21.95931 -4.59987,-31.53875 -9.19238,-38.53732 -4.59251,-6.99857 -4.53315,-5.72262 -8.48529,-6.36396 -3.95214,-0.64134 -8.92588,3.76912 -12.72792,4.24264 z"
       id="path885"
       inkscape:connector-curvature="0"
       sodipodi:nodetypes="zzzzzzzzzzzzzz" />
    <path
       style="opacity:1;vector-effect:none;fill:none;fill-opacity:0.97647059;stroke:#c0c0c0;stroke-width:0.37795275;stroke-linecap:round;stroke-linejoin:round;stroke-miterlimit:4;stroke-dasharray:none;stroke-dashoffset:0;stroke-opacity:1"
       d="m 630.80151,667.23129 c 0.77694,-1.07614 4.30044,-4.15626 8.86028,-5.74524 4.55984,-1.58898 11.05652,-3.34638 20.50609,1.06066 9.44957,4.40704 18.40036,11.54713 28.63783,30.75914 10.23747,19.21201 21.45926,62.10747 20.15254,86.26703 -1.30672,24.15956 -10.60045,39.68219 -18.73833,53.38656 -8.13788,13.70437 -18.57045,22.82199 -26.16295,28.99138 -7.5925,6.16939 -10.27994,7.86102 -16.97056,9.89949 -6.69062,2.03847 -17.45634,2.60629 -22.27387,1.41422 -4.81753,-1.19207 -7.58041,-4.48682 -7.58041,-4.48682"
       id="path887"
       inkscape:connector-curvature="0"
       sodipodi:nodetypes="czzzzzzzzc" />
    <path
       style="opacity:1;vector-effect:none;fill:none;fill-opacity:0.97647059;stroke:#c0c0c0;stroke-width:0.37795275;stroke-linecap:round;stroke-linejoin:round;stroke-miterlimit:4;stroke-dasharray:none;stroke-dashoffset:0;stroke-opacity:1"
       d="m 653.26655,660.20664 c 0,0 10.11435,-0.89024 18.56859,0.5723 8.45424,1.46254 20.07902,3.55914 29.34494,9.89949 9.26592,6.34035 16.08694,16.73176 23.33452,27.93072 7.24758,11.19896 15.5036,27.32491 19.09188,39.24443 3.58828,11.91952 4.30823,20.69854 4.08755,30.77522 -0.22068,10.07668 -0.66921,16.8685 -5.14821,28.9753 -4.479,12.1068 -14.93533,29.96937 -24.39518,41.36575 -9.45985,11.39638 -21.01087,21.56785 -30.75915,26.87006 -9.74828,5.30221 -18.53176,6.87534 -24.74873,7.07106 -6.21697,0.19572 -11.31371,-2.47487 -11.31371,-2.47487"
       id="path889"
       inkscape:connector-curvature="0"
       sodipodi:nodetypes="czzzzzzzzzc" />
    <path
       style="opacity:1;vector-effect:none;fill:none;fill-opacity:0.97647059;stroke:#c0c0c0;stroke-width:0.37795275;stroke-linecap:round;stroke-linejoin:round;stroke-miterlimit:4;stroke-dasharray:none;stroke-dashoffset:0;stroke-opacity:1"
       d="m 587.33588,664.66803 c 0,0 -6.51868,-4.68404 -10.01653,-5.42462 -3.49785,-0.74058 -9.94239,-0.77733 -15.16114,2.01408"
       id="path891"
       inkscape:connector-curvature="0"
       sodipodi:nodetypes="czc" />
    <path
       style="opacity:1;vector-effect:none;fill:none;fill-opacity:0.97647059;stroke:#c0c0c0;stroke-width:0.37795275;stroke-linecap:round;stroke-linejoin:round;stroke-miterlimit:4;stroke-dasharray:none;stroke-dashoffset:0;stroke-opacity:1"
       d="m 596.52827,665.72869 c -0.0344,0.17175 7.98717,0.57867 13.78858,-9.19239 5.80141,-9.77106 7.73123,-11.25977 12.19759,-13.78858 4.46636,-2.52881 9.96938,-2.90372 13.25826,-2.12132 3.28888,0.7824 5.79225,2.83616 5.65685,5.3033 -0.1354,2.46714 -3.59903,3.29618 -5.65685,4.24264 -2.05782,0.94646 -4.64762,-0.82706 -7.95495,0.17677 -3.30733,1.00383 -5.39014,3.30957 -6.18719,6.18719 -0.79705,2.87762 3.88909,7.77817 3.88909,7.77817"
       id="path893"
       inkscape:connector-curvature="0"
       sodipodi:nodetypes="czzzzzzzc" />
    <path
       style="opacity:1;vector-effect:none;fill:none;fill-opacity:0.97647059;stroke:#c0c0c0;stroke-width:0.37795275;stroke-linecap:round;stroke-linejoin:round;stroke-miterlimit:4;stroke-dasharray:none;stroke-dashoffset:0;stroke-opacity:1"
       d="m 634.64126,640.33585 c -3.19365,-0.25549 -6.08941,3.23931 -6,5.8125 0.0894,2.57319 2.3862,3.9319 3.6875,4.0625"
       id="path895"
       inkscape:connector-curvature="0"
       sodipodi:nodetypes="czc" />
    <path
       style="opacity:1;vector-effect:none;fill:none;fill-opacity:0.97647059;stroke:#c0c0c0;stroke-width:0.37795275;stroke-linecap:round;stroke-linejoin:round;stroke-miterlimit:4;stroke-dasharray:none;stroke-dashoffset:0;stroke-opacity:1"
       d="m 577.95376,659.3671 c 7.31951,-2.09574 16.73296,-3.70309 28.5,2.03125"
       id="path897"
       inkscape:connector-curvature="0"
       sodipodi:nodetypes="cc" />
    <path
       style="opacity:1;vector-effect:none;fill:none;fill-opacity:0.97647059;stroke:#c0c0c0;stroke-width:0.37795275;stroke-linecap:round;stroke-linejoin:round;stroke-miterlimit:4;stroke-dasharray:none;stroke-dashoffset:0;stroke-opacity:1"
       d="m 600.11001,658.89835 c 2.94365,-1.78277 6.3868,-1.99564 9.90625,-1.96875"
       id="path899"
       inkscape:connector-curvature="0"
       sodipodi:nodetypes="cc" />
    <path
       style="opacity:1;vector-effect:none;fill:none;fill-opacity:0.97647059;stroke:#c0c0c0;stroke-width:0.37795275;stroke-linecap:round;stroke-linejoin:round;stroke-miterlimit:4;stroke-dasharray:none;stroke-dashoffset:0;stroke-opacity:1"
       d="m 671.01626,660.64835 c -7.64813,-7.25477 -25.89383,-4.70155 -31.875,-1.125"
       id="path901"
       inkscape:connector-curvature="0"
       sodipodi:nodetypes="cc" />
    <path
       style="opacity:1;vector-effect:none;fill:none;fill-opacity:0.97647059;stroke:#c0c0c0;stroke-width:0.37795275;stroke-linecap:round;stroke-linejoin:round;stroke-miterlimit:4;stroke-dasharray:none;stroke-dashoffset:0;stroke-opacity:1"
       d="m 642.87563,657.88273 c -3.37446,-1.40522 -11.13174,-3.42498 -21.26424,-0.15793"
       id="path903"
       inkscape:connector-curvature="0"
       sodipodi:nodetypes="cc" />
  </g>
</svg>
