<?xml version="1.0" encoding="UTF-8" standalone="no"?>
<!-- Created with Inkscape (http://www.inkscape.org/) -->

<svg
   xmlns:dc="http://purl.org/dc/elements/1.1/"
   xmlns:cc="http://creativecommons.org/ns#"
   xmlns:rdf="http://www.w3.org/1999/02/22-rdf-syntax-ns#"
   xmlns:svg="http://www.w3.org/2000/svg"
   xmlns="http://www.w3.org/2000/svg"
   xmlns:sodipodi="http://sodipodi.sourceforge.net/DTD/sodipodi-0.dtd"
   xmlns:inkscape="http://www.inkscape.org/namespaces/inkscape"
   width="297mm"
   height="210mm"
   id="svg2"
   version="1.1"
   inkscape:version="0.92.3 (2405546, 2018-03-11)"
   sodipodi:docname="Sled-undecorated-d-2.svg">
  <defs
     id="defs4" />
  <sodipodi:namedview
     id="base"
     pagecolor="#ffffff"
     bordercolor="#666666"
     borderopacity="1.0"
     inkscape:pageopacity="0.0"
     inkscape:pageshadow="2"
     inkscape:zoom="0.1428435"
     inkscape:cx="1166.9636"
     inkscape:cy="583.50577"
     inkscape:document-units="mm"
     inkscape:current-layer="layer1"
     showgrid="false"
     units="mm"
     inkscape:window-width="1920"
     inkscape:window-height="1080"
     inkscape:window-x="1920"
     inkscape:window-y="0"
     inkscape:window-maximized="0"
     inkscape:snap-global="true" />
  <metadata
     id="metadata7">
    <rdf:RDF>
      <cc:Work
         rdf:about="">
        <dc:format>image/svg+xml</dc:format>
        <dc:type
           rdf:resource="http://purl.org/dc/dcmitype/StillImage" />
        <dc:title />
      </cc:Work>
    </rdf:RDF>
  </metadata>
  <g
     inkscape:label="Mask"
     inkscape:groupmode="layer"
     id="Mask"
     style="display:inline"
     transform="translate(0,-328.81888)">
    <path
       style="display:inline;opacity:1;vector-effect:none;fill:none;fill-opacity:1;stroke:#808080;stroke-width:0.75590551;stroke-linecap:round;stroke-linejoin:round;stroke-miterlimit:4;stroke-dasharray:none;stroke-dashoffset:0;stroke-opacity:1"
       d="m 589.58008,208.48828 c -28.52723,0.0939 -44.05251,29.58065 -44.1836,47.7207 0.44575,2.02764 2.56095,1.61436 3.9375,1.94141 l -2.1875,0.82031 c -2.15987,0.5902 1.49941,28.48661 3.28125,28.49414 l 3.28125,-0.4375 c -0.14826,4.7144 2.47279,12.98807 8.75196,12.47071 9.39813,11.46465 25.11511,14.32011 45.9414,8.3125 1.72107,-0.53495 6.47531,9.72962 6.34375,12.4707 -1.22136,2.03836 -2.45242,7.67253 -2.55008,12.96873 -0.62038,6.20448 2.90566,11.96145 5.76975,17.23444 l -9.47737,36.31088 c -0.43417,2.52971 -1.71086,5.73062 -3.55208,6.98136 l -47.94608,33.92061 c -4.90006,3.83626 -9.98375,7.45782 -15.75195,10.28125 -5.14053,1.93876 -9.46366,1.80114 -13.56324,2.08121 -4.38786,0.60246 -10.27718,3.58349 -12.66681,7.23894 l -3.74065,-0.34945 c -9.28528,-1.40905 -94.96746,-2.98302 -94.29102,71.09961 0.42029,46.02941 40.30298,84.4005 84.85156,85.06836 H 848.34375 V 587.0293 H 797.7168 v -91.87305 h 53.10156 v -16.33789 h -71.77734 c 11.01593,-10.18265 20.33093,-22.73638 5.56836,-48.95898 -13.4639,-26.99143 -63.78135,-82.04028 -90.06836,-102.625 -9.02038,-7.06364 -17.20211,-14.86991 -25.14895,-20.00757 -7.22052,-4.66809 -11.4031,-5.16414 -21.53269,-4.83619 -3.42162,-0.89577 -8.55545,-3.53479 -8.66211,-6.80664 15.94565,-10.8173 13.63243,-29.00832 7.82475,-44.91943 -0.0307,-0.0842 0.65332,-0.26807 0.62239,-0.35215 -1.43849,-4.12236 -3.5733,-8.52321 -5.47029,-12.11235 -0.0593,-0.11195 -0.65015,0.2622 -0.70962,0.15066 -9.35841,-17.55024 -20.9466,-29.96429 -51.88442,-29.86243 z m 54.86675,171.49708 c 16.10537,16.79394 33.53761,36.96491 50.80708,51.43066 -28.99179,-0.0111 -48.35308,5.02299 -65.19336,11.37695 -15.36433,6.3565 -23.76265,17.43579 -16.40836,36.02539 h -48.785 c -2.43072,-4.71625 -5.89883,-8.77588 -10.61122,-13.49213 7.75121,-12.51107 7.07494,-13.34873 14.22065,-17.72051 l 58.28254,-32.04735 c 3.82,-2.17426 6.70324,-4.90816 7.81853,-8.39254 z m -140.00738,82.05956 c 0.88375,-0.0134 1.76824,-0.0122 2.65235,0.004 3.57241,0.0652 7.13797,0.3833 10.61683,1.04623 -2.45752,6.82212 4.69532,7.76366 7.19218,2.06394 -2.93901,6.87659 4.80324,8.77882 7.76247,4.12359 -2.73001,4.47507 2.21367,9.22612 6.4591,4.07536 -0.73861,3.268 0.0762,4.38278 1.78977,5.40295 h -6.13367 v 16.37273 h 17.74466 c 0.33511,3.43656 0.0921,6.98421 0.0921,10.6652 h 16.40821 l -0.21875,-10.64258 h 7 v 91.87305 h -74.38086 c -8.14089,0 -16.27603,-2.23922 -23.8711,-5.16992 -6.30319,-2.43224 -12.2866,-5.90131 -17.55664,-10.12891 -5.31912,-4.26698 -10.06553,-9.38912 -13.82226,-15.08008 -4.99197,-7.56218 -9.26647,-15.91503 -11.20899,-24.76562 -2.08615,-9.50503 -3.12856,-19.91162 -0.20507,-29.19336 3.46358,-10.99643 10.61248,-21.53791 20.01953,-28.20313 11.81581,-8.37191 27.34777,-10.56746 41.75976,-11.98047 2.60484,-0.25539 5.24914,-0.42268 7.90039,-0.46289 z m 87.55469,33.11133 h 28.43962 c 12.25625,23.18464 23.51853,45.31776 36.31624,67.96094 -15.61179,2.80089 -27.40008,5.21866 -37.19141,7.4375 -14.11604,2.49018 -15.64517,8.4787 -17.50195,16.47461 h -10.0625 z m 81.38281,0 h 108.50977 v 91.87305 h -78.75781 l -1.3125,-22.16211 c -9.47996,-23.33553 -17.13084,-45.76586 -28.43946,-69.71094 z"
       id="path912"
       inkscape:connector-curvature="0"
       sodipodi:nodetypes="scccccccccccccccccscccccccccssccsccsscccccccccccccccccccccccccscssssssccccccccccccccc"
       transform="translate(0,328.81888)" />
  </g>
  <g
     inkscape:groupmode="layer"
     id="layer1"
     inkscape:label="Overlay"
     style="display:inline"
     transform="translate(0,-328.81888)">
    <path
       style="display:inline;opacity:1;vector-effect:none;fill:none;fill-opacity:1;stroke:#c0c0c0;stroke-width:0.37799999;stroke-linecap:round;stroke-linejoin:round;stroke-miterlimit:4;stroke-dasharray:none;stroke-dashoffset:0;stroke-opacity:1"
       d="M 779.04102,807.63724 H 666.6496 l 6.72735,16.33789"
       id="path1124"
       inkscape:connector-curvature="0"
       sodipodi:nodetypes="ccc" />
    <path
       style="display:inline;opacity:1;vector-effect:none;fill:none;fill-opacity:1;stroke:#c0c0c0;stroke-width:0.37799999;stroke-linecap:round;stroke-linejoin:round;stroke-miterlimit:4;stroke-dasharray:none;stroke-dashoffset:0;stroke-opacity:1"
       d="M 644.44683,708.80424 659.87841,666.0214"
       id="path1128"
       inkscape:connector-curvature="0"
       sodipodi:nodetypes="cc" />
    <path
       style="display:inline;opacity:1;vector-effect:none;fill:none;fill-opacity:1;stroke:#c0c0c0;stroke-width:0.37799999;stroke-linecap:round;stroke-linejoin:round;stroke-miterlimit:4;stroke-dasharray:none;stroke-dashoffset:0;stroke-opacity:1"
       d="m 623.37789,653.03335 -5.41213,26.26995"
       id="path1130"
       inkscape:connector-curvature="0"
       sodipodi:nodetypes="cc" />
    <path
       style="display:inline;opacity:1;vector-effect:none;fill:none;fill-opacity:1;stroke:#c0c0c0;stroke-width:0.37799999;stroke-linecap:round;stroke-linejoin:round;stroke-miterlimit:4;stroke-dasharray:none;stroke-dashoffset:0;stroke-opacity:1"
       d="m 614.74609,649.10013 c 9.50553,-12.47554 20.89771,-16.82345 33.11329,-17.89063"
       id="path1134"
       inkscape:connector-curvature="0"
       sodipodi:nodetypes="cc" />
    <path
       style="display:inline;opacity:1;vector-effect:none;fill:none;fill-opacity:1;stroke:#c0c0c0;stroke-width:0.37799999;stroke-linecap:round;stroke-linejoin:round;stroke-miterlimit:4;stroke-dasharray:none;stroke-dashoffset:0;stroke-opacity:1"
       d="m 695.25391,760.2349 c 5.68804,0.046 9.57511,0.4017 14.16929,0.9272"
       id="path1136"
       inkscape:connector-curvature="0"
       sodipodi:nodetypes="cc" />
    <path
       style="display:inline;opacity:1;vector-effect:none;fill:none;fill-opacity:1;stroke:#c0c0c0;stroke-width:0.37799999;stroke-linecap:round;stroke-linejoin:round;stroke-miterlimit:4;stroke-dasharray:none;stroke-dashoffset:0;stroke-opacity:1"
       d="m 564.86719,807.63724 c 2.52774,5.20295 3.76629,9.64275 3.9375,16.33798"
       id="path1138"
       inkscape:connector-curvature="0"
       sodipodi:nodetypes="cc" />
    <path
       style="display:inline;opacity:1;vector-effect:none;fill:none;fill-opacity:1;stroke:#c0c0c0;stroke-width:0.37799999;stroke-linecap:round;stroke-linejoin:round;stroke-miterlimit:4;stroke-dasharray:none;stroke-dashoffset:0;stroke-opacity:1"
       d="m 544.73381,807.62357 c 4.8109,5.313 7.27705,10.9245 7.80486,16.33798"
       id="path1142"
       inkscape:connector-curvature="0"
       sodipodi:nodetypes="cc" />
    <path
       style="display:inline;opacity:1;vector-effect:none;fill:none;fill-opacity:1;stroke:#c0c0c0;stroke-width:0.37799999;stroke-linecap:round;stroke-linejoin:round;stroke-miterlimit:4;stroke-dasharray:none;stroke-dashoffset:0;stroke-opacity:1"
       d="m 549.33398,586.96927 c 19.86585,-5.62208 33.53891,-5.15869 41.78995,-0.18676 m 8.55896,11.11793 c 0.15334,0.49626 0.29211,1.00322 0.41644,1.52065 2.29872,9.56698 4.04812,20.66532 7.9103,28.04241 2.92283,5.58286 14.91639,6.41602 20.46834,2.90926 l 10.7193,-5.9699"
       id="path1144"
       inkscape:connector-curvature="0"
       sodipodi:nodetypes="cccsscc" />
    <path
       style="display:inline;opacity:1;vector-effect:none;fill:none;fill-opacity:1;stroke:#c0c0c0;stroke-width:0.37799999;stroke-linecap:round;stroke-linejoin:round;stroke-miterlimit:4;stroke-dasharray:none;stroke-dashoffset:0;stroke-opacity:1"
       d="m 553.70898,615.84622 c 3.00586,-1.08925 4.1349,-1.48766 7.00082,0.76576 23.60467,11.0023 33.6066,-6.32738 31.06546,-21.11139 -1.51063,-8.7887 -5.45508,-10.50853 -9.29776,-11.84098"
       id="path1146"
       inkscape:connector-curvature="0"
       sodipodi:nodetypes="ccsc" />
    <path
       style="display:inline;opacity:1;vector-effect:none;fill:none;fill-opacity:1;stroke:#c0c0c0;stroke-width:0.37799999;stroke-linecap:round;stroke-linejoin:round;stroke-miterlimit:4;stroke-dasharray:none;stroke-dashoffset:0;stroke-opacity:1"
       d="m 641.5009,567.21146 -52.6331,20.50628"
       id="path1148"
       inkscape:connector-curvature="0"
       sodipodi:nodetypes="cc" />
    <path
       style="display:inline;opacity:1;vector-effect:none;fill:none;fill-opacity:1;stroke:#c0c0c0;stroke-width:0.37799999;stroke-linecap:round;stroke-linejoin:round;stroke-miterlimit:4;stroke-dasharray:none;stroke-dashoffset:0;stroke-opacity:1"
       d="M 646.97899,579.46623 592.20435,600.807"
       id="path1148-0"
       inkscape:connector-curvature="0"
       sodipodi:nodetypes="cc" />
    <path
       style="display:inline;opacity:1;vector-effect:none;fill:none;fill-opacity:1;stroke:#c0c0c0;stroke-width:0.37799999;stroke-linecap:round;stroke-linejoin:round;stroke-miterlimit:4;stroke-dasharray:none;stroke-dashoffset:0;stroke-opacity:1"
       d="m 571.19497,635.51756 c 10.44405,-1.59628 19.37317,-5.97954 22.5881,-15.0405"
       id="path1165"
       inkscape:connector-curvature="0"
       sodipodi:nodetypes="cc" />
    <path
       style="display:inline;opacity:1;vector-effect:none;fill:none;fill-opacity:1;stroke:#c0c0c0;stroke-width:0.37799999;stroke-linecap:round;stroke-linejoin:round;stroke-miterlimit:4;stroke-dasharray:none;stroke-dashoffset:0;stroke-opacity:1"
       d="m 620.43376,823.97513 -6.78157,-16.33789"
       id="path1112"
       inkscape:connector-curvature="0"
       sodipodi:nodetypes="cc" />
    <path
       style="display:inline;opacity:1;vector-effect:none;fill:none;fill-opacity:1;stroke:#c0c0c0;stroke-width:0.37799999;stroke-linecap:round;stroke-linejoin:round;stroke-miterlimit:4;stroke-dasharray:none;stroke-dashoffset:0;stroke-opacity:1"
       d="m 575.80469,823.97522 16.18945,-9e-5"
       id="path1114"
       inkscape:connector-curvature="0" />
    <path
       style="display:inline;opacity:1;vector-effect:none;fill:none;fill-opacity:1;stroke:#c0c0c0;stroke-width:0.37799999;stroke-linecap:round;stroke-linejoin:round;stroke-miterlimit:4;stroke-dasharray:none;stroke-dashoffset:0;stroke-opacity:1"
       d="M 781.88672,823.97513 H 797.7168"
       id="path1116"
       inkscape:connector-curvature="0" />
    <path
       style="display:inline;opacity:1;vector-effect:none;fill:none;fill-opacity:1;stroke:#c0c0c0;stroke-width:0.37799999;stroke-linecap:round;stroke-linejoin:round;stroke-miterlimit:4;stroke-dasharray:none;stroke-dashoffset:0;stroke-opacity:1"
       d="m 575.80469,915.84827 16.18945,-9e-5"
       id="path1118"
       inkscape:connector-curvature="0" />
    <path
       style="display:inline;opacity:1;vector-effect:none;fill:none;fill-opacity:1;stroke:#c0c0c0;stroke-width:0.37799999;stroke-linecap:round;stroke-linejoin:round;stroke-miterlimit:4;stroke-dasharray:none;stroke-dashoffset:0;stroke-opacity:1"
       d="M 602.05664,915.84818 H 703.12891"
       id="path1120"
       inkscape:connector-curvature="0" />
    <path
       style="display:inline;opacity:1;vector-effect:none;fill:none;fill-opacity:1;stroke:#c0c0c0;stroke-width:0.37799999;stroke-linecap:round;stroke-linejoin:round;stroke-miterlimit:4;stroke-dasharray:none;stroke-dashoffset:0;stroke-opacity:1"
       d="M 781.88672,915.84818 H 797.7168"
       id="path1122"
       inkscape:connector-curvature="0" />
    <path
       style="opacity:1;vector-effect:none;fill:none;fill-opacity:1;stroke:#c0c0c0;stroke-width:0.37795275;stroke-linecap:round;stroke-linejoin:round;stroke-miterlimit:4;stroke-dasharray:none;stroke-dashoffset:0;stroke-opacity:1"
       d="m 515.00823,776.11755 8.51052,1.5098 c -2.50183,4.30527 -4.73397,11.41142 -5.83453,14.2599"
       id="path1190"
       inkscape:connector-curvature="0"
       sodipodi:nodetypes="ccc" />
    <path
       style="opacity:1;vector-effect:none;fill:none;fill-opacity:1;stroke:#c0c0c0;stroke-width:0.37795275;stroke-linecap:round;stroke-linejoin:round;stroke-miterlimit:4;stroke-dasharray:none;stroke-dashoffset:0;stroke-opacity:1"
       d="m 554.25597,794.14511 c -2.45652,4.92334 -5.60724,9.43016 -9.52216,13.47846 l -3.82166,-0.0437"
       id="path1192"
       inkscape:connector-curvature="0"
       sodipodi:nodetypes="ccc" />
    <path
       style="opacity:1;vector-effect:none;fill:none;fill-opacity:1;stroke:#c0c0c0;stroke-width:0.37795275;stroke-linecap:round;stroke-linejoin:round;stroke-miterlimit:4;stroke-dasharray:none;stroke-dashoffset:0;stroke-opacity:1"
       d="m 530.6288,781.67462 -5.72799,12.30335"
       id="path1194"
       inkscape:connector-curvature="0"
       sodipodi:nodetypes="cc" />
    <path
       style="opacity:1;vector-effect:none;fill:none;fill-opacity:1;stroke:#c0c0c0;stroke-width:0.37795275;stroke-linecap:round;stroke-linejoin:round;stroke-miterlimit:4;stroke-dasharray:none;stroke-dashoffset:0;stroke-opacity:1"
       d="m 539.81718,785.28434 -7.1539,12.81722"
       id="path1196"
       inkscape:connector-curvature="0"
       sodipodi:nodetypes="cc" />
    <path
       style="opacity:1;vector-effect:none;fill:none;fill-opacity:1;stroke:#c0c0c0;stroke-width:0.37795275;stroke-linecap:round;stroke-linejoin:round;stroke-miterlimit:4;stroke-dasharray:none;stroke-dashoffset:0;stroke-opacity:1"
       d="m 547.69293,789.76914 -8.57055,12.40778"
       id="path1198"
       inkscape:connector-curvature="0"
       sodipodi:nodetypes="cc" />
  </g>
</svg>
