<?xml version="1.0" encoding="UTF-8" standalone="no"?>
<!-- Created with Inkscape (http://www.inkscape.org/) -->

<svg
   xmlns:dc="http://purl.org/dc/elements/1.1/"
   xmlns:cc="http://creativecommons.org/ns#"
   xmlns:rdf="http://www.w3.org/1999/02/22-rdf-syntax-ns#"
   xmlns:svg="http://www.w3.org/2000/svg"
   xmlns="http://www.w3.org/2000/svg"
   xmlns:sodipodi="http://sodipodi.sourceforge.net/DTD/sodipodi-0.dtd"
   xmlns:inkscape="http://www.inkscape.org/namespaces/inkscape"
   width="297mm"
   height="210mm"
   id="svg2"
   version="1.1"
   inkscape:version="0.92.3 (2405546, 2018-03-11)"
   sodipodi:docname="BroadBug-undecorated-d-2.svg"
   inkscape:export-filename="/home/christian/SportsCar.svg.png"
   inkscape:export-xdpi="138.06"
   inkscape:export-ydpi="138.06">
  <defs
     id="defs4" />
  <sodipodi:namedview
     id="base"
     pagecolor="#ffffff"
     bordercolor="#666666"
     borderopacity="1.0"
     inkscape:pageopacity="0.0"
     inkscape:pageshadow="2"
     inkscape:zoom="1.142748"
     inkscape:cx="561.25984"
     inkscape:cy="396.85039"
     inkscape:document-units="mm"
     inkscape:current-layer="layer3"
     showgrid="false"
     units="mm"
     inkscape:window-width="1920"
     inkscape:window-height="1080"
     inkscape:window-x="1920"
     inkscape:window-y="0"
     inkscape:window-maximized="0"
     inkscape:snap-global="false"
     showguides="false" />
  <metadata
     id="metadata7">
    <rdf:RDF>
      <cc:Work
         rdf:about="">
        <dc:format>image/svg+xml</dc:format>
        <dc:type
           rdf:resource="http://purl.org/dc/dcmitype/StillImage" />
        <dc:title />
      </cc:Work>
    </rdf:RDF>
  </metadata>
  <g
     inkscape:label="Mask"
     inkscape:groupmode="layer"
     id="Mask"
     style="display:inline;opacity:1"
     transform="translate(0,-328.81888)">
    <path
       style="opacity:1;vector-effect:none;fill:none;fill-opacity:1;stroke:#808080;stroke-width:0.75599998;stroke-linecap:round;stroke-linejoin:round;stroke-miterlimit:4;stroke-dasharray:none;stroke-dashoffset:0;stroke-opacity:1"
       d="m 735.42666,519.40316 c -1.14854,0.0229 -2.31517,0.31791 -3.37215,0.95821 -20.8134,12.60813 -40.68966,23.99116 -54.96763,49.15376 -5.36491,-2.56184 -12.76465,-3.96389 -23.24985,-3.86536 -1.04215,0.0102 -2.11575,0.0329 -3.21956,0.0725 -8.17931,0.29379 -14.5011,1.89893 -19.43242,4.29818 -14.28832,-25.5753 -34.17593,-37.68212 -55.25781,-49.65913 -1.07449,-0.61045 -2.25898,-0.87664 -3.42218,-0.87565 -5.04056,0.004 -9.67045,5.0511 -3.10949,9.0842 20.32876,12.49634 40.46852,25.18227 52.21086,48.75096 -7.22473,8.44382 -7.91267,19.32328 -8.69805,24.93089 -3.29884,23.55344 -7.4739,24.2457 -30.01168,33.0819 -9.45298,-10.53285 -21.53454,-21.39124 -32.98107,-28.68616 -16.99928,-10.83374 -65.21509,-20.58737 -112.89215,-21.83611 -47.67705,-1.24874 -54.52113,28.18413 -59.1778,55.81116 -4.88043,28.954 62.13237,14.09675 99.14585,17.94574 16.66881,1.73336 43.43864,6.50328 65.43931,12.15397 -0.94538,3.85632 -1.39054,7.82714 -1.62854,11.84123 -73.37927,-14.46428 -119.55792,-13.80569 -142.8863,-13.05462 -25.9326,0.83492 -23.5321,12.67098 -22.34427,34.69308 1.79583,33.29317 17.6093,87.88386 77.35192,76.599 51.40452,-9.70984 61.44152,-23.08624 86.868,-41.58067 0.71954,14.48974 2.60149,30.13581 4.2252,44.27016 -14.56161,12.45312 -18.77208,24.96155 -15.89765,41.26293 3.96176,22.46787 -1.08246,27.47026 -6.08639,35.34607 l -10.31659,16.23698 c -7.10258,11.17892 7.66546,20.29726 14.54429,7.44048 l 10.31409,-19.27922 c 7.06812,-13.21059 9.64314,-23.02113 7.27215,-37.5452 -1.76553,-10.81517 1.66974,-16.73828 4.2277,-21.9837 9.4383,34.20283 27.7634,66.47731 49.37655,94.70485 6.4932,19.41866 1.86884,34.07257 -5.57857,48.87605 -3.63413,7.22368 7.04413,27.5191 21.136,-7.443 2.88069,-7.147 2.23965,-16.03484 1.35337,-25.19858 32.82144,33.20227 50.66916,12.30434 70.00724,-3.21237 -0.0825,11.55642 3.63746,23.11416 10.31658,34.67057 5.36891,9.05088 19.85639,8.93528 11.15964,-10.14748 -5.12939,-12.08882 -9.45746,-24.35555 -6.59421,-38.22069 23.51943,-28.89082 48.05697,-58.21315 52.42099,-104.17684 4.2088,7.41358 10.29354,12.05536 6.59421,31.28558 -1.72037,8.943 -6.85022,24.89583 -2.87433,35.17595 l 6.93442,17.92821 c 4.06576,10.51249 14.94326,5.87861 12.17528,-2.53687 l -4.2277,-12.85447 c -4.89877,-14.89376 -1.60198,-23.74987 0.50782,-35.17595 2.05649,-11.13728 6.98093,-23.41866 -3.38215,-38.05057 l -11.49985,-16.23697 c 1.68765,-15.11582 3.30544,-27.14452 4.75054,-38.07559 28.63976,20.04037 36.85625,34.30005 90.96312,44.52034 59.74262,11.28486 75.55609,-43.30583 77.35193,-76.599 1.18783,-22.0221 3.5883,-33.85816 -22.34428,-34.69308 -23.21605,-0.74746 -69.07028,-1.39805 -141.83564,12.85197 -0.18495,-4.35778 -0.56083,-8.36554 -1.14072,-12.02636 21.70078,-5.47904 47.61729,-10.07289 63.90082,-11.76619 37.01348,-3.84899 104.02629,11.00826 99.14586,-17.94574 -4.65667,-27.62703 -11.50076,-57.0599 -59.17781,-55.81116 -47.67706,1.24874 -95.89285,11.00237 -112.89213,21.83611 -10.49101,6.68596 -21.51798,16.37019 -30.56704,26.0492 -10.83348,-3.66861 -25.97778,-12.20271 -30.82219,-35.01082 -1.67799,-7.83222 -3.21601,-14.83654 -6.89191,-20.28746 11.80081,-23.58556 32.70556,-35.91537 52.24589,-48.82851 6.4252,-4.24608 1.81746,-9.26582 -3.15952,-9.16677 z"
       id="path933"
       inkscape:connector-curvature="0" />
  </g>
  <g
     inkscape:groupmode="layer"
     id="layer1"
     inkscape:label="Overlay"
     style="display:inline;opacity:1"
     transform="translate(0,-328.81888)">
    <path
       style="opacity:1;vector-effect:none;fill:none;fill-opacity:1;stroke:#c0c0c0;stroke-width:0.37795272;stroke-linecap:round;stroke-linejoin:round;stroke-miterlimit:4;stroke-dasharray:none;stroke-dashoffset:0;stroke-opacity:1"
       d="m 582.74885,635.43722 c -16.97872,6.76235 -34.6706,13.20186 -40.27491,34.91571"
       id="path991"
       inkscape:connector-curvature="0"
       sodipodi:nodetypes="cc" />
    <path
       style="opacity:1;vector-effect:none;fill:none;fill-opacity:1;stroke:#c0c0c0;stroke-width:0.37795272;stroke-linecap:round;stroke-linejoin:round;stroke-miterlimit:4;stroke-dasharray:none;stroke-dashoffset:0;stroke-opacity:1"
       d="m 540.78295,682.58582 c -0.966,18.59149 -2.02488,37.14169 -1.01974,56.60933"
       id="path993"
       inkscape:connector-curvature="0"
       sodipodi:nodetypes="cc" />
    <path
       style="opacity:1;vector-effect:none;fill:none;fill-opacity:1;stroke:#c0c0c0;stroke-width:0.37795272;stroke-linecap:round;stroke-linejoin:round;stroke-miterlimit:4;stroke-dasharray:none;stroke-dashoffset:0;stroke-opacity:1"
       d="m 723.93955,632.63616 c 2.2557,0.88608 7.40537,1.86361 12.42026,3.41054 4.92754,1.52 9.63306,3.68244 13.44356,6.66258 6.5364,5.11203 11.34352,13.00699 13.70594,27.30201"
       id="path997"
       inkscape:connector-curvature="0"
       sodipodi:nodetypes="cssc" />
    <path
       style="opacity:1;vector-effect:none;fill:none;fill-opacity:1;stroke:#c0c0c0;stroke-width:0.37795272;stroke-linecap:round;stroke-linejoin:round;stroke-miterlimit:4;stroke-dasharray:none;stroke-dashoffset:0;stroke-opacity:1"
       d="m 764.69301,682.44147 c 0.4825,18.20458 -1.56467,36.01994 -3.97388,53.7796"
       id="path999"
       inkscape:connector-curvature="0"
       sodipodi:nodetypes="cc" />
    <path
       style="opacity:1;vector-effect:none;fill:none;fill-opacity:1;stroke:#c0c0c0;stroke-width:0.37795272;stroke-linecap:round;stroke-linejoin:round;stroke-miterlimit:4;stroke-dasharray:none;stroke-dashoffset:0;stroke-opacity:1"
       d="m 544.35372,783.40505 c 10.78966,-9.50399 24.11822,-22.28405 34.15851,-36.25472"
       id="path1001"
       inkscape:connector-curvature="0"
       sodipodi:nodetypes="cc" />
    <path
       style="opacity:1;vector-effect:none;fill:none;fill-opacity:1;stroke:#c0c0c0;stroke-width:0.37795272;stroke-linecap:round;stroke-linejoin:round;stroke-miterlimit:4;stroke-dasharray:none;stroke-dashoffset:0;stroke-opacity:1"
       d="m 583.92347,672.0407 c -0.56861,0.25274 -5.03413,71.27455 -5.6649,79.31645 -0.63076,8.0419 -1.39646,15.1283 -9.04693,25.70597 -7.65047,10.57767 -12.35593,27.62686 -12.68261,38.72807 -0.32669,11.10122 3.45393,26.31818 9.13148,25.4523 9.06116,-1.90952 6.13156,-10.22519 5.834,-16.06624 -1.38405,-7.60216 1.38005,-24.05486 8.11688,-35.68394 6.73682,-11.62909 14.30569,-21.99407 14.45817,-42.87147 0.15248,-20.8774 6.48761,-73.22819 6.76407,-73.22819"
       id="path1003"
       inkscape:connector-curvature="0"
       sodipodi:nodetypes="czzzcczzc" />
    <path
       style="opacity:1;vector-effect:none;fill:none;fill-opacity:1;stroke:#c0c0c0;stroke-width:0.37795272;stroke-linecap:round;stroke-linejoin:round;stroke-miterlimit:4;stroke-dasharray:none;stroke-dashoffset:0;stroke-opacity:1"
       d="m 547.90484,804.96763 c 4.06454,-5.61188 9.78598,-11.13004 15.27468,-17.37991"
       id="path1005"
       inkscape:connector-curvature="0"
       sodipodi:nodetypes="cc" />
    <path
       style="opacity:1;vector-effect:none;fill:none;fill-opacity:1;stroke:#c0c0c0;stroke-width:0.37795272;stroke-linecap:round;stroke-linejoin:round;stroke-miterlimit:4;stroke-dasharray:none;stroke-dashoffset:0;stroke-opacity:1"
       d="m 619.773,778.92343 c 0,0 -21.91414,52.17979 -25.70344,67.98551 -3.7893,15.80572 -2.95838,15.54464 -2.53651,24.3953 0.42188,8.85066 5.74946,27.73539 5.74946,27.73539"
       id="path1007"
       inkscape:connector-curvature="0"
       sodipodi:nodetypes="czzc" />
    <path
       style="opacity:1;vector-effect:none;fill:none;fill-opacity:1;stroke:#c0c0c0;stroke-width:0.37795272;stroke-linecap:round;stroke-linejoin:round;stroke-miterlimit:4;stroke-dasharray:none;stroke-dashoffset:0;stroke-opacity:1"
       d="m 631.39873,786.81394 c 0,0 -19.4168,53.72575 -21.77182,62.46266 -2.35503,8.73692 -2.96155,12.00963 -2.74666,23.28878 0.2149,11.27916 7.4815,43.34381 7.4815,43.34381"
       id="path1009"
       inkscape:connector-curvature="0"
       sodipodi:nodetypes="czzc" />
    <path
       style="opacity:1;vector-effect:none;fill:none;fill-opacity:1;stroke:#c0c0c0;stroke-width:0.37795272;stroke-linecap:round;stroke-linejoin:round;stroke-miterlimit:4;stroke-dasharray:none;stroke-dashoffset:0;stroke-opacity:1"
       d="m 602.03785,626.85711 c 0,0 10.65923,4.21037 23.97285,13.2988 13.31362,9.08843 40.03544,10.2286 57.93033,-1.05574 17.89487,-11.28435 27.43899,-12.72139 27.43899,-12.72139"
       id="path1011"
       inkscape:connector-curvature="0"
       sodipodi:nodetypes="czzc" />
    <path
       style="opacity:1;vector-effect:none;fill:none;fill-opacity:1;stroke:#c0c0c0;stroke-width:0.37795272;stroke-linecap:round;stroke-linejoin:round;stroke-miterlimit:4;stroke-dasharray:none;stroke-dashoffset:0;stroke-opacity:1"
       d="m 733.74744,750.93436 c 7.62065,7.40442 14.8749,14.86316 22.23685,23.59198"
       id="path1019"
       inkscape:connector-curvature="0"
       sodipodi:nodetypes="cc" />
    <path
       style="opacity:1;vector-effect:none;fill:none;fill-opacity:1;stroke:#c0c0c0;stroke-width:0.37795272;stroke-linecap:round;stroke-linejoin:round;stroke-miterlimit:4;stroke-dasharray:none;stroke-dashoffset:0;stroke-opacity:1"
       d="m 737.04491,777.23225 c 3.14819,3.36255 11.60614,13.67587 14.71184,17.84197"
       id="path1021"
       inkscape:connector-curvature="0"
       sodipodi:nodetypes="cc" />
    <path
       style="opacity:1;vector-effect:none;fill:none;fill-opacity:1;stroke:#c0c0c0;stroke-width:0.37795272;stroke-linecap:round;stroke-linejoin:round;stroke-miterlimit:4;stroke-dasharray:none;stroke-dashoffset:0;stroke-opacity:1"
       d="m 717.00638,672.88629 c 0,0 -1.11896,68.3657 0.8455,84.22088 1.96447,15.85517 3.78648,24.6452 7.94778,35.17659 4.1613,10.53139 7.12018,19.99619 4.05844,30.6104 -3.06175,10.61422 -6.64082,19.74228 -1.18371,22.32362 5.45712,2.58133 8.58949,-0.52007 12.34441,-9.1324 3.75491,-8.61233 4.09866,-13.41424 4.90395,-22.66185 0.80528,-9.2476 -1.294,-14.70638 -6.25677,-27.90449 -2.95621,-7.86182 -4.99448,-16.68887 -6.23646,-35.69409 -1.66952,-25.54724 -0.78819,-69.05546 -1.03489,-76.09307"
       id="path1023"
       inkscape:connector-curvature="0"
       sodipodi:nodetypes="czzzzzzssc" />
    <path
       style="opacity:1;vector-effect:none;fill:none;fill-opacity:1;stroke:#c0c0c0;stroke-width:0.37795272;stroke-linecap:round;stroke-linejoin:round;stroke-miterlimit:4;stroke-dasharray:none;stroke-dashoffset:0;stroke-opacity:1"
       d="m 679.29674,785.01168 c 0,0 8.09887,40.55288 10.90705,54.79431 2.80817,14.24143 2.44562,21.26717 0.1691,32.04789 -2.27654,10.78073 -5.74944,26.15734 -6.0031,40.75749"
       id="path1025"
       inkscape:connector-curvature="0"
       sodipodi:nodetypes="czzc" />
    <path
       style="opacity:1;vector-effect:none;fill:none;fill-opacity:1;stroke:#c0c0c0;stroke-width:0.37795272;stroke-linecap:round;stroke-linejoin:round;stroke-miterlimit:4;stroke-dasharray:none;stroke-dashoffset:0;stroke-opacity:1"
       d="m 693.16307,781.29107 c 1.06041,0.17675 8.88048,38.83807 11.41435,54.54063 2.53387,15.70257 2.83956,26.28324 0.50731,37.20601 -2.33226,10.92277 -5.23568,22.01976 -5.74946,25.53685"
       id="path1027"
       inkscape:connector-curvature="0"
       sodipodi:nodetypes="czzc" />
    <path
       style="display:inline;opacity:1;vector-effect:none;fill:none;fill-opacity:1;stroke:#c0c0c0;stroke-width:0.37795275;stroke-linecap:round;stroke-linejoin:round;stroke-miterlimit:4;stroke-dasharray:none;stroke-dashoffset:0;stroke-opacity:1"
       d="m 675.01891,573.31721 c 0.66495,-1.28738 1.3436,-2.5406 2.03542,-3.76139 m 9.2281,7.93715 c -0.50069,1.00433 -0.98489,2.02904 -1.45177,3.07508"
       id="path1064"
       inkscape:connector-curvature="0"
       sodipodi:nodetypes="cccc" />
    <path
       style="display:inline;opacity:1;vector-effect:none;fill:none;fill-opacity:1;stroke:#c0c0c0;stroke-width:0.37795275;stroke-linecap:round;stroke-linejoin:round;stroke-miterlimit:4;stroke-dasharray:none;stroke-dashoffset:0;stroke-opacity:1"
       d="m 632.96153,573.31721 c -0.57448,-1.11223 -1.15898,-2.20015 -1.75318,-3.26475 m -9.49279,7.46579 c 0.49329,0.99689 0.97156,2.01323 1.43423,3.0498"
       id="path1064-4-2"
       inkscape:connector-curvature="0"
       sodipodi:nodetypes="cccc" />
  </g>
  <g
     inkscape:groupmode="layer"
     id="layer3"
     inkscape:label="Detailed"
     style="display:inline">
    <path
       style="display:inline;opacity:1;vector-effect:none;fill:none;fill-opacity:1;stroke:#c0c0c0;stroke-width:0.37795272;stroke-linecap:round;stroke-linejoin:round;stroke-miterlimit:4;stroke-dasharray:none;stroke-dashoffset:0;stroke-opacity:1"
       d="m 458.6884,257.12055 c -19.68948,22.22105 -32.96837,44.74543 -36.46972,72.82704"
       id="path1044"
       inkscape:connector-curvature="0"
       sodipodi:nodetypes="cc" />
    <path
       style="display:inline;opacity:1;vector-effect:none;fill:none;fill-opacity:1;stroke:#c0c0c0;stroke-width:0.37795272;stroke-linecap:round;stroke-linejoin:round;stroke-miterlimit:4;stroke-dasharray:none;stroke-dashoffset:0;stroke-opacity:1"
       d="m 851.12502,256.87537 c 15.08277,17.62599 34.64424,47.54702 33.03755,73.0517"
       id="path1046"
       inkscape:connector-curvature="0"
       sodipodi:nodetypes="cc" />
    <path
       style="display:inline;opacity:1;vector-effect:none;fill:none;fill-opacity:1;stroke:#c0c0c0;stroke-width:0.37795272;stroke-linecap:round;stroke-linejoin:round;stroke-miterlimit:4;stroke-dasharray:none;stroke-dashoffset:0;stroke-opacity:1"
       d="m 559.66498,317.58936 c 31.69953,9.93969 70.07818,17.11023 97.01251,17.44238 32.494,0.40072 63.06313,-10.8122 97.01251,-17.44238"
       id="path1048"
       inkscape:connector-curvature="0"
       sodipodi:nodetypes="csc" />
    <path
       style="display:inline;opacity:1;vector-effect:none;fill:none;fill-opacity:1;stroke:#c0c0c0;stroke-width:0.37795272;stroke-linecap:round;stroke-linejoin:round;stroke-miterlimit:4;stroke-dasharray:none;stroke-dashoffset:0;stroke-opacity:1"
       d="m 540.97168,351.59318 c 13.92361,2.43811 27.80356,4.6142 41.62358,6.43069 m 16.26573,1.96914 c 39.95732,4.40687 79.3562,5.46282 117.79922,0.78299 m 15.74838,-2.25301 c 10.7888,-1.77956 21.4969,-4.04337 32.11532,-6.84527"
       id="path1050"
       inkscape:connector-curvature="0"
       sodipodi:nodetypes="cccccc" />
    <path
       style="display:inline;opacity:1;vector-effect:none;fill:none;fill-opacity:1;stroke:#c0c0c0;stroke-width:0.37795272;stroke-linecap:round;stroke-linejoin:round;stroke-miterlimit:4;stroke-dasharray:none;stroke-dashoffset:0;stroke-opacity:1"
       d="m 539.44976,392.94258 c 13.52305,1.95438 27.01149,3.5972 40.46308,4.9084 m 15.08553,1.33163 c 40.93167,3.2328 81.51305,3.31273 121.68105,-0.32806 m 15.88815,-1.63795 c 10.00233,-1.15688 19.97837,-2.55044 29.92712,-4.18948"
       id="path1052"
       inkscape:connector-curvature="0"
       sodipodi:nodetypes="cccccc" />
    <path
       style="display:inline;opacity:1;vector-effect:none;fill:none;fill-opacity:1;stroke:#c0c0c0;stroke-width:0.37795272;stroke-linecap:round;stroke-linejoin:round;stroke-miterlimit:4;stroke-dasharray:none;stroke-dashoffset:0;stroke-opacity:1"
       d="m 541.22534,428.20373 c 9.14162,0.91624 18.23451,1.75084 27.36262,2.49145 m 24.00904,1.72145 c 42.10495,2.61725 84.03794,2.99903 125.70558,-0.0692 m 23.55211,-2.11288 c 5.27816,-0.56041 10.55178,-1.18016 15.82062,-1.86171"
       id="path1054"
       inkscape:connector-curvature="0"
       sodipodi:nodetypes="cccccc" />
    <path
       style="display:inline;opacity:1;vector-effect:none;fill:none;fill-opacity:1;stroke:#c0c0c0;stroke-width:0.37795272;stroke-linecap:round;stroke-linejoin:round;stroke-miterlimit:4;stroke-dasharray:none;stroke-dashoffset:0;stroke-opacity:1"
       d="m 557.69329,464.75639 c 1.02582,0.0979 2.05157,0.19501 3.07721,0.29147 m 16.03183,1.45219 c 11.75437,1.00863 23.43027,1.89242 35.13398,2.58404 m 15.26768,0.79573 c 18.40948,0.80953 36.72201,1.06679 54.92561,0.51007 m 15.34398,-0.66569 c 9.95369,-0.56707 19.8099,-1.40126 29.69403,-2.54577 m 15.60816,-2.0761 c 2.34813,-0.35388 4.69417,-0.72671 7.03809,-1.11908"
       id="path1056"
       inkscape:connector-curvature="0"
       sodipodi:nodetypes="cccccccccc" />
    <path
       style="display:inline;opacity:1;vector-effect:none;fill:none;fill-opacity:1;stroke:#c0c0c0;stroke-width:0.37795272;stroke-linecap:round;stroke-linejoin:round;stroke-miterlimit:4;stroke-dasharray:none;stroke-dashoffset:0;stroke-opacity:1"
       d="m 571.97791,506.57063 c 8.40584,0.52571 16.7028,0.99606 25.08551,1.4247 m 16.41487,0.78581 c 25.64314,1.07381 51.21521,1.5283 76.44495,0.94671 m 15.03021,-0.47751 c 7.05738,-0.28459 14.09451,-0.65748 21.10984,-1.1279"
       id="path1058"
       inkscape:connector-curvature="0"
       sodipodi:nodetypes="cccccc" />
    <path
       style="display:inline;opacity:1;vector-effect:none;fill:none;fill-opacity:1;stroke:#c0c0c0;stroke-width:0.37795272;stroke-linecap:round;stroke-linejoin:round;stroke-miterlimit:4;stroke-dasharray:none;stroke-dashoffset:0;stroke-opacity:1"
       d="m 576.73665,540.5828 c 4.93455,0.46377 9.72544,0.90281 14.65519,1.31139 m 15.45067,1.16523 c 27.86445,1.92052 55.62761,2.67601 83.19934,1.22981 m 15.26982,-1.03425 c 5.45676,-0.45554 10.90533,-1.00534 16.345,-1.65748"
       id="path1060"
       inkscape:connector-curvature="0"
       sodipodi:nodetypes="cccccc" />
    <path
       style="display:inline;opacity:1;vector-effect:none;fill:none;fill-opacity:1;stroke:#c0c0c0;stroke-width:0.37795272;stroke-linecap:round;stroke-linejoin:round;stroke-miterlimit:4;stroke-dasharray:none;stroke-dashoffset:0;stroke-opacity:1"
       d="m 611.14529,571.74766 c 24.92852,1.95312 49.72538,3.07235 73.95871,0.62218"
       id="path1062"
       inkscape:connector-curvature="0"
       sodipodi:nodetypes="cc" />
    <path
       style="opacity:1;vector-effect:none;fill:none;fill-opacity:1;stroke:#c0c0c0;stroke-width:0.37795272;stroke-linecap:round;stroke-linejoin:round;stroke-miterlimit:4;stroke-dasharray:none;stroke-dashoffset:0;stroke-opacity:1"
       d="m 764.65801,368.84673 163.92725,6.79325"
       id="path1156"
       inkscape:connector-curvature="0" />
    <path
       style="opacity:1;vector-effect:none;fill:none;fill-opacity:1;stroke:#c0c0c0;stroke-width:0.37795272;stroke-linecap:round;stroke-linejoin:round;stroke-miterlimit:4;stroke-dasharray:none;stroke-dashoffset:0;stroke-opacity:1"
       d="m 763.01647,389.39627 c 50.96078,15.36909 101.78869,29.82953 153.34217,33.34347"
       id="path1158"
       inkscape:connector-curvature="0"
       sodipodi:nodetypes="cc" />
    <path
       style="opacity:1;vector-effect:none;fill:none;fill-opacity:1;stroke:#c0c0c0;stroke-width:0.37795272;stroke-linecap:round;stroke-linejoin:round;stroke-miterlimit:4;stroke-dasharray:none;stroke-dashoffset:0;stroke-opacity:1"
       d="M 375.74183,373.71887 540.00679,369.5558"
       id="path1160"
       inkscape:connector-curvature="0" />
    <path
       style="opacity:1;vector-effect:none;fill:none;fill-opacity:1;stroke:#c0c0c0;stroke-width:0.37795272;stroke-linecap:round;stroke-linejoin:round;stroke-miterlimit:4;stroke-dasharray:none;stroke-dashoffset:0;stroke-opacity:1"
       d="m 539.28633,389.77071 c -46.38143,16.44811 -96.45815,28.10316 -150.49616,34.34533"
       id="path1162"
       inkscape:connector-curvature="0"
       sodipodi:nodetypes="cc" />
    <path
       style="display:inline;opacity:1;vector-effect:none;fill:none;fill-opacity:1;stroke:#c0c0c0;stroke-width:0.37795272;stroke-linecap:round;stroke-linejoin:round;stroke-miterlimit:4;stroke-dasharray:none;stroke-dashoffset:0;stroke-opacity:1"
       d="m 627.04934,280.21076 c 7.11783,32.28727 42.90941,31.08255 55.12212,-1.0002"
       id="path1013"
       inkscape:connector-curvature="0"
       sodipodi:nodetypes="cc" />
    <path
       style="display:inline;opacity:1;vector-effect:none;fill:none;fill-opacity:1;stroke:#c0c0c0;stroke-width:0.37795272;stroke-linecap:round;stroke-linejoin:round;stroke-miterlimit:4;stroke-dasharray:none;stroke-dashoffset:0;stroke-opacity:1"
       d="m 633.89298,258.23992 c -3.09219,3.84911 0.14061,9.47068 5.74946,9.47061 5.60885,-6e-5 8.55339,-6.36113 5.24214,-10.14709 -3.31125,-3.78596 -7.89939,-3.17263 -10.9916,0.67648 z"
       id="path1015"
       inkscape:connector-curvature="0"
       sodipodi:nodetypes="zzzz" />
    <path
       style="display:inline;opacity:1;vector-effect:none;fill:none;fill-opacity:1;stroke:#c0c0c0;stroke-width:0.37795272;stroke-linecap:round;stroke-linejoin:round;stroke-miterlimit:4;stroke-dasharray:none;stroke-dashoffset:0;stroke-opacity:1"
       d="m 665.93969,267.15103 c -4.88118,-0.74068 -6.30548,-7.06729 -2.17632,-10.8636 4.12917,-3.79633 10.60153,-1.10646 10.7259,3.92192 0.12436,5.02836 -3.66841,7.68235 -8.54958,6.94168 z"
       id="path1015-2"
       inkscape:connector-curvature="0"
       sodipodi:nodetypes="zzzz" />
  </g>
</svg>
