<?xml version="1.0" encoding="UTF-8" standalone="no"?>
<!-- Created with Inkscape (http://www.inkscape.org/) -->

<svg
   xmlns:dc="http://purl.org/dc/elements/1.1/"
   xmlns:cc="http://creativecommons.org/ns#"
   xmlns:rdf="http://www.w3.org/1999/02/22-rdf-syntax-ns#"
   xmlns:svg="http://www.w3.org/2000/svg"
   xmlns="http://www.w3.org/2000/svg"
   xmlns:sodipodi="http://sodipodi.sourceforge.net/DTD/sodipodi-0.dtd"
   xmlns:inkscape="http://www.inkscape.org/namespaces/inkscape"
   width="297mm"
   height="210mm"
   id="svg2"
   version="1.1"
   inkscape:version="0.92.3 (2405546, 2018-03-11)"
   sodipodi:docname="DragonBalloon-undecorated-d-2.svg">
  <defs
     id="defs4" />
  <sodipodi:namedview
     id="base"
     pagecolor="#ffffff"
     bordercolor="#666666"
     borderopacity="1.0"
     inkscape:pageopacity="0.0"
     inkscape:pageshadow="2"
     inkscape:zoom="0.5"
     inkscape:cx="-27.523997"
     inkscape:cy="712.77698"
     inkscape:document-units="mm"
     inkscape:current-layer="Mask"
     showgrid="false"
     units="mm"
     inkscape:window-width="1920"
     inkscape:window-height="1080"
     inkscape:window-x="1920"
     inkscape:window-y="0"
     inkscape:window-maximized="0"
     inkscape:snap-nodes="false"
     inkscape:snap-global="false" />
  <metadata
     id="metadata7">
    <rdf:RDF>
      <cc:Work
         rdf:about="">
        <dc:format>image/svg+xml</dc:format>
        <dc:type
           rdf:resource="http://purl.org/dc/dcmitype/StillImage" />
        <dc:title />
      </cc:Work>
    </rdf:RDF>
  </metadata>
  <g
     inkscape:label="Mask"
     inkscape:groupmode="layer"
     id="Mask"
     style="display:inline"
     transform="translate(0,-328.81888)">
    <path
       style="color:#000000;display:inline;overflow:visible;visibility:visible;fill:#ffffff;fill-opacity:1;fill-rule:nonzero;stroke:#808080;stroke-width:0.75590551;stroke-linecap:round;stroke-linejoin:round;stroke-miterlimit:4;stroke-dasharray:none;stroke-opacity:1;marker:none;enable-background:accumulate"
       d="m 572.56132,578.24341 c -7.78705,-0.41448 -18.6127,24.29833 -14.28125,38.89648 -13.57663,15.98139 -20.47264,34.79696 -18.5,57.375 -23.73668,7.1033 -31.53749,16.30178 -32.875,28.125 -1.33751,11.82322 8.94086,17.31686 23.625,16.75 -7.11289,12.57885 -12.13808,24.98374 -24.5,38 -12.33101,-0.38864 -29.57633,-1.53041 -36,8.625 -6.42367,10.15542 -11.53841,31.37986 -2,43 l 4.9375,1.625 c -2.43309,11.59902 -3.82982,21.38739 -3.57422,28.63477 -16.19172,0.35299 -22.11292,17.52152 -21.11328,30.99023 12.0134,2.2638 22.9703,3.68068 39.625,1.5 5.99363,3.83843 13.40155,6.54542 21.75,8.5 -3.27063,12.61372 15.88415,14.70629 49.76562,9.89063 l -9.89648,17.59961 10.42383,-2.58789 10.64648,5.72851 6.72657,-4.02734 -10.3086,-17.11524 C 669.56,889.4572 726.56202,805.17296 743.15507,762.26489 c 16.61509,-42.96507 -1.6054,-46.71836 -9.375,-42.25 -4.52016,-24.3 -35.81609,-18.00545 -23.75,21.125 -2.10443,2.5633 -4.30316,5.40947 -6.875,9.375 -9.9152,-29.40968 -37.34098,-16.5912 -26,31.25 -9.79834,5.51448 -18.20586,2.22047 -26.625,-1 25.7697,-56.58235 1.45371,-48.90178 -16.01172,-29.80273 -1.63052,-9.25213 -2.12239,-16.22439 -2.86328,-23.69727 29.00756,-22.78948 36.90058,-49.34265 0.34766,-44.60351 0.0527,-9.3315 0.4826,-18.66671 -0.83594,-29.4043 33.26912,-20.34235 24.08339,-44.41458 -9.76172,-25.86719 -1.24512,-3.96993 -2.88887,-6.74142 -4.59961,-9.31445 25.01969,-35.25442 -12.06903,-51.2205 -24.40039,-11.43555 -2.9008,0.007 -8.7002,0.88324 -12.82031,2.24414 0.75718,-22.26907 -2.6551,-30.40811 -7.02344,-30.64062 z"
       id="path2991-3-3"
       inkscape:connector-curvature="0" />
  </g>
  <g
     inkscape:groupmode="layer"
     id="layer1"
     inkscape:label="Overlay"
     style="display:inline"
     transform="translate(0,-328.81888)">
    <path
       style="fill:none;stroke:#c0c0c0;stroke-width:0.37795275;stroke-linecap:round;stroke-linejoin:round;stroke-miterlimit:4;stroke-dasharray:none;stroke-opacity:1"
       d="m 563.4248,859.35415 c -11.34356,-31.15481 -22.95154,-62.427 55.86144,-53.56334"
       id="path1131"
       inkscape:connector-curvature="0"
       sodipodi:nodetypes="cc" />
    <path
       style="fill:none;stroke:#c0c0c0;stroke-width:0.37795275;stroke-linecap:round;stroke-linejoin:round;stroke-miterlimit:4;stroke-dasharray:none;stroke-opacity:1"
       d="m 448.53007,870.20201 9.9375,-10.6875 m 0,0 c -2.4732,-2.32517 -8.30188,-3.35252 -9.1875,-1.4375"
       id="path1133"
       inkscape:connector-curvature="0"
       sodipodi:nodetypes="cccc" />
    <path
       style="fill:none;stroke:#c0c0c0;stroke-width:0.37795275;stroke-linecap:round;stroke-linejoin:round;stroke-miterlimit:4;stroke-dasharray:none;stroke-opacity:1"
       d="m 453.62382,870.95201 10.84375,-9.25 m 0,0 c -0.89055,-1.79138 -4.35909,-4.21345 -6.04688,-2.1875"
       id="path1135"
       inkscape:connector-curvature="0"
       sodipodi:nodetypes="cccc" />
    <path
       style="fill:none;stroke:#c0c0c0;stroke-width:0.37795275;stroke-linecap:round;stroke-linejoin:round;stroke-miterlimit:4;stroke-dasharray:none;stroke-opacity:1"
       d="m 457.74882,871.76451 13.43749,-8.53125 m -0.5,0.125 c -0.53341,-1.60973 -3.53648,-3.73626 -6.21181,-1.62434"
       id="path1137"
       inkscape:connector-curvature="0"
       sodipodi:nodetypes="cccc" />
    <path
       style="fill:none;stroke:#c0c0c0;stroke-width:0.37795275;stroke-linecap:round;stroke-linejoin:round;stroke-miterlimit:4;stroke-dasharray:none;stroke-opacity:1"
       d="m 477.49881,872.42075 c 2.24229,-1.68091 -2.07636,-11.52309 -6.28123,-9.18749"
       id="path1139"
       inkscape:connector-curvature="0"
       sodipodi:nodetypes="cc" />
    <path
       style="fill:none;stroke:#c0c0c0;stroke-width:0.37795275;stroke-linecap:round;stroke-linejoin:round;stroke-miterlimit:4;stroke-dasharray:none;stroke-opacity:1"
       d="m 487.78007,871.70201 c -10.76094,-8.3314 -18.08504,-18.5176 -18.37501,-32.5"
       id="path1141"
       inkscape:connector-curvature="0"
       sodipodi:nodetypes="cc" />
    <path
       style="fill:none;stroke:#c0c0c0;stroke-width:0.37795275;stroke-linecap:round;stroke-linejoin:round;stroke-miterlimit:4;stroke-dasharray:none;stroke-opacity:1"
       d="m 472.82674,810.47539 9.81111,2.47487 c -1.85729,-5.2435 -4.00296,-10.26269 -7.95495,-13.87697 3.86065,2.76385 8.13782,3.23689 12.46276,3.44716 -2.35775,-5.81546 -5.55238,-10.21406 -8.37479,-14.18634 3.92162,2.34421 8.13598,3.17955 11.82193,1.98874 -1.66255,-4.19494 -4.70602,-7.46926 -8.48528,-10.25305 3.79992,1.98512 7.86828,3.52285 12.37437,4.33103 -1.35229,-4.64891 -2.84039,-9.28273 -6.27557,-13.7002 -5.0919,-3.07385 -10.75263,7.18355 -6.18719,9.36917 -4.7309,-1.8253 -6.03951,4.45093 -3.27037,8.22011 -4.19661,-2.12172 -7.90791,7.03526 -3.88908,10.60661 -4.33021,-2.70046 -9.6468,8.16238 -6.18719,9.98788"
       id="path1143"
       inkscape:connector-curvature="0"
       sodipodi:nodetypes="ccccccccccccc" />
    <path
       style="fill:none;stroke:#c0c0c0;stroke-width:0.37795275;stroke-linecap:round;stroke-linejoin:round;stroke-miterlimit:4;stroke-dasharray:none;stroke-opacity:1"
       d="m 506.14915,757.17722 c -3.88622,4.22488 -11.98875,9.328 -15.73312,16.61701"
       id="path1145"
       inkscape:connector-curvature="0"
       sodipodi:nodetypes="cc" />
    <path
       style="fill:none;stroke:#c0c0c0;stroke-width:0.37795275;stroke-linecap:round;stroke-linejoin:round;stroke-miterlimit:4;stroke-dasharray:none;stroke-opacity:1"
       d="m 514.01571,748.02902 c 16.01834,2.92899 28.58177,9.995 36.15084,20.90384"
       id="path1147"
       inkscape:connector-curvature="0"
       sodipodi:nodetypes="cc" />
    <path
       style="fill:none;stroke:#c0c0c0;stroke-width:0.37795275;stroke-linecap:round;stroke-linejoin:round;stroke-miterlimit:4;stroke-dasharray:none;stroke-opacity:1"
       d="m 567.3139,740.82537 c -1.89726,8.48677 -4.52472,19.42901 -8.83885,23.24614 -4.31413,3.81713 -7.30267,6.02723 -24.39518,9.01561 -3.27686,0.20529 -5.53972,2.639 -10.78338,6.09879 5.64331,5.06598 7.54967,2.88523 10.96016,4.15426 -6.76155,-0.009 -6.98314,1.91487 -10.69501,5.21491 5.08474,2.20196 5.81652,3.20907 12.12623,2.43826 -5.18171,1.6196 -6.83894,2.67805 -10.00491,6.1354 4.57918,1.8583 7.57556,2.88357 11.31373,0.88389 -3.54207,3.20519 -4.20427,3.71568 -5.92203,8.57366 5.41943,0.58892 8.5604,0.17413 13.25826,-1.76776 11.76837,-1.0486 32.04812,-8.63351 42.07285,-16.26345 10.02472,-7.62994 14.84925,-40.12831 14.84925,-40.12831"
       id="path1149"
       inkscape:connector-curvature="0"
       sodipodi:nodetypes="czccccccccczc" />
    <path
       style="fill:none;stroke:#c0c0c0;stroke-width:0.37795275;stroke-linecap:round;stroke-linejoin:round;stroke-miterlimit:4;stroke-dasharray:none;stroke-opacity:1"
       d="m 556.9343,802.31225 c -0.0195,21.61394 -3.83098,42.86927 -15.22401,60.18727"
       id="path1151"
       inkscape:connector-curvature="0"
       sodipodi:nodetypes="cc" />
    <path
       style="fill:none;stroke:#c0c0c0;stroke-width:0.37795275;stroke-linecap:round;stroke-linejoin:round;stroke-miterlimit:4;stroke-dasharray:none;stroke-opacity:1"
       d="m 534.15507,772.88951 c 5.20476,0.55506 3.74053,11.25331 0.0625,10.5 3.94081,0.58215 4.15443,6.84466 1.15976,7.61167 4.08175,-0.76423 3.90084,4.75352 1.70191,7.01073 4.25157,-2.23601 9.33563,4.35459 6.71523,7.02774"
       id="path1153"
       inkscape:connector-curvature="0"
       sodipodi:nodetypes="ccccc" />
    <path
       style="fill:none;stroke:#c0c0c0;stroke-width:0.37795275;stroke-linecap:round;stroke-linejoin:round;stroke-miterlimit:4;stroke-dasharray:none;stroke-opacity:1"
       d="m 558.31696,617.18263 c 7.05728,-4.95678 13.4409,-6.34391 21.24815,-8.30942"
       id="path1155"
       inkscape:connector-curvature="0"
       sodipodi:nodetypes="cc" />
    <path
       style="fill:none;stroke:#c0c0c0;stroke-width:0.37795275;stroke-linecap:round;stroke-linejoin:round;stroke-miterlimit:4;stroke-dasharray:none;stroke-opacity:1"
       d="m 592.50456,606.56346 c 10.76,0.43444 17.65656,1.84481 24.26261,11.44631"
       id="path1157"
       inkscape:connector-curvature="0"
       sodipodi:nodetypes="cc" />
    <path
       style="fill:none;stroke:#c0c0c0;stroke-width:0.37795275;stroke-linecap:round;stroke-linejoin:round;stroke-miterlimit:4;stroke-dasharray:none;stroke-opacity:1"
       d="m 621.40755,627.42313 c 3.80222,8.87661 8.22985,17.43147 9.81111,25.63262"
       id="path1159"
       inkscape:connector-curvature="0"
       sodipodi:nodetypes="cc" />
    <path
       style="fill:none;stroke:#c0c0c0;stroke-width:0.37795275;stroke-linecap:round;stroke-linejoin:round;stroke-miterlimit:4;stroke-dasharray:none;stroke-opacity:1"
       d="m 632.01415,682.57746 c 0.0294,15.14387 -1.32095,32.65641 -0.44193,44.37094"
       id="path1161"
       inkscape:connector-curvature="0"
       sodipodi:nodetypes="cc" />
    <path
       style="fill:none;stroke:#c0c0c0;stroke-width:0.37795275;stroke-linecap:round;stroke-linejoin:round;stroke-miterlimit:4;stroke-dasharray:none;stroke-opacity:1"
       d="m 634.55533,750.92374 c 2.44947,12.31342 7.94981,23.81592 15.97618,29.76478"
       id="path1163"
       inkscape:connector-curvature="0"
       sodipodi:nodetypes="cc" />
    <path
       style="fill:none;stroke:#c0c0c0;stroke-width:0.37795275;stroke-linecap:round;stroke-linejoin:round;stroke-miterlimit:4;stroke-dasharray:none;stroke-opacity:1"
       d="m 677.2248,781.61659 c 7.66973,-6.26397 20.8174,-23.40029 25.94198,-31.33366"
       id="path1165"
       inkscape:connector-curvature="0"
       sodipodi:nodetypes="cc" />
    <path
       style="fill:none;stroke:#c0c0c0;stroke-width:0.37795275;stroke-linecap:round;stroke-linejoin:round;stroke-miterlimit:4;stroke-dasharray:none;stroke-opacity:1"
       d="m 709.97268,741.00214 c 6.04682,-8.50174 13.38498,-14.55591 23.73228,-21.03643"
       id="path1167"
       inkscape:connector-curvature="0"
       sodipodi:nodetypes="cc" />
    <path
       style="fill:none;stroke:#c0c0c0;stroke-width:0.37795275;stroke-linecap:round;stroke-linejoin:round;stroke-miterlimit:4;stroke-dasharray:none;stroke-opacity:1"
       d="m 611.24399,883.88451 c 15.15681,-4.19917 -1.48181,-29.99267 -10.36398,-42.13482"
       id="path1169"
       inkscape:connector-curvature="0"
       sodipodi:nodetypes="cc" />
    <path
       style="fill:none;stroke:#c0c0c0;stroke-width:0.37795275;stroke-linecap:round;stroke-linejoin:round;stroke-miterlimit:4;stroke-dasharray:none;stroke-opacity:1"
       d="m 626.97603,845.83073 -21.51153,2.58536"
       id="path1171"
       inkscape:connector-curvature="0"
       sodipodi:nodetypes="cc" />
    <path
       style="fill:none;stroke:#c0c0c0;stroke-width:0.37795275;stroke-linecap:round;stroke-linejoin:round;stroke-miterlimit:4;stroke-dasharray:none;stroke-opacity:1"
       d="m 539.82159,674.47115 c 14.97653,-3.63341 27.17011,-5.37314 43.81272,-5.2555 6.41165,-0.30964 8.52551,5.89353 8.95864,19.01866 0.43313,13.12513 -0.47787,17.99038 -4.06586,21.92031 -3.58799,3.92993 -8.57787,5.56011 -18.26498,7.7604 -9.68711,2.20029 -39.71778,1.78554 -39.71778,1.78554"
       id="path1173"
       inkscape:connector-curvature="0"
       sodipodi:nodetypes="cczzzc" />
    <path
       style="fill:none;stroke:#c0c0c0;stroke-width:0.37795275;stroke-linecap:round;stroke-linejoin:round;stroke-miterlimit:4;stroke-dasharray:none;stroke-opacity:1"
       d="m 507.07502,702.14789 c 16.53391,8.57138 35.22576,2.75757 54.05168,-2.4231"
       id="path1175"
       inkscape:connector-curvature="0"
       sodipodi:nodetypes="cc" />
    <path
       style="fill:none;stroke:#c0c0c0;stroke-width:0.37795275;stroke-linecap:round;stroke-linejoin:round;stroke-miterlimit:4;stroke-dasharray:none;stroke-opacity:1"
       d="m 557.84116,670.84494 c 0,0 -0.79579,-31.40872 6.89951,-38.79253 7.69529,-7.3838 22.33239,-8.27221 23.9632,2.46232 1.63081,10.73452 -0.0522,24.12992 -2.49632,34.91968"
       id="path1177"
       inkscape:connector-curvature="0"
       sodipodi:nodetypes="czzc" />
    <path
       style="fill:none;stroke:#c0c0c0;stroke-width:0.37795275;stroke-linecap:round;stroke-linejoin:round;stroke-miterlimit:4;stroke-dasharray:none;stroke-opacity:1"
       d="m 539.55996,674.44573 c -1.5867,-16.56652 7.11639,-54.76926 22.25176,-37.70869"
       id="path1179"
       inkscape:connector-curvature="0"
       sodipodi:nodetypes="cc" />
    <path
       style="fill:none;stroke:#c0c0c0;stroke-width:0.37795275;stroke-linecap:round;stroke-linejoin:round;stroke-miterlimit:4;stroke-dasharray:none;stroke-opacity:1"
       d="m 539.6822,662.36425 c 1.20188,-4.05852 11.96075,-6.24674 12.53153,9.41818"
       id="path1181"
       inkscape:connector-curvature="0"
       sodipodi:nodetypes="cc" />
    <path
       style="fill:none;stroke:#c0c0c0;stroke-width:0.37795275;stroke-linecap:round;stroke-linejoin:round;stroke-miterlimit:4;stroke-dasharray:none;stroke-opacity:1"
       d="m 558.08705,659.46223 c 1.96101,-3.91063 12.27055,-5.38988 11.69392,9.99937"
       id="path1183"
       inkscape:connector-curvature="0"
       sodipodi:nodetypes="cc" />
    <path
       style="display:inline;fill:none;stroke:#c0c0c0;stroke-width:0.37795275;stroke-linecap:round;stroke-linejoin:round;stroke-miterlimit:4;stroke-dasharray:none;stroke-opacity:1"
       d="m 537.34257,892.26451 c 5.73525,-0.99997 -1.16351,-13.9157 -4.71875,-11.25 l -17.78125,9.00001"
       id="path1121"
       inkscape:connector-curvature="0"
       sodipodi:nodetypes="ccc" />
    <path
       style="display:inline;fill:none;stroke:#c0c0c0;stroke-width:0.37795275;stroke-linecap:round;stroke-linejoin:round;stroke-miterlimit:4;stroke-dasharray:none;stroke-opacity:1"
       d="m 531.81132,881.45202 c -0.7203,-1.37877 -2.78685,-3.73734 -4.32138,-2.5821 l -15.58486,9.30084"
       id="path1123"
       inkscape:connector-curvature="0"
       sodipodi:nodetypes="ccc" />
    <path
       style="display:inline;fill:none;stroke:#c0c0c0;stroke-width:0.37795275;stroke-linecap:round;stroke-linejoin:round;stroke-miterlimit:4;stroke-dasharray:none;stroke-opacity:1"
       d="m 526.74883,879.13952 c -0.98109,-1.65011 -3.23248,-4.08533 -5.60173,-2.41422 l -11.24202,8.69547"
       id="path1125"
       inkscape:connector-curvature="0"
       sodipodi:nodetypes="ccc" />
    <path
       style="display:inline;fill:none;stroke:#c0c0c0;stroke-width:0.37795275;stroke-linecap:round;stroke-linejoin:round;stroke-miterlimit:4;stroke-dasharray:none;stroke-opacity:1"
       d="m 521.34257,876.48326 c -1.74338,-2.8118 -3.14535,-4.52485 -6.81249,-1.625"
       id="path1127"
       inkscape:connector-curvature="0"
       sodipodi:nodetypes="cc" />
    <path
       style="display:inline;fill:none;stroke:#c0c0c0;stroke-width:0.37795275;stroke-linecap:round;stroke-linejoin:round;stroke-miterlimit:4;stroke-dasharray:none;stroke-opacity:1"
       d="m 509.65507,880.13951 c 13.22827,-17.72954 44.36499,-20.27592 54,-20.75 9.63501,-0.47408 11.5,3.12501 11.5,3.12501"
       id="path1129"
       inkscape:connector-curvature="0"
       sodipodi:nodetypes="czc" />
  </g>
</svg>
