<?xml version="1.0" encoding="UTF-8" standalone="no"?>
<!-- Created with Inkscape (http://www.inkscape.org/) -->

<svg
   xmlns:dc="http://purl.org/dc/elements/1.1/"
   xmlns:cc="http://creativecommons.org/ns#"
   xmlns:rdf="http://www.w3.org/1999/02/22-rdf-syntax-ns#"
   xmlns:svg="http://www.w3.org/2000/svg"
   xmlns="http://www.w3.org/2000/svg"
   xmlns:sodipodi="http://sodipodi.sourceforge.net/DTD/sodipodi-0.dtd"
   xmlns:inkscape="http://www.inkscape.org/namespaces/inkscape"
   width="297mm"
   height="210mm"
   id="svg2"
   version="1.1"
   inkscape:version="0.92.3 (2405546, 2018-03-11)"
   sodipodi:docname="SnowboardingChild-undecorated-d-2.svg">
  <defs
     id="defs4" />
  <sodipodi:namedview
     id="base"
     pagecolor="#ffffff"
     bordercolor="#666666"
     borderopacity="1.0"
     inkscape:pageopacity="0.0"
     inkscape:pageshadow="2"
     inkscape:zoom="0.80804486"
     inkscape:cx="966.43634"
     inkscape:cy="449.96828"
     inkscape:document-units="mm"
     inkscape:current-layer="Mask"
     showgrid="false"
     units="mm"
     inkscape:window-width="1920"
     inkscape:window-height="1080"
     inkscape:window-x="1920"
     inkscape:window-y="0"
     inkscape:window-maximized="0"
     inkscape:snap-global="false" />
  <metadata
     id="metadata7">
    <rdf:RDF>
      <cc:Work
         rdf:about="">
        <dc:format>image/svg+xml</dc:format>
        <dc:type
           rdf:resource="http://purl.org/dc/dcmitype/StillImage" />
        <dc:title />
      </cc:Work>
    </rdf:RDF>
  </metadata>
  <g
     inkscape:label="Mask"
     inkscape:groupmode="layer"
     id="Mask"
     style="display:inline"
     transform="translate(0,-328.81888)">
    <path
       style="display:inline;opacity:1;vector-effect:none;fill:none;fill-opacity:1;stroke:#808080;stroke-width:0.75590551;stroke-linecap:round;stroke-linejoin:round;stroke-miterlimit:4;stroke-dasharray:none;stroke-dashoffset:0;stroke-opacity:1"
       d="m 616.13259,528.22652 c -3.80248,-0.0808 -7.45047,0.10015 -8.26368,3.1875 -0.91264,8.77697 -3.41929,16.14075 -2.25585,24.6582 0.79611,8.40772 4.44253,11.46976 9.90039,11.13672 -1.8596,8.91958 -3.00944,12.73378 4.64062,12.68555 5.17195,12.54814 12.33589,23.18617 32.06834,25.53525 l -1.43748,13.13857 -20.74186,10.11508 c -7.53796,3.86613 -9.83701,8.4032 -13.29134,12.77945 l -27.53516,36.50782 c -2.8803,3.67496 -7.79596,9.33139 -11.94141,11.00976 l -52.72265,19.61914 0.78125,3.00391 c -25.26047,-2.91547 -55.3763,8.65058 -43.78536,30.87375 6.75598,12.95316 38.25597,4.8491 49.50216,-3.55734 l 0.92773,4.64062 c 0,0 34.54764,-8.87809 50.43164,-16.70703 5.48083,-2.7014 15.16992,-10.28906 15.16992,-10.28906 13.26734,-8.9983 22.34202,-24.67584 32.16602,-35.5 -0.58907,22.79164 0.58886,46.17744 2.16601,69.30273 0.38368,5.62578 -0.33651,14.18472 -2.16601,20.72852 l -23.82227,63.73437 c -4.73879,12.47868 -7.71953,23.87487 -7.73633,35.58008 l -1.23632,52.28711 c -0.12111,4.83408 -1.83884,9.72723 -5.25977,12.68555 l -23.20508,12.06445 c -4.81527,3.99921 -4.99505,9.08942 -4.94922,14.23242 H 503.6111 c -24.99171,0 -32.04838,-7.87404 -42.4414,-17.24023 -15.34289,-13.82702 -21.282,-4.82708 -14.87696,3.06445 13.7437,16.93337 28.77943,26.63076 52.50586,26.25195 h 332.09375 c 18.62085,-0.34116 37.09178,-11.17461 54.25391,-18.37695 8.871,-6.03729 -2.81386,-12.70771 -9.73438,-9.51758 -14.03311,6.90698 -30.26567,15.1208 -53.27148,15.81836 h -62.56836 l -6.125,-28.17773 c -3.39995,-12.23449 -17.36012,-46.45725 -33.69141,-79.63281 l -1.95312,-35.87891 c 0.97704,-18.06277 6.73665,-35.12589 7.64258,-53.37891 0.12503,-19.55296 -8.38936,-37.39491 -9.18946,-57.75586 l -0.875,-52.50586 58.63086,21.87696 c 4.45471,1.92814 6.94369,4.58478 8.70703,6.19336 l 37.84261,32.05823 4.02263,-3.71253 c 6.28608,9.02697 7.88038,27.10402 16.70703,18.94922 2.06866,4.53358 19.60551,15.94165 28.84961,2.93945 11.27609,-15.86027 -27.46724,-38.97456 -27.92188,-38.5957 l 2.47461,-2.39844 -43.62304,-38.05469 c -2.55692,-2.23051 -12.13251,-6.76602 -18.25391,-9.43554 -19.60905,-8.55146 -38.79203,-18.50527 -58.62891,-26.29883 -14.78713,-5.80959 -27.76925,-7.24904 -39.98828,-6.72852 v -5.25976 c 39.65162,-2.37919 66.29057,-80.45858 11.11053,-108.09541 -26.45187,-13.24838 -77.78251,-0.48044 -79.17693,30.43916 z m 54.14257,266.07422 c 0.60592,17.67384 2.57182,36.70172 4.64063,54.29687 0.9598,8.0142 3.57512,15.88239 7.73437,27.38086 l 28.46485,63.42578 c -11.53587,5.84185 -16.94356,14.00837 -16.39844,22.27539 h -58.16406 c 0.31978,-7.43858 -0.38903,-20.63781 -2.16602,-22.58594 3.54887,-19.84031 4.75128,-43.19871 6.80664,-65.27929 1.42359,-7.44555 3.32015,-14.41813 5.56836,-21.03907 z"
       id="path901"
       inkscape:connector-curvature="0"
       sodipodi:nodetypes="cccccccccccccsccsccscccccccssscccccccccccccccccsccccscccccccccccccc" />
  </g>
  <g
     inkscape:groupmode="layer"
     id="layer1"
     inkscape:label="Overlay"
     style="display:inline"
     transform="translate(0,-328.81888)">
    <path
       style="display:inline;opacity:1;vector-effect:none;fill:none;fill-opacity:1;stroke:#c0c0c0;stroke-width:0.37795275;stroke-linecap:round;stroke-linejoin:round;stroke-miterlimit:4;stroke-dasharray:none;stroke-dashoffset:0;stroke-opacity:1"
       d="m 629.74587,681.06441 0.86123,-18.8387"
       id="path1034"
       inkscape:connector-curvature="0" />
    <path
       style="display:inline;opacity:1;vector-effect:none;fill:none;fill-opacity:1;stroke:#c0c0c0;stroke-width:0.37795275;stroke-linecap:round;stroke-linejoin:round;stroke-miterlimit:4;stroke-dasharray:none;stroke-dashoffset:0;stroke-opacity:1"
       d="m 715.38063,654.34956 -8.42249,-2.62486"
       id="path1036"
       inkscape:connector-curvature="0" />
    <path
       style="display:inline;opacity:1;vector-effect:none;fill:none;fill-opacity:1;stroke:#c0c0c0;stroke-width:0.37795275;stroke-linecap:round;stroke-linejoin:round;stroke-miterlimit:4;stroke-dasharray:none;stroke-dashoffset:0;stroke-opacity:1"
       d="m 525.33376,711.60347 5.7168,27.31641"
       id="path1038"
       inkscape:connector-curvature="0" />
    <path
       style="display:inline;opacity:1;vector-effect:none;fill:none;fill-opacity:1;stroke:#c0c0c0;stroke-width:0.37795275;stroke-linecap:round;stroke-linejoin:round;stroke-miterlimit:4;stroke-dasharray:none;stroke-dashoffset:0;stroke-opacity:1"
       d="m 510.82694,717.9775 c -2.36863,0.8933 -14.73301,4.50199 -9.7619,10.65512 5.51957,6.83199 15.17602,-0.50693 21.93438,-3.31189"
       id="path1042"
       inkscape:connector-curvature="0"
       sodipodi:nodetypes="csc" />
    <path
       style="display:inline;opacity:1;vector-effect:none;fill:none;fill-opacity:1;stroke:#c0c0c0;stroke-width:0.37795275;stroke-linecap:round;stroke-linejoin:round;stroke-miterlimit:4;stroke-dasharray:none;stroke-dashoffset:0;stroke-opacity:1"
       d="m 841.29079,729.7148 c 3.0842,-4.42336 -0.71544,-9.25168 -2.4138,-13.56207"
       id="path1044"
       inkscape:connector-curvature="0"
       sodipodi:nodetypes="cc" />
    <path
       style="display:inline;opacity:1;vector-effect:none;fill:none;fill-opacity:1;stroke:#c0c0c0;stroke-width:0.37795275;stroke-linecap:round;stroke-linejoin:round;stroke-miterlimit:4;stroke-dasharray:none;stroke-dashoffset:0;stroke-opacity:1"
       d="m 563.53688,961.67964 h 73.01563"
       id="path1046"
       inkscape:connector-curvature="0" />
    <path
       style="display:inline;opacity:1;vector-effect:none;fill:none;fill-opacity:1;stroke:#c0c0c0;stroke-width:0.37795275;stroke-linecap:round;stroke-linejoin:round;stroke-miterlimit:4;stroke-dasharray:none;stroke-dashoffset:0;stroke-opacity:1"
       d="m 694.71657,961.67964 h 64.85547"
       id="path1048"
       inkscape:connector-curvature="0" />
    <path
       style="display:inline;opacity:1;vector-effect:none;fill:none;fill-opacity:1;stroke:#c0c0c0;stroke-width:0.37795275;stroke-linecap:round;stroke-linejoin:round;stroke-miterlimit:4;stroke-dasharray:none;stroke-dashoffset:0;stroke-opacity:1"
       d="m 591.69118,935.38277 c 12.11226,-4.50494 29.01568,-6.193 42.69531,3.71093"
       id="path1050"
       inkscape:connector-curvature="0"
       sodipodi:nodetypes="cc" />
    <path
       style="display:inline;opacity:1;vector-effect:none;fill:none;fill-opacity:1;stroke:#c0c0c0;stroke-width:0.37795275;stroke-linecap:round;stroke-linejoin:round;stroke-miterlimit:4;stroke-dasharray:none;stroke-dashoffset:0;stroke-opacity:1"
       d="m 711.11501,939.40425 c 9.18603,-4.64013 37.32809,-10.12119 44.24244,3.17091"
       id="path1052"
       inkscape:connector-curvature="0"
       sodipodi:nodetypes="cc" />
    <path
       style="display:inline;opacity:1;vector-effect:none;fill:none;fill-opacity:1;stroke:#c0c0c0;stroke-width:0.37795275;stroke-linecap:round;stroke-linejoin:round;stroke-miterlimit:4;stroke-dasharray:none;stroke-dashoffset:0;stroke-opacity:1"
       d="m 616.13259,528.22652 c 13.18437,2.41958 25.94577,2.72427 38.86747,3.83051 10.9536,1.74545 13.17191,16.92561 14.65765,26.69004 1.19491,19.23365 4.10351,46.91733 14.54128,47.1357"
       id="path1022"
       inkscape:connector-curvature="0"
       sodipodi:nodetypes="cccc" />
    <path
       style="display:inline;opacity:1;vector-effect:none;fill:none;fill-opacity:1;stroke:#c0c0c0;stroke-width:0.37795275;stroke-linecap:round;stroke-linejoin:round;stroke-miterlimit:4;stroke-dasharray:none;stroke-dashoffset:0;stroke-opacity:1"
       d="m 652.22241,605.42974 c 10.84948,1.03108 21.34889,1.08642 31.97658,0.45303"
       id="path1024"
       inkscape:connector-curvature="0"
       sodipodi:nodetypes="cc" />
    <path
       style="display:inline;opacity:1;vector-effect:none;fill:none;fill-opacity:1;stroke:#c0c0c0;stroke-width:0.37795275;stroke-linecap:round;stroke-linejoin:round;stroke-miterlimit:4;stroke-dasharray:none;stroke-dashoffset:0;stroke-opacity:1"
       d="m 615.51345,567.20894 c 1.71319,-6.68853 3.42639,-8.4798 5.13958,-10.97773 8.13387,36.86602 49.60699,16.25779 49.00468,2.51586"
       id="path1026"
       inkscape:connector-curvature="0"
       sodipodi:nodetypes="ccc" />
    <path
       style="display:inline;opacity:1;vector-effect:none;fill:none;fill-opacity:1;stroke:#c0c0c0;stroke-width:0.37795275;stroke-linecap:round;stroke-linejoin:round;stroke-miterlimit:4;stroke-dasharray:none;stroke-dashoffset:0;stroke-opacity:1"
       d="M 666.26676,543.65188 725.88183,538.292"
       id="path1028"
       inkscape:connector-curvature="0" />
    <path
       style="display:inline;opacity:1;vector-effect:none;fill:none;fill-opacity:1;stroke:#c0c0c0;stroke-width:0.37795275;stroke-linecap:round;stroke-linejoin:round;stroke-miterlimit:4;stroke-dasharray:none;stroke-dashoffset:0;stroke-opacity:1"
       d="m 669.65771,558.74707 56.83239,-5.53139"
       id="path1030"
       inkscape:connector-curvature="0"
       sodipodi:nodetypes="cc" />
    <path
       style="display:inline;opacity:1;vector-effect:none;fill:none;fill-opacity:1;stroke:#c0c0c0;stroke-width:0.37795275;stroke-linecap:round;stroke-linejoin:round;stroke-miterlimit:4;stroke-dasharray:none;stroke-dashoffset:0;stroke-opacity:1"
       d="m 650.78493,618.56831 c 10.69484,-5.57752 22.07567,-6.57187 33.41406,-7.42578"
       id="path1032"
       inkscape:connector-curvature="0"
       sodipodi:nodetypes="cc" />
    <path
       style="display:inline;opacity:1;vector-effect:none;fill:none;fill-opacity:1;stroke:#c0c0c0;stroke-width:0.37795275;stroke-linecap:round;stroke-linejoin:round;stroke-miterlimit:4;stroke-dasharray:none;stroke-dashoffset:0;stroke-opacity:1"
       d="m 626.34233,591.96035 c 9.58966,0.71958 17.6208,-1.15836 22.27599,-8.66289"
       id="path1131"
       inkscape:connector-curvature="0"
       sodipodi:nodetypes="cc" />
    <path
       style="opacity:1;vector-effect:none;fill:none;fill-opacity:1;stroke:#c0c0c0;stroke-width:0.37795275;stroke-linecap:round;stroke-linejoin:round;stroke-miterlimit:4;stroke-dasharray:none;stroke-dashoffset:0;stroke-opacity:1"
       d="m 824.58376,710.76558 17.63476,-16.70703"
       id="path1134"
       inkscape:connector-curvature="0" />
  </g>
</svg>
