<?xml version="1.0" encoding="UTF-8" standalone="no"?>
<!-- Created with Inkscape (http://www.inkscape.org/) -->

<svg
   xmlns:dc="http://purl.org/dc/elements/1.1/"
   xmlns:cc="http://creativecommons.org/ns#"
   xmlns:rdf="http://www.w3.org/1999/02/22-rdf-syntax-ns#"
   xmlns:svg="http://www.w3.org/2000/svg"
   xmlns="http://www.w3.org/2000/svg"
   xmlns:sodipodi="http://sodipodi.sourceforge.net/DTD/sodipodi-0.dtd"
   xmlns:inkscape="http://www.inkscape.org/namespaces/inkscape"
   width="297mm"
   height="210mm"
   id="svg2"
   version="1.1"
   inkscape:version="0.92.3 (2405546, 2018-03-11)"
   sodipodi:docname="LongBug-undecorated-d-2.svg"
   inkscape:export-filename="/home/christian/SportsCar.svg.png"
   inkscape:export-xdpi="138.06"
   inkscape:export-ydpi="138.06">
  <defs
     id="defs4" />
  <sodipodi:namedview
     id="base"
     pagecolor="#ffffff"
     bordercolor="#666666"
     borderopacity="1.0"
     inkscape:pageopacity="0.0"
     inkscape:pageshadow="2"
     inkscape:zoom="0.94678205"
     inkscape:cx="726.67438"
     inkscape:cy="362.69031"
     inkscape:document-units="mm"
     inkscape:current-layer="Mask"
     showgrid="false"
     units="mm"
     inkscape:window-width="1920"
     inkscape:window-height="1080"
     inkscape:window-x="1920"
     inkscape:window-y="0"
     inkscape:window-maximized="0"
     inkscape:snap-global="false"
     showguides="false" />
  <metadata
     id="metadata7">
    <rdf:RDF>
      <cc:Work
         rdf:about="">
        <dc:format>image/svg+xml</dc:format>
        <dc:type
           rdf:resource="http://purl.org/dc/dcmitype/StillImage" />
        <dc:title />
      </cc:Work>
    </rdf:RDF>
  </metadata>
  <g
     inkscape:label="Mask"
     inkscape:groupmode="layer"
     id="Mask"
     style="display:inline;opacity:1"
     transform="translate(0,-328.81888)">
    <path
       style="display:inline;opacity:1;vector-effect:none;fill:#ffffff;fill-opacity:1;stroke:#808080;stroke-width:0.75599998;stroke-linecap:round;stroke-linejoin:round;stroke-miterlimit:4;stroke-dasharray:none;stroke-dashoffset:0;stroke-opacity:1"
       d="m 596.33284,512.6823 c -2.77803,2.2244 -4.34097,6.92722 -0.32897,12.08479 16.72698,21.50312 26.3913,47.21411 28.90235,76.54493 -11.94608,14.29257 -18.85333,30.04756 -16.79297,42.75976 -44.34753,-20.2121 -89.73041,-39.04595 -138.05274,-52.05859 -19.8808,-5.35367 -44.47413,-9.02142 -63.60879,-9.04205 -13.46649,0.45676 -46.025,3.36902 -51.60352,15.01172 l 195.22794,72.47173 c -64.75897,5.647 -120.40515,10.48917 -191.71485,24.32032 -6.73198,2.9241 -8.65022,11.01133 -7.7539,17.76171 18.76207,122.25722 161.46138,-3.3523 243.42187,-9.56054 l 0.14063,-0.33985 c -0.0275,0.6075 -0.0611,1.21468 -0.0859,1.82227 -4.99156,3.98928 -9.68614,8.59562 -13.63476,14.59766 -6.59412,10.02327 -14.43254,19.14384 -24.04297,27.40039 -10.66528,9.16279 -24.10222,15.6706 -36.76953,22.80468 -10.01871,5.64241 -6.72588,17.68519 4.24414,13.61133 14.99806,-5.56972 29.9298,-11.93256 41.89257,-23.51172 7.54319,-7.3013 14.63494,-14.56954 20.6836,-22.98047 2.06401,-2.87009 4.32283,-5.5742 6.72265,-8.10351 l -0.82226,43.44922 c -10.65461,4.47826 -20.61825,10.03546 -25.875,21.92968 -10.59044,23.9625 -18.16907,28.82182 -27.04688,36.41602 -5.3653,4.58955 -11.18338,8.5696 -18.20703,14.31836 -11.72442,9.59627 -4.28445,22.84026 8.66211,13.08203 l 23.6875,-17.85351 c 14.34456,-10.81196 19.15087,-22.04429 22.09766,-29.16797 2.91941,-7.05747 5.54731,-14.3152 16.04883,-21.34961 -1.04197,21.74846 -0.70286,35.89243 0.22851,46.80273 -0.65339,1.09715 -1.28824,2.16049 -1.83008,3.07031 -8.93052,14.99561 -4.84174,26.29086 -2.77929,40.06446 2.80491,18.73191 2.51588,31.23744 -1.23829,42.42773 l -9.1914,27.40039 c -6.75294,20.12896 10.19638,17.59931 13.25781,7.2461 l 9.72266,-32.87891 c 2.76587,-9.35366 4.39897,-19.70757 4.02539,-30.75195 6.39994,19.55039 14.30821,38.01079 24.78906,54.79297 8.4764,11.99768 15.82829,11.49503 22.80469,0.70703 13.7364,-24.06034 23.26813,-48.73107 32.91406,-74.60938 0.72061,-2.25564 1.4015,-4.53104 2.0625,-6.8164 l -0.0332,0.16992 c -0.0608,3.51905 -0.53514,7.45761 -1.52539,11.95898 -3.81485,17.34113 -2.17211,33.45918 1.94336,47.37696 l 9.72265,32.88085 c 3.06143,10.35321 20.01271,12.88092 13.25977,-7.24804 l -9.19336,-27.40039 c -3.75416,-11.1903 -4.04124,-23.69583 -1.23633,-42.42774 2.06245,-13.7736 6.14927,-25.06884 -2.78125,-40.06445 -0.86803,-1.45755 -1.982,-3.33111 -3.0957,-5.20117 3.17786,-14.92248 5.02609,-29.53876 6.34179,-42.62696 11.23543,8.37272 13.31118,16.22095 15.72852,23.87891 2.3206,7.35153 6.13878,18.95649 19.49609,30.9668 l 22.0586,19.83398 c 12.05551,10.83979 20.60974,-1.71226 9.75781,-12.28515 -6.50098,-6.33382 -11.95343,-10.80216 -16.90234,-15.8379 -8.18885,-8.33247 -15.3192,-13.8277 -23.80079,-38.61523 -4.29872,-12.56314 -14.05583,-18.9663 -24.53124,-24.41992 1.68205,-18.28598 3.31818,-37.52233 3.86132,-53.47266 3.74711,3.50148 7.2428,7.39 10.30664,11.65039 6.04867,8.41093 13.14041,15.67917 20.6836,22.98047 11.96277,11.57916 26.89647,17.942 41.89453,23.51172 10.97002,4.07386 14.26284,-7.96892 4.24414,-13.61133 -12.66733,-7.13408 -26.10424,-13.6419 -36.76953,-22.80468 -9.61042,-8.25656 -17.44886,-17.37713 -24.04297,-27.4004 -4.60496,-6.99968 -10.22766,-12.10113 -16.14844,-16.53906 -0.0182,-0.66992 -0.0364,-1.33985 -0.0547,-2.00976 l 0.25977,0.62695 c 81.96049,6.20824 224.65983,131.81777 243.42187,9.56055 0.89632,-6.75038 -1.02192,-14.83567 -7.7539,-17.75977 -71.30832,-13.83087 -126.95363,-18.67539 -191.71097,-24.32227 l 191.51172,-71.93945 c -0.66595,-7.77826 -10.36403,-11.00565 -19,-12 -11.07113,-1.27473 -22.37272,-2.0241 -33.85352,-2.01172 -19.13466,0.0206 -38.76567,2.15805 -58.64648,7.51172 -46.63082,12.55715 -90.51999,30.53797 -133.38477,49.94531 6.02755,-12.8192 3.54984,-26.86796 -8.41211,-39.95507 5.1888,-28.85454 20.07725,-51.56348 38.7129,-71.6836 9.61521,-10.38113 -1.82308,-20.84729 -10.60547,-9.90039 -16.72741,20.85004 -29.74585,44.94134 -38.27344,73.00977 -13.67924,-4.58983 -26.42202,-5.36613 -41.63086,1.06054 -3.83869,-28.49554 -12.4273,-57.22251 -30.4043,-76.36718 -3.17682,-2.9337 -5.61149,-5.17376 -9.57142,-2.89339 z"
       id="path1508"
       inkscape:connector-curvature="0"
       sodipodi:nodetypes="csccscccccccccsssscccsssccccccsccccccccccsccccsccccccsccccsssscscccccccscsccsscccc" />
  </g>
  <g
     inkscape:groupmode="layer"
     id="layer1"
     inkscape:label="Overlay"
     style="display:inline;opacity:1"
     transform="translate(0,-328.81888)">
    <path
       style="display:inline;opacity:1;fill:none;stroke:#c0c0c0;stroke-width:0.37795275;stroke-linecap:round;stroke-linejoin:round;stroke-miterlimit:4;stroke-dasharray:none;stroke-opacity:1"
       d="m -360.36612,1179.8467 c -1.29579,6.2208 -1.19483,7.7596 -0.20406,8.2641"
       id="path943"
       inkscape:connector-curvature="0"
       sodipodi:nodetypes="cc" />
    <path
       style="display:inline;opacity:1;fill:none;stroke:#c0c0c0;stroke-width:0.37795275;stroke-linecap:round;stroke-linejoin:round;stroke-miterlimit:4;stroke-dasharray:none;stroke-opacity:1"
       d="m -246.84952,1180.3588 c 1.2958,6.2207 1.19484,7.7596 0.20405,8.2641"
       id="path943-6"
       inkscape:connector-curvature="0"
       sodipodi:nodetypes="cc" />
    <path
       style="fill:none;stroke:#c0c0c0;stroke-width:0.37795275;stroke-linecap:round;stroke-linejoin:round;stroke-miterlimit:4;stroke-dasharray:none;stroke-dashoffset:0;stroke-opacity:1"
       d="m -311.58971,1289.874 c 5.25076,0.283 10.49858,0.5425 15.65518,0.072"
       id="path961"
       inkscape:connector-curvature="0"
       sodipodi:nodetypes="cc" />
    <path
       style="fill:none;stroke:#c0c0c0;stroke-width:0.37795275;stroke-linecap:round;stroke-linejoin:round;stroke-miterlimit:4;stroke-dasharray:none;stroke-opacity:1"
       d="m -314.17361,1295.3407 c -0.18395,3.8206 -0.17272,7.9639 0,12.4728"
       id="path963"
       inkscape:connector-curvature="0"
       sodipodi:nodetypes="cc" />
    <path
       style="fill:none;stroke:#c0c0c0;stroke-width:0.37795275;stroke-linecap:round;stroke-linejoin:round;stroke-miterlimit:4;stroke-dasharray:none;stroke-opacity:1"
       d="m -293.36019,1295.2642 c 0.18331,4.3409 0.15951,8.3472 0.0255,12.4983"
       id="path965"
       inkscape:connector-curvature="0"
       sodipodi:nodetypes="cc" />
    <path
       style="display:inline;opacity:1;vector-effect:none;fill:none;fill-opacity:1;stroke:#c0c0c0;stroke-width:0.37795275;stroke-linecap:round;stroke-linejoin:round;stroke-miterlimit:4;stroke-dasharray:none;stroke-dashoffset:0;stroke-opacity:1"
       d="m 593.18029,728.27739 c 7.11362,-7.49742 15.46923,-13.46473 23.68328,-17.70655 m -7.42463,-16.97056 v 0 c -5.11088,3.5186 -10.37877,6.88119 -15.3541,10.8575"
       id="path1407"
       inkscape:connector-curvature="0"
       sodipodi:nodetypes="ccccc" />
    <path
       style="display:inline;opacity:1;vector-effect:none;fill:none;fill-opacity:1;stroke:#c0c0c0;stroke-width:0.37795275;stroke-linecap:round;stroke-linejoin:round;stroke-miterlimit:4;stroke-dasharray:none;stroke-dashoffset:0;stroke-opacity:1"
       d="m 591.72931,789.09772 c 4.58722,-3.07181 10.67625,-6.10136 18.94707,-9.05364"
       id="path1412"
       inkscape:connector-curvature="0" />
    <path
       style="display:inline;opacity:1;vector-effect:none;fill:none;fill-opacity:1;stroke:#c0c0c0;stroke-width:0.37795275;stroke-linecap:round;stroke-linejoin:round;stroke-miterlimit:4;stroke-dasharray:none;stroke-dashoffset:0;stroke-opacity:1"
       d="m 607.4944,765.54839 c -4.91881,2.18841 -10.10601,4.06313 -15.13871,6.17843"
       id="path1020"
       inkscape:connector-curvature="0" />
    <path
       style="display:inline;opacity:1;vector-effect:none;fill:none;fill-opacity:1;stroke:#c0c0c0;stroke-width:0.37795275;stroke-linecap:round;stroke-linejoin:round;stroke-miterlimit:4;stroke-dasharray:none;stroke-dashoffset:0;stroke-opacity:1"
       d="m 603.91667,892.4961 c -0.22195,-5.11488 -0.89569,-11.25949 -2.07913,-16.63906 -4.88925,-22.22503 2.79251,-30.75323 10.78339,-42.60318"
       id="path1424"
       inkscape:connector-curvature="0"
       sodipodi:nodetypes="csc" />
    <path
       style="display:inline;opacity:1;vector-effect:none;fill:none;fill-opacity:1;stroke:#c0c0c0;stroke-width:0.37795275;stroke-linecap:round;stroke-linejoin:round;stroke-miterlimit:4;stroke-dasharray:none;stroke-dashoffset:0;stroke-opacity:1"
       d="m 602.89821,817.52074 c 0,0 -6.20755,10.42336 -10.67362,17.92252"
       id="path1023"
       inkscape:connector-curvature="0" />
    <path
       style="display:inline;opacity:1;vector-effect:none;fill:none;fill-opacity:1;stroke:#c0c0c0;stroke-width:0.37795275;stroke-linecap:round;stroke-linejoin:round;stroke-miterlimit:4;stroke-dasharray:none;stroke-dashoffset:0;stroke-opacity:1"
       d="M 705.40584,723.87166 C 699.18662,718.0892 692.2749,713.38271 685.4606,709.86373"
       id="path1439"
       inkscape:connector-curvature="0" />
    <path
       style="display:inline;opacity:1;vector-effect:none;fill:none;fill-opacity:1;stroke:#c0c0c0;stroke-width:0.37795275;stroke-linecap:round;stroke-linejoin:round;stroke-miterlimit:4;stroke-dasharray:none;stroke-dashoffset:0;stroke-opacity:1"
       d="m 692.88522,692.89317 c 4.25859,2.93184 8.6262,5.75537 12.84273,8.91587"
       id="path1018-6"
       inkscape:connector-curvature="0" />
    <path
       style="display:inline;opacity:1;vector-effect:none;fill:none;fill-opacity:1;stroke:#c0c0c0;stroke-width:0.37795275;stroke-linecap:round;stroke-linejoin:round;stroke-miterlimit:4;stroke-dasharray:none;stroke-dashoffset:0;stroke-opacity:1"
       d="m 699.89248,793.97357 c -4.11856,-3.06919 -9.46774,-6.20877 -16.51542,-9.43517"
       id="path1434"
       inkscape:connector-curvature="0" />
    <path
       style="display:inline;opacity:1;vector-effect:none;fill:none;fill-opacity:1;stroke:#c0c0c0;stroke-width:0.37795275;stroke-linecap:round;stroke-linejoin:round;stroke-miterlimit:4;stroke-dasharray:none;stroke-dashoffset:0;stroke-opacity:1"
       d="m 687.79895,770.37165 c 4.50116,2.48873 9.2711,4.71337 13.9007,7.1236"
       id="path1020-7"
       inkscape:connector-curvature="0" />
    <path
       style="display:inline;opacity:1;vector-effect:none;fill:none;fill-opacity:1;stroke:#c0c0c0;stroke-width:0.37795275;stroke-linecap:round;stroke-linejoin:round;stroke-miterlimit:4;stroke-dasharray:none;stroke-dashoffset:0;stroke-opacity:1"
       d="m 686.45587,866.72552 c 0.2393,-13.85589 -5.93655,-21.19333 -12.30899,-30.64324"
       id="path1429"
       inkscape:connector-curvature="0" />
    <path
       style="display:inline;opacity:1;vector-effect:none;fill:none;fill-opacity:1;stroke:#c0c0c0;stroke-width:0.37795275;stroke-linecap:round;stroke-linejoin:round;stroke-miterlimit:4;stroke-dasharray:none;stroke-dashoffset:0;stroke-opacity:1"
       d="m 683.8696,820.34916 c 0,0 5.39878,9.11962 9.57561,16.13312"
       id="path1023-5"
       inkscape:connector-curvature="0"
       sodipodi:nodetypes="cc" />
    <path
       style="opacity:1;vector-effect:none;fill:none;fill-opacity:1;stroke:#c0c0c0;stroke-width:0.37795275;stroke-linecap:round;stroke-linejoin:round;stroke-miterlimit:4;stroke-dasharray:none;stroke-dashoffset:0;stroke-opacity:1"
       d="m 608.08784,643.98112 c 0.82648,5.21728 3.16014,9.92451 7.27315,13.81084 20.38172,19.25844 45.87148,16.12037 67.5287,-1.67938 6.25039,-5.1371 10.81096,-10.74372 13.58868,-16.60938"
       id="path1475"
       inkscape:connector-curvature="0"
       sodipodi:nodetypes="cssc" />
    <path
       style="display:inline;opacity:1;vector-effect:none;fill:none;fill-opacity:1;stroke:#c0c0c0;stroke-width:0.37795275;stroke-linecap:round;stroke-linejoin:round;stroke-miterlimit:4;stroke-dasharray:none;stroke-dashoffset:0;stroke-opacity:1"
       d="m 624.91799,601.41124 c 0.22151,2.55958 0.32715,5.11916 0.3425,7.67874"
       id="path1477"
       inkscape:connector-curvature="0"
       sodipodi:nodetypes="cc" />
    <path
       style="display:inline;opacity:1;vector-effect:none;fill:none;fill-opacity:1;stroke:#c0c0c0;stroke-width:0.37795275;stroke-linecap:round;stroke-linejoin:round;stroke-miterlimit:4;stroke-dasharray:none;stroke-dashoffset:0;stroke-opacity:1"
       d="m 636.32008,591.90949 c 0.36852,2.54462 0.34585,4.99897 0.34251,7.45777"
       id="path1479"
       inkscape:connector-curvature="0"
       sodipodi:nodetypes="cc" />
    <path
       style="display:inline;opacity:1;vector-effect:none;fill:none;fill-opacity:1;stroke:#c0c0c0;stroke-width:0.37795275;stroke-linecap:round;stroke-linejoin:round;stroke-miterlimit:4;stroke-dasharray:none;stroke-dashoffset:0;stroke-opacity:1"
       d="m 677.93995,590.88198 c -0.67535,2.74233 -1.16415,5.67121 -1.59099,8.66206"
       id="path1481"
       inkscape:connector-curvature="0"
       sodipodi:nodetypes="cc" />
    <path
       style="display:inline;opacity:1;vector-effect:none;fill:none;fill-opacity:1;stroke:#c0c0c0;stroke-width:0.37795275;stroke-linecap:round;stroke-linejoin:round;stroke-miterlimit:4;stroke-dasharray:none;stroke-dashoffset:0;stroke-opacity:1"
       d="m 688.10461,599.36726 c -0.26497,2.00343 -0.46688,3.84425 -0.54106,5.70327"
       id="path1483"
       inkscape:connector-curvature="0"
       sodipodi:nodetypes="cc" />
    <path
       style="opacity:1;vector-effect:none;fill:none;fill-opacity:1;stroke:#c0c0c0;stroke-width:0.37795275;stroke-linecap:round;stroke-linejoin:round;stroke-miterlimit:4;stroke-dasharray:none;stroke-dashoffset:0;stroke-opacity:1"
       d="m 699.40231,663.34093 50.5625,4.5625"
       id="path1567"
       inkscape:connector-curvature="0" />
    <path
       style="display:inline;opacity:1;vector-effect:none;fill:none;fill-opacity:1;stroke:#c0c0c0;stroke-width:0.37795275;stroke-linecap:round;stroke-linejoin:round;stroke-miterlimit:4;stroke-dasharray:none;stroke-dashoffset:0;stroke-opacity:1"
       d="m 618.72979,660.72011 h -9.1137 c -7.59786,0 -13.66652,8.99351 -14.31836,20.50586 -0.35131,7.74614 -0.89588,15.48549 -1.2128,23.23246 m 111.64272,-2.64844 c -0.18891,-6.95317 -0.3835,-13.90628 -0.57615,-20.85938 -0.9845,-12.39557 -5.26886,-21.88281 -15.11914,-21.88281 l -2.6e-4,-4e-5 -11.46231,0.29281"
       id="path1018"
       inkscape:connector-curvature="0"
       sodipodi:nodetypes="csccccccc" />
    <path
       style="display:inline;opacity:1;vector-effect:none;fill:none;fill-opacity:1;stroke:#c0c0c0;stroke-width:0.37795275;stroke-linecap:round;stroke-linejoin:round;stroke-miterlimit:4;stroke-dasharray:none;stroke-dashoffset:0;stroke-opacity:1"
       d="m 550.33981,670.52843 50.0625,-4.5625"
       id="path1565"
       inkscape:connector-curvature="0" />
  </g>
  <g
     inkscape:groupmode="layer"
     id="layer3"
     inkscape:label="Detailed"
     style="display:inline">
    <path
       style="display:inline;opacity:1;vector-effect:none;fill:none;fill-opacity:1;stroke:#c0c0c0;stroke-width:0.37795275;stroke-linecap:round;stroke-linejoin:round;stroke-miterlimit:4;stroke-dasharray:none;stroke-dashoffset:0;stroke-opacity:1"
       d="m 631.978,287.60733 c 1.81009,-3.11329 8.08899,-3.68232 10.16466,-0.61872 2.07567,3.0636 -1.39612,9.33771 -5.3033,9.36917 -3.90718,0.0315 -6.67145,-5.63716 -4.86136,-8.75045 z"
       id="path1485"
       inkscape:connector-curvature="0"
       sodipodi:nodetypes="zzzz" />
    <path
       style="display:inline;opacity:1;vector-effect:none;fill:none;fill-opacity:1;stroke:#c0c0c0;stroke-width:0.37795275;stroke-linecap:round;stroke-linejoin:round;stroke-miterlimit:4;stroke-dasharray:none;stroke-dashoffset:0;stroke-opacity:1"
       d="m 669.09653,285.86896 c -1.24793,3.31889 1.48473,8.41524 5.20613,8.09934 3.72141,-0.3159 7.31849,-6.34514 4.80674,-9.33586 -2.51176,-2.99073 -8.76493,-2.08238 -10.01287,1.23652 z"
       id="path1487"
       inkscape:connector-curvature="0"
       sodipodi:nodetypes="zzzz" />
    <path
       style="display:inline;opacity:1;vector-effect:none;fill:none;fill-opacity:1;stroke:#c0c0c0;stroke-width:0.37795275;stroke-linecap:round;stroke-linejoin:round;stroke-miterlimit:4;stroke-dasharray:none;stroke-dashoffset:0;stroke-opacity:1"
       d="m 632.33156,308.37859 c 10.36584,13.40711 30.43336,26.48528 47.19938,-4.33103"
       id="path1489"
       inkscape:connector-curvature="0"
       sodipodi:nodetypes="cc" />
    <path
       style="opacity:1;vector-effect:none;fill:none;fill-opacity:1;stroke:#c0c0c0;stroke-width:0.37795275;stroke-linecap:round;stroke-linejoin:round;stroke-miterlimit:4;stroke-dasharray:none;stroke-dashoffset:0;stroke-opacity:1"
       d="m 592.65523,430.46624 c 35.66858,7.67994 72.5194,7.87234 110.30866,2.12132"
       id="path1612"
       inkscape:connector-curvature="0"
       sodipodi:nodetypes="cc" />
    <path
       style="opacity:1;vector-effect:none;fill:none;fill-opacity:1;stroke:#c0c0c0;stroke-width:0.37795275;stroke-linecap:round;stroke-linejoin:round;stroke-miterlimit:4;stroke-dasharray:none;stroke-dashoffset:0;stroke-opacity:1"
       d="m 591.24102,476.42818 c 36.05703,4.85357 71.82819,5.16102 106.86151,1.5026"
       id="path1614"
       inkscape:connector-curvature="0"
       sodipodi:nodetypes="cc" />
    <path
       style="opacity:1;vector-effect:none;fill:none;fill-opacity:1;stroke:#c0c0c0;stroke-width:0.37795275;stroke-linecap:round;stroke-linejoin:round;stroke-miterlimit:4;stroke-dasharray:none;stroke-dashoffset:0;stroke-opacity:1"
       d="m 601.15268,526.2381 c 27.13087,3.69013 55.14229,4.68811 83.64557,-0.18737"
       id="path1616"
       inkscape:connector-curvature="0"
       sodipodi:nodetypes="cc" />
    <path
       style="opacity:1;vector-effect:none;fill:none;fill-opacity:1;stroke:#c0c0c0;stroke-width:0.37795275;stroke-linecap:round;stroke-linejoin:round;stroke-miterlimit:4;stroke-dasharray:none;stroke-dashoffset:0;stroke-opacity:1"
       d="m 604.3404,564.53892 c 24.65679,3.88929 48.18603,3.47046 72.46942,-0.10336"
       id="path1618"
       inkscape:connector-curvature="0"
       sodipodi:nodetypes="cc" />
    <path
       style="opacity:1;vector-effect:none;fill:none;fill-opacity:1;stroke:#c0c0c0;stroke-width:0.37795275;stroke-linecap:round;stroke-linejoin:round;stroke-miterlimit:4;stroke-dasharray:none;stroke-dashoffset:0;stroke-opacity:1"
       d="m 617.08405,596.7716 c 15.49681,3.49137 30.82339,4.42922 45.82221,0.45073"
       id="path1620"
       inkscape:connector-curvature="0"
       sodipodi:nodetypes="cc" />
    <path
       style="opacity:1;vector-effect:none;fill:none;fill-opacity:1;stroke:#c0c0c0;stroke-width:0.37795275;stroke-linecap:round;stroke-linejoin:round;stroke-miterlimit:4;stroke-dasharray:none;stroke-dashoffset:0;stroke-opacity:1"
       d="m 594.35354,398.24911 c 37.26743,5.23941 77.55109,6.80929 110.85667,2.76497"
       id="path1622"
       inkscape:connector-curvature="0"
       sodipodi:nodetypes="cc" />
    <path
       style="opacity:1;vector-effect:none;fill:none;fill-opacity:1;stroke:#c0c0c0;stroke-width:0.37795275;stroke-linecap:round;stroke-linejoin:round;stroke-miterlimit:4;stroke-dasharray:none;stroke-dashoffset:0;stroke-opacity:1"
       d="m 595.48366,350.40693 c 34.49504,4.83702 71.0591,5.32896 108.18733,0"
       id="path1624"
       inkscape:connector-curvature="0"
       sodipodi:nodetypes="cc" />
    <path
       style="opacity:1;vector-effect:none;fill:none;fill-opacity:1;stroke:#c0c0c0;stroke-width:0.37795275;stroke-linecap:round;stroke-linejoin:round;stroke-miterlimit:4;stroke-dasharray:none;stroke-dashoffset:0;stroke-opacity:1"
       d="m 596.01399,195.70679 c 4.44303,6.02355 14.82478,-2.43003 10.42982,-8.48528"
       id="path1626"
       inkscape:connector-curvature="0"
       sodipodi:nodetypes="cc" />
    <path
       style="opacity:1;vector-effect:none;fill:none;fill-opacity:1;stroke:#c0c0c0;stroke-width:0.37795275;stroke-linecap:round;stroke-linejoin:round;stroke-miterlimit:4;stroke-dasharray:none;stroke-dashoffset:0;stroke-opacity:1"
       d="m 716.75247,187.92862 c -4.57698,7.52074 4.65675,16.42301 11.13693,9.36916"
       id="path1628"
       inkscape:connector-curvature="0"
       sodipodi:nodetypes="cc" />
  </g>
</svg>
