<?xml version="1.0" encoding="UTF-8" standalone="no"?>
<!-- Created with Inkscape (http://www.inkscape.org/) -->

<svg
   xmlns:dc="http://purl.org/dc/elements/1.1/"
   xmlns:cc="http://creativecommons.org/ns#"
   xmlns:rdf="http://www.w3.org/1999/02/22-rdf-syntax-ns#"
   xmlns:svg="http://www.w3.org/2000/svg"
   xmlns="http://www.w3.org/2000/svg"
   xmlns:sodipodi="http://sodipodi.sourceforge.net/DTD/sodipodi-0.dtd"
   xmlns:inkscape="http://www.inkscape.org/namespaces/inkscape"
   width="297mm"
   height="210mm"
   id="svg2"
   version="1.1"
   inkscape:version="0.92.3 (2405546, 2018-03-11)"
   sodipodi:docname="SkiingChildUpright-undecorated-d-2.svg">
  <defs
     id="defs4" />
  <sodipodi:namedview
     id="base"
     pagecolor="#ffffff"
     bordercolor="#666666"
     borderopacity="1.0"
     inkscape:pageopacity="0.0"
     inkscape:pageshadow="2"
     inkscape:zoom="1.142748"
     inkscape:cx="693.7967"
     inkscape:cy="230.37129"
     inkscape:document-units="mm"
     inkscape:current-layer="Mask"
     showgrid="false"
     units="mm"
     inkscape:window-width="1920"
     inkscape:window-height="1080"
     inkscape:window-x="1920"
     inkscape:window-y="0"
     inkscape:window-maximized="0"
     inkscape:snap-global="false" />
  <metadata
     id="metadata7">
    <rdf:RDF>
      <cc:Work
         rdf:about="">
        <dc:format>image/svg+xml</dc:format>
        <dc:type
           rdf:resource="http://purl.org/dc/dcmitype/StillImage" />
        <dc:title />
      </cc:Work>
    </rdf:RDF>
  </metadata>
  <g
     inkscape:label="Mask"
     inkscape:groupmode="layer"
     id="Mask"
     style="display:inline"
     transform="translate(0,-328.81888)">
    <path
       style="display:inline;opacity:1;vector-effect:none;fill:none;fill-opacity:1;stroke:#808080;stroke-width:0.75590551;stroke-linecap:round;stroke-linejoin:round;stroke-miterlimit:4;stroke-dasharray:none;stroke-dashoffset:0;stroke-opacity:1"
       d="m 716.39648,495.06086 c -9.4042,0.0359 -18.91473,2.06923 -26.76953,5.58789 -13.2519,5.93638 -27.20928,20.49159 -25.98828,34.96094 0.276,3.27075 2.51024,7.8397 7.11524,6.80664 0.6822,4.61694 1.11804,9.30333 0.61914,13.92188 -0.7335,6.78967 -8.30467,13.688 -5.25977,19.80078 1.3406,2.6913 8.35352,3.4043 8.35352,3.4043 0.4596,3.80611 7.49574,21.31192 18.87304,23.82226 3.3507,0.73933 7.39914,0.98415 11.55274,0.90234 0.7689,-0.0151 0.76964,2.18088 0.68554,5.24805 -3.9352,1.52828 -7.38416,3.89585 -10.07226,6.53516 -9.1443,8.97836 -12.92939,19.04015 -16.08789,28.46289 -5.9979,17.8936 -8.18766,36.78209 -8.97266,56 0.1622,10.03334 1.93451,20.32195 2.47461,28.77344 l -29.18164,40.91015 c -6.03792,0.44046 -11.48218,4.62903 -14.02344,6.21094 l -1.98632,-2.22461 -6.33985,4.33008 5.09375,5.74219 -4.96875,4.46289 c -2.71705,2.8815 1.63253,8.2299 4.61328,6.4707 -2.3136,2.62382 1.94515,8.90111 4.96485,6.4668 -2.26459,3.25953 2.81175,8.00034 6.47656,5.14648 -3.57457,3.40848 3.85361,6.60195 6.06445,5.24609 l 5.0625,-2.74609 26.33985,29.70117 c -0.19,1.48215 -0.38746,2.96154 -0.56836,4.44727 -1.5008,12.32974 -4.74602,24.63041 -4.94922,36.50781 -0.3017,17.6327 -1.34135,35.0674 2.78515,52.9043 l 9.58985,41.45898 c -13.937,5.6239 -31.2392,5.35882 -39.19531,21.44922 v 3.34375 l -16.45899,0.36719 v 6.70706 H 454.4415 c -17.22854,0.8515 -24.91121,-11.56486 -30.91352,-19.53244 -5.19544,-6.89652 -15.92881,1.06101 -10.7172,7.81433 11.71654,15.18261 21.10123,24.13411 41.82993,24.13411 h 443.43741 v -12.416 H 761.71484 v -10.51956 h -27.22656 c -8.58375,-22.17699 -13.11782,-44.89279 -17.01562,-65.58985 -3.1606,-15.7705 -0.87934,-28.58327 2.31836,-40.60937 l 65.24414,73.57227 c -6.06998,5.9429 -8.27712,12.85731 -5.41407,16.96093 3.26403,4.6587 12.08187,4.33246 20.53516,-0.75976 l 14.98242,13.73242 2.57422,-2.2207 -11.56641,-16.0918 c 6.19132,-5.97385 8.47332,-12.98289 5.57618,-17.12695 -3.17018,-4.51217 -11.583,-4.35414 -19.85938,0.37304 l -69.46094,-77.75195 c 0.7585,-2.6461 1.50465,-5.28572 2.18555,-7.93359 l 8.35352,-32.48633 c 4.1724,-16.22584 7.61729,-31.75626 3.40429,-51.66797 -7.6793,-36.29456 -2.25664,-42.25139 -0.61914,-57.54688 3.0209,-28.21743 4.75219,-56.31775 4.02149,-84.46289 -0.3816,-14.69575 -2.06503,-28.14052 -10.51953,-33.72265 -1.8804,-1.24157 -3.75468,-2.19362 -5.60938,-2.90821 -0.4052,-1.79497 -0.81169,-4.08459 -1.05859,-7.22461 2.8286,-0.62811 4.99528,-1.31537 6.05078,-1.93359 19.2664,5.45985 26.09361,-5.40585 30.32031,-17.63477 8.4331,-24.39911 8.15877,-58.90836 -10.51953,-76.72851 -8.0066,-7.63877 -19.92443,-10.89387 -32.01563,-10.84766 z m -37.90625,275.375 c 2.6148,20.29703 0.38253,39.25287 -2.10937,58.20703 l -21.25586,-23.9414 1.50781,-1.3418 c 4.0789,-3.84137 4.78129,-8.223 7.20899,-12.32617 z"
       id="path978"
       inkscape:connector-curvature="0"
       sodipodi:nodetypes="ccsccccccccccccccccccccccccccccccccssccccccccccccccccccccscccccscccccccc" />
  </g>
  <g
     inkscape:groupmode="layer"
     id="layer1"
     inkscape:label="Overlay"
     style="display:inline"
     transform="translate(0,-328.81888)">
    <path
       style="display:inline;opacity:1;vector-effect:none;fill:none;fill-opacity:1;stroke:#c0c0c0;stroke-width:0.37795275;stroke-linecap:round;stroke-linejoin:round;stroke-miterlimit:4;stroke-dasharray:none;stroke-dashoffset:0;stroke-opacity:1"
       d="m 785.06607,963.07682 6.59451,7.43615 c 2.28579,3.26652 8.41551,-3.42937 6.49176,-5.56374 l -6.28289,-7.03275"
       id="path904"
       inkscape:connector-curvature="0"
       sodipodi:nodetypes="cccc" />
    <path
       style="display:inline;opacity:1;vector-effect:none;fill:none;fill-opacity:1;stroke:#c0c0c0;stroke-width:0.37795275;stroke-linecap:round;stroke-linejoin:round;stroke-miterlimit:4;stroke-dasharray:none;stroke-dashoffset:0;stroke-opacity:1"
       d="m 676.38086,828.64289 46.02148,51.51563"
       id="path960"
       inkscape:connector-curvature="0" />
    <path
       style="display:inline;opacity:1;vector-effect:none;fill:none;fill-opacity:1;stroke:#c0c0c0;stroke-width:0.37795275;stroke-linecap:round;stroke-linejoin:round;stroke-miterlimit:4;stroke-dasharray:none;stroke-dashoffset:0;stroke-opacity:1"
       d="m 675.03516,839.00422 44.75586,50.4668"
       id="path962"
       inkscape:connector-curvature="0" />
    <path
       style="display:inline;opacity:1;vector-effect:none;fill:none;fill-opacity:1;stroke:#c0c0c0;stroke-width:0.37795275;stroke-linecap:round;stroke-linejoin:round;stroke-miterlimit:4;stroke-dasharray:none;stroke-dashoffset:0;stroke-opacity:1"
       d="m 626.48242,784.25618 5.75352,-4.926 -2.5211,-2.92166"
       id="path964"
       inkscape:connector-curvature="0"
       sodipodi:nodetypes="ccc" />
    <path
       style="display:inline;opacity:1;vector-effect:none;fill:none;fill-opacity:1;stroke:#c0c0c0;stroke-width:0.37795275;stroke-linecap:round;stroke-linejoin:round;stroke-miterlimit:4;stroke-dasharray:none;stroke-dashoffset:0;stroke-opacity:1"
       d="m 626.12695,795.18977 8.12002,-6.19119"
       id="path966"
       inkscape:connector-curvature="0" />
    <path
       style="display:inline;opacity:1;vector-effect:none;fill:none;fill-opacity:1;stroke:#c0c0c0;stroke-width:0.37795275;stroke-linecap:round;stroke-linejoin:round;stroke-miterlimit:4;stroke-dasharray:none;stroke-dashoffset:0;stroke-opacity:1"
       d="m 631.0918,801.65657 8.10539,-6.77961"
       id="path968"
       inkscape:connector-curvature="0" />
    <path
       style="display:inline;opacity:1;vector-effect:none;fill:none;fill-opacity:1;stroke:#c0c0c0;stroke-width:0.37795275;stroke-linecap:round;stroke-linejoin:round;stroke-miterlimit:4;stroke-dasharray:none;stroke-dashoffset:0;stroke-opacity:1"
       d="m 637.56836,806.80305 8.28068,-6.51178"
       id="path970"
       inkscape:connector-curvature="0" />
    <path
       style="display:inline;opacity:1;vector-effect:none;fill:none;fill-opacity:1;stroke:#c0c0c0;stroke-width:0.37795275;stroke-linecap:round;stroke-linejoin:round;stroke-miterlimit:4;stroke-dasharray:none;stroke-dashoffset:0;stroke-opacity:1"
       d="m 648.69531,809.30305 6.50622,-4.75669"
       id="path972"
       inkscape:connector-curvature="0"
       sodipodi:nodetypes="cc" />
    <path
       style="display:inline;opacity:1;vector-effect:none;fill:none;fill-opacity:1;stroke:#c0c0c0;stroke-width:0.37795275;stroke-linecap:round;stroke-linejoin:round;stroke-miterlimit:4;stroke-dasharray:none;stroke-dashoffset:0;stroke-opacity:1"
       d="m 632.08124,779.40753 1.4696,-1.54695"
       id="path974"
       inkscape:connector-curvature="0" />
    <path
       style="display:inline;opacity:1;vector-effect:none;fill:none;fill-opacity:1;stroke:#c0c0c0;stroke-width:0.37795275;stroke-linecap:round;stroke-linejoin:round;stroke-miterlimit:4;stroke-dasharray:none;stroke-dashoffset:0;stroke-opacity:1"
       d="m 672.91992,729.28743 3.19152,-4.77431 c 2.49874,-3.39479 4.87412,-7.59582 6.0162,-12.57932 l 16.00138,-68.25275"
       id="path955-7"
       inkscape:connector-curvature="0"
       sodipodi:nodetypes="cccc" />
    <path
       style="display:inline;opacity:1;vector-effect:none;fill:none;fill-opacity:1;stroke:#c0c0c0;stroke-width:0.37795275;stroke-linecap:round;stroke-linejoin:round;stroke-miterlimit:4;stroke-dasharray:none;stroke-dashoffset:0;stroke-opacity:1"
       d="m 678.49023,770.43571 22.67048,-30.06169 c 5.80872,-8.2344 12.4355,-18.9918 13.78257,-29.09653 l 13.37612,-65.23205"
       id="path957-8"
       inkscape:connector-curvature="0"
       sodipodi:nodetypes="cccc" />
    <path
       style="display:inline;opacity:1;vector-effect:none;fill:none;fill-opacity:1;stroke:#c0c0c0;stroke-width:0.37795275;stroke-linecap:round;stroke-linejoin:round;stroke-miterlimit:4;stroke-dasharray:none;stroke-dashoffset:0;stroke-opacity:1"
       d="m 723.53851,609.38956 c -6.41669,-2.44837 -12.58534,-1.95088 -17.87262,0.0803"
       id="path902"
       inkscape:connector-curvature="0"
       sodipodi:nodetypes="cc" />
    <path
       style="display:inline;opacity:1;vector-effect:none;fill:none;fill-opacity:1;stroke:#c0c0c0;stroke-width:0.37795275;stroke-linecap:round;stroke-linejoin:round;stroke-miterlimit:4;stroke-dasharray:none;stroke-dashoffset:0;stroke-opacity:1"
       d="m 670.75484,542.41573 18.09924,-2.6298 c 15.56288,-2.66199 26.96915,2.98922 28.15438,29.08254 0.26633,27.9188 6.14609,28.63406 11.60208,31.40296"
       id="path906"
       inkscape:connector-curvature="0"
       sodipodi:nodetypes="cccc" />
    <path
       style="display:inline;opacity:1;vector-effect:none;fill:none;fill-opacity:1;stroke:#c0c0c0;stroke-width:0.37795275;stroke-linecap:round;stroke-linejoin:round;stroke-miterlimit:4;stroke-dasharray:none;stroke-dashoffset:0;stroke-opacity:1"
       d="m 680.50058,551.69739 c -1.31398,2.56825 0.67327,7.91936 3.55798,7.88942 3.41907,-0.0355 6.18426,-6.78756 4.02205,-9.43636 -1.63071,-1.99769 -6.40547,-0.7488 -7.58003,1.54694 z"
       id="path908"
       inkscape:connector-curvature="0"
       sodipodi:nodetypes="ssss" />
    <path
       style="display:inline;opacity:1;vector-effect:none;fill:none;fill-opacity:1;stroke:#c0c0c0;stroke-width:0.37795275;stroke-linecap:round;stroke-linejoin:round;stroke-miterlimit:4;stroke-dasharray:none;stroke-dashoffset:0;stroke-opacity:1"
       d="M 626.23828,1006.1898 H 761.71484"
       id="path941"
       inkscape:connector-curvature="0" />
    <path
       style="display:inline;opacity:1;vector-effect:none;fill:none;fill-opacity:1;stroke:#c0c0c0;stroke-width:0.37795275;stroke-linecap:round;stroke-linejoin:round;stroke-miterlimit:4;stroke-dasharray:none;stroke-dashoffset:0;stroke-opacity:1"
       d="m 642.69727,999.11555 h 5.1628 v 6.91925"
       id="path945"
       inkscape:connector-curvature="0" />
    <path
       style="display:inline;opacity:1;vector-effect:none;fill:none;fill-opacity:1;stroke:#c0c0c0;stroke-width:0.37795275;stroke-linecap:round;stroke-linejoin:round;stroke-miterlimit:4;stroke-dasharray:none;stroke-dashoffset:0;stroke-opacity:1"
       d="m 734.48828,995.67024 h -5.10427 v 10.41026"
       id="path947"
       inkscape:connector-curvature="0"
       sodipodi:nodetypes="ccc" />
    <path
       style="display:inline;opacity:1;vector-effect:none;fill:none;fill-opacity:1;stroke:#c0c0c0;stroke-width:0.37795281;stroke-linecap:round;stroke-linejoin:round;stroke-miterlimit:4;stroke-dasharray:none;stroke-dashoffset:0;stroke-opacity:1"
       d="m 806.14611,974.59927 c -1.22848,1.19257 -2.60549,2.3342 -4.11466,3.39037 -0.66849,0.46782 -1.34403,0.90519 -2.02257,1.31292"
       id="path978-8"
       inkscape:connector-curvature="0"
       sodipodi:nodetypes="csc" />
  </g>
</svg>
