<?xml version="1.0" encoding="UTF-8" standalone="no"?>
<!-- Created with Inkscape (http://www.inkscape.org/) -->

<svg
   xmlns:dc="http://purl.org/dc/elements/1.1/"
   xmlns:cc="http://creativecommons.org/ns#"
   xmlns:rdf="http://www.w3.org/1999/02/22-rdf-syntax-ns#"
   xmlns:svg="http://www.w3.org/2000/svg"
   xmlns="http://www.w3.org/2000/svg"
   xmlns:sodipodi="http://sodipodi.sourceforge.net/DTD/sodipodi-0.dtd"
   xmlns:inkscape="http://www.inkscape.org/namespaces/inkscape"
   width="297mm"
   height="210mm"
   id="svg2"
   version="1.1"
   inkscape:version="0.92.3 (2405546, 2018-03-11)"
   sodipodi:docname="StretchLimousine-undecorated-d-2.svg"
   inkscape:export-filename="/home/christian/SportsCar.svg.png"
   inkscape:export-xdpi="138.06"
   inkscape:export-ydpi="138.06">
  <defs
     id="defs4" />
  <sodipodi:namedview
     id="base"
     pagecolor="#ffffff"
     bordercolor="#666666"
     borderopacity="1.0"
     inkscape:pageopacity="0.0"
     inkscape:pageshadow="2"
     inkscape:zoom="0.70710678"
     inkscape:cx="883.05693"
     inkscape:cy="564.06982"
     inkscape:document-units="mm"
     inkscape:current-layer="Mask"
     showgrid="false"
     units="mm"
     inkscape:window-width="1920"
     inkscape:window-height="1080"
     inkscape:window-x="1920"
     inkscape:window-y="0"
     inkscape:window-maximized="0"
     inkscape:snap-global="false"
     showguides="false" />
  <metadata
     id="metadata7">
    <rdf:RDF>
      <cc:Work
         rdf:about="">
        <dc:format>image/svg+xml</dc:format>
        <dc:type
           rdf:resource="http://purl.org/dc/dcmitype/StillImage" />
        <dc:title />
      </cc:Work>
    </rdf:RDF>
  </metadata>
  <g
     inkscape:label="Mask"
     inkscape:groupmode="layer"
     id="Mask"
     style="display:inline;opacity:1"
     transform="translate(0,-328.81888)">
    <ellipse
       style="display:inline;opacity:1;fill:#ffffff;fill-opacity:1;stroke:#808080;stroke-width:0.75590551;stroke-linecap:round;stroke-linejoin:round;stroke-miterlimit:4;stroke-dasharray:none;stroke-dashoffset:0;stroke-opacity:1"
       id="path973-6-7-5-6"
       cx="194.74532"
       cy="794.23163"
       rx="39.879547"
       ry="39.879612" />
    <ellipse
       style="display:inline;opacity:1;fill:#ffffff;fill-opacity:1;stroke:#808080;stroke-width:0.75590551;stroke-linecap:round;stroke-linejoin:round;stroke-miterlimit:4;stroke-dasharray:none;stroke-dashoffset:0;stroke-opacity:1"
       id="path973-3-0-4-7-8"
       cx="903.08984"
       cy="794.23163"
       rx="39.879547"
       ry="39.879612" />
    <path
       style="display:inline;opacity:1;fill:#ffffff;fill-opacity:1;stroke:#808080;stroke-width:0.75590551;stroke-linecap:round;stroke-linejoin:round;stroke-miterlimit:4;stroke-dasharray:none;stroke-opacity:1"
       d="m 147.95392,803.55776 -55.872743,-9.69279 c -5.995171,-0.41715 -7.569722,-6.6965 -8.083903,-11.47341 l -1.608212,-19.2505 c -0.329748,-6.38351 6.868542,-5.91883 11.316951,-6.45676 l 5.300195,-27.8341 c 1.315842,-6.93228 6.826772,-13.49667 14.625592,-16.25115 36.60794,-12.92972 104.06221,-10.10605 145.2011,-17.99102 25.91335,-26.05604 60.53883,-52.93952 102.35301,-73.48487 6.12535,-3.00968 18.09212,-2.84277 44.52651,-2.84277 h 408.56832 c 38.22277,0 63.68036,22.28481 95.24292,51.87283 l 17.26804,16.18783 65.29912,6.04779 c 10.27788,0.95186 23.38908,8.45415 24.68268,18.69016 l 5.7634,45.6053 c 3.7394,0.57753 7.5423,0.91689 7.0871,6.45676 l -1.4696,23.05984 c -0.5823,5.2325 -4.1195,9.33656 -8.3947,9.91657 l -72.73927,7.44029 c 5.84548,-23.96648 -11.82683,-54.08375 -44.81191,-53.97108 -32.98504,0.11277 -48.4205,30.03717 -43.45093,54.5105 l -619.46855,-0.53942 c 1.77024,-15.92461 -3.36637,-54.06011 -43.67679,-53.97504 -40.31043,0.0851 -47.74782,35.66309 -47.65833,53.97504 z"
       id="path940-9-5-9-5"
       inkscape:connector-curvature="0"
       sodipodi:nodetypes="ccccccscscsscsscccccccczc" />
  </g>
  <g
     inkscape:groupmode="layer"
     id="layer1"
     inkscape:label="Overlay"
     style="display:inline"
     transform="translate(0,-328.81888)">
    <ellipse
       style="display:inline;opacity:1;fill:none;fill-opacity:1;stroke:#c0c0c0;stroke-width:0.37795275;stroke-linecap:round;stroke-linejoin:round;stroke-miterlimit:4;stroke-dasharray:none;stroke-dashoffset:0;stroke-opacity:1"
       id="path946-7-3-3-6"
       cx="194.74532"
       cy="794.23163"
       rx="22.187523"
       ry="22.187471" />
    <path
       style="display:inline;opacity:1;fill:none;stroke:#c0c0c0;stroke-width:0.37795275;stroke-linecap:round;stroke-linejoin:round;stroke-miterlimit:4;stroke-dasharray:none;stroke-opacity:1"
       d="m 258.8989,694.49386 c 9.93287,-0.0207 12.69491,1.66927 18.16357,-4.67564 33.86236,-39.288 81.08012,-60.67154 82.81189,-62.3485 2.53989,-2.45959 0.76007,-3.37946 -1.1635,-5.0183"
       id="path989-7-8-7-9"
       inkscape:connector-curvature="0"
       sodipodi:nodetypes="cssc" />
    <path
       style="display:inline;opacity:1;fill:none;stroke:#c0c0c0;stroke-width:0.37795275;stroke-linecap:round;stroke-linejoin:round;stroke-miterlimit:4;stroke-dasharray:none;stroke-opacity:1"
       d="m 295.31355,688.30909 v 2.29772 c 0.0711,2.51259 0.92622,4.13035 3.50763,3.7757 h 112.21683 c 1.46745,-0.0892 2.5561,-0.42732 3.14786,-2.09775 l 12.33448,-64.49403 c 0.14837,-1.20392 -0.35018,-2.08832 -2.80273,-2.27846 h -41.01607 c -2.20237,0 -6.19937,1.01824 -7.90567,2.00292 -20.91222,12.06847 -67.29093,43.27633 -77.21379,56.40843 -0.91647,1.08785 -2.16276,2.39197 -2.26854,4.38547 z"
       id="path999-5-6-4-2"
       inkscape:connector-curvature="0"
       sodipodi:nodetypes="cccccccsscc" />
    <ellipse
       style="display:inline;opacity:1;fill:none;fill-opacity:1;stroke:#c0c0c0;stroke-width:0.37795275;stroke-linecap:round;stroke-linejoin:round;stroke-miterlimit:4;stroke-dasharray:none;stroke-dashoffset:0;stroke-opacity:1"
       id="path946-6-7-3-5-5"
       cx="903.08984"
       cy="794.23163"
       rx="22.187523"
       ry="22.187471" />
    <path
       style="display:inline;opacity:1;fill:none;stroke:#c0c0c0;stroke-width:0.37795275;stroke-linecap:round;stroke-linejoin:round;stroke-miterlimit:4;stroke-dasharray:none;stroke-opacity:1"
       d="m 375.25134,718.69157 h 29.48069 c 0.10859,-1.51832 -1.22272,-5.85278 -4.87649,-5.96364 h -19.23065 c -4.13388,0 -5.41482,4.65497 -5.37355,5.96364 z"
       id="path843-3-9-4-5-1"
       inkscape:connector-curvature="0"
       sodipodi:nodetypes="ccccc" />
    <path
       style="display:inline;opacity:1;vector-effect:none;fill:none;fill-opacity:1;stroke:#c0c0c0;stroke-width:0.37795275;stroke-linecap:round;stroke-linejoin:round;stroke-miterlimit:4;stroke-dasharray:none;stroke-dashoffset:0;stroke-opacity:1"
       d="m 433.06179,618.23335 c 2.20692,0.0364 4.81604,1.09257 4.28151,3.46437 -5.05489,26.66779 -9.57823,53.49481 -14.73195,80.14367 h 4.1e-4 c -6.76987,31.16132 -10.32324,69.91213 -8.07332,101.8417"
       id="path1206-7-7-6"
       inkscape:connector-curvature="0"
       sodipodi:nodetypes="ccccc" />
    <path
       style="display:inline;opacity:1;vector-effect:none;fill:none;fill-opacity:1;stroke:#c0c0c0;stroke-width:0.37795275;stroke-linecap:round;stroke-linejoin:round;stroke-miterlimit:4;stroke-dasharray:none;stroke-dashoffset:0;stroke-opacity:1"
       d="m 272.89452,693.63823 c -22.63366,36.2341 -15.53312,81.58701 -13.55728,109.70178"
       id="path1208-1-4-0"
       inkscape:connector-curvature="0"
       sodipodi:nodetypes="cc" />
    <path
       style="display:inline;opacity:1;vector-effect:none;fill:none;fill-opacity:1;stroke:#c0c0c0;stroke-width:0.37795275;stroke-linecap:round;stroke-linejoin:round;stroke-miterlimit:4;stroke-dasharray:none;stroke-dashoffset:0;stroke-opacity:1"
       d="m 359.68563,627.59422 11.64967,-6.94021 c 2.15407,-1.32735 4.03373,-1.5575 6.01089,-2.17744"
       id="path1210-3-9-4"
       inkscape:connector-curvature="0"
       sodipodi:nodetypes="ccc" />
    <path
       style="display:inline;opacity:1;vector-effect:none;fill:none;fill-opacity:1;stroke:#c0c0c0;stroke-width:0.37795275;stroke-linecap:round;stroke-linejoin:round;stroke-miterlimit:4;stroke-dasharray:none;stroke-dashoffset:0;stroke-opacity:1"
       d="m 95.443993,748.41114 c 12.584247,0.42203 29.912607,3.07896 40.629777,-2.01565 5.88699,-4.00461 4.4561,-24.46762 -4.67849,-25.28241 -9.65614,-0.88515 -19.61159,0.024 -29.53321,0.73071"
       id="path1212-9-1-3"
       inkscape:connector-curvature="0"
       sodipodi:nodetypes="cccc" />
    <path
       style="display:inline;opacity:1;vector-effect:none;fill:none;fill-opacity:1;stroke:#c0c0c0;stroke-width:0.37799999;stroke-linecap:round;stroke-linejoin:round;stroke-miterlimit:4;stroke-dasharray:none;stroke-dashoffset:0;stroke-opacity:1"
       d="m 445.55151,627.5471 -10.94031,64.65664 c -0.27243,1.73128 1.68852,2.17877 3.76741,2.17877 h 152.29461 c 1.38126,-0.0694 2.2333,-0.57431 2.33933,-1.89041 l 5.90789,-64.78594 c 0.23339,-1.16474 -1.01784,-2.19894 -2.9194,-2.19389 H 448.82831 c -1.94805,0.0976 -3.09286,0.8567 -3.2768,2.03483 z"
       id="path1214-8-9-1"
       inkscape:connector-curvature="0"
       sodipodi:nodetypes="ccccccccc" />
    <path
       style="display:inline;opacity:1;vector-effect:none;fill:none;fill-opacity:1;stroke:#c0c0c0;stroke-width:0.37795275;stroke-linecap:round;stroke-linejoin:round;stroke-miterlimit:4;stroke-dasharray:none;stroke-dashoffset:0;stroke-opacity:1"
       d="m 781.12588,627.5471 -3.08327,64.65664 c -0.0269,1.7183 1.68852,2.17877 3.76741,2.17877 h 104.52697 c 4.03532,0.0496 7.72375,-0.53488 7.60262,-4.59405 -2.99145,-32.71029 -42.32312,-64.27619 -74.50311,-64.27619 h -35.03382 c -1.94805,0.0976 -3.09287,0.8567 -3.2768,2.03483 z"
       id="path1214-1-1-9-5"
       inkscape:connector-curvature="0"
       sodipodi:nodetypes="cccccscc" />
    <path
       style="display:inline;opacity:1;vector-effect:none;fill:none;fill-opacity:1;stroke:#c0c0c0;stroke-width:0.37795275;stroke-linecap:round;stroke-linejoin:round;stroke-miterlimit:4;stroke-dasharray:none;stroke-dashoffset:0;stroke-opacity:1"
       d="m 881.50026,645.20043 c 25.02857,25.35492 28.82316,50.72164 28.91968,87.68819 -0.33372,8.76102 0.93069,10.76287 -9.51121,11.16043 -43.11682,4.45251 -48.85127,33.92868 -49.20989,59.72894"
       id="path1231-7-4-5"
       inkscape:connector-curvature="0"
       sodipodi:nodetypes="cccc" />
    <path
       style="display:inline;opacity:1;vector-effect:none;fill:none;fill-opacity:1;stroke:#c0c0c0;stroke-width:0.37795275;stroke-linecap:round;stroke-linejoin:round;stroke-miterlimit:4;stroke-dasharray:none;stroke-dashoffset:0;stroke-opacity:1"
       d="m 241.81397,697.17543 c 0.11107,4.43994 7.62604,4.64224 17.71208,4.66596 h 659.48544 c 18.24959,-0.15046 15.93003,-7.85975 16.16508,-14.63032"
       id="path1233-4-9-3"
       inkscape:connector-curvature="0"
       sodipodi:nodetypes="cccc" />
    <path
       style="display:inline;opacity:1;vector-effect:none;fill:none;fill-opacity:1;stroke:#c0c0c0;stroke-width:0.37795275;stroke-linecap:round;stroke-linejoin:round;stroke-miterlimit:4;stroke-dasharray:none;stroke-dashoffset:0;stroke-opacity:1"
       d="m 779.20593,618.19318 c -2.75434,0.20799 -4.79844,1.31139 -5.06268,3.15178 l -3.90397,80.47858 c -3.34255,39.94952 -3.02137,71.31346 -1.86643,102.3678"
       id="path1235-2-0-3"
       inkscape:connector-curvature="0"
       sodipodi:nodetypes="cccc" />
    <path
       style="display:inline;opacity:1;vector-effect:none;fill:none;fill-opacity:1;stroke:#c0c0c0;stroke-width:0.37795275;stroke-linecap:round;stroke-linejoin:round;stroke-miterlimit:4;stroke-dasharray:none;stroke-dashoffset:0;stroke-opacity:1"
       d="m 93.783756,756.70332 68.728184,5.36386"
       id="path1239-8-1-6"
       inkscape:connector-curvature="0"
       sodipodi:nodetypes="cc" />
    <path
       style="display:inline;opacity:1;vector-effect:none;fill:none;fill-opacity:1;stroke:#c0c0c0;stroke-width:0.37795275;stroke-linecap:round;stroke-linejoin:round;stroke-miterlimit:4;stroke-dasharray:none;stroke-dashoffset:0;stroke-opacity:1"
       d="m 1022.5895,756.65619 c -6.8898,-0.13715 -57.93886,4.44979 -85.9899,7.65324"
       id="path1241-5-1-5"
       inkscape:connector-curvature="0"
       sodipodi:nodetypes="cc" />
    <path
       style="display:inline;opacity:1;fill:none;stroke:#c0c0c0;stroke-width:0.37795275;stroke-linecap:round;stroke-linejoin:round;stroke-miterlimit:4;stroke-dasharray:none;stroke-opacity:1"
       d="m 864.20849,718.69157 h 29.48069 c 0.10859,-1.51832 -1.22272,-5.85278 -4.87649,-5.96364 h -19.23065 c -4.13388,0 -5.41482,4.65497 -5.37355,5.96364 z"
       id="path843-3-9-9-5-7-4"
       inkscape:connector-curvature="0"
       sodipodi:nodetypes="ccccc" />
    <path
       style="display:inline;opacity:1;vector-effect:none;fill:none;fill-opacity:1;stroke:#c0c0c0;stroke-width:0.37795275;stroke-linecap:round;stroke-linejoin:round;stroke-miterlimit:4;stroke-dasharray:none;stroke-dashoffset:0;stroke-opacity:1"
       d="m 1013.802,704.36753 c -4.6375,0.40773 -7.137,2.82004 -7.03,5.58022 l 1.8092,47.4318"
       id="path1258-2-8-9"
       inkscape:connector-curvature="0"
       sodipodi:nodetypes="ccc" />
    <path
       style="display:inline;opacity:1;vector-effect:none;fill:none;fill-opacity:1;stroke:#c0c0c0;stroke-width:0.37795275;stroke-linecap:round;stroke-linejoin:round;stroke-miterlimit:4;stroke-dasharray:none;stroke-dashoffset:0;stroke-opacity:1"
       d="m 607.40387,627.5471 -6.33488,64.65664 c -0.27243,1.73128 1.68852,2.17877 3.76741,2.17877 h 156.14406 c 1.3812,-0.0694 2.23328,-0.57431 2.33927,-1.89041 l 3.2473,-64.78594 c 0.23343,-1.16474 -1.06201,-2.19894 -2.9636,-2.19389 H 610.68067 c -1.94805,0.0976 -3.09286,0.8567 -3.2768,2.03483 z"
       id="path1214-8-9-8-3"
       inkscape:connector-curvature="0"
       sodipodi:nodetypes="ccccccccc" />
  </g>
</svg>
