<?xml version="1.0" encoding="UTF-8" standalone="no"?>
<!-- Created with Inkscape (http://www.inkscape.org/) -->

<svg
   xmlns:dc="http://purl.org/dc/elements/1.1/"
   xmlns:cc="http://creativecommons.org/ns#"
   xmlns:rdf="http://www.w3.org/1999/02/22-rdf-syntax-ns#"
   xmlns:svg="http://www.w3.org/2000/svg"
   xmlns="http://www.w3.org/2000/svg"
   xmlns:sodipodi="http://sodipodi.sourceforge.net/DTD/sodipodi-0.dtd"
   xmlns:inkscape="http://www.inkscape.org/namespaces/inkscape"
   width="297mm"
   height="210mm"
   id="svg2"
   version="1.1"
   inkscape:version="0.92.3 (2405546, 2018-03-11)"
   sodipodi:docname="SkiingChildTuck-undecorated-d-2.svg">
  <defs
     id="defs4" />
  <sodipodi:namedview
     id="base"
     pagecolor="#ffffff"
     bordercolor="#666666"
     borderopacity="1.0"
     inkscape:pageopacity="0.0"
     inkscape:pageshadow="2"
     inkscape:zoom="2.285496"
     inkscape:cx="1175.7794"
     inkscape:cy="-595.093"
     inkscape:document-units="mm"
     inkscape:current-layer="svg2"
     showgrid="false"
     units="mm"
     inkscape:window-width="1920"
     inkscape:window-height="1080"
     inkscape:window-x="1920"
     inkscape:window-y="0"
     inkscape:window-maximized="0"
     inkscape:snap-global="true" />
  <metadata
     id="metadata7">
    <rdf:RDF>
      <cc:Work
         rdf:about="">
        <dc:format>image/svg+xml</dc:format>
        <dc:type
           rdf:resource="http://purl.org/dc/dcmitype/StillImage" />
        <dc:title />
      </cc:Work>
    </rdf:RDF>
  </metadata>
  <g
     inkscape:label="Mask"
     inkscape:groupmode="layer"
     id="Mask"
     style="display:inline"
     transform="translate(0,-328.81888)">
    <path
       style="display:inline;opacity:1;vector-effect:none;fill:none;fill-opacity:1;stroke:#808080;stroke-width:0.75590551;stroke-linecap:round;stroke-linejoin:round;stroke-miterlimit:4;stroke-dasharray:none;stroke-dashoffset:0;stroke-opacity:1"
       d="m 633.07812,556.67252 c -4.39626,-0.002 -8.89307,0.55448 -13.3125,1.56836 -9.16614,2.1029 -17.99781,6.17633 -24.88671,11.33593 -11.6223,8.70495 -20.48983,27.67467 -16.11719,41.52149 0.17375,2.24014 -0.85268,5.29697 3.74805,4.33398 l -0.0937,1.47657 4.18554,20.42187 c 0.30319,1.02387 0.60697,1.50709 0.91016,1.80469 -0.76097,3.4511 -1.04289,6.71141 1.0293,9.2539 1.89955,2.33068 8.89648,1.48438 8.89648,1.48438 1.28524,3.61189 11.99956,19.14261 23.65039,19.08984 3.43128,-0.0154 7.43284,-0.66706 11.4668,-1.66015 2.95684,2.31192 4.91491,3.93339 7.80859,5.57812 l -0.91992,3.37891 c -2.72906,14.80184 4.69888,26.79467 17.42969,36.89844 l 0.006,1.83203 c -28.41197,0.0123 -48.54949,0.0208 -74.59375,0.0312 -4.23713,-2.52764 -11.48997,-5.69629 -18.19922,-6.36524 -5.71596,-0.56991 -20.4371,1.55555 -22.13672,1.80664 -1.94788,0.28776 -4.56857,1.30233 -4.61914,4.58204 h -1.26758 c -3.56471,0.16631 -4.45235,7.72299 0.18555,7.61328 h 9.88281 c -2.27539,0.86557 -2.50194,7.58068 3.79297,6.04296 -0.12572,2.9351 2.47685,5.48717 4.23242,4.73438 -0.53421,1.63753 3.026,4.60083 5.96484,4.12109 2.03212,4.81136 7.93863,2.10854 9.42579,1.67579 2.26053,-0.65783 2.55981,-0.66978 6.35156,-2.90626 25.68174,12.0852 56.97903,24.49483 83.13086,32.77149 17.11289,5.50741 30.12061,-1.63684 30.53515,-37.25977 16.14021,7.19456 33.86242,13.35818 49.52539,19.17969 -27.17566,16.33479 -50.78019,33.4146 -71.75976,51.93359 -9.06661,8.00326 -7.27744,27.9293 1.03515,48.0918 l 13.52735,42.77149 c -13.937,5.6239 -31.2392,5.35884 -39.19531,21.44921 v 3.34376 l -16.45899,0.36718 v 6.70703 H 454.44141 c -17.22854,0.8515 -24.91176,-11.56562 -30.91407,-19.5332 -5.19544,-6.89652 -15.9284,1.06113 -10.71679,7.81445 11.71654,15.18261 21.10137,24.13477 41.83007,24.13477 h 443.4375 V 925.68228 H 761.71484 v -10.51953 h -27.22656 c -6.83008,-17.6462 -11.09588,-35.63381 -14.51758,-52.67383 -0.87855,-4.37515 -6.21679,-28.88671 -6.21679,-28.88671 19.59897,-10.13874 38.55048,-18.65676 59.19921,-31.41993 18.84853,-11.65044 52.60247,-41.19447 35.3125,-78.88671 l 35.58204,0.10742 c 0.39323,8.48577 4.08274,14.73629 9.05078,15.33203 5.6492,0.66609 11.27528,-6.13038 13.10351,-15.82813 l 20.22266,-2.03711 0.0566,-3.39843 -19.70703,-2.08399 c -0.3356,-8.59692 -4.04747,-14.96531 -9.06836,-15.5625 -5.47744,-0.63855 -10.96055,5.74366 -12.94336,15.06641 l -40.92383,0.0254 c -2.44565,-3.78454 -5.4103,-7.63783 -8.97851,-11.55469 -26.248,-28.81263 -106.33221,-48.98254 -117.20508,-49.54492 -1.72946,-0.0894 -3.43957,-0.10267 -5.1211,-0.0566 5.49312,-4.50336 7.33369,-11.83772 8.18164,-19.43945 1.23466,-11.06862 0.50198,-23.52111 -2.53918,-35.27824 l 1.34207,-0.63762 c -1.12237,-4.14894 -3.46925,-10.37604 -5.17894,-14.20962 l -1.26879,0.48591 c -4.49583,-9.58411 -10.92297,-17.76304 -19.48797,-22.8995 -5.93142,-3.55709 -12.97757,-5.10665 -20.30469,-5.10937 z M 602.89453,722.8151 c 19.81627,0.0351 33.81837,0.0742 54.01172,0.10937 l 0.0566,16.45703 c -18.61223,-5.84345 -37.16741,-11.65638 -54.06836,-16.5664 z"
       id="path978"
       inkscape:connector-curvature="0"
       sodipodi:nodetypes="cccccccccccccccccscccccccccccccccccccccscscccccscscccccccccccccsccccsccccccc" />
  </g>
  <g
     inkscape:groupmode="layer"
     id="layer1"
     inkscape:label="Overlay"
     style="display:inline"
     transform="translate(0,-328.81888)">
    <path
       style="display:inline;opacity:1;vector-effect:none;fill:none;fill-opacity:1;stroke:#c0c0c0;stroke-width:0.37795275;stroke-linecap:round;stroke-linejoin:round;stroke-miterlimit:4;stroke-dasharray:none;stroke-dashoffset:0;stroke-opacity:1"
       d="m 582.21439,714.85639 c 5.4259,3.86637 14.81254,5.82834 20.82153,7.94544"
       id="path1205"
       inkscape:connector-curvature="0"
       sodipodi:nodetypes="cc" />
    <path
       style="display:inline;opacity:1;vector-effect:none;fill:none;fill-opacity:1;stroke:#c0c0c0;stroke-width:0.37795275;stroke-linecap:round;stroke-linejoin:round;stroke-miterlimit:4;stroke-dasharray:none;stroke-dashoffset:0;stroke-opacity:1"
       d="m 689.894,714.97418 113.74463,-0.0575"
       id="path1213"
       inkscape:connector-curvature="0"
       sodipodi:nodetypes="cc" />
    <path
       style="display:inline;opacity:1;vector-effect:none;fill:none;fill-opacity:1;stroke:#c0c0c0;stroke-width:0.37795275;stroke-linecap:round;stroke-linejoin:round;stroke-miterlimit:4;stroke-dasharray:none;stroke-dashoffset:0;stroke-opacity:1"
       d="m 689.73003,723.00495 118.53559,0.29062"
       id="path1215"
       inkscape:connector-curvature="0"
       sodipodi:nodetypes="cc" />
    <path
       style="display:inline;opacity:1;vector-effect:none;fill:none;fill-opacity:1;stroke:#c0c0c0;stroke-width:0.37795275;stroke-linecap:round;stroke-linejoin:round;stroke-miterlimit:4;stroke-dasharray:none;stroke-dashoffset:0;stroke-opacity:1"
       d="m 844.56246,714.89127 h 10.98785 c 2.82407,0.10054 2.70729,8.48106 0,8.51172 h -11.70265"
       id="path1217"
       inkscape:connector-curvature="0"
       sodipodi:nodetypes="cccc" />
    <path
       style="display:inline;opacity:1;vector-effect:none;fill:none;fill-opacity:1;stroke:#c0c0c0;stroke-width:0.37795275;stroke-linecap:round;stroke-linejoin:round;stroke-miterlimit:4;stroke-dasharray:none;stroke-dashoffset:0;stroke-opacity:1"
       d="m 594.79409,611.08185 7.93697,-3.15534 c 6.47772,-2.67103 12.70056,-3.50691 18.01714,-1.47304 m 11.64229,12.20863 c 1.57812,3.17523 2.95887,6.90647 4.20061,11.4447 5.6713,24.08808 10.89136,26.61337 16.20125,27.60875 4.93999,0.92604 15.36715,-1.71932 19.54163,-3.95514"
       id="path906-4-6"
       inkscape:connector-curvature="0"
       sodipodi:nodetypes="cccccsc" />
    <path
       style="display:inline;opacity:1;vector-effect:none;fill:none;fill-opacity:1;stroke:#c0c0c0;stroke-width:0.37795275;stroke-linecap:round;stroke-linejoin:round;stroke-miterlimit:4;stroke-dasharray:none;stroke-dashoffset:0;stroke-opacity:1"
       d="m 640.36319,672.88147 c 3.74705,-8.03719 9.67876,-12.36995 16.56415,-15.08561"
       id="path1334"
       inkscape:connector-curvature="0"
       sodipodi:nodetypes="cc" />
    <path
       style="display:inline;opacity:1;vector-effect:none;fill:none;fill-opacity:1;stroke:#c0c0c0;stroke-width:0.37795275;stroke-linecap:round;stroke-linejoin:round;stroke-miterlimit:4;stroke-dasharray:none;stroke-dashoffset:0;stroke-opacity:1"
       d="m 582.4775,615.40874 12.31659,-4.32689 c 2.04778,-0.43429 4.06953,1.14151 5.70408,3.7707 m 3.49605,15.98193 c -0.37316,3.4983 -1.62352,6.61748 -4.07778,8.49213 -3.73397,2.05879 -5.6882,-0.37994 -11.26564,0.63467 l -1.16021,-0.81215"
       id="path1398"
       inkscape:connector-curvature="0"
       sodipodi:nodetypes="ccccccc" />
    <path
       style="display:inline;opacity:1;vector-effect:none;fill:none;fill-opacity:1;stroke:#c0c0c0;stroke-width:0.37795275;stroke-linecap:round;stroke-linejoin:round;stroke-miterlimit:4;stroke-dasharray:none;stroke-dashoffset:0;stroke-opacity:1"
       d="m 672.80098,584.81982 -74.09972,30.8185 c -0.60339,0.36102 -0.67071,0.72203 -0.58164,1.08305 l 3.28157,14.43887 c 0.14285,0.45929 0.72134,0.53868 1.23042,0.2584 l 75.41672,-32.32071"
       id="path1400"
       inkscape:connector-curvature="0"
       sodipodi:nodetypes="cccccc" />
    <path
       style="display:inline;opacity:1;vector-effect:none;fill:none;fill-opacity:1;stroke:#c0c0c0;stroke-width:0.37795275;stroke-linecap:round;stroke-linejoin:round;stroke-miterlimit:4;stroke-dasharray:none;stroke-dashoffset:0;stroke-opacity:1"
       d="m 690.55572,687.29776 -0.99108,44.54072"
       id="path1402"
       inkscape:connector-curvature="0"
       sodipodi:nodetypes="cc" />
    <path
       style="display:inline;opacity:1;vector-effect:none;fill:none;fill-opacity:1;stroke:#c0c0c0;stroke-width:0.37795275;stroke-linecap:round;stroke-linejoin:round;stroke-miterlimit:4;stroke-dasharray:none;stroke-dashoffset:0;stroke-opacity:1"
       d="m 657.76051,676.46915 -0.88741,36.6897"
       id="path1404"
       inkscape:connector-curvature="0"
       sodipodi:nodetypes="cc" />
    <path
       style="display:inline;opacity:1;vector-effect:none;fill:none;fill-opacity:1;stroke:#c0c0c0;stroke-width:0.37795275;stroke-linecap:round;stroke-linejoin:round;stroke-miterlimit:4;stroke-dasharray:none;stroke-dashoffset:0;stroke-opacity:1"
       d="m 656.8791,714.99088 0.0272,7.93359"
       id="path1406"
       inkscape:connector-curvature="0" />
    <path
       style="display:inline;opacity:1;vector-effect:none;fill:none;fill-opacity:1;stroke:#c0c0c0;stroke-width:0.37795275;stroke-linecap:round;stroke-linejoin:round;stroke-miterlimit:4;stroke-dasharray:none;stroke-dashoffset:0;stroke-opacity:1"
       d="m 713.75391,833.60221 -0.61281,-4.14032"
       id="path1408"
       inkscape:connector-curvature="0"
       sodipodi:nodetypes="cc" />
    <path
       style="display:inline;opacity:1;vector-effect:none;fill:none;fill-opacity:1;stroke:#c0c0c0;stroke-width:0.37795275;stroke-linecap:round;stroke-linejoin:round;stroke-miterlimit:4;stroke-dasharray:none;stroke-dashoffset:0;stroke-opacity:1"
       d="m 739.09003,751.01817 9.47608,-6.63818"
       id="path1410"
       inkscape:connector-curvature="0" />
    <path
       style="display:inline;opacity:1;vector-effect:none;fill:none;fill-opacity:1;stroke:#c0c0c0;stroke-width:0.37795275;stroke-linecap:round;stroke-linejoin:round;stroke-miterlimit:4;stroke-dasharray:none;stroke-dashoffset:0;stroke-opacity:1"
       d="m 656.96285,739.3815 0.95236,2.36868"
       id="path1412"
       inkscape:connector-curvature="0"
       sodipodi:nodetypes="cc" />
    <path
       style="display:inline;opacity:1;vector-effect:none;fill:none;fill-opacity:1;stroke:#c0c0c0;stroke-width:0.37795275;stroke-linecap:round;stroke-linejoin:round;stroke-miterlimit:4;stroke-dasharray:none;stroke-dashoffset:0;stroke-opacity:1"
       d="M 626.23828,925.68211 H 761.71484"
       id="path941"
       inkscape:connector-curvature="0" />
    <path
       style="display:inline;opacity:1;vector-effect:none;fill:none;fill-opacity:1;stroke:#c0c0c0;stroke-width:0.37795275;stroke-linecap:round;stroke-linejoin:round;stroke-miterlimit:4;stroke-dasharray:none;stroke-dashoffset:0;stroke-opacity:1"
       d="m 642.69727,918.60786 h 5.1628 v 6.91925"
       id="path945"
       inkscape:connector-curvature="0" />
    <path
       style="display:inline;opacity:1;vector-effect:none;fill:none;fill-opacity:1;stroke:#c0c0c0;stroke-width:0.37795275;stroke-linecap:round;stroke-linejoin:round;stroke-miterlimit:4;stroke-dasharray:none;stroke-dashoffset:0;stroke-opacity:1"
       d="m 734.48828,915.16255 h -5.10427 v 10.41026"
       id="path947"
       inkscape:connector-curvature="0"
       sodipodi:nodetypes="ccc" />
    <path
       style="display:inline;opacity:1;vector-effect:none;fill:none;fill-opacity:1;stroke:#c0c0c0;stroke-width:0.37795275;stroke-linecap:round;stroke-linejoin:round;stroke-miterlimit:4;stroke-dasharray:none;stroke-dashoffset:0;stroke-opacity:1"
       d="m 537.33024,715.04552 h 9.6672 c 1.27491,-0.0298 2.87023,1.15821 2.76013,2.19052 -0.75623,2.69827 -2.3852,4.6469 -3.65645,5.43879"
       id="path1197"
       inkscape:connector-curvature="0"
       sodipodi:nodetypes="cccc" />
  </g>
  <path
     style="opacity:1;vector-effect:none;fill:none;fill-opacity:1;stroke:#c0c0c0;stroke-width:0.37795275;stroke-linecap:round;stroke-linejoin:round;stroke-miterlimit:4;stroke-dasharray:none;stroke-dashoffset:0;stroke-opacity:1"
     d="m 866.57418,386.56848 c 0.0711,3.19934 -0.0209,4.5515 -0.57223,7.51953"
     id="path1453"
     inkscape:connector-curvature="0"
     sodipodi:nodetypes="cc" />
</svg>
