<?xml version="1.0" encoding="UTF-8" standalone="no"?>
<!-- Created with Inkscape (http://www.inkscape.org/) -->

<svg
   xmlns:dc="http://purl.org/dc/elements/1.1/"
   xmlns:cc="http://creativecommons.org/ns#"
   xmlns:rdf="http://www.w3.org/1999/02/22-rdf-syntax-ns#"
   xmlns:svg="http://www.w3.org/2000/svg"
   xmlns="http://www.w3.org/2000/svg"
   xmlns:sodipodi="http://sodipodi.sourceforge.net/DTD/sodipodi-0.dtd"
   xmlns:inkscape="http://www.inkscape.org/namespaces/inkscape"
   width="297mm"
   height="210mm"
   id="svg2"
   version="1.1"
   inkscape:version="0.92.3 (2405546, 2018-03-11)"
   sodipodi:docname="SubcompactCar-undecorated.svg"
   inkscape:export-filename="/home/christian/SportsCar.svg.png"
   inkscape:export-xdpi="138.06"
   inkscape:export-ydpi="138.06">
  <defs
     id="defs4" />
  <sodipodi:namedview
     id="base"
     pagecolor="#ffffff"
     bordercolor="#666666"
     borderopacity="1.0"
     inkscape:pageopacity="0.0"
     inkscape:pageshadow="2"
     inkscape:zoom="1"
     inkscape:cx="613.83424"
     inkscape:cy="280.0155"
     inkscape:document-units="mm"
     inkscape:current-layer="layer1"
     showgrid="false"
     units="mm"
     inkscape:window-width="1920"
     inkscape:window-height="1080"
     inkscape:window-x="1920"
     inkscape:window-y="0"
     inkscape:window-maximized="0"
     inkscape:snap-global="false"
     showguides="true" />
  <metadata
     id="metadata7">
    <rdf:RDF>
      <cc:Work
         rdf:about="">
        <dc:format>image/svg+xml</dc:format>
        <dc:type
           rdf:resource="http://purl.org/dc/dcmitype/StillImage" />
        <dc:title />
      </cc:Work>
    </rdf:RDF>
  </metadata>
  <g
     inkscape:label="Mask"
     inkscape:groupmode="layer"
     id="Mask"
     style="display:inline;opacity:1"
     transform="translate(0,-328.81888)">
    <circle
       style="display:inline;opacity:1;fill:#ffffff;fill-opacity:1;stroke:#808080;stroke-width:0.75590551;stroke-linecap:round;stroke-linejoin:round;stroke-miterlimit:4;stroke-dasharray:none;stroke-dashoffset:0;stroke-opacity:1"
       id="path973"
       cx="453.36298"
       cy="835.84521"
       r="48.239628" />
    <circle
       style="display:inline;opacity:1;fill:#ffffff;fill-opacity:1;stroke:#808080;stroke-width:0.75590551;stroke-linecap:round;stroke-linejoin:round;stroke-miterlimit:4;stroke-dasharray:none;stroke-dashoffset:0;stroke-opacity:1"
       id="path973-3"
       cx="799.80927"
       cy="835.84521"
       r="48.239628" />
    <path
       style="display:inline;opacity:1;fill:#ffffff;fill-opacity:1;stroke:#808080;stroke-width:0.75590551;stroke-linecap:round;stroke-linejoin:round;stroke-miterlimit:4;stroke-dasharray:none;stroke-opacity:1"
       d="m 396.76609,847.12655 -48.42448,-0.29492 c -7.24875,-0.50461 -8.14997,-8.31995 -7.82962,-13.70184 l -5.85601,-50.97843 c 9.00832,-49.52199 70.5867,-59.54342 130.89089,-71.10672 28.709,-27.87255 85.75524,-71.75714 164.53162,-90.37468 10.99984,-2.88373 22.02154,-3.51056 33.36848,-4.19522 16.58589,-1.00078 33.66576,-1.12052 50.7293,-0.29973 52.46264,2.6745 67.54583,0.41094 125.78774,8.18054 5.17955,0.65559 34.86527,78.43102 34.86527,78.43102 16.17671,19.86071 20.6924,32.60988 22.63815,82.76995 -0.28341,11.33601 0.69064,22.87267 -0.36338,33.95788 -0.28076,3.20846 -1.25547,8.08618 -3.33301,15.61662 -2.39158,5.82943 -4.98089,11.29384 -10.15002,11.99549 H 852.9227 c 7.06775,-28.99065 -14.29994,-65.42146 -54.18238,-65.28512 -39.88243,0.13634 -58.54555,36.33387 -52.53681,65.93759 l -239.00346,-0.65247 c 2.14033,-19.26297 -4.07028,-65.39284 -52.80989,-65.28992 -48.7396,0.10296 -57.7322,43.1392 -57.62407,65.28992 z"
       id="path940"
       inkscape:connector-curvature="0"
       sodipodi:nodetypes="ccccccscccccccczcczcc" />
  </g>
  <g
     inkscape:groupmode="layer"
     id="layer1"
     inkscape:label="Overlay"
     style="display:inline"
     transform="translate(0,-328.81888)">
    <circle
       style="display:inline;opacity:1;fill:none;fill-opacity:1;stroke:#c0c0c0;stroke-width:0.4932045;stroke-linecap:round;stroke-linejoin:round;stroke-miterlimit:4;stroke-dasharray:none;stroke-dashoffset:0;stroke-opacity:1"
       id="path946"
       cx="453.36298"
       cy="835.84521"
       r="26.838659" />
    <path
       style="display:inline;opacity:1;fill:none;stroke:#c0c0c0;stroke-width:0.4932045;stroke-linecap:round;stroke-linejoin:round;stroke-miterlimit:4;stroke-dasharray:none;stroke-opacity:1"
       d="m 340.25367,830.07801 c 29.57968,-1.86022 33.84441,-19.57155 26.06751,-26.44028 l -29.34558,0.30575"
       id="path942"
       inkscape:connector-curvature="0"
       sodipodi:nodetypes="ccc" />
    <path
       style="display:inline;opacity:1;fill:none;stroke:#c0c0c0;stroke-width:0.4932045;stroke-linecap:round;stroke-linejoin:round;stroke-miterlimit:4;stroke-dasharray:none;stroke-opacity:1"
       d="m 337.81856,810.11139 31.48804,-0.60677"
       id="path944"
       inkscape:connector-curvature="0"
       sodipodi:nodetypes="cc" />
    <path
       style="display:inline;opacity:1;fill:none;stroke:#c0c0c0;stroke-width:0.4932045;stroke-linecap:round;stroke-linejoin:round;stroke-miterlimit:4;stroke-dasharray:none;stroke-opacity:1"
       d="m 338.72655,817.6419 29.55067,-0.90407"
       id="path947"
       inkscape:connector-curvature="0"
       sodipodi:nodetypes="cc" />
    <path
       style="display:inline;opacity:1;fill:none;stroke:#c0c0c0;stroke-width:0.4932045;stroke-linecap:round;stroke-linejoin:round;stroke-miterlimit:4;stroke-dasharray:none;stroke-opacity:1"
       d="m 339.58713,824.57096 21.40605,-0.32168"
       id="path949"
       inkscape:connector-curvature="0"
       sodipodi:nodetypes="cc" />
    <path
       style="display:inline;opacity:1;fill:none;stroke:#c0c0c0;stroke-width:0.4932045;stroke-linecap:round;stroke-linejoin:round;stroke-miterlimit:4;stroke-dasharray:none;stroke-opacity:1"
       d="m 889.58993,728.03836 -4.10274,0 c -2.84524,0.0791 -4.85026,3.31046 -4.84433,5.99773 v 20.6107 c 0.13949,2.99164 0.18226,7.81479 5.26204,7.81479 l 9.86896,0"
       id="path987"
       inkscape:connector-curvature="0"
       sodipodi:nodetypes="ccccsc" />
    <path
       style="display:inline;opacity:1;fill:none;stroke:#c0c0c0;stroke-width:0.4932045;stroke-linecap:round;stroke-linejoin:round;stroke-miterlimit:4;stroke-dasharray:none;stroke-opacity:1"
       d="m 465.03021,711.39819 c 11.78889,0.41724 30.45552,1.07099 42.0882,-13.43344 38.11474,-47.52409 111.60593,-69.69586 114.05506,-71.27739 3.44593,-2.22521 4.86929,-3.4218 1.60545,-4.40417"
       id="path989"
       inkscape:connector-curvature="0"
       sodipodi:nodetypes="cssc" />
    <path
       style="display:inline;opacity:1;fill:none;stroke:#c0c0c0;stroke-width:0.4932045;stroke-linecap:round;stroke-linejoin:round;stroke-miterlimit:4;stroke-dasharray:none;stroke-opacity:1"
       d="m 521.73784,694.24334 c -1.61672,1.43567 -2.62126,3.38132 -2.69143,5.38637 v 136.42408 c -0.20949,4.65522 1.78314,5.64023 4.15228,5.99774 H 690.75 l -0.1944,-103.48428 c 0.51911,-44.56526 3.65553,-67.72268 7.07368,-109.61006 -0.45,0.0547 0.72133,-2.78119 -3.25377,-2.9199 -19.50164,-0.68051 -31.80576,-1.08887 -50.85999,0.82266 -11.01485,1.10502 -19.16535,3.59808 -31.0846,9.12058 -36.15331,18.07526 -60.89222,32.77946 -90.69308,58.26281 z"
       id="path995"
       inkscape:connector-curvature="0"
       sodipodi:nodetypes="cccccccsscc" />
    <path
       style="display:inline;opacity:1;fill:none;stroke:#c0c0c0;stroke-width:0.4932045;stroke-linecap:round;stroke-linejoin:round;stroke-miterlimit:4;stroke-dasharray:none;stroke-opacity:1"
       d="m 536.56811,696.33329 v 21.87127 c 0.0864,3.03931 1.11988,4.99627 4.24104,4.56728 h 132.79741 c 1.77431,-0.10791 3.09067,-0.51692 3.80616,-2.5375 l 8.61338,-85.43859 c 0.17942,-1.45637 -1.78964,-2.78484 -4.76376,-2.75615 -14.94193,0.1441 -40.49009,-1.56586 -60.74687,6.88914 -26.93814,11.24374 -55.71489,29.66662 -81.20445,52.09978 -1.10816,1.31589 -2.61503,2.89339 -2.74291,5.30477 z"
       id="path999"
       inkscape:connector-curvature="0"
       sodipodi:nodetypes="ccccccsscc" />
    <path
       style="display:inline;opacity:1;fill:none;stroke:#c0c0c0;stroke-width:0.4932045;stroke-linecap:round;stroke-linejoin:round;stroke-miterlimit:4;stroke-dasharray:none;stroke-opacity:1"
       d="m 718.77789,629.91855 c -2.29725,-4e-5 -3.82483,1.89163 -3.93391,3.00004 l -2.29075,79.48787 c -0.22941,2.07652 0.71878,2.97616 2.30682,3.13315 46.61149,0.075 89.22297,-8.57474 129.33446,-9 3.72924,-0.0371 5.32627,-2.52517 5.075,-6.59339 l -21.67513,-60.6557 c -0.17417,-1.94789 -1.86651,-3.60098 -4.42065,-3.65826 -34.79456,-3.52914 -62.85072,-6.03013 -104.39584,-5.71371 z"
       id="path1009"
       inkscape:connector-curvature="0"
       sodipodi:nodetypes="ccccccccc" />
    <circle
       style="display:inline;opacity:1;fill:#ffffff;fill-opacity:1;stroke:#c0c0c0;stroke-width:0.4932045;stroke-linecap:round;stroke-linejoin:round;stroke-miterlimit:4;stroke-dasharray:none;stroke-dashoffset:0;stroke-opacity:1"
       id="path946-6"
       cx="799.80927"
       cy="835.84521"
       r="26.838659" />
    <path
       style="display:inline;fill:none;stroke:#c0c0c0;stroke-width:0.37795275;stroke-linecap:round;stroke-linejoin:round;stroke-miterlimit:4;stroke-dasharray:none;stroke-opacity:1"
       d="m 647.61067,746.1266 h 30.77311 c 0.11309,-2.09125 -1.2763,-8.06111 -5.09029,-8.21386 h -20.07364 c -4.31509,0 -5.65232,6.41139 -5.60918,8.21386 z"
       id="path843-3"
       inkscape:connector-curvature="0"
       sodipodi:nodetypes="ccccc" />
    <path
       style="display:inline;opacity:1;fill:none;stroke:#c0c0c0;stroke-width:0.4932045;stroke-linecap:round;stroke-linejoin:round;stroke-miterlimit:4;stroke-dasharray:none;stroke-opacity:1"
       d="m 335.15672,785.26862 c 14.06648,-2.59052 46.15447,-16.18647 40.7288,-29.84763 -6.25488,-2.64715 -16.09924,-3.83292 -24.31393,-4.31976"
       id="path942-3"
       inkscape:connector-curvature="0"
       sodipodi:nodetypes="ccc" />
  </g>
</svg>
